<svg xmlns="http://www.w3.org/2000/svg" xmlns:xlink="http://www.w3.org/1999/xlink" version="1.1" viewBox="160 160 844 240">
    <!-- Generator: Sketch 52.3 (67297) - http://www.bohemiancoding.com/sketch -->
    <title>/svg/logo_dark</title>
    <desc>Created with Sketch.</desc>
    <g id="logo_dark" stroke="none" stroke-width="1" fill="none" fill-rule="evenodd">
        <path d="M940,282 C953.870046,282 964,278 964,270 C964,260 944.151942,256.515154 928,252 C902.387542,244.840229 880,233.705451 880,206 C880,178 910.220922,160 940,160 C965.225439,160 986,168 1000,180 C996,184 980,200 974,206 C961.994784,197 948,196 940,196 C926,196 920,204 920,208 C920,218 936.424664,221.074505 954,226 C973.879362,231.571199 1004,240.000254 1004,268 C1004,296 976,320 940,320 C914.024784,320 886,308 876,296 C882,290 898,274 904,268 C916,280 930,282 940,282 Z M752,230 L752,316 L712,316 L712,180 L735.107684,177.689232 C747.393406,166.671871 764.089662,160 784,160 C827.764502,160 856,192.235498 856,232 L856,316 L816,316 L816,230 C816,212.326888 801.673112,198 784,198 C766.326888,198 752,212.326888 752,230 Z M571.004862,256 C576.997397,271.259548 591.304143,282 608,282 C618.026534,282 627.191439,278.126471 634.211432,271.726859 L668.525392,292.315235 C653.856096,309.271693 632.180913,320 608,320 C563.81722,320 528,284.18278 528,240 C528,195.81722 563.81722,160 608,160 C652.18278,160 688,195.81722 688,240 C688,245.479453 687.449116,250.830241 686.39971,256 L571.004862,256 Z M644.995138,224 C639.002603,208.740452 624.695857,198 608,198 C591.304143,198 576.997397,208.740452 571.004862,224 L644.995138,224 Z M462.806312,309.974321 C451.313058,316.36188 438.081393,320 424,320 C379.81722,320 344,284.18278 344,240 C344,195.81722 379.81722,160 424,160 C442.556973,160 459.638228,166.318297 473.20986,176.920986 L504,180 L504,320 C503.999773,320.110961 504,320.221976 504,320.333044 C504,364.331889 468.331889,400 424.333044,400 C402.333622,400 382.416883,391.082972 368,376.666089 L396.166522,348.499567 C403.374964,355.708008 413.333333,360.166522 424.333044,360.166522 C446.332467,360.166522 464.166522,342.332467 464.166522,320.333044 C464.166522,320.221923 464.166067,320.110907 464.165159,320 L464,320 L464,316.666219 C463.790786,314.373911 463.387359,312.137747 462.806312,309.974321 Z M424,282 C446.09139,282 464,263.195959 464,240 C464,216.804041 446.09139,198 424,198 C401.90861,198 384,216.804041 384,240 C384,263.195959 401.90861,282 424,282 Z M289.20986,176.920986 L320,180 L320,316 L280,316 L280,309.297424 C268.233083,316.104224 254.571495,320 240,320 C195.81722,320 160,284.18278 160,240 C160,195.81722 195.81722,160 240,160 C258.556973,160 275.638228,166.318297 289.20986,176.920986 Z M240,282 C262.09139,282 280,263.195959 280,240 C280,216.804041 262.09139,198 240,198 C217.90861,198 200,216.804041 200,240 C200,263.195959 217.90861,282 240,282 Z" id="agens" fill="#202024"/>
    </g>
</svg>