<svg xmlns="http://www.w3.org/2000/svg" width="138.898" height="19.531" viewBox="0 0 138.898 19.531"><defs><style>.a{fill:#00272e;}.b{fill:#1bebc2;}</style></defs><path class="a" d="M21.849,19.531h4.872L15.8,0H10.928L0,19.531H3.248l3.086-5.516H18.765ZM7.92,11.181,12.552,2.9l4.628,8.278Z"/><path class="b" d="M68.035,19.531V0H63.783V19.531Z"/><path class="a" d="M53.859,0h0L44.544,16.649,35.234,0H30.981V19.531h2.835V6.176l7.467,13.354h4.9L53.857,5.81V19.531h4.252V0Z"/><path class="a" d="M92.987,0h-20.7V2.835h8.224v16.7h4.252V2.835h8.224Z"/><rect class="a" width="18.7" height="2.835" transform="translate(97.246)"/><rect class="a" width="18.7" height="2.835" transform="translate(97.246 16.696)"/><rect class="a" width="13.036" height="2.835" transform="translate(101.499 8.348)"/><path class="a" d="M138.9,2.835V0H123.033A2.835,2.835,0,0,0,120.2,2.835V16.7a2.835,2.835,0,0,0,2.835,2.835H138.9V16.7H124.45V2.835Z"/></svg>