<svg width="160" height="25" viewBox="0 0 160 25" fill="none" xmlns="http://www.w3.org/2000/svg">
<path fill-rule="evenodd" clip-rule="evenodd" d="M18.8759 0.816406L37.7518 20.1208L33.4893 24.4801L18.8759 9.53493L4.2625 24.4801L0 20.1208L18.8759 0.816406Z" fill="#FB8CAF"/>
<path d="M50.291 22.9674H53.4196L55.7738 16.0614H64.1683L66.6464 22.9674H69.8679L61.2565 0H58.4687L50.291 22.9674ZM56.6411 13.527L59.8626 4.02326L63.27 13.527H56.6411Z" fill="#FB8CAF"/>
<path d="M72.0468 22.9991H74.9896V12.8618H77.7155L84.2204 22.9991H87.7207L81.1228 12.7984C85.0878 12.3866 87.38 10.0106 87.38 6.17745C87.38 2.31258 84.5921 0.0316786 79.9148 0.0316786H72.0468V22.9991ZM74.9896 10.3274V2.56602H79.9148C82.8265 2.56602 84.5302 3.89655 84.5302 6.17745C84.5302 8.77515 82.8265 10.3274 79.9148 10.3274H74.9896Z" fill="#FB8CAF"/>
<path d="M90.6204 22.9991H93.5631V0.0316786H90.6204V22.9991Z" fill="#FB8CAF"/>
<path d="M103.006 22.9991H105.949V2.56602H112.887V0.0316786H96.0363V2.56602H103.006V22.9991Z" fill="#FB8CAF"/>
<path d="M115.365 22.9991H118.277V4.40341L125.339 22.9991H127.415L134.632 3.92822V22.9991H137.575V0.0316786H133.083L126.392 17.8671L119.516 0.0316786H115.365V22.9991Z" fill="#FB8CAF"/>
<path d="M139.74 22.9674H142.869L145.223 16.0614H153.618L156.096 22.9674H159.317L150.706 0H147.918L139.74 22.9674ZM146.09 13.527L149.312 4.02326L152.719 13.527H146.09Z" fill="#FB8CAF"/>
</svg>
