<svg xmlns="http://www.w3.org/2000/svg" version="1.1" id="Layer_1" x="0" y="0" viewBox="0 0 142 59.2" style="enable-background:new 0 0 142 59.2" xml:space="preserve">
  <style>
    .st3{fill:#808285}
  </style>
  <path d="M30.9 43.2H17.6c-.3 0-.5.2-.5.5v7.7l3.2-3.6 2.3 2.5 2.2-2.5 2.3 2.5 2.1-2.4 2.1 2.3v-6.6c.1-.1-.2-.4-.4-.4m-3.2 7.4-1.8 2-.3.4-2.3-2.5-1.5 1.7-.7.8-2.3-2.5-1.7 1.8V57c0 .3.2.5.5.5h13.2c.3 0 .5-.2.5-.5v-5.5L30 53.1l-2.3-2.5z" style="fill:#0072bc"/>
  <path d="M46.9 50.1c-.4 0-.9-.1-1.3-.3-.4-.2-.8-.5-1.1-.7-.4-.3-.7-.5-1-.7-.3-.2-.6-.2-.8-.2-.4 0-.8.1-1 .4-.2.3-.4.8-.6 1.5h-1.3c.1-1 .5-1.8 1-2.4.5-.6 1.2-.8 2.1-.8.4 0 .8.1 1.2.3.4.2.8.5 1.1.7.4.3.7.5 1 .7.3.2.6.3.8.3.4 0 .8-.2 1-.5l.3-.6v-3.9c0-.3-.2-.5-.5-.5H34.7c-.3 0-.5.2-.5.5V57c0 .3.2.5.5.5h13.2c.3 0 .5-.2.5-.5v-7.3c-.4.3-.9.4-1.5.4m-.5 3.3c-.5.6-1.2.8-2.2.8-.4 0-.8-.1-1.2-.3-.4-.2-.8-.5-1.1-.7-.2-.2-.5-.4-.9-.6-.4-.2-.7-.3-.9-.3-.4 0-.8.2-1 .5-.2.3-.4.8-.5 1.5h-1.3c.1-1.1.4-1.9 1-2.5.5-.6 1.2-.9 2.1-.9.4 0 .9.1 1.3.3.4.2.8.5 1.1.7.2.2.5.4.8.6.4.2.7.3 1 .3.4 0 .8-.1 1-.4.2-.3.4-.8.6-1.5h1.3c-.2 1.2-.6 2-1.1 2.5" style="fill:#f58345"/>
  <path d="M2.4 50.4c0-1.5-1-2.8-2.4-3.2v6.4c1.4-.3 2.4-1.6 2.4-3.2m11.4-7.2H.6c-.6 0-.6.4-.6.4v1.8c.3.1.5.1.8.2l1.1-1.9 1.6.9-1.1 1.9.6.6L4.9 46l.9 1.6-1.9 1.1c.1.3.2.5.2.8h2.2v1.9H4.1c0 .3-.1.5-.2.8l1.9 1.1-.9 1.6L3 53.8l-.6.6 1.1 1.9-1.6.9-1.1-1.9c-.3.1-.5.2-.8.2v1.6s0 .4.5.4h13.3c.3 0 .5-.2.5-.5V43.8c0-.3-.3-.6-.5-.6" style="fill:#da2032"/>
  <path d="M8.7 14.5c-.9 1-2.3 1.1-3.6 1.1H.7c-.6 0-.7-.1-.7-.7V.8C0 .2.2.2.7.2h3c1 0 2.7-.1 3.7.4 1.2.6 1.5 2.1 1.5 3.4 0 1.5-.3 2.5-1.7 3.4 2 .5 2.4 1.9 2.4 3.8.1 1.1-.1 2.4-.9 3.3M6.5 2.8C6.1 1.9 5.2 2 4.4 2H2.3v5h1.6c2.3 0 2.9-.5 2.9-2.9-.1-.3-.1-.9-.3-1.3M6.2 9c-.7-.2-1.5-.2-2.2-.2H2.3v4.9h2c2 0 3.1-.3 3.1-2.6 0-.9-.1-1.8-1.2-2.1M20.3 15.6h-7.1c-.6 0-.7-.1-.7-.7V.8c0-.6.2-.6.7-.6h7.1c.8 0 .6.7.6 1.2s0 .7-.6.7c-1.8 0-3.7 0-5.5-.1v4.6c1.7 0 3.4-.1 5.1-.1.7 0 .6.6.6 1.1 0 .5 0 .7-.6.7-1.7 0-3.4 0-5-.1v5.4c1.8-.1 3.7-.1 5.6-.1.5 0 .6.3.6.7v.8c-.2.5-.3.6-.8.6M34.4 15.6H33c-.5 0-.8-.1-1.1-.5l-4-5.4h-1.3v5.2c0 .5-.1.7-.6.7h-1c-.6 0-.7-.1-.7-.7V.8c0-.6.2-.6.7-.6h4.2c1.5 0 2.6-.1 3.7 1 .9 1 1.1 2.9 1.1 4.3 0 2.4-.8 4.1-3.4 4.2l4 5.1c.1.1.2.3.2.5s-.2.3-.4.3M31.3 2.4c-.4-.2-1.3-.2-1.8-.2h-2.6v5.5h3c1.9 0 2.2-.7 2.2-2.5 0-.7 0-2.4-.8-2.8M46.8 15.5c-1 .3-2.4.4-3.5.4-.9 0-1.8-.1-2.7-.3-3.4-.9-3.6-4.7-3.6-7.6 0-2.5.1-6.4 2.8-7.6 1-.4 2.3-.5 3.4-.5s2.2.1 3.3.2c.3 0 .8 0 .8.4v.8c0 .4 0 .8-.5.8s-1-.1-1.5-.1h-1.8c-.7 0-2 .1-2.7.4-1.8.8-1.7 4.1-1.7 5.7 0 2 0 5.2 2.5 5.7.6.1 1.2.1 1.8.1.5 0 1-.1 1.5-.2V8.4h-2.7c-.7 0-.6-.6-.6-1.1 0-.5 0-.7.6-.7h4.4c.5 0 .6.2.6.6v7.4c.3.6.1.7-.4.9M58.9 15.6h-7.1c-.6 0-.7-.1-.7-.7V.8c0-.6.2-.6.7-.6h7.1c.8 0 .6.7.6 1.2s0 .7-.6.7c-1.8 0-3.7 0-5.5-.1v4.6c1.7 0 3.4-.1 5.1-.1.7 0 .6.6.6 1.1 0 .5 0 .7-.6.7-1.7 0-3.4 0-5-.1v5.4c1.8-.1 3.7-.1 5.6-.1.5 0 .6.3.6.7v.8c-.2.5-.4.6-.8.6M72.9 15.6c-.4 0-.6 0-.9-.3-.3-.3-.5-.8-.8-1.1-.6-.9-1.2-1.8-1.8-2.8-1.5-2.4-3.1-4.7-4.6-7.1V15c0 .5-.1.7-.6.7h-1c-.6 0-.7-.1-.7-.7V.8c0-.6.2-.6.7-.6h.6c.4 0 .6 0 .8.3.3.4.5.8.8 1.2l1.8 2.7c1.6 2.4 3.1 4.8 4.7 7.2V.8c0-.6.2-.6.7-.6h1c.5 0 .6.2.6.6V15c.1.8-.6.6-1.3.6M10.8 35c-.6 0-.9 0-1.3-.5-.3-.3-.5-.6-.7-1-.6-.8-1.1-1.5-1.6-2.3-1.4-2-2.8-4.1-4.2-6.1V34c0 1.2-1.1 1-1.9 1-.7 0-1.1-.2-1.1-1V20.5c0-1.1.9-.9 1.7-.9.6 0 .8 0 1.2.5.3.3.5.6.7 1 .5.8 1.1 1.5 1.6 2.3 1.4 2.1 2.8 4.1 4.3 6.2v-9c0-1.2 1.2-.9 2.1-.9.7 0 1 .3 1 .9V34c-.1 1.2-.9 1-1.8 1M33 35h-7.1c-.8 0-1.1-.2-1.1-1v-4.1H20l-2 4.2c-.6 1.2-1 .9-2.2.9-.5 0-1-.2-1-.8 0-.2.2-.6.3-.8L20.7 22c.6-1.3 1.1-2.5 2.7-2.5H33c1.1 0 1 .7 1 1.6 0 .7-.2 1.1-1 1.1-1.7 0-3.5 0-5.2-.1v3.6c1.5 0 3.1-.1 4.7-.1 1 0 1 .6 1 1.4 0 .7-.2 1.1-1 1.1-1.5 0-3.1 0-4.7-.1v4.3c1.7 0 3.5-.1 5.2-.1 1.2 0 1 .9 1 1.7-.1.9-.4 1.1-1 1.1m-8.3-12.8H24c-.4 0-.4.1-.6.4L21 27.5h3.6v-5.3zM47.6 35h-1.4c-.6 0-1-.1-1.4-.6l-3.9-5h-.7V34c0 1.2-1 1-2 1-.8 0-1.1-.2-1.1-1V20.5c0-.8.4-.9 1.1-.9h4.3c1.5 0 2.8-.1 4 1.1 1 1.1 1.2 2.9 1.2 4.3 0 2.2-.7 4-3.1 4.3l3.5 4.3c.2.2.3.5.3.8.1.5-.3.6-.8.6M44 22.4c-.4-.2-1.3-.2-1.8-.2h-2v4.5h2.6c1.6 0 1.8-.5 1.8-2 0-.5 0-2-.6-2.3M53.2 35h-1c-.8 0-1.1-.2-1.1-1V20.5c0-.8.4-.9 1.1-.9h1c.6 0 1 .3 1 .9V34c0 .7-.3 1-1 1M69 35c-.6 0-.9 0-1.3-.5-.3-.3-.5-.6-.7-1-.6-.8-1.1-1.5-1.6-2.3-1.4-2-2.8-4.1-4.2-6.1V34c0 1.2-1.1 1-1.9 1-.8 0-1.1-.2-1.1-1V20.5c0-1.1.9-.9 1.7-.9.6 0 .8 0 1.2.5.3.3.5.6.7 1 .5.8 1.1 1.5 1.6 2.3 1.4 2.1 2.8 4.1 4.3 6.2v-9c0-1.2 1.2-.9 2.1-.9.7 0 1 .3 1 .9V34c-.1 1.2-.9 1-1.8 1M84.2 34.9c-1.1.3-2.5.4-3.7.4-5.6 0-6.7-2.7-6.7-7.8 0-2.6.2-6.3 3-7.5 1.1-.5 2.5-.5 3.6-.5s2.3 0 3.4.2c.6.1 1.2.1 1.2.8v.8c0 .7-.1 1.1-.9 1.1-1.1 0-2.2-.2-3.3-.2-.7 0-1.9 0-2.5.3-1.6.7-1.4 3.7-1.4 5.1 0 1.8-.1 4.6 2.1 5 .6.1 1.2.1 1.8.1.4 0 .7-.1 1.1-.1v-4.3h-2.2c-1 0-1-.6-1-1.4 0-.7.2-1.1 1-1.1H84c.7 0 1 .3 1 1v7c.2.6-.1.9-.8 1.1M97.4 33.5c-.9 1.6-3.2 1.7-4.8 1.7-1.1 0-2.3 0-3.4-.2-.5 0-1.2 0-1.2-.7v-.8c0-.7.1-1.1.9-1.1 1.4 0 2.7.2 4.1.2 1.4 0 1.8 0 1.8-1.5 0-.4.1-1.4-.3-1.7-.1-.2-.4-.2-.6-.3-1-.4-1.9-.8-2.9-1.2-2.5-1.1-2.9-1.5-2.9-4.3 0-1.9.4-3.1 2.3-3.8 1-.3 2.2-.4 3.2-.4.9 0 1.8 0 2.6.1.6 0 1.2.1 1.2.8v.8c0 .7-.1 1.1-.9 1.1-.5 0-1-.1-1.5-.1h-2.7c-1.3 0-1.2.6-1.2 1.7 0 .8 0 1 .8 1.4.6.3 1.3.5 1.9.8.7.3 1.5.6 2.2 1 1.5.8 1.7 1.7 1.7 3.3.1.9.1 2.4-.3 3.2M111.2 35.1h-1.4c-.6 0-1-.1-1.4-.6l-3.9-5h-.7V34c0 1.2-1 1-2 1-.8 0-1.1-.2-1.1-1V20.6c0-.8.4-.9 1.1-.9h4.3c1.5 0 2.8-.1 4 1.1 1 1.1 1.2 2.9 1.2 4.3 0 2.2-.7 4-3.1 4.3l3.5 4.3c.2.2.3.5.3.8 0 .4-.4.6-.8.6m-3.7-12.7c-.4-.2-1.3-.2-1.8-.2h-2v4.5h2.6c1.6 0 1.8-.5 1.8-2 0-.4 0-1.9-.6-2.3M127.1 35h-1.3c-.6 0-.9-.3-1.1-.8l-1-2.9h-5.4l-.9 2.7c-.4 1.2-1 1-2.2 1-.4 0-.9 0-.9-.6 0-.2.1-.5.2-.7l4.7-13.2c.5-1.3 1.1-1 2.3-1 .8 0 1.1.3 1.4 1l5 13.5c0 .1.1.2.1.3-.1.6-.5.7-.9.7m-6-15.1c-1.2 0-2.1-1-2.1-2.1 0-1.2.9-2.1 2.1-2.1 1.2 0 2.1 1 2.1 2.1-.1 1.1-1 2.1-2.1 2.1m-.1 3.6-1.8 5.5h3.7l-1.9-5.5zm.1-6.7c-.5 0-.9.4-.9.9s.4.9.9.9.9-.4.9-.9c0-.4-.4-.9-.9-.9M135.3 35h-4c-.8 0-1.1-.2-1.1-1V20.5c0-.8.5-.9 1.1-.9h4c1.2 0 2.5 0 3.6.5 2.9 1.1 3.1 4.8 3.1 7.4 0 5-1.2 7.5-6.7 7.5m2.1-12.4c-.6-.3-1.8-.3-2.5-.3-.6 0-1.1 0-1.6.1v9.9c.5 0 1.1.1 1.6.1.6 0 1.1 0 1.7-.1 1.5-.3 2-1.2 2.2-2.7.1-.7.1-1.4.1-2.1-.1-1.5.1-4.2-1.5-4.9"/>
  <path class="st3" d="M57.5 48.6c-.3.3-.6.4-1.3.4h-1.6c-.2 0-.3 0-.3-.2v-5.3c0-.2.1-.2.3-.2h1.1c.9 0 1.1 0 1.4.1.4.2.6.6.6 1.3 0 .6-.2 1-.6 1.2.7.2.9.6.9 1.4-.2.6-.3 1-.5 1.3m-.9-4.4c-.1-.2-.2-.3-.8-.3H55v1.9h1.1c.4-.1.6-.3.6-1 0-.3 0-.5-.1-.6m0 2.3c-.2 0-.4-.1-.8-.1h-.7v1.8h.8c.2 0 .5 0 .6-.1.4-.1.5-.4.5-.9 0-.3-.1-.6-.4-.7M61.8 47.3h-2.2c0 .5 0 .9.3 1.1.1.1.4.1.6.1.7 0 1.2-.2 1.3-.2.1 0 .1.1.1.3v.2c0 .2 0 .2-.2.3-.4.1-.9.1-1.3.1-.6 0-1.1-.2-1.3-.4-.3-.3-.4-.8-.4-1.7 0-.8.1-1.2.3-1.6.2-.4.7-.6 1.4-.6s1.1.2 1.3.6c.2.4.2 1 .2 1.4.1.3.1.4-.1.4m-1.3-1.8c-.7 0-.9.2-.9 1v.2h1.6v-.4c0-.6-.1-.8-.7-.8M65.2 45.7c-.6 0-.9.1-1.3.4v2.7c0 .2 0 .2-.2.2h-.3c-.3 0-.3 0-.3-.2v-3.5c0-.2 0-.2.2-.2h.4c.1 0 .2.1.2.2v.2c.3-.2.8-.5 1.2-.5.1 0 .2.1.2.2v.3c.1.1.1.2-.1.2M69.3 50.2c-.2.4-.7.6-1.4.6-.5 0-1.2-.1-1.6-.2-.1 0-.1-.1-.1-.2v-.3c0-.1 0-.2.1-.2s.8.2 1.6.2c.5 0 .7-.1.7-.5v-.7c-.4.1-.8.1-1.1.1-1 0-1.4-.6-1.4-2 0-.8.1-1.4.4-1.7.3-.4.7-.5 1.6-.5h1.2c.2 0 .2.1.2.3v4.3c0 .4-.1.6-.2.8m-.6-4.7h-.8c-.4 0-.6.1-.8.4-.1.2-.2.7-.2 1.1 0 .2 0 .5.1.7.1.5.2.7.7.7.3 0 .7-.1 1-.2v-2.7zM73.6 47.3h-2.2c0 .5 0 .9.3 1.1.1.1.4.1.6.1.7 0 1.2-.2 1.3-.2.1 0 .1.1.1.3v.2c0 .2 0 .2-.2.3-.4.1-.9.1-1.3.1-.6 0-1.1-.2-1.3-.4-.3-.3-.4-.8-.4-1.7 0-.8.1-1.2.3-1.6.2-.4.7-.6 1.4-.6s1.1.2 1.3.6c.2.4.2 1 .2 1.4.1.3.1.4-.1.4m-1.4-1.8c-.7 0-.9.2-.9 1v.2H73v-.4c0-.6-.2-.8-.8-.8M78 49h-.3c-.3 0-.3 0-.3-.2v-2.3c0-.4 0-.7-.1-.8-.1-.1-.2-.1-.4-.1-.5 0-.8.2-1.2.6v2.7c0 .2 0 .2-.2.2h-.3c-.3 0-.3 0-.3-.2v-3.5c0-.2 0-.2.2-.2h.4c.1 0 .2.1.2.2v.1c.3-.2.7-.5 1.3-.5.9 0 1.2.6 1.2 1.1v2.8c-.1 0-.1.1-.2.1M85.1 49.1h-1c-.2 0-.6 0-1-.1-1.1-.3-1.3-1.5-1.3-2.8 0-2.6.7-3 2.3-3h1c.2 0 .3 0 .3.2v.3c0 .2 0 .3-.2.3h-.9c-.3 0-.7 0-1 .1-.5.3-.6 1-.6 2.1s.1 1.9.9 2.1h1.6c.2 0 .2.1.2.3v.3c0 .1-.1.1-.3.2M89.5 49h-.3c-.3 0-.3 0-.3-.2v-2.3c0-.4 0-.7-.1-.8-.1-.1-.2-.1-.4-.1-.4 0-.8.2-1.2.5v2.8c0 .2 0 .2-.2.2h-.3c-.3 0-.3 0-.3-.2v-5.3c0-.2 0-.2.2-.2h.4c.1 0 .2.1.2.2v1.8c.3-.2.8-.4 1.3-.4.9 0 1.2.6 1.2 1.1v2.8s0 .1-.2.1M93.9 49h-.3c-.3 0-.3 0-.3-.2v-.2c-.5.4-.9.5-1.4.5-.7 0-1.1-.4-1.1-1.2 0-.6.2-1 .6-1.2.3-.1.9-.2 1.8-.2 0-.3 0-.6-.1-.8-.1-.1-.2-.2-.5-.2s-.9.1-1.3.2h-.1c-.1 0-.1-.1-.1-.2v-.3c0-.2 0-.2.1-.2.4-.1 1-.2 1.4-.2.3 0 .9.1 1.1.4.2.3.3.5.3 1.4v2.2c.1.1 0 .2-.1.2m-.6-1.8h-.6c-1 0-1.1.1-1.1.7 0 .5.1.7.4.7.3 0 .9-.2 1.3-.6v-.8zM100.1 49h-.3c-.3 0-.3 0-.3-.2v-2.3c0-.4 0-.7-.1-.8-.1-.1-.1-.1-.2-.1-.3 0-.8.4-1 .6v2.7c0 .2 0 .2-.2.2h-.3c-.3 0-.3 0-.3-.2v-2.3c0-.4 0-.7-.1-.8-.1-.1-.1-.1-.2-.1-.3 0-.8.4-1 .6V49c0 .2 0 .2-.2.2h-.3c-.3 0-.3 0-.3-.2v-3.5c0-.2 0-.2.2-.2h.4c.1 0 .2.1.2.2v.1c.3-.2.7-.5 1.3-.5.4 0 .6.2.8.6.2-.2.7-.6 1.4-.6.6 0 .8.4.8 1.1V49c-.1-.1-.1 0-.3 0M103.1 49.1c-.4 0-.9 0-1.3-.1-.2 0-.3-.1-.3-.2v-5.3c0-.2 0-.2.2-.2h.4c.1 0 .2.1.2.2V45c.3-.1.8-.1 1.2-.1 1 0 1.4.6 1.4 2.1s-.5 2.1-1.8 2.1m.9-3.1c-.1-.4-.2-.5-.7-.5-.3 0-.7.1-1 .1v2.7c.2 0 .6.1.9.1.5 0 .7-.2.8-.5.1-.2.1-.6.1-1.1 0-.2 0-.5-.1-.8M108.9 47.3h-2.2c0 .5 0 .9.3 1.1.1.1.4.1.6.1.7 0 1.2-.2 1.3-.2.1 0 .1.1.1.3v.2c0 .2 0 .2-.2.3-.4.1-.9.1-1.3.1-.6 0-1.1-.2-1.3-.4-.3-.3-.4-.8-.4-1.7 0-.8.1-1.2.3-1.6.2-.4.7-.6 1.4-.6s1.1.2 1.3.6c.2.4.2 1 .2 1.4.1.3.1.4-.1.4m-1.4-1.8c-.7 0-.9.2-.9 1v.2h1.6v-.4c.1-.6 0-.8-.7-.8M112.3 45.7c-.6 0-.9.1-1.3.4v2.7c0 .2 0 .2-.2.2h-.3c-.3 0-.3 0-.3-.2v-3.5c0-.2 0-.2.2-.2h.4c.1 0 .2.1.2.2v.2c.3-.2.8-.5 1.2-.5.1 0 .2.1.2.2v.3c.1.1.1.2-.1.2M119.3 48.6c-.3.4-.8.5-1.4.5-.6 0-1.1-.2-1.4-.5-.3-.4-.4-.8-.4-1.6s.1-1.2.4-1.6c.3-.4.8-.5 1.4-.5.6 0 1.1.2 1.4.5.3.4.4.8.4 1.6.1.8 0 1.2-.4 1.6m-.5-2.7c-.1-.3-.3-.4-.8-.4s-.7.1-.8.4c-.1.2-.2.6-.2 1.1 0 .5.1.9.2 1.1.1.3.3.4.8.4s.7-.1.8-.4c.1-.2.2-.6.2-1.1 0-.5-.1-.9-.2-1.1M123.2 43.8c0 .1 0 .1 0 0-.3.1-.3 0-.8 0-.2 0-.4 0-.4.1-.1.1-.1.2-.1.6v.5h.9c.2 0 .2 0 .2.2v.1c0 .3 0 .3-.2.3h-.9v3.1c0 .2 0 .2-.2.2h-.3c-.3 0-.3 0-.3-.2v-3.1h-.2c-.2 0-.2 0-.2-.2v-.2c0-.1.1-.2.2-.2h.2v-.4c0-.6.1-.8.2-.9.2-.3.6-.5 1.4-.5.5 0 .6 0 .6.2 0 0-.1.3-.1.4M57.4 57.6h-1c-.2 0-.6 0-1-.1-1.1-.3-1.3-1.5-1.3-2.8 0-2.6.7-3 2.3-3h1c.2 0 .3 0 .3.2v.3c0 .2 0 .3-.2.3h-.9c-.3 0-.7 0-1 .1-.5.3-.6 1-.6 2.1s.1 1.9.9 2.1h1.6c.2 0 .2.1.2.3v.3c0 .2-.1.2-.3.2M61.8 57.1c-.3.4-.7.5-1.4.5-.6 0-1.1-.2-1.4-.5-.3-.4-.4-.8-.4-1.6s.1-1.2.4-1.6c.3-.4.8-.5 1.4-.5.6 0 1.1.2 1.4.5.3.4.4.8.4 1.6s-.1 1.2-.4 1.6m-.6-2.7c-.1-.3-.3-.4-.8-.4s-.7.1-.8.4c-.1.2-.2.6-.2 1.1 0 .5.1.9.2 1.1.1.3.3.4.8.4s.7-.1.8-.4c.1-.2.2-.6.2-1.1 0-.5-.1-.9-.2-1.1M68 57.5h-.3c-.3 0-.3 0-.3-.2V55c0-.4 0-.7-.1-.8-.1-.1-.1-.1-.2-.1-.3 0-.8.4-1 .6v2.7c0 .2 0 .2-.2.2h-.3c-.3 0-.3 0-.3-.2V55c0-.4 0-.7-.1-.8-.1-.1-.2-.2-.3-.2-.3 0-.8.4-1 .6v2.7c0 .2 0 .2-.2.2h-.3c-.3 0-.3 0-.3-.2v-3.5c0-.2 0-.2.2-.2h.4c.1 0 .2.1.2.2v.1c.3-.2.7-.5 1.3-.5.4 0 .6.2.8.6.2-.2.7-.6 1.4-.6.6 0 .8.4.8 1.1v2.8c0 .2-.1.2-.2.2M74.1 57.5h-.3c-.3 0-.3 0-.3-.2V55c0-.4 0-.7-.1-.8-.1-.1-.1-.1-.2-.1-.3 0-.8.4-1 .6v2.7c0 .2 0 .2-.2.2h-.3c-.3 0-.3 0-.3-.2V55c0-.4 0-.7-.1-.8-.1-.1-.1-.2-.3-.2-.3 0-.8.4-1 .6v2.7c0 .2 0 .2-.2.2h-.3c-.3 0-.3 0-.3-.2v-3.5c0-.2 0-.2.2-.2h.4c.1 0 .2.1.2.2v.1c.3-.2.7-.5 1.3-.5.4 0 .6.2.8.6.3-.2.7-.6 1.4-.6.6 0 .8.4.8 1.1v2.8c0 .2 0 .2-.2.2M78.2 55.8H76c0 .5 0 .9.3 1.1.1.1.4.1.6.1.7 0 1.2-.2 1.3-.2.1 0 .1.1.1.3v.2c0 .2 0 .2-.2.3-.4.1-.9.1-1.3.1-.6 0-1.1-.2-1.3-.4-.3-.3-.4-.8-.4-1.7 0-.8.1-1.2.3-1.6.2-.4.7-.6 1.4-.6s1.1.2 1.3.6c.2.4.2 1 .2 1.4.1.3.1.4-.1.4m-1.4-1.7c-.7 0-.9.2-.9 1v.2h1.6v-.4c.1-.7 0-.8-.7-.8M81.5 54.2c-.6 0-.9.1-1.3.4v2.7c0 .2 0 .2-.2.2h-.3c-.3 0-.3 0-.3-.2v-3.5c0-.2 0-.2.2-.2h.4c.1 0 .2.1.2.2v.2c.3-.2.8-.5 1.2-.5.1 0 .2.1.2.2v.3c0 .1 0 .2-.1.2M84.7 57.6H84c-1.4 0-1.8-.4-1.8-2.1 0-1.7.3-2.1 1.8-2.1h.7c.3 0 .3 0 .3.2v.4c0 .1-.1.1-.1.1-.2 0-.8-.1-1.2-.1-.3 0-.5.1-.6.2-.1.3-.1 1-.1 1.3v.9c0 .4.2.6.7.6.4 0 1-.1 1.2-.1h.1s.1.3.1.5c-.1.1-.1.1-.4.2M88.7 55.8h-2.2c0 .5 0 .9.3 1.1.1.1.4.1.6.1.7 0 1.2-.2 1.3-.2.1 0 .1.1.1.3v.2c0 .2 0 .2-.2.2-.4.1-.9.1-1.3.1-.6 0-1.1-.2-1.3-.4-.3-.3-.4-.8-.4-1.7 0-.8.1-1.2.3-1.6.2-.4.7-.6 1.4-.6s1.1.2 1.3.6c.2.4.2 1 .2 1.4.1.4.1.5-.1.5M87.4 54c-.7 0-.9.2-.9 1v.2h1.6v-.4c.1-.6-.1-.8-.7-.8M95.6 57.5h-.3c-.3 0-.3 0-.3-.2v-.2c-.5.4-.9.5-1.4.5-.7 0-1.1-.4-1.1-1.2 0-.6.2-1 .6-1.2.3-.1.9-.2 1.8-.2 0-.3 0-.6-.1-.8 0-.1-.2-.2-.5-.2s-.9.1-1.3.2h-.1c-.1 0-.1-.1-.1-.2v-.3c0-.2 0-.2.1-.2.4-.1 1-.2 1.4-.2.3 0 .9.1 1.1.4.2.3.3.5.3 1.4v2.2c.1.2.1.2-.1.2m-.6-1.8h-.6c-1 0-1.1.1-1.1.7 0 .5.1.7.4.7.3 0 .9-.3 1.3-.6v-.8zM100.1 57.5h-.3c-.3 0-.3 0-.3-.2V55c0-.4 0-.7-.1-.8 0-.1-.1-.2-.4-.2-.5 0-.8.2-1.2.6v2.7c0 .2 0 .2-.2.2h-.3c-.3 0-.3 0-.3-.2v-3.5c0-.2 0-.2.2-.2h.4c.1 0 .2.1.2.2v.1c.3-.2.7-.5 1.3-.5.9 0 1.2.6 1.2 1.1v2.8c0 .2 0 .2-.2.2M104.6 57.5h-.3c-.3 0-.3 0-.3-.2-.5.3-.9.4-1.2.4-.9 0-1.4-.7-1.4-2 0-1.5.5-2.2 1.7-2.2.3 0 .7.1 1 .1V52c0-.2 0-.2.2-.2h.4c.1 0 .2.1.2.2v5.3c-.1.2-.2.2-.3.2m-.6-3.3c-.3-.1-.7-.2-1-.2-.2 0-.3 0-.4.1-.3.2-.4.7-.4 1.6 0 .5.1.8.2 1 .1.2.4.3.6.3.3 0 .7-.2 1.1-.5v-2.3zM109.1 57.5h-.4c-.2 0-.3 0-.3-.2V52c0-.2.1-.2.3-.2h.4c.2 0 .2.1.2.2v5.3c0 .2-.1.2-.2.2M113.8 57.5h-.3c-.3 0-.3 0-.3-.2V55c0-.4 0-.7-.1-.8-.1-.1-.2-.1-.4-.1-.5 0-.8.2-1.2.6v2.7c0 .2 0 .2-.2.2h-.3c-.3 0-.3 0-.3-.2v-3.5c0-.2 0-.2.2-.2h.4c.1 0 .2.1.2.2v.1c.3-.2.7-.5 1.3-.5.9 0 1.2.6 1.2 1.1v2.8c0 .1-.1.1-.2.1M118.3 57.5h-.3c-.3 0-.3 0-.3-.2-.5.3-.9.4-1.2.4-.9 0-1.4-.7-1.4-2 0-1.5.6-2.2 1.7-2.2.3 0 .7.1 1 .1V52c0-.2 0-.2.2-.2h.4c.1 0 .2.1.2.2v5.3c-.1.2-.2.2-.3.2m-.6-3.3c-.3-.1-.7-.2-1-.2-.2 0-.3 0-.4.1-.3.2-.4.7-.4 1.6 0 .5.1.8.2 1 .1.2.4.3.6.3.3 0 .7-.2 1.1-.5v-2.3zM122.7 57.5h-.4c-.1 0-.2-.1-.2-.2v-.1c-.3.2-.7.5-1.3.5-1 0-1.2-.6-1.2-1.1v-2.8c0-.2 0-.2.2-.2h.3c.3 0 .3 0 .3.2v2.3c0 .4 0 .7.1.8.1.1.2.1.4.1.5 0 .8-.2 1.2-.6v-2.7c0-.2 0-.2.2-.2h.3c.3 0 .3 0 .3.2v3.5c0 .3-.1.3-.2.3M125.4 57.6c-.6 0-.9 0-1.2-.1-.1 0-.1 0-.1-.3v-.3c0-.1 0-.1.1-.1s.6.1 1.3.1c.5 0 .6-.1.6-.5 0-.2 0-.3-.1-.4-.1-.1-.2-.1-.9-.3-.4-.1-.7-.3-.9-.4-.1-.1-.2-.4-.2-.7 0-.4.1-.7.3-.9.2-.2.5-.3 1.5-.3h.6c.2 0 .3 0 .3.3v.3c0 .1 0 .1-.2.1s-.5-.1-1.1-.1c-.6 0-.6 0-.6.5v.2c0 .1.1.2.8.4l.6.2c.6.2.7.4.7 1.1 0 1-.3 1.2-1.5 1.2M130 54.2h-.9v2.7c0 .1.1.2.3.2.2 0 .6-.1.7-.1.1 0 .1 0 .1.1v.3c0 .2 0 .2-.2.3h-.7c-.8 0-1-.2-1-1.2v-2.2h-.2c-.2 0-.2 0-.2-.2v-.2c0-.1.1-.2.2-.2h.2v-.8c0-.2 0-.2.2-.2h.4c.1 0 .2.1.2.2v.8h.9c.2 0 .2 0 .2.2v.1c0 .1 0 .2-.2.2M133.4 54.2c-.6 0-.9.1-1.3.4v2.7c0 .2 0 .2-.2.2h-.3c-.3 0-.3 0-.3-.2v-3.5c0-.2 0-.2.2-.2h.4c.1 0 .2.1.2.2v.2c.3-.2.8-.5 1.2-.5.1 0 .2.1.2.2v.3c0 .1 0 .2-.1.2M137.5 53.9l-1.8 5.2c-.1.1-.1.2-.3.2h-.4c-.1 0-.1 0-.1-.1 0 0 0-.1.1-.2l.7-1.6-1.4-3.7v-.1c0-.1.1-.1.2-.1h.4c.2 0 .3 0 .3.1l.9 2.8.9-2.7c.1-.2.1-.2.3-.2h.4c.1 0 .1 0 .1.1-.2.1-.2.1-.3.3"/>
</svg>
