<svg xmlns="http://www.w3.org/2000/svg" viewBox="0 0 86.57 23.14"><g id="Layer_2" data-name="Layer 2"><g id="Layer_1-2" data-name="Layer 1"><path d="M1.65,23.14A1.66,1.66,0,0,1,0,21.52V.05H20.27a6.18,6.18,0,0,1,6.17,6.18,6.26,6.26,0,0,1-1.93,4.48l-.58.55.7.39a6.13,6.13,0,0,1-3,11.49Zm4.27-14H18.41A2.05,2.05,0,0,0,20.55,7a2.06,2.06,0,0,0-2.14-2.14H5.92Zm16,7A2.17,2.17,0,0,0,19.75,14H5.92v4.28H19.75A2.14,2.14,0,0,0,21.89,16.09Z" style="fill:#002762"/><path d="M47.07,9.63l6.45-3c1.79-.86,1.93-1.51,1.93-3.76V0L37,8.6V1.67A1.71,1.71,0,0,0,35.35.05H31.46V23.14H37V14.33L42.09,12l8.75,11.19h6.79Z" style="fill:#002762"/><path d="M76,9.63l6.46-3c1.79-.86,1.92-1.51,1.92-3.76V0L65.93,8.6V1.67A1.71,1.71,0,0,0,64.29.05H60.4V23.14h5.53V14.33L71,12l8.75,11.19h6.79Z" style="fill:#002762"/></g></g></svg>