<?xml version="1.0" standalone="no"?>
<!DOCTYPE svg PUBLIC "-//W3C//DTD SVG 20010904//EN"
 "http://www.w3.org/TR/2001/REC-SVG-20010904/DTD/svg10.dtd">
<svg version="1.0" xmlns="http://www.w3.org/2000/svg"
 width="1200.000000pt" height="321.000000pt" viewBox="0 0 1200.000000 321.000000"
 preserveAspectRatio="xMidYMid meet">

<g transform="translate(0.000000,321.000000) scale(0.100000,-0.100000)"
fill="#002762" stroke="none">
<path d="M2 1683 l3 -1518 27 -46 c36 -61 104 -106 171 -114 29 -3 698 -5
1487 -3 1578 4 1467 0 1630 64 333 131 549 473 527 832 -8 128 -29 206 -87
327 -52 108 -126 204 -208 273 -44 37 -196 135 -227 146 -5 2 25 38 68 81 191
189 275 398 265 664 -4 107 -10 140 -37 221 -99 296 -342 512 -644 574 -67 14
-244 16 -1527 16 l-1450 0 2 -1517z m2684 825 c28 -15 70 -48 93 -74 127 -144
77 -387 -97 -467 -47 -22 -49 -22 -954 -25 l-908 -2 0 300 0 301 908 -3 907
-3 51 -27z m187 -1272 c71 -34 130 -105 152 -181 29 -99 -9 -230 -87 -300 -88
-80 -1 -75 -1120 -75 l-998 0 0 295 0 295 998 -2 997 -3 58 -29z"/>
<path d="M4360 1600 l0 -1600 385 0 385 0 0 613 0 612 278 127 c152 70 311
142 352 161 l75 34 605 -773 605 -774 468 0 c258 0 466 3 463 8 -2 4 -329 423
-725 932 -396 509 -720 929 -718 933 1 4 205 102 452 217 516 240 534 250 593
304 91 84 102 137 109 515 l6 294 -24 -6 c-13 -4 -588 -270 -1278 -592 -690
-322 -1256 -585 -1258 -585 -2 0 -3 218 -3 483 0 523 -2 543 -54 611 -14 19
-49 46 -78 60 l-52 26 -293 0 -293 0 0 -1600z"/>
<path d="M8372 1603 l3 -1598 383 -3 382 -2 0 612 0 613 343 158 c188 86 347
157 354 157 6 0 282 -346 613 -770 l602 -770 465 0 c301 0 463 3 461 10 -1 5
-325 424 -718 930 -393 506 -715 925 -715 931 0 5 189 97 420 204 537 249 558
260 620 317 72 65 93 118 105 265 14 170 13 543 -1 543 -7 0 -577 -264 -1268
-586 -691 -322 -1262 -588 -1268 -591 -10 -4 -13 97 -13 485 0 529 -1 537 -55
608 -13 17 -48 44 -77 58 l-52 26 -293 0 -293 0 2 -1597z"/>
</g>
</svg>
