<svg xmlns="http://www.w3.org/2000/svg" width="3613.25" height="898.678" viewBox="0 0 3613.25 898.678">
  <g id="Group_8666" data-name="Group 8666" transform="translate(-2027.54 -309.957)">
    <path id="Path_4905" data-name="Path 4905" d="M4482.7,604.525l-174.68,448.105-176-448.105h-137.33L4239.314,1183.7h124.82l244.709-579.172Zm-691.492,0V910.28c0,109.846-53.646,173.534-147.275,173.534S3496.65,1020.126,3496.65,910.28V604.525H3374.3V915.3c0,172.3,103.592,280.826,269.639,280.826S3913.572,1087.6,3913.572,915.3V604.525ZM2993.58,590.784A301.014,301.014,0,0,0,2861.447,621a293.954,293.954,0,0,0-164.9,266.82c0,148.6,138.563,320.817,257.131,320.817a87.642,87.642,0,0,0,73.65-41.225c48.713-73.642,98.65-116.012,172.211-148.517,68.709-29.95,87.377-59.9,87.377-136.008.008-164.813-128.514-292.1-293.326-292.1Zm129.842,388.2c-49.945,31.183-76.1,57.434-96.1,98.571a47.638,47.638,0,0,1-43.693,26.25c-79.9,0-170.979-104.913-170.979-197.23,0-103.592,76.109-181.021,179.7-181.021a177.931,177.931,0,0,1,177.258,178.608c-.008.8-.018,1.6-.025,2.414,0,32.408-11.187,51.171-46.158,72.408Zm-791.359-388.2a264.573,264.573,0,0,0-184.721,72.408l-1.234-353.234H2027.541V1183.7H2149.9V1125.03a272.243,272.243,0,0,0,182.166,69.854c164.8,0,289.625-131.075,289.625-302.055S2496.867,590.784,2332.063,590.784Zm-9.955,491.8c-99.893,0-174.766-81.129-174.766-189.742S2222.215,703.1,2322.107,703.1s174.768,81.129,174.768,189.742-74.883,189.733-174.785,189.733ZM5640.791,604.525H5463.557l-1.32-294.567H5343.67V604.525h-81.482V710.583h81.482v473.123h121.121l-1.234-473.123h177.234Z" transform="translate(-0.001)" fill="#11133c"/>
    <path id="Path_5072" data-name="Path 5072" d="M2396.334,361.031a173.429,173.429,0,0,0-37.967-7.223A151.5,151.5,0,0,1,2396.334,361.031Z" transform="translate(2583.362 342.417)" fill="#11133c" opacity="0.55" style="isolation: isolate"/>
    <g id="qDpOXt.tif" transform="translate(4643.737 594.107)">
      <g id="Group_8631" data-name="Group 8631">
        <path id="Path_5073" data-name="Path 5073" d="M2892.8,680.084h-447.49c9.037,56.209,31.379,102.922,82.143,131.392a179.887,179.887,0,0,0,87.207,21.406c52.764.731,102.49-9.8,145.021-43.313a486.256,486.256,0,0,0,36.715-35.315l81.834,79.826a284.3,284.3,0,0,1-56.262,51.646c-67.5,47.18-143.029,64.534-224.053,60.032a280.677,280.677,0,0,1-177.48-71.431c-55.408-49.823-84.687-113.431-92.891-187.161A336.756,336.756,0,0,1,2355.668,500.9c42.811-89.41,114.727-139.479,211.025-154.313a287.969,287.969,0,0,1,175.064,24.2c76.189,37.6,120.393,101.257,141.551,182.519A364.8,364.8,0,0,1,2892.8,680.084Zm-445.033-98.113h320.379A155.593,155.593,0,0,0,2622.594,448.13C2529.422,442.783,2463.656,493.125,2447.764,581.971Z" transform="translate(-2324.54 -342.215)" fill="#11133c"/>
      </g>
    </g>
  </g>
</svg>
