<svg version="1.1" id="Calque_1" xmlns="http://www.w3.org/2000/svg" xmlns:xlink="http://www.w3.org/1999/xlink" x="0px" y="0px" viewBox="0 0 300.9 140" xml:space="preserve" class="logo-img" role="img" aria-label="CGI official logo" height="46px">
                <style type="text/css">
                    .st0{fill:#E11937;}
                </style>
                <g id="Layer_1">
                    <g>
                        <path class="st0" d="M74.8,27c-27.4,0-44.2,21.4-44.2,43c0,26,21.2,43,44.4,43c15.4,0,30-6.8,42.4-17.8v32.2
      c-13,7.8-30.8,12.6-44.6,12.6C33.2,140,0,107.8,0,70C0,30,33.4,0,73,0c15.2,0,33,4.6,44.6,10.4V42C103,32.4,88.2,27,74.8,27z"></path>
                        <path class="st0" d="M201.6,140c-39.8,0-73.4-31-73.4-70c0-39.4,33.4-70,75.2-70c15.2,0,34,4,45.6,9.4v31.4
      C235.8,33.2,218.8,27,204,27c-27.4,0-45.2,21.4-45.2,43c0,25.4,21,43.8,45.6,43.8c5.2,0,10.2-0.4,16.6-2.8V85.8h-22.4V59.2h51.2
      V130C235.2,136.6,218.8,140,201.6,140z"></path>
                        <path class="st0" d="M272.1,137.2V2.8h28.8v134.4L272.1,137.2L272.1,137.2z"></path>
                    </g>
                </g>
                <g id="Protection">
                </g>
                <g id="Guides">
                </g>
            </svg>