<?xml version="1.0" encoding="UTF-8" standalone="no"?>
<!-- Created with Inkscape (http://www.inkscape.org/) -->

<svg
   width="113.21123mm"
   height="200.77274mm"
   viewBox="0 0 113.21123 200.77274"
   version="1.1"
   id="svg1"
   inkscape:version="1.3 (0e150ed6c4, 2023-07-21)"
   sodipodi:docname="Etteretningstjenesten-Farge,CMYK.svg"
   xmlns:inkscape="http://www.inkscape.org/namespaces/inkscape"
   xmlns:sodipodi="http://sodipodi.sourceforge.net/DTD/sodipodi-0.dtd"
   xmlns="http://www.w3.org/2000/svg"
   xmlns:svg="http://www.w3.org/2000/svg">
  <sodipodi:namedview
     id="namedview1"
     pagecolor="#ffffff"
     bordercolor="#666666"
     borderopacity="1.0"
     inkscape:showpageshadow="2"
     inkscape:pageopacity="0.0"
     inkscape:pagecheckerboard="0"
     inkscape:deskcolor="#d1d1d1"
     inkscape:document-units="mm"
     inkscape:zoom="0.71446409"
     inkscape:cx="-24.493883"
     inkscape:cy="139.96505"
     inkscape:window-width="1920"
     inkscape:window-height="991"
     inkscape:window-x="-9"
     inkscape:window-y="-9"
     inkscape:window-maximized="1"
     inkscape:current-layer="layer1" />
  <defs
     id="defs1">
    <clipPath
       clipPathUnits="userSpaceOnUse"
       id="clipPath4">
      <path
         d="M 0,841.89 H 595.275 V 0 H 0 Z"
         transform="translate(-303.57911,-659.87402)"
         id="path4" />
    </clipPath>
    <clipPath
       clipPathUnits="userSpaceOnUse"
       id="clipPath6">
      <path
         d="M 0,841.89 H 595.275 V 0 H 0 Z"
         transform="translate(-321.38961,-642.30371)"
         id="path6" />
    </clipPath>
    <clipPath
       clipPathUnits="userSpaceOnUse"
       id="clipPath8">
      <path
         d="M 0,841.89 H 595.275 V 0 H 0 Z"
         transform="translate(-292.0684,-581.94142)"
         id="path8" />
    </clipPath>
    <clipPath
       clipPathUnits="userSpaceOnUse"
       id="clipPath10">
      <path
         d="M 0,841.89 H 595.275 V 0 H 0 Z"
         transform="translate(-352.95611,-579.97751)"
         id="path10" />
    </clipPath>
    <clipPath
       clipPathUnits="userSpaceOnUse"
       id="clipPath12">
      <path
         d="M 0,841.89 H 595.275 V 0 H 0 Z"
         transform="translate(-181.2871,-574.32521)"
         id="path12" />
    </clipPath>
    <clipPath
       clipPathUnits="userSpaceOnUse"
       id="clipPath14">
      <path
         d="M 0,841.89 H 595.275 V 0 H 0 Z"
         transform="translate(-368.24711,-604.22171)"
         id="path14" />
    </clipPath>
    <clipPath
       clipPathUnits="userSpaceOnUse"
       id="clipPath16">
      <path
         d="M 0,841.89 H 595.275 V 0 H 0 Z"
         transform="translate(-416.48541,-509.70412)"
         id="path16" />
    </clipPath>
    <clipPath
       clipPathUnits="userSpaceOnUse"
       id="clipPath18">
      <path
         d="M 0,841.89 H 595.275 V 0 H 0 Z"
         transform="translate(-241.8379,-580.14551)"
         id="path18" />
    </clipPath>
    <clipPath
       clipPathUnits="userSpaceOnUse"
       id="clipPath20">
      <path
         d="M 0,841.89 H 595.275 V 0 H 0 Z"
         transform="translate(-231.082,-550.04981)"
         id="path20" />
    </clipPath>
    <clipPath
       clipPathUnits="userSpaceOnUse"
       id="clipPath22">
      <path
         d="M 0,841.89 H 595.275 V 0 H 0 Z"
         transform="translate(-292.16701,-558.58012)"
         id="path22" />
    </clipPath>
    <clipPath
       clipPathUnits="userSpaceOnUse"
       id="clipPath24">
      <path
         d="M 0,841.89 H 595.275 V 0 H 0 Z"
         transform="translate(-351.69631,-558.15532)"
         id="path24" />
    </clipPath>
    <clipPath
       clipPathUnits="userSpaceOnUse"
       id="clipPath26">
      <path
         d="M 0,841.89 H 595.275 V 0 H 0 Z"
         transform="translate(-412.27251,-548.00881)"
         id="path26" />
    </clipPath>
    <clipPath
       clipPathUnits="userSpaceOnUse"
       id="clipPath28">
      <path
         d="M 0,841.89 H 595.275 V 0 H 0 Z"
         transform="translate(-412.27251,-548.00881)"
         id="path28" />
    </clipPath>
    <clipPath
       clipPathUnits="userSpaceOnUse"
       id="clipPath30">
      <path
         d="M 0,841.89 H 595.275 V 0 H 0 Z"
         transform="translate(-137.9316,-509.51951)"
         id="path30" />
    </clipPath>
    <clipPath
       clipPathUnits="userSpaceOnUse"
       id="clipPath32">
      <path
         d="M 0,841.89 H 595.275 V 0 H 0 Z"
         transform="translate(-181.98831,-417.51951)"
         id="path32" />
    </clipPath>
    <clipPath
       clipPathUnits="userSpaceOnUse"
       id="clipPath34">
      <path
         d="M 0,841.89 H 595.275 V 0 H 0 Z"
         transform="translate(-184.3066,-394.40821)"
         id="path34" />
    </clipPath>
    <clipPath
       clipPathUnits="userSpaceOnUse"
       id="clipPath36">
      <path
         d="M 0,841.89 H 595.275 V 0 H 0 Z"
         transform="translate(-159.95901,-406.83791)"
         id="path36" />
    </clipPath>
    <clipPath
       clipPathUnits="userSpaceOnUse"
       id="clipPath38">
      <path
         d="M 0,841.89 H 595.275 V 0 H 0 Z"
         transform="translate(-448.67681,-411.53421)"
         id="path38" />
    </clipPath>
    <clipPath
       clipPathUnits="userSpaceOnUse"
       id="clipPath40">
      <path
         d="M 0,841.89 H 595.275 V 0 H 0 Z"
         transform="translate(-181.98831,-411.62791)"
         id="path40" />
    </clipPath>
    <clipPath
       clipPathUnits="userSpaceOnUse"
       id="clipPath42">
      <path
         d="M 0,841.89 H 595.275 V 0 H 0 Z"
         transform="translate(-403.60251,-288.9316)"
         id="path42" />
    </clipPath>
    <clipPath
       clipPathUnits="userSpaceOnUse"
       id="clipPath44">
      <path
         d="M 0,841.89 H 595.275 V 0 H 0 Z"
         transform="translate(-192.8428,-284.4805)"
         id="path44" />
    </clipPath>
    <clipPath
       clipPathUnits="userSpaceOnUse"
       id="clipPath46">
      <path
         d="M 0,841.89 H 595.275 V 0 H 0 Z"
         transform="translate(-301.02731,-260.13481)"
         id="path46" />
    </clipPath>
    <clipPath
       clipPathUnits="userSpaceOnUse"
       id="clipPath48">
      <path
         d="M 0,841.89 H 595.275 V 0 H 0 Z"
         transform="translate(-322.72461,-263.26461)"
         id="path48" />
    </clipPath>
    <clipPath
       clipPathUnits="userSpaceOnUse"
       id="clipPath50">
      <path
         d="M 0,841.89 H 595.275 V 0 H 0 Z"
         transform="translate(-305.50201,-267.70411)"
         id="path50" />
    </clipPath>
    <clipPath
       clipPathUnits="userSpaceOnUse"
       id="clipPath52">
      <path
         d="M 0,841.89 H 595.275 V 0 H 0 Z"
         transform="translate(-283.98441,-273.4072)"
         id="path52" />
    </clipPath>
    <clipPath
       clipPathUnits="userSpaceOnUse"
       id="clipPath54">
      <path
         d="M 0,841.89 H 595.275 V 0 H 0 Z"
         transform="translate(-293.3926,-258.63871)"
         id="path54" />
    </clipPath>
    <clipPath
       clipPathUnits="userSpaceOnUse"
       id="clipPath56">
      <path
         d="M 0,841.89 H 595.275 V 0 H 0 Z"
         transform="translate(-288.9082,-266.5537)"
         id="path56" />
    </clipPath>
    <clipPath
       clipPathUnits="userSpaceOnUse"
       id="clipPath58">
      <path
         d="M 0,841.89 H 595.275 V 0 H 0 Z"
         transform="translate(-416.93851,-404.94631)"
         id="path58" />
    </clipPath>
    <clipPath
       clipPathUnits="userSpaceOnUse"
       id="clipPath60">
      <path
         d="M 0,841.89 H 595.275 V 0 H 0 Z"
         transform="translate(-412.80371,-414.51271)"
         id="path60" />
    </clipPath>
    <clipPath
       clipPathUnits="userSpaceOnUse"
       id="clipPath62">
      <path
         d="M 0,841.89 H 595.275 V 0 H 0 Z"
         transform="translate(-297.58891,-253.04881)"
         id="path62" />
    </clipPath>
    <clipPath
       clipPathUnits="userSpaceOnUse"
       id="clipPath64">
      <path
         d="M 0,841.89 H 595.275 V 0 H 0 Z"
         transform="translate(-292.84861,-452.56641)"
         id="path64" />
    </clipPath>
    <clipPath
       clipPathUnits="userSpaceOnUse"
       id="clipPath66">
      <path
         d="M 0,841.89 H 595.275 V 0 H 0 Z"
         transform="translate(-277.7422,-434.48441)"
         id="path66" />
    </clipPath>
    <clipPath
       clipPathUnits="userSpaceOnUse"
       id="clipPath68">
      <path
         d="M 0,841.89 H 595.275 V 0 H 0 Z"
         transform="translate(-313.31641,-420.17871)"
         id="path68" />
    </clipPath>
    <clipPath
       clipPathUnits="userSpaceOnUse"
       id="clipPath70">
      <path
         d="M 0,841.89 H 595.275 V 0 H 0 Z"
         transform="translate(-316.99801,-439.40041)"
         id="path70" />
    </clipPath>
    <clipPath
       clipPathUnits="userSpaceOnUse"
       id="clipPath72">
      <path
         d="M 0,841.89 H 595.275 V 0 H 0 Z"
         transform="translate(-299.332,-374.51371)"
         id="path72" />
    </clipPath>
    <clipPath
       clipPathUnits="userSpaceOnUse"
       id="clipPath74">
      <path
         d="M 0,841.89 H 595.275 V 0 H 0 Z"
         transform="translate(-294.20511,-377.66211)"
         id="path74" />
    </clipPath>
    <clipPath
       clipPathUnits="userSpaceOnUse"
       id="clipPath76">
      <path
         d="M 0,841.89 H 595.275 V 0 H 0 Z"
         transform="translate(-303.11621,-376.19731)"
         id="path76" />
    </clipPath>
    <clipPath
       clipPathUnits="userSpaceOnUse"
       id="clipPath78">
      <path
         d="M 0,841.89 H 595.275 V 0 H 0 Z"
         transform="translate(-295.51371,-370.36231)"
         id="path78" />
    </clipPath>
    <clipPath
       clipPathUnits="userSpaceOnUse"
       id="clipPath80">
      <path
         d="M 0,841.89 H 595.275 V 0 H 0 Z"
         transform="translate(-299.89941,-372.51951)"
         id="path80" />
    </clipPath>
    <clipPath
       clipPathUnits="userSpaceOnUse"
       id="clipPath82">
      <path
         d="M 0,841.89 H 595.275 V 0 H 0 Z"
         transform="translate(-297.2617,-365.34861)"
         id="path82" />
    </clipPath>
    <clipPath
       clipPathUnits="userSpaceOnUse"
       id="clipPath84">
      <path
         d="M 0,841.89 H 595.275 V 0 H 0 Z"
         transform="translate(-298.87401,-367.88181)"
         id="path84" />
    </clipPath>
    <clipPath
       clipPathUnits="userSpaceOnUse"
       id="clipPath86">
      <path
         d="M 0,841.89 H 595.275 V 0 H 0 Z"
         transform="translate(-248.54791,-416.49801)"
         id="path86" />
    </clipPath>
    <clipPath
       clipPathUnits="userSpaceOnUse"
       id="clipPath88">
      <path
         d="M 0,841.89 H 595.275 V 0 H 0 Z"
         transform="translate(-243.55861,-419.27051)"
         id="path88" />
    </clipPath>
    <clipPath
       clipPathUnits="userSpaceOnUse"
       id="clipPath90">
      <path
         d="M 0,841.89 H 595.275 V 0 H 0 Z"
         transform="translate(-241.19241,-408.11131)"
         id="path90" />
    </clipPath>
    <clipPath
       clipPathUnits="userSpaceOnUse"
       id="clipPath92">
      <path
         d="M 0,841.89 H 595.275 V 0 H 0 Z"
         transform="translate(-237.01861,-415.77251)"
         id="path92" />
    </clipPath>
    <clipPath
       clipPathUnits="userSpaceOnUse"
       id="clipPath94">
      <path
         d="M 0,841.89 H 595.275 V 0 H 0 Z"
         transform="translate(-240.42481,-412.26861)"
         id="path94" />
    </clipPath>
    <clipPath
       clipPathUnits="userSpaceOnUse"
       id="clipPath96">
      <path
         d="M 0,841.89 H 595.275 V 0 H 0 Z"
         transform="translate(-232.6045,-412.45611)"
         id="path96" />
    </clipPath>
    <clipPath
       clipPathUnits="userSpaceOnUse"
       id="clipPath98">
      <path
         d="M 0,841.89 H 595.275 V 0 H 0 Z"
         transform="translate(-233.0518,-411.76171)"
         id="path98" />
    </clipPath>
    <clipPath
       clipPathUnits="userSpaceOnUse"
       id="clipPath100">
      <path
         d="M 0,841.89 H 595.275 V 0 H 0 Z"
         transform="translate(-264.0127,-475.29301)"
         id="path100" />
    </clipPath>
    <clipPath
       clipPathUnits="userSpaceOnUse"
       id="clipPath102">
      <path
         d="M 0,841.89 H 595.275 V 0 H 0 Z"
         transform="translate(-268.2217,-480.91501)"
         id="path102" />
    </clipPath>
    <clipPath
       clipPathUnits="userSpaceOnUse"
       id="clipPath104">
      <path
         d="M 0,841.89 H 595.275 V 0 H 0 Z"
         transform="translate(-257.2744,-476.53521)"
         id="path104" />
    </clipPath>
    <clipPath
       clipPathUnits="userSpaceOnUse"
       id="clipPath106">
      <path
         d="M 0,841.89 H 595.275 V 0 H 0 Z"
         transform="translate(-263.8516,-483.21481)"
         id="path106" />
    </clipPath>
    <clipPath
       clipPathUnits="userSpaceOnUse"
       id="clipPath108">
      <path
         d="M 0,841.89 H 595.275 V 0 H 0 Z"
         transform="translate(-259.61331,-481.94141)"
         id="path108" />
    </clipPath>
    <clipPath
       clipPathUnits="userSpaceOnUse"
       id="clipPath110">
      <path
         d="M 0,841.89 H 595.275 V 0 H 0 Z"
         transform="translate(-258.02541,-488.10741)"
         id="path110" />
    </clipPath>
    <clipPath
       clipPathUnits="userSpaceOnUse"
       id="clipPath112">
      <path
         d="M 0,841.89 H 595.275 V 0 H 0 Z"
         transform="translate(-255.63381,-484.74221)"
         id="path112" />
    </clipPath>
    <clipPath
       clipPathUnits="userSpaceOnUse"
       id="clipPath114">
      <path
         d="M 0,841.89 H 595.275 V 0 H 0 Z"
         transform="translate(-327.78811,-478.24021)"
         id="path114" />
    </clipPath>
    <clipPath
       clipPathUnits="userSpaceOnUse"
       id="clipPath116">
      <path
         d="M 0,841.89 H 595.275 V 0 H 0 Z"
         transform="translate(-332.99611,-475.69431)"
         id="path116" />
    </clipPath>
    <clipPath
       clipPathUnits="userSpaceOnUse"
       id="clipPath118">
      <path
         d="M 0,841.89 H 595.275 V 0 H 0 Z"
         transform="translate(-326.64361,-482.11721)"
         id="path118" />
    </clipPath>
    <clipPath
       clipPathUnits="userSpaceOnUse"
       id="clipPath120">
      <path
         d="M 0,841.89 H 595.275 V 0 H 0 Z"
         transform="translate(-339.34281,-482.86821)"
         id="path120" />
    </clipPath>
    <clipPath
       clipPathUnits="userSpaceOnUse"
       id="clipPath122">
      <path
         d="M 0,841.89 H 595.275 V 0 H 0 Z"
         transform="translate(-331.40821,-483.19921)"
         id="path122" />
    </clipPath>
    <clipPath
       clipPathUnits="userSpaceOnUse"
       id="clipPath124">
      <path
         d="M 0,841.89 H 595.275 V 0 H 0 Z"
         transform="translate(-339.62601,-484.72751)"
         id="path124" />
    </clipPath>
    <clipPath
       clipPathUnits="userSpaceOnUse"
       id="clipPath126">
      <path
         d="M 0,841.89 H 595.275 V 0 H 0 Z"
         transform="translate(-334.96391,-486.35061)"
         id="path126" />
    </clipPath>
    <clipPath
       clipPathUnits="userSpaceOnUse"
       id="clipPath128">
      <path
         d="M 0,841.89 H 595.275 V 0 H 0 Z"
         transform="translate(-359.08111,-412.39361)"
         id="path128" />
    </clipPath>
    <clipPath
       clipPathUnits="userSpaceOnUse"
       id="clipPath130">
      <path
         d="M 0,841.89 H 595.275 V 0 H 0 Z"
         transform="translate(-349.40331,-412.66701)"
         id="path130" />
    </clipPath>
    <clipPath
       clipPathUnits="userSpaceOnUse"
       id="clipPath132">
      <path
         d="M 0,841.89 H 595.275 V 0 H 0 Z"
         transform="translate(-356.12111,-421.53421)"
         id="path132" />
    </clipPath>
    <clipPath
       clipPathUnits="userSpaceOnUse"
       id="clipPath134">
      <path
         d="M 0,841.89 H 595.275 V 0 H 0 Z"
         transform="translate(-356.81931,-411.63481)"
         id="path134" />
    </clipPath>
    <clipPath
       clipPathUnits="userSpaceOnUse"
       id="clipPath136">
      <path
         d="M 0,841.89 H 595.275 V 0 H 0 Z"
         transform="translate(-356.10941,-416.47271)"
         id="path136" />
    </clipPath>
    <clipPath
       clipPathUnits="userSpaceOnUse"
       id="clipPath138">
      <path
         d="M 0,841.89 H 595.275 V 0 H 0 Z"
         transform="translate(-362.41501,-411.69531)"
         id="path138" />
    </clipPath>
    <clipPath
       clipPathUnits="userSpaceOnUse"
       id="clipPath140">
      <path
         d="M 0,841.89 H 595.275 V 0 H 0 Z"
         transform="translate(-360.26371,-414.04391)"
         id="path140" />
    </clipPath>
    <clipPath
       clipPathUnits="userSpaceOnUse"
       id="clipPath142">
      <path
         d="M 0,841.89 H 595.275 V 0 H 0 Z"
         transform="translate(-312.80081,-445.08011)"
         id="path142" />
    </clipPath>
    <clipPath
       clipPathUnits="userSpaceOnUse"
       id="clipPath144">
      <path
         d="M 0,841.89 H 595.275 V 0 H 0 Z"
         transform="translate(-290.85451,-452.12601)"
         id="path144" />
    </clipPath>
    <clipPath
       clipPathUnits="userSpaceOnUse"
       id="clipPath146">
      <path
         d="M 0,841.89 H 595.275 V 0 H 0 Z"
         transform="translate(-315.66311,-425.98141)"
         id="path146" />
    </clipPath>
    <clipPath
       clipPathUnits="userSpaceOnUse"
       id="clipPath148">
      <path
         d="M 0,841.89 H 595.275 V 0 H 0 Z"
         transform="translate(-277.55761,-432.44341)"
         id="path148" />
    </clipPath>
    <clipPath
       clipPathUnits="userSpaceOnUse"
       id="clipPath150">
      <path
         d="M 0,841.89 H 595.275 V 0 H 0 Z"
         transform="translate(-302.80961,-452.54791)"
         id="path150" />
    </clipPath>
    <clipPath
       clipPathUnits="userSpaceOnUse"
       id="clipPath152">
      <path
         d="M 0,841.89 H 595.275 V 0 H 0 Z"
         transform="translate(-280.8379,-443.95211)"
         id="path152" />
    </clipPath>
    <clipPath
       clipPathUnits="userSpaceOnUse"
       id="clipPath154">
      <path
         d="M 0,841.89 H 595.275 V 0 H 0 Z"
         transform="translate(-282.37501,-419.98141)"
         id="path154" />
    </clipPath>
    <clipPath
       clipPathUnits="userSpaceOnUse"
       id="clipPath156">
      <path
         d="M 0,841.89 H 595.275 V 0 H 0 Z"
         transform="translate(-309.66801,-416.61231)"
         id="path156" />
    </clipPath>
    <clipPath
       clipPathUnits="userSpaceOnUse"
       id="clipPath158">
      <path
         d="M 0,841.89 H 595.275 V 0 H 0 Z"
         transform="translate(-318.25491,-434.58891)"
         id="path158" />
    </clipPath>
    <clipPath
       clipPathUnits="userSpaceOnUse"
       id="clipPath160">
      <path
         d="M 0,841.89 H 595.275 V 0 H 0 Z"
         transform="translate(-314.01371,-428.69531)"
         id="path160" />
    </clipPath>
    <clipPath
       clipPathUnits="userSpaceOnUse"
       id="clipPath162">
      <path
         d="M 0,841.89 H 595.275 V 0 H 0 Z"
         transform="translate(-296.5225,-413.89841)"
         id="path162" />
    </clipPath>
    <clipPath
       clipPathUnits="userSpaceOnUse"
       id="clipPath2">
      <path
         d="M 0,841.89 H 595.275 V 0 H 0 Z"
         transform="matrix(1.3333333,0,0,-1.3333333,0,1122.52)"
         id="path2" />
    </clipPath>
  </defs>
  <g
     inkscape:label="Lag 1"
     inkscape:groupmode="layer"
     id="layer1"
     transform="translate(-111.38958,-111.38958)">
    <g
       id="group-MC0"
       transform="matrix(0.26458333,0,0,0.26458333,62.994963,63.338781)">
      <g
         opacity="0.5"
         id="g2"
         clip-path="url(#clipPath2)" />
    </g>
    <g
       id="group-MC1"
       transform="matrix(0.26458333,0,0,0.26458333,62.994963,63.338781)">
      <path
         id="path3"
         d="m 0,0 c 10.791,-2.813 18.602,-12.262 18.602,-23.726 0,-13.501 -10.989,-24.446 -24.541,-24.446 -13.556,0 -24.545,10.945 -24.545,24.446 0,11.485 8.106,21.213 18.662,23.743 0,2.528 -0.004,19.177 -0.004,19.177 h -13.563 v 11.464 h 13.563 V 45.059 H 0.014 V 30.658 H 13.576 V 19.194 L -0.008,19.198 C -0.008,17.591 0.002,0.644 0,0"
         style="fill:#fcd405;fill-opacity:1;fill-rule:nonzero;stroke:#ee263a;stroke-width:1.5;stroke-linecap:butt;stroke-linejoin:miter;stroke-miterlimit:4;stroke-dasharray:none;stroke-opacity:1"
         transform="matrix(1.3333333,0,0,-1.3333333,404.77213,242.688)"
         clip-path="url(#clipPath4)" />
      <path
         id="path5"
         d="m 0,0 c 0,0 0.898,-3.388 0.793,-6.192 0.082,-2.34 -0.67,-5.655 -0.67,-5.655 l -47.749,-0.002 c 0,0 -0.744,3.332 -0.667,5.657 -0.125,2.733 0.795,6.192 0.795,6.192 h 17.859 v 17.563 c 0,0 3.855,0.707 5.882,0.707 2.046,0 5.941,-0.721 5.941,-0.721 V 0 Z"
         style="fill:#fcd405;fill-opacity:1;fill-rule:nonzero;stroke:#ee263a;stroke-width:1.5;stroke-linecap:butt;stroke-linejoin:miter;stroke-miterlimit:4;stroke-dasharray:none;stroke-opacity:1"
         transform="matrix(1.3333333,0,0,-1.3333333,428.51947,266.11507)"
         clip-path="url(#clipPath6)" />
      <path
         id="path7"
         d="M 0,0 C 3.503,1.024 7.688,1.073 11.222,0.048 L 13.19,30.937 12.8,30.84 c 0,0 -2.862,-1.049 -7.19,-1.049 -3.172,-0.163 -6.511,0.82 -7.4,1.108 -0.146,0.048 -0.273,0.077 -0.273,0.077 z"
         style="fill:#fcd405;fill-opacity:1;fill-rule:nonzero;stroke:#ee263a;stroke-width:1.5;stroke-linecap:butt;stroke-linejoin:miter;stroke-miterlimit:4;stroke-dasharray:none;stroke-opacity:1"
         transform="matrix(1.3333333,0,0,-1.3333333,389.42453,346.59813)"
         clip-path="url(#clipPath8)" />
      <path
         id="path9"
         d="m 0,0 c 3.607,1.054 7.914,0.944 11.354,-0.332 5.623,37.904 16.449,43.223 -59.051,33.157 l -0.512,-8.054 C 9.654,32.021 3.861,29.903 0,0"
         style="fill:#fcd405;fill-opacity:1;fill-rule:nonzero;stroke:#ee263a;stroke-width:1.5;stroke-linecap:butt;stroke-linejoin:miter;stroke-miterlimit:4;stroke-dasharray:none;stroke-opacity:1"
         transform="matrix(1.3333333,0,0,-1.3333333,470.60813,349.21667)"
         clip-path="url(#clipPath10)" />
      <path
         id="path11"
         d="M 0,0 C -7.729,31.158 -6.489,29.896 45.252,29.896 45.1,34.124 45.761,37.2 47.823,39.31 -18.312,38.355 -22.812,40.133 -12.363,0.751 -7.728,1.8 -3.233,1.527 0,0"
         style="fill:#fcd405;fill-opacity:1;fill-rule:nonzero;stroke:#ee263a;stroke-width:1.5;stroke-linecap:butt;stroke-linejoin:miter;stroke-miterlimit:4;stroke-dasharray:none;stroke-opacity:1"
         transform="matrix(1.3333333,0,0,-1.3333333,241.71613,356.75307)"
         clip-path="url(#clipPath12)" />
      <path
         id="path13"
         d="m 0,0 c 52.779,0 53.355,0.749 45.748,-29.895 3.223,1.522 7.697,1.795 12.316,0.757 C 67.463,7.091 68.525,9.411 -2.395,9.411 -0.279,7.298 0.271,4.206 0,0"
         style="fill:#fcd405;fill-opacity:1;fill-rule:nonzero;stroke:#ee263a;stroke-width:1.5;stroke-linecap:butt;stroke-linejoin:miter;stroke-miterlimit:4;stroke-dasharray:none;stroke-opacity:1"
         transform="matrix(1.3333333,0,0,-1.3333333,490.99613,316.89107)"
         clip-path="url(#clipPath14)" />
      <path
         id="path15"
         d="M 0,0 C 2.295,14.108 12.342,54.798 15.559,63.419 1.521,70.016 -15.645,63.844 -2.793,46.762 l -1.42,-1.423 c -29.894,31.216 -29.894,-38.407 0,-7.034 0.586,-0.59 1.42,-1.421 1.42,-1.421 -2.504,-4.837 -10.021,-15.195 -11.67,-16.422 -8.109,-3.325 -18.764,-3.777 -28.103,0 -3.493,2.769 -9.705,14.692 -10.7,18.775 0,0 0.942,0.938 1.11,1.109 27.683,-27.684 27.683,35.791 0,8.105 0,0 -0.696,0.695 -1.11,1.111 28.575,28.573 -38.66,28.573 -10.42,0 -0.416,-0.416 -1.103,-1.111 -1.103,-1.111 -27.686,27.686 -27.686,-35.789 0,-8.105 0.168,-0.171 0.842,-0.84 1.103,-1.109 -0.99,-4.083 -7.203,-16.006 -10.691,-18.775 -9.812,-3.101 -18.35,-3.242 -28.096,0 -4.481,3.355 -10.824,16.351 -11.951,20.125 0.266,0.267 0.969,0.969 1.291,1.291 29.092,-32.48 29.092,39.478 0,6.998 l -1.291,1.289 c 33.084,30.505 -41.691,30.505 -8.603,0 l -1.291,-1.289 c -29.098,32.48 -29.098,-39.478 0,-6.998 0.326,-0.322 1.027,-1.024 1.291,-1.291 -1.128,-3.774 -7.47,-16.77 -11.952,-20.125 -8.682,-3.101 -17.76,-3.495 -26.849,0 -3.486,2.769 -11.057,14.692 -12.049,18.775 0.272,0.269 0.941,0.938 1.109,1.109 27.683,-27.684 27.683,35.791 0,8.105 0,0 -0.692,0.695 -1.109,1.111 28.241,28.573 -38.989,28.573 -10.416,0 -0.418,-0.416 -1.11,-1.111 -1.11,-1.111 -27.685,27.686 -27.685,-35.789 0,-8.105 0.169,-0.171 0.839,-0.84 1.11,-1.109 -0.994,-4.083 -7.21,-16.006 -10.699,-18.775 -8.993,-3.777 -21.224,-3.325 -28.242,0 -1.65,1.227 -9.166,11.585 -11.672,16.422 0,0 0.834,0.831 1.422,1.421 29.894,-31.373 29.894,38.25 0,7.034 l -1.422,1.423 c 12.856,17.082 -4.311,23.254 -18.348,16.657 3.212,-8.621 13.263,-49.311 15.558,-63.421 z"
         style="fill:#fcd405;fill-opacity:1;fill-rule:nonzero;stroke:#ee263a;stroke-width:1.5;stroke-linecap:butt;stroke-linejoin:miter;stroke-miterlimit:4;stroke-dasharray:none;stroke-opacity:1"
         transform="matrix(1.3333333,0,0,-1.3333333,555.31387,442.91453)"
         clip-path="url(#clipPath16)" />
      <path
         id="path17"
         d="m 0,0 c -4.225,31.133 -8.44,31.206 48.697,24.717 -0.154,3.336 -0.528,8.008 -0.528,8.008 -72.951,9.428 -66.275,6.526 -59.66,-33.529 C -8.132,0.673 -3.748,0.939 0,0"
         style="fill:#fcd405;fill-opacity:1;fill-rule:nonzero;stroke:#ee263a;stroke-width:1.5;stroke-linecap:butt;stroke-linejoin:miter;stroke-miterlimit:4;stroke-dasharray:none;stroke-opacity:1"
         transform="matrix(1.3333333,0,0,-1.3333333,322.45053,348.99267)"
         clip-path="url(#clipPath18)" />
      <path
         id="path19"
         d="m 0,0 c -27.685,-27.684 -27.685,35.791 0,8.105 0,0 0.692,0.696 1.11,1.111 -10.695,10.695 -7.965,17.387 -1.845,20.076 -0.125,0.738 -1.302,7.522 -1.532,8.807 -16.374,-3.779 -30.98,-9.919 -42.788,-19.815 -0.006,0.048 -0.02,0.09 -0.026,0.136 0.489,-3.066 -0.715,-7.08 -4.422,-12.004 l 1.422,-1.423 c 29.894,31.216 29.894,-38.407 0,-7.034 -0.588,-0.59 -1.422,-1.421 -1.422,-1.421 2.506,-4.837 10.023,-15.194 11.672,-16.422 7.019,-3.325 19.249,-3.777 28.242,0 C -6.1,-17.114 0.116,-5.191 1.11,-1.108 0.839,-0.84 0.169,-0.171 0,0"
         style="fill:#ee263a;fill-opacity:1;fill-rule:nonzero;stroke:#ee263a;stroke-width:1.5;stroke-linecap:butt;stroke-linejoin:miter;stroke-miterlimit:4;stroke-dasharray:none;stroke-opacity:1"
         transform="matrix(1.3333333,0,0,-1.3333333,308.10933,389.12027)"
         clip-path="url(#clipPath20)" />
      <path
         id="path21"
         d="m 0,0 1.291,1.289 c -13.437,12.389 -9.086,19.747 -1.39,22.072 -0.005,0.009 -0.808,11.954 -0.808,11.954 -17.735,-0.139 -34.971,-0.939 -50.884,-3.504 0.002,-0.009 0.002,-0.019 0.004,-0.028 0.205,-1.489 1.324,-9.254 1.458,-10.218 7.649,-1.918 12.631,-8.877 0.77,-20.879 0.417,-0.415 1.11,-1.111 1.11,-1.111 27.682,27.686 27.682,-35.789 0,-8.105 -0.168,-0.171 -0.838,-0.84 -1.11,-1.109 0.993,-4.083 8.563,-16.006 12.049,-18.775 9.089,-3.495 18.167,-3.101 26.849,0 4.482,3.355 10.824,16.351 11.952,20.125 C 1.027,-8.022 0.326,-7.32 0,-6.998 -29.098,-39.478 -29.098,32.48 0,0"
         style="fill:#ee263a;fill-opacity:1;fill-rule:nonzero;stroke:#ee263a;stroke-width:1.5;stroke-linecap:butt;stroke-linejoin:miter;stroke-miterlimit:4;stroke-dasharray:none;stroke-opacity:1"
         transform="matrix(1.3333333,0,0,-1.3333333,389.556,377.74653)"
         clip-path="url(#clipPath22)" />
      <path
         id="path23"
         d="m 0,0 c 0,0 0.687,0.695 1.104,1.11 -11.536,11.676 -7.135,18.577 0.156,20.712 0.508,3.929 1.047,7.373 1.472,10.385 -14.322,2.191 -31.019,3.322 -50.38,3.524 0,0 -0.76,-11.9 -0.762,-11.902 7.793,-2.269 12.306,-9.641 -1.225,-22.115 l 1.291,-1.289 c 29.092,32.48 29.092,-39.478 0,-6.998 -0.322,-0.323 -1.025,-1.025 -1.291,-1.291 1.127,-3.774 7.47,-16.77 11.951,-20.125 9.747,-3.242 18.284,-3.101 28.096,0 C -6.1,-25.22 0.113,-13.297 1.104,-9.214 0.842,-8.945 0.168,-8.276 0,-8.105 -27.686,-35.789 -27.686,27.686 0,0"
         style="fill:#ee263a;fill-opacity:1;fill-rule:nonzero;stroke:#ee263a;stroke-width:1.5;stroke-linecap:butt;stroke-linejoin:miter;stroke-miterlimit:4;stroke-dasharray:none;stroke-opacity:1"
         transform="matrix(1.3333333,0,0,-1.3333333,468.9284,378.31293)"
         clip-path="url(#clipPath24)" />
      <path
         id="path25"
         d="m 0,0 c -29.895,-31.373 -29.895,38.25 0,7.034 l 1.42,1.423 c -3.613,4.807 -4.856,8.748 -4.457,11.784 -10.068,9.411 -24.277,15.936 -43.492,20.054 -0.479,-2.675 -0.975,-5.555 -1.434,-8.657 6.635,-2.461 10.037,-9.254 -1.09,-20.381 0.414,-0.415 1.11,-1.111 1.11,-1.111 27.683,27.686 27.683,-35.789 0,-8.105 -0.168,-0.171 -1.11,-1.108 -1.11,-1.108 0.994,-4.083 7.207,-16.006 10.699,-18.776 9.34,-3.777 19.995,-3.325 28.104,0 1.648,1.228 9.166,11.585 11.67,16.422 0,0 -0.834,0.831 -1.42,1.421"
         style="fill:#ee263a;fill-opacity:1;fill-rule:nonzero;stroke:none"
         transform="matrix(1.3333333,0,0,-1.3333333,549.69667,391.8416)"
         clip-path="url(#clipPath26)" />
      <path
         id="path27"
         d="m 0,0 c -29.895,-31.373 -29.895,38.25 0,7.034 l 1.42,1.423 c -3.613,4.807 -4.856,8.748 -4.457,11.784 -10.068,9.411 -24.277,15.936 -43.492,20.054 -0.479,-2.675 -0.975,-5.555 -1.434,-8.657 6.635,-2.461 10.037,-9.254 -1.09,-20.381 0.414,-0.415 1.11,-1.111 1.11,-1.111 27.683,27.686 27.683,-35.789 0,-8.105 -0.168,-0.171 -1.11,-1.108 -1.11,-1.108 0.994,-4.083 7.207,-16.006 10.699,-18.776 9.34,-3.777 19.995,-3.325 28.104,0 1.648,1.228 9.166,11.585 11.67,16.422 0,0 -0.834,0.831 -1.42,1.421 z"
         style="fill:none;stroke:#ee263a;stroke-width:1.5;stroke-linecap:butt;stroke-linejoin:miter;stroke-miterlimit:4;stroke-dasharray:none;stroke-opacity:1"
         transform="matrix(1.3333333,0,0,-1.3333333,549.69667,391.8416)"
         clip-path="url(#clipPath28)" />
      <path
         id="path29"
         d="M 0,0 H 319.412 C 319.049,-156.661 302.5,-275.032 159.751,-372.05 16.271,-275.032 0.325,-157.046 0,0"
         style="fill:#fcd405;fill-opacity:1;fill-rule:nonzero;stroke:#ee263a;stroke-width:1.5;stroke-linecap:butt;stroke-linejoin:miter;stroke-miterlimit:4;stroke-dasharray:none;stroke-opacity:1"
         transform="matrix(1.3333333,0,0,-1.3333333,183.9088,443.16067)"
         clip-path="url(#clipPath30)" />
      <path
         id="path31"
         d="m 0,0 c -0.915,0 -1.709,-0.413 -2.235,-1.058 0.222,0.089 0.464,0.141 0.718,0.141 1.085,0 1.967,-0.883 1.967,-1.968 0,-1.085 -0.882,-1.968 -1.967,-1.968 -0.275,0 -0.536,0.058 -0.774,0.161 0.524,-0.718 1.344,-1.2 2.291,-1.2 1.624,0 2.885,1.387 2.885,3.006 C 2.885,-1.269 1.624,0 0,0"
         style="fill:#fcd405;fill-opacity:1;fill-rule:nonzero;stroke:none"
         transform="matrix(1.3333333,0,0,-1.3333333,242.65107,565.82733)"
         clip-path="url(#clipPath32)" />
      <path
         id="path33"
         d="m 0,0 -8.001,23.359 -15.506,-0.737 c -5.868,-0.307 -10.779,-1.69 -14.596,-4.112 l -2.136,-1.357 2.53,-0.027 c 12.862,-0.139 23.5,-2.271 32.51,-6.514 L -3.782,6.31 c -5.467,1.179 -26.607,5.739 -27.795,5.987 l -1.549,0.323 0.73,-1.403 c 2.28,-4.379 13.458,-6.907 25.292,-9.583 z"
         style="fill:#231f20;fill-opacity:1;fill-rule:nonzero;stroke:none"
         transform="matrix(1.3333333,0,0,-1.3333333,245.74213,596.6424)"
         clip-path="url(#clipPath34)" />
      <path
         id="path35"
         d="m 0,0 0.205,-0.124 c 5.616,-2.408 15.821,-4.149 17.81,-4.475 l 1.168,-0.19 -0.327,1.138 c -0.085,0.295 -0.147,0.541 -0.201,0.752 -0.045,0.175 -0.084,0.329 -0.124,0.466 l -0.156,0.541 -0.563,10e-4 C 11.498,-1.882 5.194,0.377 -0.677,2.816 L -2.655,3.639 -1.621,1.763 C -1.021,0.675 -0.336,0.211 0,0"
         style="fill:#231f20;fill-opacity:1;fill-rule:nonzero;stroke:none"
         transform="matrix(1.3333333,0,0,-1.3333333,213.27867,580.06947)"
         clip-path="url(#clipPath36)" />
      <path
         id="path37"
         d="M 0,0 2.529,0.027 0.395,1.384 c -3.816,2.422 -8.727,3.805 -14.6,4.112 l -15.556,0.739 -7.99,-23.372 7.147,1.645 c 11.833,2.677 23.011,5.204 25.291,9.583 l 0.731,1.403 -1.55,-0.323 c -1.187,-0.248 -22.327,-4.808 -27.795,-5.987 l 1.418,4.302 C -23.498,-2.27 -12.862,-0.139 0,0"
         style="fill:#231f20;fill-opacity:1;fill-rule:nonzero;stroke:none"
         transform="matrix(1.3333333,0,0,-1.3333333,598.23573,573.80773)"
         clip-path="url(#clipPath38)" />
      <path
         id="path39"
         d="m 0,0 c -0.947,0 -1.767,0.481 -2.291,1.199 0.238,-0.102 0.499,-0.16 0.774,-0.16 1.085,0 1.967,0.883 1.967,1.968 0,1.085 -0.882,1.968 -1.967,1.968 -0.254,0 -0.496,-0.052 -0.718,-0.141 0.526,0.645 1.32,1.058 2.235,1.058 1.624,0 2.885,-1.269 2.885,-2.886 C 2.885,1.387 1.624,0 0,0 m 231.267,5.892 c 0.948,0 1.767,-0.482 2.292,-1.201 -0.239,0.103 -0.499,0.161 -0.775,0.161 -1.086,0 -1.969,-0.882 -1.969,-1.967 0,-1.085 0.883,-1.968 1.969,-1.968 0.254,0 0.495,0.053 0.719,0.141 C 232.977,0.414 232.183,0 231.267,0 c -1.625,0 -2.885,1.27 -2.885,2.885 0,1.619 1.26,3.007 2.885,3.007 m -6.679,-33.347 2.82,9.873 8.134,24.089 -16.606,-0.257 -0.022,1.393 17.278,0.266 c -0.019,0.526 -0.036,0.941 -0.037,0.979 -0.17,2.218 -11.74,4.754 -17.316,5.634 l -0.029,0.004 c -0.815,0.137 -1.672,0.206 -2.548,0.206 -8.463,0 -18.824,-6.575 -20.758,-16.364 l -0.194,-0.981 0.996,0.089 c 0.456,0.041 1.196,0.257 1.916,0.477 0.442,0.135 0.895,0.274 1.233,0.345 -1.49,-2.925 -11.34,-22.252 -11.822,-23.2 l -0.534,-1.051 2.01,-0.063 c -11.369,-18.885 -22.215,-35.601 -33.148,-51.082 -13.862,-19.446 -26.07,-31.161 -40.312,-38.575 -14.24,7.414 -26.448,19.127 -40.31,38.572 -10.935,15.487 -21.782,32.203 -33.15,51.084 l 2.012,0.064 -12.381,24.258 c 0.329,-0.07 0.798,-0.212 1.256,-0.352 0.687,-0.21 1.458,-0.436 1.914,-0.477 l 0.997,-0.089 -0.193,0.981 C 33.86,8.157 23.499,14.732 15.036,14.732 c -0.865,0 -1.712,-0.067 -2.518,-0.201 l -0.06,-0.009 C 6.883,13.642 -4.686,11.106 -4.859,8.854 -4.86,8.828 -4.875,8.423 -4.895,7.904 L 12.527,7.643 12.506,6.25 -4.292,6.503 -4.295,6.51 h -0.004 l 8.188,-24.091 2.822,-9.875 c 6.133,4.68 14.209,4.956 22.242,0.721 l -0.699,-1.327 c -4.488,2.366 -13.179,5.405 -20.963,-0.83 l -0.264,0.329 0.121,-0.424 C 0.44,-35.521 -2.82,-42.83 -2.82,-51.327 c 0,-8.74 3.477,-18.63 10.662,-30.279 8.522,-11.748 18.61,-20.821 30.708,-27.599 l 0.014,0.034 c 26.45,-11.703 51.182,-15.235 73.508,-10.5 l 0.007,-0.031 c 0.77,0.166 1.641,0.346 2.547,0.532 0.333,0.068 0.679,0.14 1.023,0.212 0.345,-0.072 0.69,-0.144 1.024,-0.212 0.905,-0.186 1.775,-0.366 2.545,-0.532 l 0.007,0.031 c 22.328,-4.734 47.058,-1.203 73.509,10.5 l 0.015,-0.033 c 12.1,6.78 22.189,15.857 30.738,27.644 7.154,11.603 10.631,21.493 10.631,30.233 0,8.5 -3.263,15.81 -9.968,22.34 l 0.041,0.143 -0.091,-0.114 c -7.785,6.232 -16.474,3.195 -20.963,0.829 l -0.7,1.327 c 7.996,4.215 16.03,3.96 22.151,-0.653"
         style="fill:#231f20;fill-opacity:1;fill-rule:nonzero;stroke:none"
         transform="matrix(1.3333333,0,0,-1.3333333,242.65107,573.6828)"
         clip-path="url(#clipPath40)" />
      <path
         id="path41"
         d="M 0,0 C 2.984,0.998 5.159,1.276 6.721,0.852 6.053,0.628 5.481,0.309 5.01,0.046 4.499,-0.241 4.018,-0.512 3.604,-0.589 L 2.005,-0.891 2.844,-2.285 C 3.276,-3.004 3.125,-4.079 2.498,-4.733 1.812,-5.455 0.66,-5.444 -0.604,-4.762 l -0.563,0.312 -10.616,-6.286 C -9.226,-8.406 -1.067,-0.972 0,0 m 14.322,-11.719 c -0.505,4.067 -2.405,5.633 -7.261,5.987 L 6.915,-5.722 6.777,-5.767 C 6.664,-5.803 -3.764,-9.178 -9.15,-10.921 l 8.013,4.745 c 1.836,-0.923 3.606,-0.763 4.72,0.406 0.973,1.016 1.264,2.585 0.76,3.83 0.485,0.163 0.949,0.423 1.399,0.676 0.834,0.465 1.886,1.057 3.151,0.852 L 11.037,-0.756 9.563,0.838 C 7.626,2.929 4.512,3.117 -0.63,1.37 L -0.776,1.32 -0.892,1.217 C -0.995,1.123 -8.84,-6.025 -12.13,-9.023 l 3.529,7.236 c 1.751,-0.356 3.497,0.187 4.205,1.319 0.252,0.399 0.38,0.858 0.38,1.364 0,1.009 -0.512,2.154 -1.525,3.405 1.019,1.607 2.165,2.547 3.77,3.596 l 2.176,1.425 -2.6,-0.047 C -7.153,9.186 -11.338,6.685 -13.388,2.586 l -4.049,-14.787 -24.628,-5.645 2.842,6.195 c 0.738,1.63 2.067,3.129 3.361,4.587 l 1.313,1.509 c 3.226,3.632 3.66,7.501 3.66,10.807 0,1.47 -0.094,2.98 -0.186,4.438 l -0.072,1.228 c -18.012,-7.605 -35.236,-11.43 -51.449,-11.43 -6.378,0 -12.593,0.599 -18.645,1.782 -1.031,-1.044 -2.315,-2.279 -3.752,-3.627 l 12.539,-11.081 c 4.138,5.04 8.607,9.143 13.401,12.254 0.51,-6.801 2.021,-13.654 4.103,-18.522 l 2.544,-23.783 c -4.246,-0.313 -11.718,-0.864 -11.846,-0.877 -1.801,0.124 -3.949,-0.941 -5.52,-2.716 -1.002,-1.13 -1.599,-2.428 -1.727,-3.753 l -0.218,-2.272 1.524,1.701 c 1.145,1.278 3.059,2.072 4.104,1.696 0.132,-1.046 0.734,-1.841 1.715,-2.254 1.255,-0.524 2.984,-0.264 3.969,0.597 0.649,0.57 0.939,1.325 0.84,2.157 l 9.995,1.385 9.057,-11.351 c -1.165,-1.878 -0.564,-3.813 0.421,-5.029 0.696,-0.856 1.98,-1.77 3.492,-1.77 0.394,0 0.779,0.064 1.145,0.187 0.522,-0.737 0.767,-1.56 0.767,-2.566 0,-0.73 -0.145,-1.502 -0.303,-2.229 l -0.28,-1.295 1.254,0.426 c 1.704,0.577 2.857,1.67 3.336,3.161 0.171,0.531 0.257,1.101 0.257,1.693 0,2.084 -1.038,4.41 -2.946,6.575 l -9.954,10.335 8.028,-4.735 c -0.83,-1.397 -0.264,-3.015 0.807,-3.966 0.718,-0.64 1.625,-0.993 2.552,-0.993 1.014,0 1.989,0.416 2.835,1.213 1.366,-0.085 1.973,-1.37 2.742,-3.326 l 0.953,-2.163 0.771,0.996 c 0.751,0.969 1.132,2.043 1.132,3.193 0,0.402 -0.038,0.809 -0.112,1.21 -0.454,2.475 -2.155,4.795 -4.133,5.639 l -14.891,6.482 8.387,-0.088 c 0.705,-2.226 2.21,-3.396 4.114,-3.094 1.576,0.25 2.881,1.472 3.048,2.771 1.637,-0.022 3.259,-1.308 4.861,-2.577 l 2.597,-1.956 -0.256,1.795 c -0.341,2.403 -1.524,4.515 -3.42,6.105 -1.795,1.505 -3.983,2.369 -6.005,2.369 -0.302,0 -0.598,-0.02 -0.878,-0.059 l -15.609,-1.981 -1.198,21.045 c 6.033,4.872 8.676,13.438 11.694,23.364 0.585,-6.742 2.532,-29.17 2.607,-30.028 l 0.092,-1.053 0.963,0.435 c 11.189,5.052 21.819,8.515 32.471,10.577 -1.074,-3.047 -3.778,-10.717 -3.829,-10.862 -0.322,-0.722 -0.485,-1.476 -0.485,-2.239 0,-2.023 1.203,-4.104 3.299,-5.709 l 1.568,-1.2 -0.552,2.851 c -0.146,0.612 -0.284,1.191 -0.284,1.728 0,0.558 0.147,1.018 0.474,1.468 2.499,0.149 3.426,1.1 3.761,1.875 0.141,0.319 0.212,0.677 0.212,1.065 0,1.159 -0.638,2.356 -1.279,3.152 l 2.158,9.621 14.829,3.734 c 1.808,-1.192 3.398,-1.573 4.665,-1.145 1.189,0.396 2.115,1.473 2.759,3.207 1.644,-0.019 3.376,-0.238 5.008,-1.447 l 1.406,-1.042 z"
         style="fill:#231f20;fill-opacity:1;fill-rule:nonzero;stroke:none"
         transform="matrix(1.3333333,0,0,-1.3333333,538.13667,737.27787)"
         clip-path="url(#clipPath42)" />
      <path
         id="path43"
         d="M 0,0 -0.562,-0.307 C -1.839,-0.998 -2.98,-1.005 -3.67,-0.28 -4.296,0.373 -4.447,1.447 -4.013,2.167 l 0.837,1.394 -1.599,0.301 C -5.188,3.939 -5.671,4.21 -6.183,4.497 -6.652,4.76 -7.223,5.079 -7.891,5.303 -6.329,5.729 -4.154,5.45 -1.17,4.451 -0.101,3.478 8.051,-3.952 10.609,-6.284 Z m 88.602,-42.631 c -1.488,1.682 -3.493,2.726 -5.233,2.726 -0.097,0 -0.193,-0.003 -0.197,-0.009 -0.215,0.013 -7.695,0.563 -11.938,0.876 l 2.546,23.783 c 2.073,4.823 3.592,11.702 4.101,18.524 5.152,-3.344 9.933,-7.821 14.326,-13.389 4.178,3.69 8.898,7.809 12.507,11.154 -1.607,1.532 -3.172,3.084 -4.674,4.681 C 93.998,4.536 87.789,3.939 81.424,3.939 65.21,3.939 47.988,7.765 29.976,15.37 l -0.075,-1.264 c -0.094,-1.532 -0.184,-2.979 -0.184,-4.403 0,-3.306 0.435,-7.174 3.637,-10.777 0.008,-0.01 1.337,-1.539 1.348,-1.552 1.285,-1.448 2.613,-2.944 3.353,-4.578 l 2.84,-6.191 -24.628,5.645 -3.996,14.648 -0.053,0.139 c -2.051,4.099 -6.236,6.6 -11.194,6.69 l -2.6,0.046 L 0.6,12.349 C 2.205,11.298 3.353,10.358 4.37,8.753 3.357,7.501 2.844,6.356 2.844,5.347 2.844,4.843 2.971,4.385 3.223,3.985 3.786,3.088 4.947,2.552 6.328,2.552 c 0.367,0 0.737,0.038 1.104,0.113 l 3.529,-7.24 C 7.673,-1.578 -0.174,5.573 -0.277,5.667 l -0.116,0.104 -0.147,0.05 c -5.141,1.747 -8.255,1.56 -10.193,-0.532 l -1.478,-1.594 2.147,0.344 c 1.277,0.202 2.319,-0.387 3.148,-0.851 0.453,-0.253 0.918,-0.514 1.403,-0.678 -0.505,-1.243 -0.214,-2.813 0.759,-3.827 1.117,-1.171 2.88,-1.335 4.72,-0.407 l 8.013,-4.745 c -5.388,1.743 -15.815,5.118 -15.928,5.155 l -0.138,0.043 -0.144,-0.01 c -4.855,-0.353 -6.755,-1.919 -7.263,-5.987 l -0.218,-1.737 1.408,1.042 c 1.633,1.209 3.366,1.428 5.01,1.447 0.642,-1.733 1.568,-2.811 2.754,-3.206 1.277,-0.431 2.855,-0.05 4.669,1.144 l 14.829,-3.734 2.158,-9.622 c -0.638,-0.79 -1.278,-1.99 -1.278,-3.151 0,-0.385 0.07,-0.741 0.209,-1.06 0.337,-0.781 1.266,-1.731 3.764,-1.879 0.328,-0.453 0.475,-0.913 0.475,-1.469 0,-0.54 -0.14,-1.122 -0.3,-1.788 l -0.542,-2.792 1.571,1.201 c 2.098,1.606 3.301,3.686 3.301,5.709 0,0.766 -0.164,1.519 -0.466,2.192 -0.067,0.183 -2.774,7.861 -3.848,10.908 10.653,-2.061 21.282,-5.524 32.471,-10.576 l 0.964,-0.435 2.698,31.078 c 3.016,-9.919 5.658,-18.484 11.692,-23.36 l -1.197,-21.045 -15.599,1.979 c -2.218,0.309 -4.83,-0.579 -6.892,-2.308 -1.897,-1.59 -3.079,-3.702 -3.422,-6.106 l -0.255,-1.796 2.63,1.982 c 1.569,1.244 3.192,2.53 4.828,2.552 0.168,-1.299 1.474,-2.521 3.048,-2.771 1.901,-0.298 3.409,0.866 4.114,3.095 l 8.386,0.087 -14.885,-6.48 c -1.981,-0.846 -3.684,-3.166 -4.139,-5.642 -0.074,-0.408 -0.112,-0.815 -0.112,-1.209 0,-1.149 0.382,-2.223 1.133,-3.194 l 0.773,-0.996 0.964,2.194 c 0.756,1.926 1.363,3.211 2.729,3.296 0.84,-0.794 1.818,-1.213 2.835,-1.213 0.927,0 1.835,0.353 2.553,0.993 1.071,0.952 1.637,2.568 0.807,3.966 l 8.026,4.734 -9.975,-10.359 c -1.885,-2.14 -2.923,-4.466 -2.923,-6.549 0,-0.594 0.086,-1.164 0.257,-1.694 0.478,-1.491 1.632,-2.585 3.337,-3.161 l 1.255,-0.426 -0.283,1.296 c -0.158,0.724 -0.303,1.495 -0.303,2.229 0,1.006 0.245,1.828 0.768,2.565 0.368,-0.124 0.751,-0.186 1.144,-0.186 1.511,0 2.795,0.914 3.493,1.77 0.985,1.215 1.586,3.15 0.42,5.029 l 9.057,11.35 9.995,-1.385 c -0.1,-0.831 0.191,-1.586 0.842,-2.16 0.982,-0.855 2.706,-1.119 3.97,-0.593 0.979,0.412 1.581,1.208 1.714,2.254 1.032,0.371 2.956,-0.418 4.103,-1.698 l 1.529,-1.703 -0.223,2.277 c -0.13,1.326 -0.727,2.624 -1.727,3.751"
         style="fill:#231f20;fill-opacity:1;fill-rule:nonzero;stroke:none"
         transform="matrix(1.3333333,0,0,-1.3333333,257.12373,743.21267)"
         clip-path="url(#clipPath44)" />
      <path
         id="path45"
         d="m 0,0 c -1.2,-2.229 -2.357,-4.543 -3.449,-6.948 0.711,-1.573 1.412,-3.174 2.09,-4.832 l 0.291,-0.714 0.706,0.31 c 1.375,0.606 3.941,1.957 4.971,3.004 l 0.399,0.405 -0.281,0.493 C 4.59,-8.042 2.293,-4.018 0,0"
         style="fill:#231f20;fill-opacity:1;fill-rule:nonzero;stroke:none"
         transform="matrix(1.3333333,0,0,-1.3333333,401.36973,775.6736)"
         clip-path="url(#clipPath46)" />
      <path
         id="path47"
         d="m 0,0 c -4.123,3.886 -8.57,7.687 -12.511,11.049 -1.376,-1.749 -2.732,-3.64 -4.062,-5.632 3.958,-4.152 9.875,-10.36 10.081,-10.574 l 0.29,-0.302 0.409,0.09 c 1.871,0.406 5.023,2.926 5.923,4.44 l 0.307,0.517 z"
         style="fill:#231f20;fill-opacity:1;fill-rule:nonzero;stroke:none"
         transform="matrix(1.3333333,0,0,-1.3333333,430.29947,771.50053)"
         clip-path="url(#clipPath48)" />
      <path
         id="path49"
         d="m 0,0 c -1.23,-1.893 -2.436,-3.875 -3.599,-5.952 l 6.405,-8.603 0.922,0.362 c 0.355,0.135 0.71,0.25 1.059,0.361 1.257,0.403 2.558,0.821 3.413,2.084 l 0.3,0.442 -0.32,0.428 C 7.953,-10.575 3.297,-4.385 0,0"
         style="fill:#231f20;fill-opacity:1;fill-rule:nonzero;stroke:none"
         transform="matrix(1.3333333,0,0,-1.3333333,407.336,765.5812)"
         clip-path="url(#clipPath50)" />
      <path
         id="path51"
         d="m 0,0 c -1.218,-1.073 -2.412,-2.125 -3.544,-3.12 -3.694,-3.25 -6.612,-5.818 -7.891,-7.023 l -0.436,-0.413 0.307,-0.516 c 0.9,-1.514 4.052,-4.033 5.921,-4.44 l 0.411,-0.09 0.29,0.303 c 0.19,0.197 5.245,5.5 9.134,9.581 C 2.37,-2.944 0.888,-1.055 0,0"
         style="fill:#231f20;fill-opacity:1;fill-rule:nonzero;stroke:none"
         transform="matrix(1.3333333,0,0,-1.3333333,378.64587,757.97707)"
         clip-path="url(#clipPath52)" />
      <path
         id="path53"
         d="m 0,0 -4.154,-7.278 0.398,-0.406 c 1.031,-1.046 3.598,-2.398 4.973,-3.004 l 0.705,-0.31 0.292,0.714 c 0.399,0.978 0.811,1.928 1.223,2.877 C 2.287,-4.686 1.131,-2.224 0,0"
         style="fill:#231f20;fill-opacity:1;fill-rule:nonzero;stroke:none"
         transform="matrix(1.3333333,0,0,-1.3333333,391.19013,777.6684)"
         clip-path="url(#clipPath54)" />
      <path
         id="path55"
         d="m 0,0 c -3.19,-4.242 -7.107,-9.45 -7.313,-9.728 l -0.321,-0.426 0.299,-0.443 c 0.855,-1.263 2.154,-1.68 3.412,-2.084 0.349,-0.112 0.704,-0.226 1.054,-0.359 l 0.927,-0.365 0.342,0.459 c 0.156,0.208 2.565,3.444 5.121,6.877 C 2.281,-3.747 1.094,-1.726 0,0"
         style="fill:#231f20;fill-opacity:1;fill-rule:nonzero;stroke:none"
         transform="matrix(1.3333333,0,0,-1.3333333,385.21093,767.11507)"
         clip-path="url(#clipPath56)" />
      <path
         id="path57"
         d="m 0,0 -0.155,-0.543 c -0.036,-0.129 -0.073,-0.269 -0.114,-0.43 -0.055,-0.218 -0.121,-0.474 -0.21,-0.784 l -0.333,-1.141 1.173,0.191 c 1.989,0.324 12.191,2.064 17.812,4.475 l 0.154,0.066 0.051,0.058 c 0.281,0.175 0.997,0.631 1.621,1.761 L 21.033,5.531 19.054,4.708 C 13.183,2.269 6.879,0.01 0.565,0.001 Z"
         style="fill:#231f20;fill-opacity:1;fill-rule:nonzero;stroke:none"
         transform="matrix(1.3333333,0,0,-1.3333333,555.918,582.5916)"
         clip-path="url(#clipPath58)" />
      <path
         id="path59"
         d="m 0,0 c 0,1.085 0.883,1.967 1.969,1.967 0.275,0 0.536,-0.058 0.774,-0.16 -0.524,0.718 -1.344,1.2 -2.292,1.2 -1.625,0 -2.885,-1.388 -2.885,-3.007 0,-1.615 1.26,-2.885 2.885,-2.885 0.916,0 1.71,0.414 2.237,1.058 C 2.464,-1.915 2.223,-1.968 1.969,-1.968 0.883,-1.968 0,-1.085 0,0"
         style="fill:#fcd405;fill-opacity:1;fill-rule:nonzero;stroke:none"
         transform="matrix(1.3333333,0,0,-1.3333333,550.40493,569.8364)"
         clip-path="url(#clipPath60)" />
      <path
         id="path61"
         d="M 0,0 C 3.731,8.267 7.999,15.395 12.625,21.265 L -0.147,32.452 C -3.804,29.06 -8.297,25.059 -12.539,21.312 -10.44,18.843 -5.24,12.036 0,0"
         style="fill:#231f20;fill-opacity:1;fill-rule:nonzero;stroke:none"
         transform="matrix(1.3333333,0,0,-1.3333333,396.7852,785.1216)"
         clip-path="url(#clipPath62)" />
      <path
         id="path63"
         d="M 0,0 C -0.037,0.201 -0.045,0.298 -0.062,0.507 -0.069,0.603 -0.078,0.719 -0.094,0.864 1.853,4.161 3.914,8.973 4.99,14.227 6.096,8.886 8.193,4.015 10.048,0.882 10.034,0.732 10.023,0.603 10.012,0.455 9.997,0.264 9.989,0.17 9.961,-0.019 8.302,0.491 6.687,0.74 5.047,0.74 H 4.898 C 3.205,0.74 1.529,0.486 0,0"
         style="fill:#ee263a;fill-opacity:1;fill-rule:nonzero;stroke:none"
         transform="matrix(1.3333333,0,0,-1.3333333,390.4648,519.09813)"
         clip-path="url(#clipPath64)" />
      <path
         id="path65"
         d="M 0,0 C -0.2,0.025 -0.291,0.047 -0.487,0.094 -0.583,0.117 -0.7,0.146 -0.852,0.177 -3.383,3.045 -7.318,6.488 -11.977,9.135 -7.324,8.622 -1.917,8.892 2.265,9.829 2.428,9.758 2.551,9.707 2.662,9.661 2.838,9.589 2.919,9.556 3.096,9.468 2.098,8.048 1.361,6.588 0.853,5.024 L 0.809,4.888 C 0.285,3.277 0.01,1.604 0,0"
         style="fill:#ee263a;fill-opacity:1;fill-rule:nonzero;stroke:none"
         transform="matrix(1.3333333,0,0,-1.3333333,370.32293,543.20747)"
         clip-path="url(#clipPath66)" />
      <path
         id="path67"
         d="m 0,0 c 0.143,-0.134 0.197,-0.199 0.316,-0.338 0.069,-0.08 0.154,-0.179 0.27,-0.307 0.361,-3.81 1.521,-8.915 3.739,-13.798 -4.035,3.671 -8.595,6.38 -11.935,7.824 -0.098,0.163 -0.167,0.277 -0.225,0.369 -0.098,0.161 -0.145,0.241 -0.233,0.41 1.638,0.562 3.091,1.31 4.42,2.274 l 0.122,0.087 C -2.157,-2.482 -0.951,-1.292 0,0"
         style="fill:#ee263a;fill-opacity:1;fill-rule:nonzero;stroke:none"
         transform="matrix(1.3333333,0,0,-1.3333333,417.7552,562.28173)"
         clip-path="url(#clipPath68)" />
      <path
         id="path69"
         d="m 0,0 -0.046,0.142 c -0.522,1.609 -1.283,3.124 -2.218,4.429 0.175,0.096 0.265,0.133 0.453,0.212 0.091,0.038 0.202,0.084 0.34,0.147 1.742,-0.388 5.082,-0.972 9.39,-0.972 1.682,0 3.315,0.089 4.893,0.266 C 8.073,1.521 4.087,-1.979 1.681,-4.712 1.495,-4.754 1.364,-4.785 1.257,-4.812 1.075,-4.854 0.983,-4.876 0.796,-4.907 0.769,-3.171 0.507,-1.557 0,0"
         style="fill:#ee263a;fill-opacity:1;fill-rule:nonzero;stroke:none"
         transform="matrix(1.3333333,0,0,-1.3333333,422.664,536.6528)"
         clip-path="url(#clipPath70)" />
      <path
         id="path71"
         d="m 0,0 c 0.169,1.542 0.328,2.999 0.581,4.146 l 0.08,0.364 -0.24,0.284 c -0.643,0.757 -1.162,1.767 -1.368,2.245 l -0.686,1.59 -0.69,-1.588 C -2.533,6.56 -3.058,5.544 -3.694,4.793 L -3.945,4.497 -3.849,4.121 c 0.313,-1.215 0.466,-2.809 0.627,-4.495 0.185,-1.923 0.376,-3.91 0.826,-5.661 l 0.722,-2.802 0.731,2.8 C -0.457,-4.171 -0.225,-2.051 0,0"
         style="fill:#ee263a;fill-opacity:1;fill-rule:nonzero;stroke:none"
         transform="matrix(1.3333333,0,0,-1.3333333,399.10933,623.1684)"
         clip-path="url(#clipPath72)" />
      <path
         id="path73"
         d="m 0,0 -0.926,-0.713 c -0.011,-0.009 -0.358,-0.274 -0.829,-0.57 l -0.197,-0.182 c -0.417,-0.551 -1.597,-2.137 -1.597,-2.137 l -0.28,-0.377 0.9,-1.722 3.428,3.538 z"
         style="fill:#ee263a;fill-opacity:1;fill-rule:nonzero;stroke:none"
         transform="matrix(1.3333333,0,0,-1.3333333,392.27347,618.97053)"
         clip-path="url(#clipPath74)" />
      <path
         id="path75"
         d="m 0,0 -0.197,0.181 c -0.471,0.298 -0.821,0.564 -0.831,0.572 l -0.925,0.709 -0.498,-2.16 3.428,-3.538 0.9,1.721 -0.281,0.378 c 0,0 -1.179,1.586 -1.596,2.137"
         style="fill:#ee263a;fill-opacity:1;fill-rule:nonzero;stroke:none"
         transform="matrix(1.3333333,0,0,-1.3333333,404.15493,620.9236)"
         clip-path="url(#clipPath76)" />
      <path
         id="path77"
         d="M 0,0 0.301,0.292 0.209,0.702 C 0.13,1.057 -0.048,2.155 -0.048,2.157 l -0.234,1.449 -3.236,-3.242 1.289,-2.6 0.74,0.747 c 0,0 1.088,1.099 1.489,1.489"
         style="fill:#ee263a;fill-opacity:1;fill-rule:nonzero;stroke:none"
         transform="matrix(1.3333333,0,0,-1.3333333,394.01827,628.7036)"
         clip-path="url(#clipPath78)" />
      <path
         id="path79"
         d="m 0,0 c -0.001,-0.002 -0.178,-1.101 -0.257,-1.455 l -0.092,-0.408 0.3,-0.293 c 0.4,-0.39 1.49,-1.49 1.491,-1.491 l 0.739,-0.746 1.289,2.6 -3.236,3.242 z"
         style="fill:#ee263a;fill-opacity:1;fill-rule:nonzero;stroke:none"
         transform="matrix(1.3333333,0,0,-1.3333333,399.86587,625.82733)"
         clip-path="url(#clipPath80)" />
      <path
         id="path81"
         d="M 0,0 C -0.123,0.355 -0.771,2.532 -0.771,2.533 L -1.113,3.685 -3.366,1.61 -3.113,1.105 c 0.045,-0.089 1.109,-2.211 1.748,-3.37 l 1.331,-2.413 0.075,2.755 c 0.022,0.809 0.026,1.18 0,1.714 z"
         style="fill:#ee263a;fill-opacity:1;fill-rule:nonzero;stroke:none"
         transform="matrix(1.3333333,0,0,-1.3333333,396.34893,635.38853)"
         clip-path="url(#clipPath82)" />
      <path
         id="path83"
         d="m 0,0 c 0,-0.001 -0.647,-2.178 -0.771,-2.533 l -0.041,-0.209 c -0.027,-0.566 -0.022,-0.969 0,-1.716 l 0.083,-2.741 1.324,2.401 c 0.637,1.158 1.702,3.28 1.748,3.37 l 0.253,0.505 -2.253,2.074 z"
         style="fill:#ee263a;fill-opacity:1;fill-rule:nonzero;stroke:none"
         transform="matrix(1.3333333,0,0,-1.3333333,398.49867,632.01093)"
         clip-path="url(#clipPath84)" />
      <path
         id="path85"
         d="m 0,0 1.301,1.141 -1.722,0.17 C -0.565,1.325 -1.869,1.463 -2.983,1.92 L -3.343,2.067 -3.67,1.859 C -4.729,1.187 -6.196,0.55 -7.749,-0.125 c -1.772,-0.771 -3.606,-1.566 -5.133,-2.537 l -2.437,-1.552 2.884,0.17 c 1.926,0.113 4.016,0.549 6.038,0.97 1.517,0.316 2.951,0.615 4.121,0.729 l 0.369,0.036 0.195,0.317 C -1.19,-1.146 -0.391,-0.342 0,0"
         style="fill:#ee263a;fill-opacity:1;fill-rule:nonzero;stroke:none"
         transform="matrix(1.3333333,0,0,-1.3333333,331.3972,567.18933)"
         clip-path="url(#clipPath86)" />
      <path
         id="path87"
         d="M 0,0 -0.964,0.661 C -0.976,0.67 -1.337,0.918 -1.763,1.273 L -2,1.407 c -0.653,0.225 -2.523,0.855 -2.523,0.855 l -0.445,0.15 -1.366,-1.384 4.43,-2.169 z"
         style="fill:#ee263a;fill-opacity:1;fill-rule:nonzero;stroke:none"
         transform="matrix(1.3333333,0,0,-1.3333333,324.7448,563.49267)"
         clip-path="url(#clipPath88)" />
      <path
         id="path89"
         d="m 0,0 1.912,-0.332 0.274,0.386 c 0,0 1.143,1.612 1.539,2.178 L 3.836,2.478 C 3.973,3.015 4.119,3.429 4.124,3.441 L 4.518,4.544 2.303,4.349 Z"
         style="fill:#ee263a;fill-opacity:1;fill-rule:nonzero;stroke:none"
         transform="matrix(1.3333333,0,0,-1.3333333,321.58987,578.3716)"
         clip-path="url(#clipPath90)" />
      <path
         id="path91"
         d="m 0,0 0.369,-0.194 0.36,0.212 C 1.044,0.202 2.035,0.709 2.037,0.71 L 3.345,1.38 -0.739,3.457 -2.814,1.428 -1.877,0.956 C -1.876,0.955 -0.492,0.259 0,0"
         style="fill:#ee263a;fill-opacity:1;fill-rule:nonzero;stroke:none"
         transform="matrix(1.3333333,0,0,-1.3333333,316.0248,568.15667)"
         clip-path="url(#clipPath92)" />
      <path
         id="path93"
         d="m 0,0 c -0.002,-0.001 -1.1,-0.172 -1.463,-0.206 l -0.418,-0.039 -0.184,-0.376 c -0.248,-0.5 -0.956,-1.876 -0.957,-1.877 l -0.482,-0.934 2.872,-0.422 2.082,4.079 z"
         style="fill:#ee263a;fill-opacity:1;fill-rule:nonzero;stroke:none"
         transform="matrix(1.3333333,0,0,-1.3333333,320.5664,572.82853)"
         clip-path="url(#clipPath94)" />
      <path
         id="path95"
         d="m 0,0 0.187,0.104 c 0.299,0.227 2.169,1.515 2.17,1.515 L 3.346,2.301 0.678,3.804 0.275,3.406 C 0.204,3.336 -1.485,1.667 -2.388,0.702 l -1.876,-2.006 2.635,0.775 C -0.854,-0.302 -0.499,-0.188 0,0"
         style="fill:#ee263a;fill-opacity:1;fill-rule:nonzero;stroke:none"
         transform="matrix(1.3333333,0,0,-1.3333333,310.13933,572.57853)"
         clip-path="url(#clipPath96)" />
      <path
         id="path97"
         d="m 0,0 -0.109,0.002 -0.106,-0.029 c -0.514,-0.141 -0.866,-0.258 -1.627,-0.53 l -2.591,-0.923 2.702,-0.519 c 1.295,-0.249 3.644,-0.606 3.743,-0.622 L 2.571,-2.706 3.846,0.079 2.646,0.05 C 2.646,0.049 0.602,-0.003 0,0"
         style="fill:#ee263a;fill-opacity:1;fill-rule:nonzero;stroke:none"
         transform="matrix(1.3333333,0,0,-1.3333333,310.73573,573.5044)"
         clip-path="url(#clipPath98)" />
      <path
         id="path99"
         d="m 0,0 0.361,-0.088 c 0.957,-0.233 1.976,-0.747 2.427,-1.014 l 1.493,-0.88 -0.38,1.691 C 3.787,0.218 3.613,1.343 3.689,2.329 l 0.03,0.388 -0.3,0.248 C 2.452,3.764 1.392,4.962 0.271,6.231 -1.01,7.679 -2.333,9.176 -3.728,10.327 l -2.229,1.84 1.054,-2.691 c 0.704,-1.8 1.765,-3.657 2.792,-5.452 0.768,-1.342 1.493,-2.611 1.963,-3.684 z"
         style="fill:#ee263a;fill-opacity:1;fill-rule:nonzero;stroke:none"
         transform="matrix(1.3333333,0,0,-1.3333333,352.01693,488.796)"
         clip-path="url(#clipPath100)" />
      <path
         id="path101"
         d="M 0,0 C 0.004,0.014 0.13,0.434 0.336,0.949 L 0.391,1.216 C 0.402,1.905 0.424,3.881 0.424,3.881 L 0.429,4.352 -1.31,5.216 -2.003,0.339 -0.332,-1.119 Z"
         style="fill:#ee263a;fill-opacity:1;fill-rule:nonzero;stroke:none"
         transform="matrix(1.3333333,0,0,-1.3333333,357.62893,481.3)"
         clip-path="url(#clipPath102)" />
      <path
         id="path103"
         d="m 0,0 c 0,0 1.886,-0.592 2.548,-0.792 l 0.131,-0.039 0.135,0.009 c 0.35,0.022 0.655,0.027 0.838,0.027 l 1.341,-0.031 -0.874,2.04 -4.849,0.847 0.281,-1.92 z"
         style="fill:#ee263a;fill-opacity:1;fill-rule:nonzero;stroke:none"
         transform="matrix(1.3333333,0,0,-1.3333333,343.03253,487.13973)"
         clip-path="url(#clipPath104)" />
      <path
         id="path105"
         d="m 0,0 1.042,-1.033 0.709,4.523 -2.57,1.346 -0.16,-1.037 c 0,0 -0.235,-1.532 -0.329,-2.084 L -1.376,1.305 -1.065,1.029 C -0.794,0.788 -0.001,0.001 0,0"
         style="fill:#ee263a;fill-opacity:1;fill-rule:nonzero;stroke:none"
         transform="matrix(1.3333333,0,0,-1.3333333,351.80213,478.2336)"
         clip-path="url(#clipPath106)" />
      <path
         id="path107"
         d="m 0,0 -0.167,0.381 -0.412,0.06 c -0.551,0.08 -2.08,0.33 -2.08,0.33 L -3.696,0.94 -3.209,-1.92 1.312,-2.643 0.65,-1.332 C 0.649,-1.33 0.146,-0.335 0,0"
         style="fill:#ee263a;fill-opacity:1;fill-rule:nonzero;stroke:none"
         transform="matrix(1.3333333,0,0,-1.3333333,346.15107,479.93147)"
         clip-path="url(#clipPath108)" />
      <path
         id="path109"
         d="m 0,0 0.16,-0.148 c 0.308,-0.214 2.109,-1.593 2.11,-1.593 l 0.953,-0.73 0.605,2.999 -0.502,0.26 C 3.237,0.834 1.127,1.927 -0.07,2.487 L -2.562,3.652 -1.007,1.384 C -0.551,0.719 -0.332,0.417 0,0"
         style="fill:#ee263a;fill-opacity:1;fill-rule:nonzero;stroke:none"
         transform="matrix(1.3333333,0,0,-1.3333333,344.03387,471.71013)"
         clip-path="url(#clipPath110)" />
      <path
         id="path111"
         d="M 0,0 0.092,-0.558 3.135,-0.91 2.734,0.223 c 0,0 -0.755,2.141 -0.864,2.501 L 1.778,2.92 C 1.485,3.365 1.266,3.666 0.771,4.306 L -0.907,6.478 -0.566,3.754 C -0.402,2.442 -0.017,0.1 0,0"
         style="fill:#ee263a;fill-opacity:1;fill-rule:nonzero;stroke:none"
         transform="matrix(1.3333333,0,0,-1.3333333,340.84507,476.19707)"
         clip-path="url(#clipPath112)" />
      <path
         id="path113"
         d="m 0,0 -0.277,-0.246 0.027,-0.37 c 0.074,-0.988 -0.1,-2.113 -0.214,-2.622 l -0.38,-1.692 1.492,0.881 c 0.452,0.267 1.471,0.779 2.43,1.014 l 0.377,0.092 0.143,0.36 C 4.06,-1.416 4.872,-0.039 5.731,1.42 6.713,3.085 7.729,4.807 8.393,6.488 L 9.456,9.178 7.22,7.344 C 5.728,6.12 4.293,4.539 2.904,3.011 1.862,1.863 0.878,0.779 0,0"
         style="fill:#ee263a;fill-opacity:1;fill-rule:nonzero;stroke:none"
         transform="matrix(1.3333333,0,0,-1.3333333,437.0508,484.8664)"
         clip-path="url(#clipPath114)" />
      <path
         id="path115"
         d="m 0,0 1.349,0.033 c 0.182,0 0.48,-0.004 0.822,-0.026 l 0.137,-0.009 0.13,0.04 c 0.66,0.201 2.546,0.791 2.546,0.791 L 5.435,0.97 5.715,2.891 0.861,2.042 Z"
         style="fill:#ee263a;fill-opacity:1;fill-rule:nonzero;stroke:none"
         transform="matrix(1.3333333,0,0,-1.3333333,443.9948,488.26093)"
         clip-path="url(#clipPath116)" />
      <path
         id="path117"
         d="M 0,0 0.054,-0.264 C 0.26,-0.778 0.384,-1.197 0.388,-1.212 L 0.716,-2.334 2.394,-0.877 1.7,4 -0.038,3.138 -0.033,2.668 C -0.033,2.668 -0.014,0.69 0,0"
         style="fill:#ee263a;fill-opacity:1;fill-rule:nonzero;stroke:none"
         transform="matrix(1.3333333,0,0,-1.3333333,435.5248,479.69707)"
         clip-path="url(#clipPath118)" />
      <path
         id="path119"
         d="m 0,0 -1.037,-0.17 c 0,0 -1.53,-0.25 -2.083,-0.331 L -3.534,-0.562 -3.7,-0.945 c -0.144,-0.333 -0.646,-1.326 -0.648,-1.328 l -0.661,-1.31 4.522,0.721 z"
         style="fill:#ee263a;fill-opacity:1;fill-rule:nonzero;stroke:none"
         transform="matrix(1.3333333,0,0,-1.3333333,452.45707,478.69573)"
         clip-path="url(#clipPath120)" />
      <path
         id="path121"
         d="M 0,0 C 0.001,0.002 0.794,0.789 1.066,1.031 L 1.376,1.307 1.307,1.716 C 1.214,2.267 0.979,3.799 0.979,3.8 l -0.16,1.036 -2.572,-1.344 0.712,-4.524 z"
         style="fill:#ee263a;fill-opacity:1;fill-rule:nonzero;stroke:none"
         transform="matrix(1.3333333,0,0,-1.3333333,441.8776,478.2544)"
         clip-path="url(#clipPath122)" />
      <path
         id="path123"
         d="m 0,0 c 0.017,0.099 0.402,2.442 0.566,3.753 l 0.34,2.72 -1.677,-2.167 C -1.277,3.651 -1.494,3.354 -1.779,2.918 L -1.87,2.723 c -0.109,-0.36 -0.862,-2.499 -0.862,-2.5 l -0.399,-1.131 3.038,0.349 z"
         style="fill:#ee263a;fill-opacity:1;fill-rule:nonzero;stroke:none"
         transform="matrix(1.3333333,0,0,-1.3333333,452.83467,476.21667)"
         clip-path="url(#clipPath124)" />
      <path
         id="path125"
         d="M 0,0 C 0,0 1.806,1.38 2.114,1.596 L 2.271,1.742 C 2.604,2.158 2.82,2.46 3.277,3.127 L 4.829,5.396 2.34,4.229 C 1.143,3.669 -0.967,2.576 -1.056,2.53 l -0.502,-0.259 0.605,-3 z"
         style="fill:#ee263a;fill-opacity:1;fill-rule:nonzero;stroke:none"
         transform="matrix(1.3333333,0,0,-1.3333333,446.61853,474.05253)"
         clip-path="url(#clipPath126)" />
      <path
         id="path127"
         d="M 0,0 2.719,-0.176 0.474,1.367 C -1.198,2.516 -3.269,3.42 -5.271,4.294 -6.632,4.889 -7.918,5.45 -8.89,6.017 L -9.207,6.202 -9.548,6.064 C -10.477,5.69 -11.611,5.513 -12.136,5.467 l -1.753,-0.155 1.326,-1.158 c 0.397,-0.347 1.212,-1.161 1.742,-2.008 l 0.204,-0.325 0.383,-0.025 C -8.967,1.713 -7.385,1.36 -5.711,0.986 -3.801,0.56 -1.825,0.119 0,0"
         style="fill:#ee263a;fill-opacity:1;fill-rule:nonzero;stroke:none"
         transform="matrix(1.3333333,0,0,-1.3333333,478.7748,572.66187)"
         clip-path="url(#clipPath128)" />
      <path
         id="path129"
         d="M 0,0 0.4,-1.108 C 0.405,-1.121 0.554,-1.535 0.694,-2.075 L 0.808,-2.32 c 0.401,-0.568 1.563,-2.185 1.563,-2.185 l 0.272,-0.377 1.93,0.313 -2.349,4.368 z"
         style="fill:#ee263a;fill-opacity:1;fill-rule:nonzero;stroke:none"
         transform="matrix(1.3333333,0,0,-1.3333333,465.87107,572.29733)"
         clip-path="url(#clipPath130)" />
      <path
         id="path131"
         d="m 0,0 c 0,0 -1.892,-0.625 -2.552,-0.85 l -0.233,-0.13 c -0.433,-0.355 -0.797,-0.602 -0.808,-0.61 l -0.975,-0.661 1.916,-1.145 4.463,2.15 -1.368,1.392 z"
         style="fill:#ee263a;fill-opacity:1;fill-rule:nonzero;stroke:none"
         transform="matrix(1.3333333,0,0,-1.3333333,474.82813,560.4744)"
         clip-path="url(#clipPath132)" />
      <path
         id="path133"
         d="m 0,0 -0.185,0.368 -0.41,0.042 c -0.366,0.037 -1.481,0.213 -1.484,0.213 l -1.465,0.231 2.121,-4.089 2.894,0.412 -0.494,0.941 c 0,0 -0.724,1.38 -0.977,1.882"
         style="fill:#ee263a;fill-opacity:1;fill-rule:nonzero;stroke:none"
         transform="matrix(1.3333333,0,0,-1.3333333,475.75907,573.6736)"
         clip-path="url(#clipPath134)" />
      <path
         id="path135"
         d="m 0,0 c 0.002,-0.001 1.01,-0.515 1.328,-0.701 l 0.358,-0.208 0.366,0.19 c 0.496,0.258 1.892,0.948 1.892,0.948 L 4.896,0.7 2.8,2.735 -1.322,0.675 Z"
         style="fill:#ee263a;fill-opacity:1;fill-rule:nonzero;stroke:none"
         transform="matrix(1.3333333,0,0,-1.3333333,474.81253,567.22307)"
         clip-path="url(#clipPath136)" />
      <path
         id="path137"
         d="m 0,0 -0.268,0.025 c -0.532,0 -2.618,0.06 -2.619,0.06 L -4.1,0.12 l 1.296,-2.789 0.553,0.081 c 0.101,0.015 2.476,0.363 3.787,0.609 l 2.735,0.51 -2.621,0.933 C 0.879,-0.262 0.521,-0.143 0,0"
         style="fill:#ee263a;fill-opacity:1;fill-rule:nonzero;stroke:none"
         transform="matrix(1.3333333,0,0,-1.3333333,483.22,573.59293)"
         clip-path="url(#clipPath138)" />
      <path
         id="path139"
         d="m 0,0 c 0,0 1.896,-1.296 2.198,-1.524 l 0.191,-0.105 c 0.506,-0.19 0.863,-0.306 1.647,-0.535 L 6.7,-2.945 4.792,-0.929 C 3.874,0.04 2.158,1.717 2.085,1.787 L 1.686,2.178 -1.004,0.686 Z"
         style="fill:#ee263a;fill-opacity:1;fill-rule:nonzero;stroke:none"
         transform="matrix(1.3333333,0,0,-1.3333333,480.3516,570.46147)"
         clip-path="url(#clipPath140)" />
      <path
         id="path141"
         d="m 0,0 c 0.49,0.311 0.578,0.347 0.892,0.477 0.156,0.064 0.367,0.151 0.711,0.303 2.47,-0.561 5.638,-0.873 8.953,-0.872 4.156,0 10.465,0.488 16.912,2.818 -0.813,2.457 -0.074,5.822 0.642,9.076 0.862,3.917 1.674,7.617 -0.048,9.76 -1.198,1.488 -3.51,2.06 -7.094,1.761 1.445,0.493 2.761,0.694 3.896,0.694 6.352,0 6.658,-6.163 6.955,-12.123 0.147,-2.967 0.299,-6.036 1.219,-8.226 0.547,-2.321 2.227,-4.892 3.852,-7.378 2.435,-3.729 4.955,-7.585 3.9,-10.835 -0.652,-2.013 -2.588,-3.609 -5.918,-4.881 l -0.043,0.09 c 2.988,1.811 4.524,3.588 4.692,5.437 0.255,2.806 -2.631,5.369 -5.688,8.083 -2.49,2.211 -5.066,4.499 -5.914,6.996 -9.318,-2.746 -17.94,-8.991 -21.981,-13.645 -0.396,-0.096 -0.617,-0.148 -0.781,-0.187 -0.328,-0.079 -0.424,-0.102 -0.965,-0.16 -0.056,-1.362 -0.254,-2.685 -0.581,-3.961 15.95,3.034 21.539,-12.467 33.318,-7.809 7.703,3.242 11.422,16.574 6.349,31.478 C 38.622,21.935 27.776,30.536 19.64,28.631 7.386,25.479 11.949,9.68 -2.686,2.749 -1.7,1.926 -0.804,1.002 0,0"
         style="fill:#ee263a;fill-opacity:1;fill-rule:nonzero;stroke:none"
         transform="matrix(1.3333333,0,0,-1.3333333,417.06773,529.07987)"
         clip-path="url(#clipPath142)" />
      <path
         id="path143"
         d="M 0,0 C -0.014,0.167 -0.031,0.395 -0.068,0.769 3.115,6.081 6.391,16.21 6.074,25.97 H 6.041 c -2.58,-10e-4 -5.539,1.735 -8.402,3.414 -2.83,1.661 -5.506,3.229 -7.811,3.229 -2.617,0 -4.318,-2.052 -5.353,-6.461 0.185,5.619 2.312,8.23 6.597,8.23 2.305,0 5.01,-0.733 7.627,-1.442 2.867,-0.776 5.832,-1.582 8.201,-1.382 0.258,-0.021 0.512,-0.031 0.774,-0.031 2.215,0 4.867,0.719 7.433,1.414 2.616,0.708 5.321,1.442 7.627,1.442 4.272,0 6.399,-2.598 6.692,-8.171 0,-0.013 0.002,-0.024 0.004,-0.036 0,0.001 -0.002,0.002 -0.002,0.003 0,-0.004 0.002,-0.008 0.002,-0.012 -1.133,4.395 -2.834,6.447 -5.453,6.447 -2.305,0 -4.979,-1.569 -7.811,-3.23 C 13.293,27.698 10.32,25.955 7.684,25.921 7.416,16.21 10.691,6.08 13.869,0.8 13.836,0.393 13.818,0.165 13.807,-0.003 13.778,-0.354 13.77,-0.449 13.642,-1.045 c 1.254,-0.469 2.447,-1.059 3.563,-1.768 2.05,16.09 18.509,16.625 17.721,29.261 -0.703,8.328 -12.235,15.985 -27.977,15.767 -15.742,0.218 -27.273,-7.439 -27.976,-15.767 -0.79,-12.635 15.663,-13.17 17.72,-29.25 1.09,0.69 2.253,1.269 3.476,1.731 C 0.036,-0.451 0.027,-0.355 0,0"
         style="fill:#ee263a;fill-opacity:1;fill-rule:nonzero;stroke:none"
         transform="matrix(1.3333333,0,0,-1.3333333,387.806,519.68533)"
         clip-path="url(#clipPath144)" />
      <path
         id="path145"
         d="m 0,0 c -0.497,-1.248 -1.112,-2.437 -1.848,-3.541 0.444,-0.366 0.506,-0.439 0.725,-0.696 0.109,-0.129 0.258,-0.303 0.508,-0.582 0.547,-6.169 3.851,-16.289 9.844,-23.998 2.085,1.533 5.513,1.869 8.83,2.193 4.066,0.4 7.908,0.777 9.351,3.197 0.949,1.594 0.754,3.936 -0.599,7.156 2.033,-2.939 2.662,-5.367 2.005,-7.378 -1.056,-3.25 -5.361,-4.889 -9.523,-6.473 -2.777,-1.059 -5.647,-2.15 -7.447,-3.701 -2.037,-1.239 -3.963,-3.631 -5.826,-5.944 -2.795,-3.47 -5.684,-7.058 -9.102,-7.058 h -0.002 c -2.113,0 -4.228,1.347 -6.467,4.121 2.317,-1.869 4.197,-2.811 5.826,-2.809 3.301,0 4.998,3.887 6.797,8.002 1.334,3.053 2.713,6.209 4.826,7.787 -5.492,8.012 -14.095,14.284 -19.769,16.688 -0.213,0.347 -0.332,0.541 -0.42,0.685 -0.182,0.295 -0.231,0.377 -0.47,0.913 -1.232,-0.34 -2.512,-0.558 -3.83,-0.645 7.733,-14.194 -5.226,-24.285 2.831,-34.031 5.465,-6.324 19.295,-5.742 31.901,3.687 12.863,9.076 17.693,22.049 13.367,29.199 C 24.724,-2.549 11.112,-11.767 0,0"
         style="fill:#ee263a;fill-opacity:1;fill-rule:nonzero;stroke:none"
         transform="matrix(1.3333333,0,0,-1.3333333,420.88413,554.5448)"
         clip-path="url(#clipPath146)" />
      <path
         id="path147"
         d="m 0,0 c -0.164,0.039 -0.387,0.092 -0.754,0.172 -4.068,4.67 -12.691,10.914 -22.068,13.629 -0.787,-2.466 -3.364,-4.753 -5.856,-6.965 -3.054,-2.713 -5.941,-5.276 -5.685,-8.083 0.168,-1.849 1.703,-3.626 4.691,-5.437 l -0.045,-0.089 c -3.328,1.271 -5.263,2.867 -5.916,4.878 -1.055,3.251 1.465,7.108 3.901,10.836 1.625,2.488 3.304,5.059 3.849,7.371 0.92,2.2 1.072,5.267 1.221,8.233 0.295,5.96 0.601,12.123 6.955,12.123 1.135,0 2.451,-0.199 3.914,-0.594 -0.623,-0.048 -1.201,-0.022 -1.738,-0.021 -2.619,0 -4.377,-0.602 -5.373,-1.839 -1.723,-2.143 -0.908,-5.843 -0.049,-9.761 0.717,-3.254 1.455,-6.618 0.674,-9.137 6.416,-2.267 12.722,-2.756 16.879,-2.756 3.316,10e-4 6.484,0.311 8.921,0.876 0.377,-0.156 0.588,-0.243 0.743,-0.307 0.33,-0.137 0.418,-0.175 0.967,-0.493 0.821,1.022 1.735,1.965 2.743,2.801 -14.635,6.93 -10.07,22.729 -22.324,25.881 -8.136,1.906 -18.982,-6.696 -23.64,-21.734 -5.071,-14.902 -1.354,-28.236 6.349,-31.479 11.762,-4.65 17.357,10.793 33.245,7.823 -0.319,1.266 -0.511,2.579 -0.565,3.93 C 0.43,-0.104 0.336,-0.082 0,0"
         style="fill:#ee263a;fill-opacity:1;fill-rule:nonzero;stroke:none"
         transform="matrix(1.3333333,0,0,-1.3333333,370.0768,545.9288)"
         clip-path="url(#clipPath148)" />
      <path
         id="path149"
         d="M 0,0 C 0.028,0.188 0.036,0.282 0.051,0.474 0.062,0.621 0.073,0.751 0.087,0.9 -1.768,4.033 -3.865,8.904 -4.971,14.245 -6.047,8.991 -8.108,4.18 -10.055,0.883 c 0.016,-0.146 0.025,-0.262 0.033,-0.358 0.016,-0.209 0.024,-0.305 0.061,-0.506 1.529,0.486 3.205,0.74 4.899,0.74 h 0.148 C -3.274,0.759 -1.659,0.51 0,0"
         style="fill:#ee263a;fill-opacity:1;fill-rule:nonzero;stroke:none"
         transform="matrix(1.3333333,0,0,-1.3333333,403.74613,519.1228)"
         clip-path="url(#clipPath150)" />
      <path
         id="path151"
         d="m 0,0 c -0.177,0.088 -0.258,0.121 -0.434,0.193 -0.111,0.046 -0.234,0.097 -0.397,0.168 -4.182,-0.937 -9.589,-1.207 -14.241,-0.694 4.658,-2.646 8.593,-6.09 11.125,-8.958 0.151,-0.031 0.268,-0.06 0.364,-0.083 0.196,-0.047 0.287,-0.068 0.487,-0.094 0.01,1.605 0.285,3.278 0.809,4.888 l 0.044,0.137 C -1.734,-2.88 -0.998,-1.42 0,0"
         style="fill:#ee263a;fill-opacity:1;fill-rule:nonzero;stroke:none"
         transform="matrix(1.3333333,0,0,-1.3333333,374.45053,530.58387)"
         clip-path="url(#clipPath152)" />
      <path
         id="path153"
         d="m 0,0 c -0.134,-0.136 -0.194,-0.207 -0.318,-0.353 -0.076,-0.086 -0.162,-0.188 -0.283,-0.325 -0.34,-3.624 -1.506,-8.798 -3.752,-13.769 3.959,3.618 8.456,6.3 11.969,7.821 0.081,0.144 0.147,0.251 0.199,0.337 0.1,0.164 0.148,0.242 0.233,0.419 -1.525,0.507 -3.03,1.286 -4.399,2.281 l -0.12,0.087 C 2.203,-2.54 1.043,-1.389 0,0"
         style="fill:#ee263a;fill-opacity:1;fill-rule:nonzero;stroke:none"
         transform="matrix(1.3333333,0,0,-1.3333333,376.5,562.5448)"
         clip-path="url(#clipPath154)" />
      <path
         id="path155"
         d="m 0,0 c -1.328,-0.964 -2.781,-1.712 -4.42,-2.273 0.088,-0.169 0.136,-0.249 0.233,-0.411 0.058,-0.091 0.127,-0.206 0.225,-0.369 3.341,-1.444 7.9,-4.153 11.936,-7.824 C 5.756,-5.993 4.596,-0.889 4.234,2.922 4.118,3.05 4.033,3.148 3.965,3.229 3.846,3.367 3.791,3.433 3.648,3.566 2.697,2.274 1.491,1.084 0.122,0.088 Z"
         style="fill:#ee263a;fill-opacity:1;fill-rule:nonzero;stroke:none"
         transform="matrix(1.3333333,0,0,-1.3333333,412.89067,567.03693)"
         clip-path="url(#clipPath156)" />
      <path
         id="path157"
         d="M 0,0 C 0.107,0.026 0.238,0.058 0.424,0.1 2.83,2.832 6.816,6.332 11.555,9.035 9.978,8.858 8.344,8.77 6.662,8.77 2.354,8.77 -0.985,9.354 -2.728,9.741 -2.866,9.679 -2.977,9.633 -3.067,9.595 -3.256,9.516 -3.346,9.479 -3.521,9.383 -2.586,8.077 -1.825,6.562 -1.303,4.953 L -1.257,4.812 C -0.75,3.255 -0.488,1.641 -0.461,-0.096 -0.273,-0.064 -0.182,-0.043 0,0"
         style="fill:#ee263a;fill-opacity:1;fill-rule:nonzero;stroke:none"
         transform="matrix(1.3333333,0,0,-1.3333333,424.33987,543.06813)"
         clip-path="url(#clipPath158)" />
      <path
         id="path159"
         d="m 0,0 c -0.138,-0.509 -0.441,-0.937 -0.833,-1.253 -0.594,-0.478 -1.396,-0.692 -2.179,-0.483 -0.634,0.171 -1.163,0.578 -1.49,1.146 -0.328,0.569 -0.414,1.232 -0.243,1.866 0.287,1.071 1.261,1.819 2.368,1.819 0.215,0 0.43,-0.029 0.641,-0.085 C -0.951,2.799 -0.362,2.225 -0.089,1.52 0.094,1.049 0.141,0.522 0,0 M -3.586,-6.072 C -3.6,-6.187 -3.612,-6.303 -3.644,-6.417 -3.904,-7.391 -4.76,-8.086 -5.725,-8.211 -6.027,-8.25 -6.341,-8.236 -6.65,-8.152 c -0.635,0.17 -1.164,0.576 -1.493,1.144 -0.327,0.57 -0.414,1.232 -0.243,1.866 0.287,1.072 1.263,1.821 2.371,1.821 0.214,0 0.429,-0.029 0.637,-0.085 0.635,-0.171 1.164,-0.578 1.492,-1.147 0.269,-0.466 0.365,-0.994 0.3,-1.519 m -5.425,7.951 c -1.354,0 -2.457,1.101 -2.457,2.457 0,1.354 1.103,2.457 2.457,2.457 1.354,0 2.455,-1.103 2.455,-2.457 0,-1.356 -1.101,-2.457 -2.455,-2.457 m -1.052,-11.958 c -0.088,-0.326 -0.244,-0.62 -0.447,-0.874 -0.593,-0.74 -1.598,-1.122 -2.562,-0.861 -0.094,0.024 -0.18,0.065 -0.268,0.1 -0.514,0.203 -0.945,0.561 -1.225,1.046 -0.328,0.568 -0.414,1.23 -0.244,1.863 0.289,1.073 1.264,1.821 2.37,1.821 0.214,0 0.43,-0.029 0.64,-0.085 1.308,-0.352 2.087,-1.702 1.736,-3.01 m -2.471,10.698 c 1.354,0 2.457,-1.102 2.457,-2.457 0,-1.355 -1.103,-2.457 -2.457,-2.457 -1.356,0 -2.458,1.102 -2.458,2.457 0,1.355 1.102,2.457 2.458,2.457 m -3.602,1.26 c -1.355,0 -2.457,1.101 -2.457,2.457 0,1.354 1.102,2.457 2.457,2.457 1.354,0 2.455,-1.103 2.455,-2.457 0,-1.356 -1.101,-2.457 -2.455,-2.457 m -3.554,-6.174 c -1.356,0 -2.457,1.102 -2.457,2.457 0,1.355 1.101,2.457 2.457,2.457 1.353,0 2.455,-1.102 2.455,-2.457 0,-1.355 -1.102,-2.457 -2.455,-2.457 m 2.224,-5.789 c -0.205,-0.761 -0.775,-1.347 -1.474,-1.63 -0.476,-0.192 -1.011,-0.247 -1.537,-0.104 -0.536,0.143 -0.975,0.46 -1.292,0.867 -0.457,0.587 -0.651,1.37 -0.444,2.142 0.289,1.072 1.264,1.82 2.37,1.82 0.215,0 0.431,-0.029 0.642,-0.085 1.306,-0.351 2.085,-1.701 1.735,-3.01 m -5.795,11.963 c -1.355,0 -2.457,1.101 -2.457,2.457 0,1.354 1.102,2.457 2.457,2.457 1.355,0 2.457,-1.103 2.457,-2.457 0,-1.356 -1.102,-2.457 -2.457,-2.457 m -0.586,-8.254 c -0.324,-1.2 -1.55,-1.971 -2.772,-1.773 -0.079,0.013 -0.159,0.017 -0.238,0.039 -0.962,0.257 -1.633,1.058 -1.783,1.984 -0.053,0.332 -0.045,0.68 0.048,1.026 0.288,1.071 1.263,1.819 2.371,1.819 0.215,0 0.43,-0.029 0.641,-0.085 1.307,-0.351 2.085,-1.702 1.733,-3.01 m -6.676,4.639 c -0.341,0.09 -0.648,0.256 -0.914,0.471 -0.227,0.187 -0.426,0.411 -0.578,0.674 -0.328,0.57 -0.415,1.232 -0.244,1.865 0.02,0.076 0.051,0.146 0.078,0.218 0.355,0.951 1.262,1.602 2.292,1.602 0.215,0 0.43,-0.029 0.64,-0.085 1.308,-0.352 2.085,-1.701 1.734,-3.01 -0.342,-1.279 -1.717,-2.082 -3.008,-1.735 m -1.744,10.409 c 0.138,0.515 0.439,0.954 0.833,1.272 0.425,0.343 0.961,0.547 1.535,0.547 0.214,0 0.43,-0.029 0.641,-0.086 1.308,-0.35 2.086,-1.701 1.736,-3.009 -0.345,-1.278 -1.719,-2.083 -3.011,-1.736 -0.634,0.171 -1.163,0.578 -1.491,1.147 -0.066,0.113 -0.114,0.232 -0.16,0.352 -0.184,0.482 -0.22,1.005 -0.083,1.513 m 3.679,6.182 c 0.012,0.066 0.015,0.13 0.032,0.196 0.25,0.933 1.023,1.621 1.951,1.782 0.136,0.023 0.276,0.037 0.418,0.037 0.215,0 0.431,-0.028 0.642,-0.085 1.307,-0.351 2.084,-1.702 1.733,-3.01 -0.344,-1.28 -1.712,-2.085 -3.01,-1.735 -1.242,0.334 -1.994,1.569 -1.766,2.815 m 11.353,-4.349 c 0,-1.356 -1.102,-2.457 -2.455,-2.457 -1.356,0 -2.457,1.101 -2.457,2.457 0,1.354 1.101,2.457 2.457,2.457 1.353,0 2.455,-1.103 2.455,-2.457 m -4.948,8.236 c 0.091,0.339 0.257,0.641 0.468,0.902 0.455,0.563 1.145,0.918 1.902,0.918 0.214,0 0.43,-0.029 0.64,-0.085 0.084,-0.023 0.159,-0.06 0.239,-0.09 0.525,-0.201 0.966,-0.563 1.25,-1.056 0.329,-0.568 0.414,-1.23 0.244,-1.865 -0.343,-1.278 -1.713,-2.081 -3.009,-1.736 -0.634,0.171 -1.163,0.579 -1.491,1.147 -0.328,0.568 -0.414,1.23 -0.243,1.865 m 9.649,-5.779 c 1.354,0 2.457,-1.103 2.457,-2.457 0,-1.356 -1.103,-2.457 -2.457,-2.457 -1.356,0 -2.458,1.101 -2.458,2.457 0,1.354 1.102,2.457 2.458,2.457 m -2.273,5.78 c 0.206,0.768 0.767,1.362 1.473,1.643 0.281,0.111 0.582,0.177 0.897,0.177 0.215,0 0.43,-0.028 0.639,-0.084 0.528,-0.142 0.964,-0.452 1.279,-0.851 0.468,-0.59 0.667,-1.38 0.457,-2.16 -0.343,-1.28 -1.716,-2.08 -3.01,-1.736 -0.634,0.17 -1.163,0.578 -1.491,1.147 -0.328,0.568 -0.415,1.23 -0.244,1.864 m 6.408,-3.706 c 0.287,1.071 1.262,1.82 2.371,1.82 0.13,0 0.259,-0.031 0.389,-0.051 0.084,-0.014 0.168,-0.012 0.25,-0.034 0.633,-0.17 1.162,-0.577 1.49,-1.145 0.156,-0.272 0.253,-0.564 0.297,-0.865 0.049,-0.329 0.035,-0.668 -0.055,-1 -0.343,-1.28 -1.716,-2.081 -3.007,-1.737 -1.308,0.353 -2.087,1.704 -1.735,3.012 m 6.085,-4.582 c 0.214,0 0.43,-0.028 0.64,-0.085 0.309,-0.083 0.585,-0.225 0.826,-0.406 C -0.064,9.38 0.33,8.358 0.062,7.359 0.029,7.24 -0.02,7.13 -0.068,7.021 -0.545,5.944 -1.773,5.308 -2.951,5.624 -3.584,5.795 -4.113,6.201 -4.441,6.77 -4.77,7.339 -4.855,8.001 -4.685,8.635 c 0.288,1.072 1.262,1.82 2.371,1.82 M 0.138,3.683 c 0.008,0.218 0.033,0.433 0.033,0.654 0,0.189 -0.023,0.374 -0.028,0.562 0.544,0.432 0.966,1.009 1.226,1.679 0.05,0.129 0.105,0.255 0.142,0.392 0.412,1.536 -0.15,3.1 -1.297,4.059 -0.427,0.357 -0.928,0.636 -1.499,0.789 -0.136,0.037 -0.274,0.061 -0.412,0.083 -0.199,0.378 -0.417,0.743 -0.644,1.102 0.046,0.122 0.099,0.241 0.133,0.369 0.159,0.59 0.163,1.192 0.051,1.775 -0.083,0.426 -0.22,0.842 -0.443,1.228 -0.527,0.916 -1.379,1.571 -2.4,1.846 -0.071,0.018 -0.145,0.028 -0.216,0.043 -0.268,0.056 -0.54,0.093 -0.812,0.093 -0.485,0 -0.951,-0.095 -1.386,-0.259 -0.368,0.233 -0.741,0.459 -1.128,0.663 -0.132,0.769 -0.488,1.478 -1.019,2.045 -0.486,0.52 -1.11,0.923 -1.847,1.122 -0.337,0.09 -0.683,0.135 -1.029,0.135 -0.385,0 -0.758,-0.066 -1.116,-0.172 -0.76,-0.226 -1.427,-0.674 -1.927,-1.281 -0.22,0.009 -0.436,0.034 -0.658,0.034 -0.211,0 -0.416,-0.024 -0.625,-0.033 -0.511,0.625 -1.194,1.08 -1.985,1.301 -0.012,0.003 -0.023,0.01 -0.035,0.013 -0.337,0.091 -0.684,0.137 -1.03,0.137 -1.066,0 -2.049,-0.436 -2.772,-1.15 -0.488,-0.481 -0.86,-1.086 -1.047,-1.78 -0.031,-0.116 -0.038,-0.235 -0.058,-0.351 -0.394,-0.206 -0.774,-0.432 -1.147,-0.669 -0.107,0.039 -0.207,0.091 -0.319,0.121 -0.337,0.091 -0.684,0.137 -1.031,0.137 -0.389,0 -0.764,-0.067 -1.125,-0.175 -1.242,-0.371 -2.247,-1.337 -2.642,-2.614 -0.015,-0.049 -0.038,-0.093 -0.051,-0.142 -0.219,-0.814 -0.16,-1.636 0.109,-2.375 -0.234,-0.368 -0.459,-0.741 -0.664,-1.128 -0.842,-0.143 -1.603,-0.558 -2.182,-1.16 -0.453,-0.469 -0.796,-1.052 -0.974,-1.713 -0.176,-0.653 -0.164,-1.32 -0.009,-1.958 0.089,-0.361 0.21,-0.715 0.401,-1.046 0.24,-0.416 0.553,-0.77 0.913,-1.067 -0.009,-0.219 -0.033,-0.434 -0.033,-0.655 0,-0.226 0.024,-0.444 0.033,-0.667 -0.612,-0.51 -1.079,-1.197 -1.297,-2.007 -0.005,-0.019 -0.005,-0.039 -0.01,-0.059 -0.254,-1.001 -0.114,-2.044 0.404,-2.944 0.168,-0.291 0.378,-0.545 0.606,-0.779 0.49,-0.504 1.099,-0.88 1.796,-1.067 0.114,-0.03 0.231,-0.048 0.349,-0.069 0.2,-0.38 0.42,-0.745 0.649,-1.106 -0.044,-0.116 -0.094,-0.228 -0.126,-0.349 -0.185,-0.686 -0.158,-1.374 0.009,-2.016 0.347,-1.332 1.363,-2.451 2.784,-2.833 0.04,-0.01 0.082,-0.014 0.122,-0.024 0.299,-0.07 0.603,-0.112 0.907,-0.112 0.482,0 0.946,0.094 1.379,0.257 0.36,-0.228 0.725,-0.449 1.104,-0.649 0.125,-0.749 0.46,-1.444 0.963,-2.005 0.494,-0.549 1.141,-0.971 1.906,-1.176 0.337,-0.09 0.683,-0.136 1.029,-0.136 0.445,0 0.877,0.075 1.282,0.215 0.699,0.24 1.306,0.681 1.772,1.251 0.216,-0.009 0.428,-0.033 0.645,-0.033 0.218,0 0.43,0.024 0.646,0.033 0.463,-0.569 1.07,-0.986 1.769,-1.227 0.089,-0.03 0.17,-0.074 0.262,-0.099 0.336,-0.09 0.682,-0.135 1.027,-0.135 1.18,0 2.258,0.533 2.993,1.389 0.377,0.439 0.669,0.956 0.827,1.541 0.033,0.125 0.04,0.25 0.061,0.375 0.378,0.199 0.743,0.419 1.103,0.647 0.137,-0.053 0.267,-0.116 0.411,-0.155 0.336,-0.089 0.682,-0.135 1.027,-0.135 0.189,0 0.373,0.02 0.556,0.046 1.546,0.221 2.848,1.341 3.262,2.884 0.042,0.155 0.055,0.311 0.078,0.467 0.098,0.681 0.023,1.364 -0.229,2.002 0.221,0.351 0.436,0.704 0.629,1.072 0.711,0.12 1.36,0.441 1.896,0.897 0.597,0.507 1.053,1.183 1.268,1.979 C 1.667,0.424 1.608,1.246 1.34,1.983 1.1,2.644 0.685,3.23 0.138,3.683"
         style="fill:#ee263a;fill-opacity:1;fill-rule:nonzero;stroke:none"
         transform="matrix(1.3333333,0,0,-1.3333333,418.68493,550.92627)"
         clip-path="url(#clipPath160)" />
      <path
         id="path161"
         d="M 0,0 C -1.287,0.085 -2.538,0.295 -3.745,0.622 -3.972,0.047 -4.021,-0.036 -4.203,-0.332 -4.291,-0.477 -4.41,-0.67 -4.6,-0.996 c -5.699,-2.426 -14.302,-8.697 -19.781,-16.777 2.102,-1.51 3.481,-4.666 4.815,-7.719 1.796,-4.115 3.496,-8.004 6.796,-8.004 1.629,0.002 3.51,0.943 5.754,2.879 -2.166,-2.842 -4.281,-4.19 -6.394,-4.19 -3.418,0 -6.309,3.59 -9.104,7.059 -1.863,2.312 -3.789,4.705 -5.82,5.937 -1.807,1.557 -4.676,2.649 -7.451,3.706 -4.164,1.585 -8.469,3.224 -9.526,6.474 -0.654,2.01 -0.027,4.44 1.918,7.426 -1.265,-3.268 -1.461,-5.609 -0.511,-7.203 1.443,-2.422 5.285,-2.797 9.351,-3.197 3.317,-0.325 6.744,-0.661 8.899,-2.184 5.924,7.699 9.228,17.818 9.761,23.959 0.264,0.309 0.413,0.484 0.522,0.611 0.216,0.253 0.282,0.331 0.672,0.683 -0.757,1.125 -1.385,2.34 -1.894,3.614 -11.112,-11.76 -24.72,-2.544 -31.505,-13.223 -4.326,-7.15 0.502,-20.123 13.368,-29.199 12.605,-9.427 26.435,-10.011 31.9,-3.687 C 5.227,-24.285 -7.731,-14.192 0,0"
         style="fill:#ee263a;fill-opacity:1;fill-rule:nonzero;stroke:none"
         transform="matrix(1.3333333,0,0,-1.3333333,395.36333,570.65547)"
         clip-path="url(#clipPath162)" />
    </g>
  </g>
</svg>
