<svg version="1.2" xmlns="http://www.w3.org/2000/svg" viewBox="0 0 1590 629" width="1590" height="629">
	<title>equinor-logo-svg</title>
	<style>
		.s0 { fill: #ff1243 } 
	</style>
	<g id="Layer">
		<path id="Layer" fill-rule="evenodd" class="s0" d="m1390.8 442.7l33.2 19.1c2 1.1 3.2 3.3 3.2 5.5l-0.1 38.3c0 3.2-3.5 5.3-6.3 3.6l-33.2-19.1c-1.9-1.1-3.1-3.2-3.1-5.5v-38.3c0-3.2 3.5-5.2 6.3-3.6zm26.7-53.5l33.1-19.1c2-1.1 4.4-1.1 6.4 0l33.2 19.1c2.8 1.7 2.8 5.7 0 7.4l-33.2 19.1c-2 1.1-4.4 1.1-6.4 0l-33.1-19.1c-2.8-1.7-2.8-5.7 0-7.4zm-120.1 7.8l-74.6 43.1c-2.2 1.3-5 1.3-7.2 0l-74.6-43.1c-3.1-1.8-3.1-6.4 0-8.2l74.6-43.2c2.3-1.3 5-1.3 7.2 0l74.6 43.2c3.2 1.8 3.2 6.4 0 8.2zm33.8 47.5v57.5c0 1.7-0.9 3.3-2.4 4.1l-49.8 28.7c-2 1.2-4.8-0.3-4.8-2.8v-57.4c0-1.7 1-3.3 2.4-4.1l49.8-28.7c2.2-1.2 4.8 0.3 4.8 2.7zm258.2-432.6v206.7c0 6.2-3 11.8-8.4 14.9l-179.2 103.2c-7.6 4.4-17.3-1.1-17.3-9.9v-206.8c-0.1-6.1 3.2-11.8 8.5-14.8l179.3-103.2c7.6-4.4 17.1 1.1 17.1 9.9zm-388.7 95.4l124.5 71.7c3.7 2.1 6 6.1 6 10.3v143.6c-0.1 6.2-6.8 10-12.1 6.9l-124.5-71.7c-3.6-2.1-5.8-6.1-5.8-10.3v-143.6c0-6.1 6.6-10 11.9-6.9z"/>
		<g id="Layer">
			<g id="Layer">
				<path id="Layer" class="s0" d="m1059.3 420c1.3 3.2-0.2 4.6-3 6.3-2.8 1.7-72.1 44.5-72.1 44.5v86.9c0 3-2 5-5 5h-18.4c-3 0-5-2-5-5v-142c0-2.6 1-4.6 3.6-5.5l19.2-7c3.2-1.3 5.6 0 5.6 3.7v32.2c0 0 58.8-35 61.9-36.9 3.1-1.8 5.9-0.6 7.3 2.7 0 0 4.5 11.6 5.9 15.1z"/>
				<path id="Layer" fill-rule="evenodd" class="s0" d="m154 484.6c0 2.7-1.9 4.9-4.9 4.9h-119.4c2.3 27.3 20.5 49.1 53.7 49.1 17.5 0 34-5.9 50.1-17.8 2.7-2 5.3-1.6 6.9 1l8.9 13.8c1.7 2.4 1.7 5-0.6 6.9-17.8 15.8-41.5 24.1-65.3 24.1-52 0-83-34.6-83-82 0-52.1 36.9-84 81.4-84 45.1 0 72.2 33.2 72.2 72.8zm-30-19.9c-1.3-20.4-15.8-36.5-43.2-36.5-25 0-42.8 13.8-49.1 36.5z"/>
				<path id="Layer" fill-rule="evenodd" class="s0" d="m309.6 623.5v-78.7c-9.2 11.5-31 21.7-53.7 21.7-50.1 0-79.1-38.2-79.1-83 0-50.7 37.6-83 80.8-83 21.7 0 41.8 8.3 52 22.1v-6.9c0-2.7 1-4.6 3.7-5.6l18.8-6.9c3.6-1.4 5.9 0 5.9 3.6v216.8c0 3-2 4.9-5 4.9h-18.4c-3 0-4.9-1.9-5-5zm0.4-140.3c0-36.2-22.8-55-52.1-55-28 0-52.1 18.8-52.1 55 0 36.3 24.1 55.4 52.1 55.4 29.3 0 52.1-18.8 52.1-55.4z"/>
				<path id="Layer" class="s0" d="m367.9 495.7v-80c0-2.7 1-4.6 3.7-5.6l19.1-6.9c3.3-1.4 5.6 0 5.6 3.6v88c0 28.3 16.5 43.8 40.9 43.8 24.7 0 42.8-15.8 42.8-43.8v-79.1c0-2.6 1-4.6 3.6-5.6l19.2-6.9c3.2-1.3 5.6 0 5.6 4v150.5c0 3-2 5-5 5h-18.4c-3 0-5-2-5-5v-14.5c-12.2 17.8-31 23.4-48.1 23.4-35.6 0-63.9-24.1-64-70.9z"/>
				<g id="Layer">
					<path id="Layer" class="s0" d="m541.3 381.8v-23.1c0-3.3 1.7-4.6 4.6-5.6l19.8-7.2c3.6-1.3 5.9 1 5.9 3.9v24.1c0 3.3-1.3 4.9-4.6 5.9l-20.1 6.6c-3.6 1.3-5.6-1-5.6-4.6z"/>
					<path id="Layer" class="s0" d="m542.3 557.7v-142c0-2.7 1-4.6 3.6-5.6l19.1-6.9c3.3-1.4 5.6 0 5.6 3.6v150.9c0 3-2 4.9-4.9 4.9h-18.5c-2.9 0-4.9-1.9-4.9-4.9z"/>
				</g>
				<path id="Layer" class="s0" d="m604.6 557.7v-142c0-2.7 1-4.6 3.6-5.6l19.2-6.9c3.2-1.4 5.6 0 5.6 3.6v17.1c12.2-17.8 31-23.4 48.1-23.4 35.5 0 63.9 24 63.9 70.8v86.4c0 3-2 4.9-5 4.9h-18.4c-3 0-5-2-5-4.9v-85.4c0-28.3-16.4-43.8-40.8-43.8-24.8 0-42.9 15.8-42.9 43.8v85.4c0 3-2 4.9-4.9 4.9h-18.5c-3 0-4.9-1.9-4.9-4.9z"/>
				<path id="Layer" fill-rule="evenodd" class="s0" d="m931.6 483.6c0 47.7-33.6 83-81 83-47.5 0-81.4-35.2-81.4-83 0-47.8 33.9-83 81.4-83 47.4 0 81 35.2 81 83zm-29 0c0-31-19.8-55.4-52-55.4-32.7 0-52.4 24.4-52.4 55.4 0 30.9 19.7 55.3 52.4 55.3 32.2 0 52-24.4 52-55.3z"/>
			</g>
		</g>
	</g>
</svg>