<svg xmlns="http://www.w3.org/2000/svg" xmlns:xlink="http://www.w3.org/1999/xlink" id="Layer_1" x="0px" y="0px" viewBox="0 0 1686.3 489" style="enable-background:new 0 0 1686.3 489;" xml:space="preserve"><style type="text/css">	.st0{fill:#0B1D32;}</style><g>	<g>		<path class="st0" d="M950.1,162.1v91.4c0,25.3,4.5,43.5,13,53.8c8.4,10.4,22.1,16.2,40.9,16.2h28.5v48.6c-22.1,0-24.6,0-51.2,0   c-24,0-43.5-9.1-60.3-26.6c-16.2-17.5-24.6-40.2-24.6-66.8V162.1V120V73.3h53.2V120v42.2H950.1z"></path>		<path class="st0" d="M42.2,26.6C42.2,12.3,53.8,0,68.7,0C83,0,95.3,11.7,95.3,26.6c0,14.3-11.7,26.6-26.6,26.6   C53.8,52.5,42.2,40.9,42.2,26.6"></path>		<path class="st0" d="M393,26.6C393,12.3,404.7,0,419.6,0c14.3,0,26.6,11.7,26.6,26.6c0,14.3-11.7,26.6-26.6,26.6   C404.7,52.5,393,40.9,393,26.6"></path>		<path class="st0" d="M746.5,26.6c0-14.3,11.7-26.6,26.6-26.6c14.3,0,26.6,11.7,26.6,26.6c0,14.3-11.7,26.6-26.6,26.6   C758.2,52.5,746.5,40.9,746.5,26.6"></path>		<path class="st0" d="M1098,26.6c0-14.3,11.7-26.6,26.6-26.6c14.3,0,26.6,11.7,26.6,26.6c0,14.3-11.7,26.6-26.6,26.6   C1109.7,52.5,1098,40.9,1098,26.6"></path>		<path class="st0" d="M1443,26.6c0-14.3,11.7-26.6,26.6-26.6c14.3,0,26.6,11.7,26.6,26.6c0,14.3-11.7,26.6-26.6,26.6   C1454.7,52.5,1443,40.9,1443,26.6"></path>	</g>	<polygon class="st0" points="41.5,372.3 41.5,164.7 0,164.7 0,120 94.7,120 94.7,372.3  "></polygon>	<g>		<path class="st0" d="M363.2,372.3V249.7c0-31.8-4.5-54.5-14.3-66.8c-9.7-13-25.9-19.5-48.6-19.5c-12.3,0-24.6,3.9-38.3,11   c-13,7.1-23.3,16.2-30.5,26.6v171.2h-53.2V120h54.5l-1.3,42.8c17.5-29.2,46-44.1,86.3-44.1c65.5,0,98.6,40.2,98.6,120v133.6H363.2   z"></path>		<path class="st0" d="M511.1,161.5h-34.4V120h34.4V73.3h53.2V120h82.4v41.5h-82.4v91.4c0,25.3,4.5,43.5,13,53.8   s22.1,16.2,40.9,16.2h28.5v48.6c-22.1,0-24.6,0-51.2,0c-24,0-43.5-9.1-60.3-26.6c-16.2-17.5-24.6-39.6-24.6-66.8V161.5   C510.4,161.5,511.1,161.5,511.1,161.5z"></path>		<path class="st0" d="M1253.7,161.5h-34.4V120h34.4V73.3h53.2V120h82.4v41.5h-82.4v91.4c0,25.3,4.5,43.5,13,53.8   s22.1,16.2,40.9,16.2h28.5v48.6c-22.1,0-24.6,0-51.2,0c-24,0-43.5-9.1-60.3-26.6c-16.2-17.5-24.6-39.6-24.6-66.8V161.5   C1253,161.5,1253.7,161.5,1253.7,161.5z"></path>	</g>	<polygon class="st0" points="745.8,372.3 745.8,164.7 704.3,164.7 704.3,120 799,120 799,372.3  "></polygon>	<polygon class="st0" points="1097.4,372.3 1097.4,164.7 1056.5,164.7 1056.5,120 1150.5,120 1150.5,372.3  "></polygon>	<path class="st0" d="M1576.6,422.9c-7.1,18.8-21.4,35-43.5,47.3c-22.1,13-46.7,18.8-73.9,18.8v-48c22.1,0,40.9-5.2,57.1-15.6  c15.6-10.4,23.3-23.3,23.3-38.3c0-16.2-2.6-32.4-8.4-48.6c-5.8-16.2-13-35.7-22.7-59L1445,118.7h54.5l70,184.2l62.3-184.2h54.5  L1576.6,422.9z"></path></g></svg>