<?xml version="1.0" standalone="no"?>
<!DOCTYPE svg PUBLIC "-//W3C//DTD SVG 20010904//EN"
 "http://www.w3.org/TR/2001/REC-SVG-20010904/DTD/svg10.dtd">
<svg version="1.0" xmlns="http://www.w3.org/2000/svg"
 width="1127.000000pt" height="260.000000pt" viewBox="0 0 1127.000000 260.000000"
 preserveAspectRatio="xMidYMid meet">

<g transform="translate(0.000000,260.000000) scale(0.100000,-0.100000)"
fill="#000000" stroke="none">
<path d="M1082 2198 c-7 -7 -12 -17 -12 -24 0 -18 -25 -24 -94 -24 -35 0 -67
-5 -74 -12 -7 -7 -12 -40 -12 -78 0 -71 -10 -90 -47 -90 -43 0 -55 -38 -51
-155 2 -89 6 -108 21 -116 14 -8 17 -25 17 -97 0 -95 7 -112 50 -112 37 0 63
-22 58 -50 -5 -35 -31 -47 -71 -32 -18 7 -58 12 -89 12 -66 0 -76 9 -80 74 -2
37 -8 52 -23 60 -30 17 -35 27 -35 78 0 41 -3 48 -27 60 -27 13 -28 15 -33
122 -4 96 -7 110 -25 120 -31 17 -35 27 -35 96 0 38 -5 71 -12 78 -17 17 -229
17 -246 0 -7 -7 -12 -24 -12 -39 0 -35 -12 -42 -75 -49 l-50 -5 -3 -95 c-3
-108 -15 -130 -68 -130 -49 0 -56 -22 -50 -148 14 -275 21 -338 38 -356 14
-13 18 -34 18 -85 0 -72 10 -91 47 -91 31 0 43 -28 43 -99 0 -64 4 -70 54 -80
31 -7 31 -7 36 -81 6 -83 12 -100 39 -100 32 0 51 -33 51 -86 0 -28 5 -55 12
-62 8 -8 50 -12 125 -12 136 0 133 -3 133 139 0 105 -10 131 -50 131 -26 0
-34 16 -40 85 -5 63 -4 61 -78 81 -8 2 -12 25 -12 71 0 79 -7 93 -52 107 -33
11 -33 11 -38 87 -4 53 -11 81 -23 93 -13 14 -17 35 -17 96 0 43 -4 82 -10 85
-11 7 -14 143 -4 169 9 22 34 20 34 -3 0 -32 12 -52 36 -62 23 -8 24 -13 24
-101 0 -113 5 -132 36 -147 20 -9 24 -18 24 -55 0 -61 17 -76 89 -76 67 0 81
-11 81 -63 0 -72 7 -77 125 -77 58 0 107 -4 110 -10 3 -5 35 -10 71 -10 61 0
64 -1 54 -19 -5 -11 -10 -38 -10 -60 0 -50 -17 -61 -99 -61 -67 0 -81 -12 -81
-70 0 -26 -6 -33 -35 -46 l-35 -14 0 -120 c0 -137 2 -140 90 -140 48 0 51 -1
57 -31 10 -51 37 -61 155 -55 183 9 268 20 278 36 5 8 10 36 10 62 0 51 16 68
62 68 34 0 48 18 48 64 0 21 3 36 7 33 3 -4 5 -86 4 -183 -1 -120 2 -181 10
-190 8 -10 40 -14 120 -14 102 0 109 1 123 23 18 26 38 378 25 415 -5 13 -9
45 -9 72 0 52 -8 60 -60 60 -35 0 -60 23 -60 54 0 31 -17 44 -65 48 -27 2 -40
8 -40 18 0 11 14 16 55 18 30 2 60 8 67 14 9 7 13 37 13 87 0 86 16 121 54
121 47 0 50 14 42 253 -4 122 -11 226 -17 232 -5 5 -9 48 -9 96 0 86 -1 88
-27 101 -25 12 -28 19 -31 73 -2 33 -8 65 -14 72 -7 9 -42 13 -114 13 -99 0
-105 1 -126 25 -21 24 -26 25 -138 25 -77 0 -120 -4 -128 -12z m246 -279 c9
-11 27 -25 39 -29 24 -10 23 -4 44 -318 11 -155 10 -175 -4 -189 -13 -13 -19
-14 -31 -3 -9 7 -16 20 -16 29 0 28 -22 41 -69 41 -66 0 -81 18 -81 100 0 72
-5 80 -55 80 -36 0 -55 26 -55 74 0 27 -6 48 -15 56 -18 15 -20 91 -3 108 7 7
22 12 34 12 14 0 31 12 44 30 20 28 26 30 86 30 53 0 67 -4 82 -21z m-168
-749 c13 -8 13 -11 -1 -25 -9 -10 -28 -15 -43 -13 -26 3 -26 4 -11 26 17 24
31 27 55 12z m121 -215 c0 -5 -7 -12 -16 -13 -23 -5 -47 6 -40 19 8 13 56 8
56 -6z m-149 -118 c11 -19 -12 -37 -49 -37 -41 0 -56 26 -27 47 20 15 64 9 76
-10z"/>
<path d="M2357 2104 c-4 -4 -7 -382 -7 -841 l0 -833 105 0 105 0 -2 838 -3
837 -95 3 c-53 1 -99 0 -103 -4z"/>
<path d="M2787 2103 c-4 -3 -7 -46 -7 -95 l0 -88 285 0 285 0 0 -745 0 -745
105 0 105 0 0 745 0 745 285 0 286 0 -3 93 -3 92 -666 3 c-366 1 -669 -1 -672
-5z"/>
<path d="M4347 2103 c-4 -3 -7 -381 -7 -840 l0 -833 565 0 565 0 0 90 0 90
-460 0 -460 0 0 285 0 285 405 0 405 0 0 95 0 95 -405 0 -405 0 0 275 0 275
435 0 435 0 0 95 0 95 -533 0 c-294 0 -537 -3 -540 -7z"/>
<path d="M5720 1271 l0 -841 100 0 100 0 0 355 0 355 201 -2 201 -3 220 -353
221 -352 120 0 119 0 -20 33 c-10 17 -115 184 -232 370 -117 186 -211 339
-209 341 2 1 34 17 71 35 101 48 170 116 220 217 39 80 42 90 46 192 3 91 1
117 -18 171 -50 148 -161 249 -326 296 -49 15 -120 18 -436 22 l-378 5 0 -841z
m801 623 c108 -50 162 -136 163 -259 0 -125 -60 -222 -172 -277 l-66 -33 -263
-3 -263 -3 0 301 0 301 278 -3 c257 -3 280 -5 323 -24z"/>
<path d="M7857 2103 c-5 -8 -79 -188 -392 -958 -103 -253 -211 -518 -240 -588
l-53 -128 110 3 110 3 87 220 87 220 389 0 389 0 87 -220 87 -220 112 -3 c88
-2 111 0 107 10 -2 7 -112 276 -242 598 -131 322 -281 693 -335 825 l-96 240
-101 3 c-56 1 -104 -1 -106 -5z m176 -438 c36 -93 104 -266 150 -382 l85 -213
-315 0 c-173 0 -312 3 -310 8 3 4 73 180 157 390 84 211 155 380 159 375 4 -4
37 -84 74 -178z"/>
<path d="M8587 2103 c-4 -3 -7 -46 -7 -95 l0 -88 285 0 285 0 0 -745 0 -745
105 0 105 0 0 745 0 745 285 0 286 0 -3 93 -3 92 -666 3 c-366 1 -669 -1 -672
-5z"/>
<path d="M10147 2103 c-4 -3 -7 -381 -7 -840 l0 -833 565 0 565 0 0 90 0 90
-460 0 -460 0 0 285 0 285 405 0 405 0 0 95 0 95 -405 0 -405 0 0 275 0 275
435 0 436 0 -3 93 -3 92 -531 3 c-292 1 -534 -1 -537 -5z"/>
</g>
</svg>
