<svg width="163" height="20" viewBox="0 0 163 20" fill="none" xmlns="http://www.w3.org/2000/svg">
<g clip-path="url(#clip0)">
<path d="M0 4H6.60025V16H0V20H17.9898V16H11.3935V4H17.9898V0H0V4Z" fill="black"/>
<path d="M35.5801 4H42.676V20H47.6732V4H54.7692V0H35.5801V4Z" fill="black"/>
<path d="M108.738 20H113.735V13H122.331V20H127.356L127.328 12H124.457C125.654 11.2549 126.575 10.1401 127.082 8.82427C127.589 7.50846 127.654 6.06327 127.267 4.70733C126.88 3.3514 126.062 2.15853 124.937 1.30919C123.812 0.459855 122.441 0.000279304 121.031 0L108.738 0V20ZM120.044 8.968L113.735 9V4H120.044C120.37 4 120.693 4.0643 120.995 4.18924C121.296 4.31417 121.57 4.49729 121.801 4.72813C122.031 4.95898 122.214 5.23303 122.339 5.53465C122.464 5.83626 122.528 6.15953 122.528 6.486C122.528 6.81247 122.464 7.13574 122.339 7.43735C122.214 7.73897 122.031 8.01302 121.801 8.24387C121.57 8.47471 121.296 8.65783 120.995 8.78276C120.693 8.9077 120.37 8.972 120.044 8.972V8.968Z" fill="black"/>
<path d="M90.5477 16H77.1673V12H87.9652V8H77.1673V4H90.5317V0H72.1582V4H72.1742V20H77.1673H90.5477V16Z" fill="black"/>
<path d="M157.11 0H147.515L142.318 20H146.916L148.579 13.6H156.047L157.71 20H162.307L157.11 0ZM149.618 9.6L151.489 2.4H153.136L155.007 9.6H149.618Z" fill="black"/>
</g>
<defs>
<clipPath id="clip0">
<rect width="162.308" height="20" fill="white"/>
</clipPath>
</defs>
</svg>
