<svg xmlns="http://www.w3.org/2000/svg" class="h-40px tablet:h-60px w-auto fill-current" role="img" viewBox="0 0 1318.01 285.26"><title>Komponent Logo</title><g id="Layer_5"><rect fill="#000" height="12.6223" width="79.9812" y="96.1007" x="1005.6804"/><rect fill="#000" height="12.6223" width="79.9812" y="137.0091" x="1005.6804"/><rect fill="#000" height="12.6223" width="79.9812" y="177.9176" x="1005.6804"/><path fill="#000" d="M420.2193,109.4063a34.5973,34.5973,0,1,1-34.5973,34.5973,34.5973,34.5973,0,0,1,34.5973-34.5973m0-12.6222a46.88,46.88,0,1,0,.0135,0Z"/><path fill="#000" d="M792.2142,109.4063a34.5973,34.5973,0,1,1-34.5974,34.5973,34.5973,34.5973,0,0,1,34.5974-34.5973m0-12.6222a47.22,47.22,0,1,0,47.22,47.22h0A47.22,47.22,0,0,0,792.2142,96.7841Z"/><polygon fill="#000" points="887.725 119.831 887.725 190.486 900.361 190.486 900.361 138.456 887.725 119.831"/><polygon fill="#000" points="967.76 190.54 903.684 96.101 887.672 96.101 951.748 190.54 967.76 190.54"/><polygon fill="#000" points="1130.054 119.831 1130.054 190.486 1142.676 190.486 1142.676 138.456 1130.054 119.831"/><polygon fill="#000" points="1210.089 190.54 1145.999 96.101 1129.987 96.101 1194.076 190.54 1210.089 190.54"/><polygon fill="#000" points="313.252 144.004 345.29 96.784 329.277 96.784 305.239 132.199 297.239 144.004 265.188 191.223 281.2 191.223 305.239 155.809 329.277 191.223 345.29 191.223 313.252 144.004"/><path fill="#000" d="M701.3259,131.502h0a20.2155,20.2155,0,0,0-.1473-2.9881h0a15.5189,15.5189,0,0,0-.335-2.6v-.1072a34.6241,34.6241,0,0,0-33.6192-28.9026H620.26L628.8083,109.5h37.8a22.1627,22.1627,0,0,1,0,44.3119h-7.7315l8.4148,12.3409a34.6643,34.6643,0,0,0,33.3377-27.5894v-.08c.0938-.469.1742-.938.2546-1.42s.2011-1.34.268-2.0367v-.8173c.067-.8174.1073-1.6214.1073-2.4521v-.1474h0Z"/><rect fill="#000" height="69.3554" width="12.6625" y="121.9884" x="1271.6858"/><rect fill="#000" height="12.6625" width="79.9812" y="96.6769" x="1238.0265"/><polygon fill="#000" points="505.534 119.831 505.534 190.486 518.169 190.486 518.169 138.456 505.534 119.831"/><polygon fill="#000" points="585.515 119.831 585.515 190.486 572.892 190.486 572.892 138.456 585.515 119.831"/><polygon fill="#000" points="539.206 122.203 521.492 96.101 505.48 96.101 539.206 145.813 539.206 122.203"/><polygon fill="#000" points="169.315 178.266 145.143 142.623 145.143 142.623 145.143 142.623 241.913 0 193.555 0 120.957 106.994 96.784 142.623 0 285.26 48.359 285.26 120.957 178.266 193.555 285.26 241.913 285.26 169.315 178.266 169.315 178.266"/></g></svg>