<svg version="1.2" xmlns="http://www.w3.org/2000/svg" viewBox="0 0 1545 1549" width="1545" height="1549">
	<title>kongsberg-svg</title>
	<style>
		.s0 { fill: #d71539 } 
		.s1 { fill: #fff572 } 
		.s2 { fill: #001639 } 
	</style>
	<g id="Layer">
		<path id="Layer" class="s0" d="m383.8 0h774v1161h-774z"/>
		<path id="Layer" class="s1" d="m764.3 380.6q-67.7-0.1-125.7 19.3l-48.4-83.9c0 0 0 0 0-3.2 0 0 0 0 3.2 0 3.2 0 19.4 0 19.4 0 0 0 3.2 0 3.2 3.2 0 3.3 0 16.2 0 16.2 0 3.2 3.2 3.2 3.2 0 0-3.2 3.2-9.7 3.2-12.9 0-3.3 3.3-3.3 6.5 0l12.9 6.4c0 0 0 0 0 3.2 0 3.3-3.2 12.9-3.2 16.2 0 0 0 3.2-3.3 3.2-3.2 0-12.9-3.2-12.9-3.2 0 0-3.2 0-3.2 3.2 3.2 6.4 9.7 12.9 19.4 16.1 12.9 3.2 25.8 0 32.2-9.7 3.2-6.4 6.5-12.9 6.5-19.3v-3.2c0 0 0 0-3.3 0-3.2 3.2-3.2 6.4-6.4 6.4-3.2 3.2-6.5 3.2-9.7 3.2-6.4-3.2-9.7-9.6-9.7-16.1 0-3.2 3.3-6.4 6.5-9.7q4.8-4.8 9.7 0c3.2 0 3.2 3.3 6.4 3.3 0 0 3.2-3.3 0-3.3-3.2-3.2-9.7-9.6-12.9-22.5 0-9.7 3.2-19.4 6.5-22.6 0 0 0 0 3.2 0 9.7 3.2 16.1 12.9 16.1 22.6 0 9.6-3.2 19.3-3.2 19.3v3.2h3.2c3.2-3.2 6.5-9.6 9.7-9.6 3.2 0 9.7 0 9.7 6.4 3.2 3.2 3.2 12.9 3.2 16.1-3.2 3.3-6.5 6.5-9.7 6.5-3.2 0-6.4-3.2-9.7-3.2 0 0 0 0-3.2 0 0 0 0 3.2 0 6.4 3.2 9.7 16.1 19.4 25.8 19.4 12.9 0 25.8-6.5 32.3-19.4 3.2-3.2 3.2-6.4 3.2-12.9 0 0 0 0 0-3.2-3.2 0-3.2 3.2-6.5 3.2l3.3 3.2c0 0 0 0-3.3 0-3.2-3.2-6.4-9.6-12.9-16.1 0 0 0 0 0-3.2 3.3-6.4 6.5-9.7 9.7-16.1 0 0 0 0 3.2 0 6.5 3.2 9.7 6.4 16.2 9.7 0 0 3.2 0 3.2-3.3 0-3.2-6.5-6.4-6.5-9.7 0-3.2-3.2-3.2 0-3.2l16.2-9.7c0 0 12.8 9.7 16.1 9.7 3.2 0 0 3.2 0 3.2 0 3.3-6.5 9.7-6.5 13 0 3.2 3.3 3.2 3.3 3.2 6.4-3.2 9.6-6.5 16.1-9.7 0 0 0 0 3.2 0 3.2 6.4 6.5 9.7 9.7 16.1 0 0 0 0 0 3.2-3.2 6.5-6.5 9.7-12.9 16.2 0 0 0 0-3.2 0l-13-9.7c-3.2 0-3.2-3.2-6.4-3.2 0 0 0 0 0 3.2 0 3.2 0 6.4 3.2 12.9 6.5 12.9 19.4 19.3 32.3 19.3 12.9 0 22.6-9.6 25.8-19.3 0 0 0-3.2 0-6.4 0 0 0 0-3.2 0-3.3 3.2-6.5 6.4-9.7 3.2-3.2 0-6.5-3.2-9.7-6.5-3.2-6.4 0-12.9 3.2-16.1 3.3-3.2 6.5-6.4 9.7-6.4 3.2 0 6.5 6.4 9.7 9.6 0 0 0 0 3.2 0 0 0 3.2-3.2 0-3.2 0 0-3.2-9.7-3.2-19.3 0-9.7 9.7-19.4 16.1-22.6h3.2c6.5 3.2 9.7 12.9 6.5 22.6 0 9.6-9.7 19.3-12.9 22.5 0 3.3 0 3.3 0 3.3 3.2 0 6.4-3.3 6.4-3.3 3.3-3.2 6.5 0 9.7 0 3.2 3.3 6.5 6.5 6.5 9.7 0 6.5-3.3 12.9-9.7 16.1-3.2 0-6.5 0-9.7-3.2-3.2-3.2-3.2-3.2-6.4-6.4 0 0 0 0-3.3 0v3.2c0 6.4 3.3 16.1 6.5 19.3 6.4 9.7 22.6 16.2 32.2 9.7 6.5-3.2 16.2-6.4 19.4-16.1 0-3.2-3.2-3.2-3.2-3.2 0 0-9.7 3.2-12.9 3.2-3.3 0-3.3 0-3.3-3.2 0 0-3.2-12.9-3.2-16.2 0-3.2 0-3.2 0-3.2l12.9-6.4c12.9 3.2 12.9 3.2 12.9 6.4 0 0 3.2 6.4 3.2 12.9 0 3.2 3.3 3.2 3.3 0 0 0 0-12.9 0-16.1 0-3.3 0-3.3 3.2-3.3h19.3c3.3 0 3.3 0 3.3 0 0 0 0 0 0 3.3l-48.4 83.8c-35.5-16.1-77.4-22.6-122.6-22.6z"/>
		<path id="Layer" fill-rule="evenodd" class="s1" d="m764.3 225.8c12.9-0.1 22.6 9.6 22.6 22.5 0 12.9-9.7 22.6-22.6 22.6 0 0 0 0-3.2 0-12.9 0-22.6-9.7-22.6-22.6 6.5-12.9 16.2-22.6 25.8-22.6zm-170.9 35.5c9.7 0 19.4 6.5 19.4 16.1 0 9.7-6.5 19.4-16.2 19.4-9.7 0-16.1-9.7-16.1-19.4-3.2-9.6 6.4-16.1 12.9-16.1zm22.6-45.1c9.7 0 16.1 6.4 16.1 16.1 0 9.7-6.4 16.1-16.1 16.1-9.7 0-16.1-6.4-16.1-16.1 0-6.5 6.4-16.1 16.1-16.1zm48.4-12.9c9.6 0 16.1 6.4 16.1 16.1 0 9.7-6.5 16.1-16.1 16.1-9.7 0-16.2-6.4-16.2-16.1 0-9.7 6.5-16.1 16.2-16.1zm51.5 19.3c9.7 0 19.4 6.5 19.4 16.1 0 9.7-9.7 19.4-19.4 19.4-9.6 0-16.1-9.7-16.1-19.4-3.2-6.4 6.5-12.9 16.1-16.1zm235.5 54.8c0 9.7-6.5 19.4-16.1 19.4-9.7 0-16.2-9.7-16.2-19.4 0-9.6 9.7-16.1 19.4-16.1 9.7 0 16.1 6.5 12.9 16.1zm-16.1-45.1c0 9.7-6.5 16.1-16.2 16.1-9.7 0-16.1-6.4-16.1-16.1 0-9.7 6.4-16.1 16.1-16.1 9.7 0 16.2 9.6 16.2 16.1zm-51.6-12.9c0 9.7-6.5 16.1-16.2 16.1-9.7 0-16.1-6.4-16.1-16.1 0-9.7 6.4-16.1 16.1-16.1 9.7 0 19.4 6.4 16.2 16.1zm-48.4 22.6c0 9.6-6.5 16.1-16.1 16.1-9.7 0-16.2-9.7-16.2-19.4 0-9.6 6.5-16.1 16.2-16.1 9.6 0 16.1 9.7 16.1 19.4zm-58.1-80.7l-6.4 19.4c6.4 0 12.9-3.2 16.1-6.5v25.8c-6.4-3.2-12.9-3.2-16.1-6.4l6.4 22.6c-3.2-3.3-9.6-3.3-12.9-3.3-3.2 0-9.6 0-12.9 3.3l6.5-22.6c-6.5 0-12.9 3.2-16.1 6.4v-22.5c6.4 3.2 12.9 3.2 16.1 6.4l-3.2-22.6zm-42 306.4c9.7-3.2 16.2-9.6 25.8-12.9l12.9 19.4-122.5 64.5c0-19.4-6.5-42-22.6-54.8-9.7-9.7-25.8-13-38.7-9.7-6.4 3.2-16.1 9.7-16.1 19.3 0 6.5 0 12.9 3.2 16.1 6.5-3.2 16.1-6.4 25.8-3.2 12.9 3.2 25.8 12.9 29 22.6 6.5 16.1 0 32.2-9.6 45.1-12.9 12.9-35.5 16.2-51.7 12.9-22.5-6.4-35.4-29-38.6-48.3-3.3-38.7 25.8-74.2 64.5-90.3 29-12.9 74.1-16.2 103.1-3.3 9.7 3.3 22.6 12.9 35.5 22.6zm212.9-9.7c6.4 12.9 3.2 32.3 3.2 48.4l-6.4 3.2-96.8 51.6v-48.3c0-6.5 0-12.9-6.4-16.2-6.5-6.4-19.4-3.2-29.1 0v109.7l61.3-29c19.4-9.7 41.9-12.9 61.3-3.3 19.3 9.7 22.5 29.1 22.5 45.2v45.1l-80.6 42c29 9.6 58.1 22.5 74.2 48.3 12.9 25.8 3.2 64.5 9.7 93.6 3.2 16.1 9.7 29 19.3 41.9l25.8-12.9 12.9 19.3-83.8 45.2-38.7 19.3c-25.8-29-45.2-58-48.4-90.3v-96.7c0-12.9 0-29-16.1-35.5q-9.7-4.8-19.4 0v87.1c-41.9 0-80.6 9.7-106.4 38.7-6.5 6.4-12.9 16.1-19.4 25.8-16.1-6.5-41.9-9.7-58 0-12.9 6.4-22.6 19.3-19.4 35.5 3.3 16.1 19.4 29 35.5 32.2 35.5 6.5 80.6 0 100-29l3.2-6.4c-12.9-9.7-19.3-22.6-16.1-38.7 3.2-16.2 19.4-29.1 35.5-32.3 19.3-3.2 35.5 3.2 48.4 16.1 12.8 12.9 16.1 32.3 6.4 48.4-16.1 38.7-61.3 54.8-100 61.3-48.4 9.7-103.2 6.4-145.1-12.9-29-12.9-51.6-35.5-54.8-64.5-3.3-35.5 19.3-64.5 51.6-83.9 19.3-9.6 45.1-19.3 67.7-19.3v-87.1h-61.3c0-25.8 9.7-54.8 38.7-67.7 9.7-3.3 19.4-6.5 29-6.5v-74.2l38.7-19.3 129-67.7 51.6-29.1c16.2-9.6 42-12.9 61.3-3.2 9.7 3.3 16.2 9.7 19.4 16.2zm-393.5 58c-3.2 12.9-3.2 29 6.5 38.7 6.4 9.7 19.3 12.9 32.2 9.7 6.5-3.3 16.1-9.7 16.1-16.1 0-6.5 0-12.9-6.4-19.4-6.5-3.2-12.9-3.2-19.4-3.2q-4.8 4.8-9.6 9.6c-9.7-3.2-16.1-12.9-19.4-19.3zm232.2 351.5c-9.7 0-19.3 3.3-22.6 9.7-3.2 6.4-6.4 16.1 0 19.4q4.9 9.6 19.4 9.6c-3.2 12.9-12.9 22.6-22.6 32.3 12.9-6.5 25.8-12.9 35.5-22.6 9.7-9.7 16.1-25.8 6.5-38.7-6.5-3.2-9.7-6.4-16.2-9.7zm-58-48.3c-45.2-9.7-93.5-6.5-132.3 12.8-25.8 12.9-45.1 35.5-45.1 61.3 0 22.6 19.4 38.7 38.7 48.4-6.4-6.5-6.4-16.1-6.4-25.8q0-14.5 9.6-29c19.4-22.6 51.6-32.3 83.9-25.8 12.9-19.4 35.5-35.5 58-42 3.2 0.1-6.4 0.1-6.4 0.1zm119.3-100c19.4 9.7 25.8 29 25.8 45.1v100c0 22.6 9.7 45.1 25.8 64.5l54.8-29c-12.9-19.4-22.5-38.7-22.5-64.5v-41.9c0-9.7 0-22.6-6.5-32.3-16.1-25.8-48.4-32.2-77.4-41.9zm-58-74.2l-35.5 19.4v106.4l-45.2 25.8c29.1 3.2 54.8 9.7 80.7 16.1 0-3.2 0-167.7 0-167.7zm22.5-12.9v80.6l35.5-19.3v-35.5c0-9.7 0-19.4-6.4-25.8-3.3-9.7-19.4-6.5-29.1 0zm93.6-45.2c-19.4 3.3-35.5 12.9-51.6 22.6 12.9 3.3 19.3 16.1 19.3 29v42l58.1-29.1v-19.3c0-9.7 0-22.6-3.3-32.3-6.4-9.6-12.9-12.9-22.5-12.9zm-177.4 167.8v-212.9l-54.8 29v83.9c-12.9 0-29.1 0-38.7 3.2-9.7 3.2-19.4 12.9-22.6 25.8h61.3v102.5c2.9-5.6 54.8-31.6 54.8-31.6zm-54.8 31.6q-0.3 0.4 0 0.7zm116.1-167v-106.4l-35.5 19.4v106.4zm112.9-161.3c-19.4 3.3-32.3 12.9-48.4 19.4 22.5 6.4 22.5 29 22.5 48.4l54.9-29.1c0-9.6 0-19.3-3.3-29-9.6-9.7-16.1-12.9-25.7-9.7zm-277.4 0c19.3 6.5 35.5 25.8 41.9 45.2l45.2-22.6c-22.6-22.6-54.9-29-87.1-22.6z"/>
		<path id="Layer" fill-rule="evenodd" class="s2" d="m522.4 1544.8c-22.5-3.3-32.2-16.2-41.9-29-3.2-6.5-61.3-90.3-77.4-119.4v106.4c0 16.2 0 25.8 12.9 35.5h-41.9c12.9-9.7 12.9-19.3 12.9-35.5v-112.8c0-16.2-3.2-22.6-16.1-32.3h45.1l90.3 138.7v-106.4c0-16.2 0-25.8-12.9-35.5h41.9c-12.9 9.7-12.9 19.3-12.9 35.5zm-270.8 0c-48.2 0-87.1-41.8-87.1-93.5 0-51.8 38.9-93.6 87.1-93.6 48.1 0 87 41.8 87 93.6 0 51.7-38.9 93.5-87 93.5zm54.8-93.6c0-42.9-24.5-77.5-54.8-77.5-30.4 0-54.9 34.6-54.9 77.5 0 42.8 24.5 77.5 54.9 77.5 30.3 0 54.8-34.7 54.8-77.5zm380.5 74.2v-41.9c0-12.9 0-25.8-12.9-29h42v87.1c-12.9 3.2-42 6.4-51.6 6.4-6.5 0-93.6 0-93.6-93.5 0-83.9 71-93.5 87.1-93.5 16.1 0 38.7 3.2 51.6 9.6v35.5c-12.9-16.1-22.6-29-48.4-29-19.3 0-58 16.1-58 80.6 0 16.1 3.2 54.8 35.5 71 9.6-3.3 32.2 3.2 48.3-3.3zm828.9 0v-41.9c0-12.9 0-25.8-12.9-29h41.9v87.1c-12.9 3.2-41.9 6.4-51.6 6.4-6.5 0-93.6 0-93.6-93.5 0-83.9 71-93.5 87.1-93.5 16.2 0 38.7 3.2 51.6 9.6v35.5c-12.9-16.1-22.5-29-48.3-29-19.4 0-58.1 16.1-58.1 80.6 0 16.1 3.2 54.8 35.5 71 6.4-3.3 29 3.2 48.4-3.3zm-754.7-32.2c9.7 19.3 29 35.4 48.4 35.4 19.3 0 32.2-16.1 32.2-35.4 0-38.7-77.4-32.3-77.4-87.1 0-38.7 35.5-51.6 58.1-51.6 9.7 0 25.8 3.2 35.5 6.4v32.3c-12.9-19.3-22.6-25.8-38.7-25.8-12.9 0-25.8 12.9-25.8 25.8 0 41.9 77.4 29 77.4 93.5 0 35.5-29.1 54.9-64.5 54.9-6.5 0-25.8-3.3-42-9.7zm280.6-6.5c0 22.6-12.9 35.5-29 45.2-19.4 9.7-41.9 9.7-61.3 9.7h-41.9c12.9-6.5 12.9-25.8 12.9-38.7v-103.3c0-12.9 3.2-32.2-12.9-38.7h61.3c35.4 0 58 12.9 58 38.7 0 19.4-12.9 29.1-38.7 38.8 19.4 3.2 51.6 12.9 51.6 48.3zm-93.5-109.6v148.3c22.6 3.3 64.5 0 61.3-38.7 0-22.5-16.2-38.7-51.7-38.7l6.5-12.9c12.9-3.2 32.2-6.4 32.2-32.2 0.1-25.8-29-32.3-48.3-25.8zm241.8 16.1c-6.4-9.7-12.8-22.6-67.7-16.1v58h51.6v25.8c-3.2-6.4-16.1-12.9-22.6-12.9h-25.8v77.4c64.5 6.5 77.5-19.3 80.7-25.8l-12.9 38.7h-112.9c12.9-6.4 12.9-22.5 12.9-35.4v-109.7c0-12.9 0-29-12.9-35.5h109.6c0 3.3 0 35.5 0 35.5zm177.4 145.1c-9.6 0-22.5 0-35.4-19.3-16.2-19.4-48.4-67.7-48.4-67.7l6.4-12.9c16.2-3.3 32.3-12.9 32.3-38.7 0-16.2-16.1-29.1-32.3-29.1-6.4 0-9.6 0-16.1 0v125.8c0 12.9-3.2 32.3 12.9 38.7h-51.6c12.9-6.4 9.7-22.6 12.9-38.7v-103.2c0-12.9 3.2-32.3-12.9-35.5h64.5c38.7 0 58.1 19.4 58.1 45.2 0 22.5-19.4 35.5-42 41.9 19.4 32.3 54.9 87.1 77.4 93.5zm-1206.1 0h-29.1c-12.9 0-22.5-6.4-32.2-19.3l-51.6-77.4 45.1-48.4c12.9-16.1 19.4-29 0-35.5h51.6l-67.7 74.2c19.4 32.3 58.1 96.8 83.9 106.4z"/>
		<path id="Layer" class="s2" d="m12.9 1399.6c0-12.8 3.2-32.2-12.9-38.7h54.8c-12.9 6.5-12.9 25.8-12.9 38.7v103.3c0 12.9-3.2 32.2 12.9 38.7h-54.8c12.9-6.5 12.9-25.8 12.9-38.7z"/>
	</g>
</svg>