<?xml version="1.0" encoding="utf-8"?>
<!-- Generator: Adobe Illustrator 25.0.0, SVG Export Plug-In . SVG Version: 6.00 Build 0)  -->
<svg version="1.1" id="kraftlauget" xmlns="http://www.w3.org/2000/svg" xmlns:xlink="http://www.w3.org/1999/xlink" x="0px"
	 y="0px" viewBox="0 0 1373.86 217.74" style="enable-background:new 0 0 1373.86 217.74;" xml:space="preserve">
<g>
	<path d="M532.55,121.95"/>
	<path d="M528.82,111.62"/>
	<g>
		<g>
			<g>
				<path d="M300.46,114.6l-10.8,11.45v29.7h-16.55V60.49h16.55v44.69l9.16-11.32l27.87-33.37h20.02l-35.4,42.2l37.42,53.06h-19.63
					L300.46,114.6z"/>
			</g>
			<g>
				<path d="M412.68,119.05h-18.45v36.7h-16.55V60.49h33.5c5.45,0,10.31,0.62,14.59,1.86c4.27,1.24,7.88,3.08,10.83,5.5
					c2.94,2.42,5.18,5.42,6.71,9c1.53,3.58,2.29,7.72,2.29,12.43c0,6.37-1.54,11.7-4.61,16c-3.08,4.3-7.36,7.6-12.86,9.91
					l21.39,39.71v0.85h-17.73L412.68,119.05z M394.23,105.76h17.01c2.97,0,5.56-0.39,7.79-1.18c2.22-0.79,4.08-1.87,5.56-3.27
					c1.48-1.4,2.59-3.05,3.34-4.97c0.74-1.92,1.11-4.03,1.11-6.35c0-2.44-0.35-4.66-1.05-6.64c-0.7-1.98-1.77-3.69-3.21-5.1
					c-1.44-1.42-3.28-2.51-5.53-3.27c-2.25-0.76-4.94-1.14-8.08-1.14h-16.95V105.76z"/>
			</g>
			<g>
				<path d="M529.98,120.08l-33.51,17.34l-6.38,18.32h-17.21l35.99-95.26h14.85l36.05,95.26H542.5L529.98,120.08z M502.46,120.22
					l23.38-12.1l-9.58-27.41L502.46,120.22z"/>
			</g>
			<g>
				<path d="M645.57,115.38h-38.34v40.37h-16.55V60.49h60.52v13.35h-43.97v28.33h38.34V115.38z"/>
			</g>
			<g>
				<path d="M754.52,73.83h-29.7v81.91h-16.42V73.83h-29.44V60.49h75.57V73.83z"/>
			</g>
			<g>
				<path d="M803.66,142.53h43.25v13.22h-59.8V60.49h16.55V142.53z"/>
			</g>
			<g>
				<path d="M1058.79,60.49v63.73c0,5.45-0.93,10.23-2.78,14.33c-1.86,4.1-4.39,7.52-7.62,10.27c-3.23,2.75-7,4.81-11.32,6.18
					c-4.32,1.37-8.94,2.06-13.87,2.06c-5.1,0-9.82-0.69-14.16-2.06c-4.34-1.37-8.1-3.43-11.29-6.18c-3.18-2.75-5.67-6.17-7.46-10.27
					c-1.79-4.1-2.68-8.88-2.68-14.33V60.49h16.49v63.73c0,3.4,0.45,6.34,1.34,8.8c0.89,2.46,2.17,4.5,3.83,6.12
					c1.66,1.61,3.66,2.8,6.02,3.57c2.36,0.76,4.99,1.14,7.92,1.14c2.92,0,5.57-0.38,7.95-1.14c2.38-0.76,4.38-1.95,6.02-3.57
					c1.64-1.61,2.9-3.65,3.79-6.12c0.89-2.46,1.34-5.4,1.34-8.8V60.49H1058.79z"/>
			</g>
			<g>
				<path d="M1169.57,143.38c-1.01,1.31-2.4,2.76-4.19,4.35c-1.79,1.59-4.09,3.08-6.9,4.45c-2.81,1.37-6.19,2.53-10.14,3.47
					c-3.95,0.94-8.58,1.41-13.9,1.41c-5.98,0-11.46-1.03-16.45-3.08c-5-2.05-9.28-5.01-12.86-8.9c-3.58-3.88-6.36-8.66-8.34-14.33
					c-1.99-5.67-2.98-12.15-2.98-19.43v-6.28c0-7.24,0.89-13.71,2.68-19.4c1.79-5.69,4.36-10.5,7.72-14.43
					c3.36-3.93,7.46-6.91,12.3-8.96c4.84-2.05,10.34-3.08,16.49-3.08c5.8,0,10.86,0.75,15.18,2.26c4.32,1.5,7.96,3.61,10.93,6.31
					c2.97,2.71,5.3,5.92,7,9.65c1.7,3.73,2.84,7.82,3.4,12.27h-16.23c-0.39-2.49-1.05-4.78-1.96-6.87c-0.92-2.09-2.17-3.9-3.76-5.43
					c-1.59-1.53-3.56-2.73-5.89-3.6c-2.33-0.87-5.11-1.31-8.34-1.31c-3.88,0-7.25,0.72-10.11,2.16c-2.86,1.44-5.23,3.54-7.13,6.31
					c-1.9,2.77-3.31,6.17-4.25,10.21c-0.94,4.03-1.41,8.63-1.41,13.77v6.41c0,5.23,0.56,9.87,1.7,13.9
					c1.13,4.03,2.76,7.43,4.87,10.17c2.12,2.75,4.69,4.84,7.72,6.28c3.03,1.44,6.47,2.16,10.3,2.16c2.84,0,5.27-0.19,7.3-0.56
					c2.03-0.37,3.74-0.84,5.14-1.41c1.4-0.57,2.54-1.19,3.43-1.86c0.89-0.68,1.62-1.32,2.19-1.93v-18.65h-19.63v-12.56h36.12V143.38
					z"/>
			</g>
			<g>
				<path d="M1263.54,113.22h-39.13v29.31h45.73v13.22h-62.29V60.49h61.83v13.35h-45.28v26.3h39.13V113.22z"/>
			</g>
			<g>
				<path d="M1373.86,73.83h-29.7v81.91h-16.42V73.83h-29.44V60.49h75.57V73.83z"/>
			</g>
			<g>
				<path d="M929.54,120.08l-33.51,17.34l-6.38,18.32h-17.21l35.98-95.26h14.85l36.05,95.26h-17.27L929.54,120.08z M902.01,120.22
					l23.38-12.1l-9.58-27.41L902.01,120.22z"/>
			</g>
		</g>
		<g>
			<g>
				<path d="M108.87,217.74C48.84,217.74,0,168.9,0,108.87S48.84,0,108.87,0s108.87,48.84,108.87,108.87S168.9,217.74,108.87,217.74
					z M108.87,5.58C51.92,5.58,5.58,51.92,5.58,108.87s46.33,103.29,103.29,103.29s103.29-46.33,103.29-103.29
					S165.82,5.58,108.87,5.58z"/>
			</g>
			<path d="M88.48,74.81"/>
			<path d="M88.48,74.81"/>
			<path d="M117.15,94.69"/>
			<path d="M88.45,125.32"/>
			<path d="M133.51,135.46"/>
			<g>
				<path d="M190.64,94.62c-0.58-0.75-1.33-1.2-2.26-1.34l-19.69-3.01c-1.08-3.44-2.55-6.96-4.41-10.54
					c1.29-1.79,3.23-4.32,5.81-7.59c2.58-3.26,4.41-5.65,5.49-7.15c0.57-0.79,0.86-1.61,0.86-2.47c0-1-0.25-1.79-0.75-2.37
					c-2.58-3.66-8.5-9.75-17.75-18.29c-0.86-0.72-1.76-1.08-2.69-1.08c-1.08,0-1.94,0.32-2.58,0.97l-15.28,11.51
					c-2.94-1.51-6.17-2.83-9.68-3.98l-3.01-19.8c-0.07-0.93-0.48-1.7-1.24-2.31c-0.75-0.61-1.63-0.91-2.64-0.91H96.93
					c-2.08,0-3.37,1-3.87,3.01c-0.93,3.59-1.97,10.26-3.12,20.01c-3.37,1.08-6.64,2.44-9.79,4.09L65.3,41.84
					c-0.93-0.72-1.87-1.08-2.8-1.08c-1.58,0-4.97,2.57-10.17,7.69c-5.2,5.13-8.73,8.98-10.6,11.57c-0.65,0.93-0.97,1.76-0.97,2.47
					c0,0.86,0.36,1.72,1.08,2.58c4.81,5.81,8.64,10.76,11.51,14.85c-1.79,3.3-3.19,6.6-4.2,9.9l-20.01,3.01
					c-0.79,0.14-1.47,0.61-2.04,1.4c-0.58,0.79-0.86,1.61-0.86,2.47v23.89c0,0.93,0.29,1.77,0.86,2.53c0.57,0.75,1.33,1.2,2.26,1.34
					l19.69,2.9c1,3.52,2.47,7.07,4.41,10.65c-1.29,1.79-3.23,4.32-5.81,7.59c-2.58,3.26-4.41,5.65-5.49,7.15
					c-0.58,0.79-0.86,1.61-0.86,2.48c0,0.93,0.25,1.76,0.75,2.48c2.8,3.87,8.71,9.9,17.75,18.08c0.79,0.79,1.68,1.18,2.69,1.18
					c1.08,0,1.97-0.32,2.69-0.97l15.17-11.51c2.94,1.51,6.17,2.83,9.68,3.98l3.01,19.8c0.07,0.93,0.48,1.7,1.24,2.31
					c0.75,0.61,1.63,0.91,2.64,0.91h23.89c2.08,0,3.37-1,3.87-3.01c0.93-3.59,1.97-10.26,3.12-20.01c3.37-1.08,6.63-2.44,9.79-4.09
					l14.85,11.62c1,0.65,1.94,0.97,2.8,0.97c1.58,0,4.95-2.55,10.11-7.64c5.16-5.09,8.72-8.96,10.65-11.62
					c0.65-0.72,0.97-1.54,0.97-2.48c0-0.93-0.36-1.83-1.08-2.69c-5.16-6.31-9-11.26-11.51-14.85c1.43-2.65,2.83-5.92,4.2-9.79
					l19.9-3.01c0.86-0.14,1.58-0.61,2.15-1.4c0.57-0.79,0.86-1.61,0.86-2.48V97.14C191.5,96.21,191.21,95.37,190.64,94.62z
					 M161.28,111.6c-0.71,13.95-6.98,26.53-16.62,35.55l-8.11-10.41c2.13-3,2.83-6.96,1.52-10.69c-2.15-6.1-8.85-9.31-14.95-7.16
					c-2.95,1.04-5.32,3.17-6.68,5.99c-1.35,2.82-1.52,6.01-0.48,8.96c1.7,4.81,6.23,7.83,11.07,7.83c1.29,0,2.6-0.21,3.88-0.67
					c0.12-0.04,0.24-0.1,0.36-0.15l8.23,10.56c-7.95,5.75-17.54,9.35-27.89,9.87c-31.14,1.58-56.72-24-55.14-55.14
					c0.73-14.31,7.31-27.18,17.37-36.25l10.13,12.48v32.57c-0.18,0.05-0.36,0.1-0.54,0.16c-2.95,1.04-5.32,3.17-6.68,5.99
					c-1.35,2.82-1.52,6.01-0.48,8.96c1.7,4.81,6.23,7.83,11.07,7.83c1.29,0,2.6-0.21,3.88-0.67c6.1-2.15,9.31-8.85,7.16-14.95
					c-1.29-3.67-4.24-6.28-7.71-7.32V80L79.08,65.73c7.78-5.4,17.07-8.76,27.06-9.27c16.39-0.83,31.23,5.87,41.39,16.93l-16.7,0
					l-11.19,12.15c-0.17-0.08-0.34-0.18-0.51-0.25c-2.87-1.25-6.06-1.3-8.97-0.15c-2.91,1.15-5.2,3.36-6.45,6.24
					c-1.25,2.87-1.3,6.06-0.15,8.97c1.15,2.91,3.36,5.2,6.24,6.45h0c1.5,0.65,3.08,0.98,4.66,0.98c1.45,0,2.91-0.27,4.31-0.82
					c2.91-1.15,5.2-3.36,6.45-6.24c1.25-2.87,1.3-6.06,0.15-8.97c-0.23-0.57-0.51-1.12-0.81-1.64l9.22-10l19,0
					C158.66,89.06,161.87,99.94,161.28,111.6z M128.5,134.16c-2.32,0.82-4.88-0.41-5.7-2.73c-0.4-1.13-0.33-2.34,0.18-3.41
					c0.52-1.08,1.42-1.89,2.54-2.28c0.49-0.17,0.99-0.25,1.48-0.25c1.84,0,3.57,1.15,4.22,2.98
					C132.04,130.78,130.82,133.34,128.5,134.16z M85.83,121.95c0.49-0.17,0.99-0.25,1.48-0.25c1.84,0,3.57,1.15,4.22,2.98
					c0.82,2.32-0.41,4.88-2.73,5.7c-1.13,0.4-2.34,0.33-3.41-0.18c-1.08-0.52-1.89-1.42-2.28-2.54c-0.4-1.13-0.33-2.34,0.18-3.41
					C83.8,123.15,84.7,122.34,85.83,121.95z M118.56,97.82c-0.47,1.09-1.35,1.94-2.46,2.38c-1.11,0.44-2.32,0.42-3.42-0.06h0
					c-2.26-0.98-3.3-3.61-2.32-5.87c0.47-1.09,1.35-1.94,2.46-2.38c0.53-0.21,1.09-0.31,1.64-0.31c0.6,0,1.21,0.12,1.78,0.37
					c1.09,0.47,1.94,1.35,2.38,2.46C119.05,95.51,119.03,96.72,118.56,97.82z"/>
			</g>
		</g>
	</g>
</g>
</svg>
