<?xml version="1.0" encoding="UTF-8" standalone="no"?>
<!-- Created with Inkscape (http://www.inkscape.org/) -->

<svg
   version="1.1"
   id="svg9"
   width="512.37329"
   height="61.910461"
   viewBox="0 0 512.37329 61.910461"
   sodipodi:docname="MarinIT.svg"
   inkscape:export-filename="marinitfinal.svg"
   inkscape:export-xdpi="96"
   inkscape:export-ydpi="96"
   xmlns:inkscape="http://www.inkscape.org/namespaces/inkscape"
   xmlns:sodipodi="http://sodipodi.sourceforge.net/DTD/sodipodi-0.dtd"
   xmlns="http://www.w3.org/2000/svg"
   xmlns:svg="http://www.w3.org/2000/svg">
  <defs
     id="defs13" />
  <sodipodi:namedview
     id="namedview11"
     pagecolor="#ffffff"
     bordercolor="#000000"
     borderopacity="0.25"
     inkscape:showpageshadow="2"
     inkscape:pageopacity="0.0"
     inkscape:pagecheckerboard="0"
     inkscape:deskcolor="#d1d1d1"
     showgrid="false" />
  <g
     inkscape:groupmode="layer"
     inkscape:label="Image"
     id="g15"
     transform="translate(-0.05,-0.09027161)"
     style="display:inline">
    <g
       id="g425"
       style="fill:#000080">
      <path
         style="fill:#000080"
         d="M 42.711469,59.987682 C 41.304433,58.880907 36.419667,51.91389 31.856435,44.505422 26.966808,36.567048 23.292609,31.54152 22.909378,32.26774 22.551729,32.945483 21.280616,38.9 20.084683,45.5 16.976971,62.650532 18.21509,61 8.4576123,61 H 0.05 L 0.56790973,58.25 C 0.85276008,56.7375 3.0668406,44.284897 5.4880886,30.577548 10.408996,2.7189442 11.024853,1.2999698 18.597418,0.37278696 25.053991,-0.41775395 27.525158,2.0081266 38.440739,19.852454 43.873441,28.733604 48.65776,36 49.07256,36 49.48736,36 54.427301,28.538356 60.050208,19.418568 71.22549,1.2933872 73.523805,-0.87471995 80.22882,0.38314844 86.816345,1.6189757 87.674485,3.5438147 94.969083,33.446109 L 101.69079,61 H 91.428261 81.165728 L 80.163056,56.25 C 79.611587,53.6375 78.397181,47.225 77.464377,42 c -0.932804,-5.225 -1.987802,-9.821412 -2.34444,-10.214248 -0.356638,-0.392837 -4.211133,5.148333 -8.565544,12.31371 -4.354411,7.165377 -9.220026,14.124288 -10.812477,15.464248 -3.656882,3.077063 -9.419233,3.264553 -13.030447,0.423972 z m 335.736101,0.944733 c -1.67884,-0.487965 -11.57884,-8.045278 -22,-16.79403 L 337.5,28.231564 337.22582,44.615782 336.95164,61 h -9.52038 -9.52037 L 318.20544,32.910372 318.5,4.8207447 320.86078,2.9103724 C 323.86427,0.47991468 329.58827,0.4495478 333.5,2.843319 335.15,3.8530325 344.06842,11.05135 353.31872,18.839581 362.56901,26.627811 370.55651,33 371.06872,33 371.60496,33 372,26.212954 372,17 V 1 h 9 9 l -0.0153,28.25 c -0.008,15.5375 -0.34592,28.745133 -0.75,29.350296 -0.97806,1.464772 -4.77462,3.422227 -6.41895,3.309516 -0.72366,-0.0496 -2.68933,-0.489432 -4.36817,-0.977397 z M 105.63559,59.75 c 2.45732,-4.075839 35.94197,-51.6570097 37.71682,-53.595014 5.04585,-5.50970136 12.69234,-6.75254975 18.22411,-2.9621191 1.93852,1.3282967 10.55515,13.0576741 21.85493,29.7500001 L 202.08611,60.5 185.60707,60.773889 c -9.06346,0.150639 -24.18786,0.150639 -33.60976,0 L 134.86657,60.5 139.95933,53.25 145.05209,46 h 11.55729 c 6.35651,0 11.40516,-0.3375 11.21922,-0.75 -0.18593,-0.4125 -3.40103,-5.39192 -7.14466,-11.065378 l -6.8066,-10.315379 -2.73933,3.815379 C 149.63138,29.78308 143.78688,38.1375 138.15023,46.25 L 127.90178,61 h -11.50991 c -8.94319,0 -11.34185,-0.278751 -10.75628,-1.25 z m 99.58836,-14 L 205.5,30.5 231.34004,30 c 25.67167,-0.496742 25.85249,-0.515383 27.75,-2.860784 2.36382,-2.921768 2.39538,-4.318461 0.15996,-7.077784 -2.7097,-3.344755 -7.9967,-4.011839 -32,-4.037575 L 205,16 V 8.4294422 0.85888439 L 232.75,1.1794422 C 260.248,1.4970889 260.54995,1.5236237 266,4.1013803 275.39424,8.5446503 280,14.761975 280,23 280,30.560698 275.13498,38.458807 268.88252,41.048662 267.29713,41.70535 266,42.589592 266,43.013644 c 0,0.424051 3.9375,4.040104 8.75,8.035673 4.8125,3.995569 9.40893,7.869023 10.21429,8.607677 C 286.19632,60.786985 284.28517,61 272.91493,61 H 259.40129 L 250.26102,53.5 241.12076,46 H 232.56038 224 v 7.5 7.5 h -9.52605 -9.52604 z M 290,31 V 1 h 9 9 v 30 30 h -9 -9 z m 130,0 V 1 h 9 9 v 30 30 h -9 -9 z m 47,7.5 V 16 h -12.05902 c -7.91373,0 -11.8431,-0.349357 -11.4309,-1.016312 0.34546,-0.558971 0.97202,-0.803766 1.39235,-0.543989 0.42033,0.259778 -1.46225,1.203536 -1.46225,0.486698 0,-0.716838 3.98899,-5.1594281 6.14315,-8.2618814 L 453.5,1.0236913 483.30902,1.0118457 c 23.57329,-0.00937 29.65597,0.2496409 29.07741,1.2381543 -0.40238,0.6875 -2.71843,4.0625 -5.14679,7.5 l -4.4152,6.25 h -9.44873 -9.44873 L 484.21349,38.500872 484.5,61.001744 475.75,61.000872 467,61 Z"
         id="path224"
         sodipodi:nodetypes="ssssscsssssssscccsssssssscccccccsssssccccsssssssscsscccssscsscssccsssscccssssssssccccccccccccccccccccccccccccccssssscssscccccccc" />
    </g>
    <path
       style="fill:#000080;stroke-width:0.438301"
       d="M 45.232446,61.028436 C 42.617135,60.190827 40.788275,57.780226 29.012181,39.6487 25.489086,34.224229 23.092073,31.358475 22.672744,32.069573 22.312155,32.681057 21.163987,38.137752 19.506481,47.117304 16.834855,61.590859 17.610734,60.70462 7.6111501,60.70462 c -4.654866,0 -7.17284959,-0.159366 -7.17284959,-0.453983 0,-0.704029 6.45289409,-36.756055 7.72458799,-43.156917 C 10.143018,7.1270594 11.858236,2.9285694 14.53507,1.4959719 c 0.469261,-0.251141 2.033526,-0.64670572 3.476145,-0.87903264 6.458721,-1.04014689 8.703079,1.06096164 19.472866,18.22998274 7.516867,11.98327 11.078107,17.31287 11.568452,17.31287 0.397082,0 7.378223,-10.534876 13.651079,-20.600124 C 71.552689,1.3606878 74.624387,-1.0842891 81.209023,0.82991758 85.582316,2.1012682 87.2883,5.0477281 90.487293,16.854719 c 1.364701,5.036911 10.760127,43.159972 10.760127,43.660511 0,0.104162 -4.498702,0.18939 -9.997116,0.18939 H 81.253191 L 79.14252,49.637532 c -2.416934,-12.672927 -3.525396,-17.77741 -3.953396,-18.20541 -0.487035,-0.487035 -3.219006,3.408088 -10.781281,15.371482 -5.836822,9.23376 -8.473322,12.500493 -11.061302,13.705416 -2.466159,1.148198 -5.537033,1.34478 -8.114095,0.519416 z"
       id="path996"
       transform="translate(0.05,0.09027161)" />
    <path
       style="fill:#000080;stroke-width:0.438301"
       d="m 107.27405,60.390687 c -0.66293,-0.100428 -1.20041,-0.416035 -1.1944,-0.701355 0.0222,-1.056484 34.61617,-50.0962019 37.81872,-53.6111414 2.97821,-3.2687091 6.12241,-4.703153 10.38341,-4.7370999 4.76574,-0.037968 6.61695,0.992653 10.44378,5.8143675 5.18558,6.5336838 10.57045,14.2376728 30.88357,44.1842408 l 5.9858,8.824549 -16.76603,0.32241 c -9.22131,0.177327 -24.116,0.150985 -33.09929,-0.05854 l -16.33326,-0.380949 4.77291,-6.793658 4.77291,-6.793657 11.07271,-0.288608 c 6.75198,-0.175991 11.25216,-0.46807 11.53261,-0.748517 0.321,-0.321007 -0.72907,-2.28563 -3.47688,-6.505048 -2.16523,-3.324828 -5.3028,-8.152927 -6.97238,-10.729107 -1.66958,-2.57618 -3.13422,-4.692581 -3.25475,-4.703113 -0.17534,-0.01532 -17.73183,24.977452 -24.51698,34.901452 l -1.5619,2.284444 -9.64261,-0.04904 c -5.30344,-0.02697 -10.18501,-0.131209 -10.84794,-0.231633 z"
       id="path998"
       transform="translate(0.05,0.09027161)" />
    <path
       style="fill:#000080;stroke-width:0.438301"
       d="m 107.0549,60.395298 c -0.5424,-0.104473 -0.98618,-0.384289 -0.98618,-0.621812 0,-1.148422 34.75361,-50.4286304 38.05377,-53.9598054 2.82372,-3.0213762 6.04564,-4.439817 10.15929,-4.4725899 4.76574,-0.037968 6.61695,0.992653 10.44378,5.8143675 5.12663,6.4594158 11.90618,16.1503118 30.45041,43.5267498 l 6.42288,9.481961 -16.76799,0.322453 c -9.22239,0.177346 -24.12582,0.151021 -33.11872,-0.0585 l -16.35074,-0.380949 4.7936,-6.793658 4.7936,-6.793657 11.06949,-0.288608 c 6.19833,-0.161606 11.25786,-0.476976 11.49754,-0.716661 0.49486,-0.494859 0.31277,-0.802291 -7.65645,-12.926823 -3.13514,-4.769866 -5.91613,-8.600528 -6.17996,-8.51258 -0.26385,0.08795 -6.20257,8.370319 -13.19717,18.405269 l -12.71745,18.245362 -9.86176,-0.04028 c -5.42397,-0.02216 -10.30554,-0.125762 -10.84794,-0.230231 z"
       id="path1000"
       transform="translate(0.05,0.09027161)" />
    <path
       style="fill:#00ff00;stroke-width:0.438301"
       d="m 205.27291,51.171584 c 0.15833,-5.24317 0.28836,-12.021823 0.28895,-15.063673 l 0.001,-5.530638 18.51819,-0.308034 c 10.18501,-0.169419 21.63065,-0.476579 25.43475,-0.682578 8.03351,-0.435028 9.10201,-0.837295 10.75478,-4.048925 l 1.05413,-2.048391 -0.96306,-1.989427 c -1.98413,-4.098673 -4.74948,-4.925005 -18.41985,-5.504163 -5.42397,-0.229792 -15.92675,-0.421917 -23.3395,-0.426945 l -13.47774,-0.0091 V 8.3277096 1.0957513 l 11.94369,0.021237 c 22.37046,0.039778 41.91104,0.707233 44.59707,1.5233209 6.06833,1.8437208 12.5445,6.3480238 15.24765,10.6050458 5.72924,9.022597 1.77742,22.442998 -8.07946,27.437854 -3.6102,1.829425 -3.61723,1.96873 -0.26162,5.180771 1.62536,1.555813 6.00377,5.376628 9.72982,8.4907 6.19403,5.176706 6.68236,5.68769 5.69791,5.962254 -0.5922,0.16517 -6.35085,0.319969 -12.79701,0.343996 l -11.72029,0.04369 -9.04473,-7.451109 -9.04473,-7.451108 h -8.92984 -8.92984 v 7.451108 7.451109 h -9.27411 -9.27411 z"
       id="path1002"
       transform="translate(0.05,0.09027161)" />
    <path
       style="fill:#083460;fill-opacity:1;stroke-width:0.438301"
       d="m 379.75574,60.963699 c -0.98167,-0.307384 -3.00581,-1.388018 -4.4981,-2.401409 -3.66247,-2.487136 -16.14506,-12.531616 -27.99089,-22.523692 -5.35096,-4.513583 -9.83806,-8.206516 -9.97134,-8.206516 -0.13328,0 -0.24232,4.406434 -0.24232,9.792074 0,5.385641 -0.12941,12.781962 -0.28758,16.436271 l -0.28759,6.644193 h -9.2046 -9.2046 l 0.3131,-27.941657 0.3131,-27.9416574 1.1801,-0.9695599 c 3.0387,-2.4965704 6.55589,-3.23038201 10.28597,-2.1460197 2.84885,0.8281856 6.15868,3.315413 23.10922,17.365838 15.35464,12.727573 17.43361,14.293824 18.09513,13.632441 0.39185,-0.391776 0.57369,-4.639471 0.68795,-16.070394 L 372.2086,1.0957513 h 8.76295 8.76295 l -0.15951,28.1608077 c -0.11921,21.048549 -0.29412,28.399019 -0.69254,29.103999 -0.65488,1.158783 -4.69601,3.231331 -6.22259,3.191341 -0.6156,-0.01613 -1.92245,-0.280815 -2.90412,-0.5882 z"
       id="path1073"
       transform="translate(0.05,0.09027161)" />
    <path
       style="fill:#083460;fill-opacity:1;stroke-width:0.438301"
       d="M 290.15493,30.900186 V 1.0957513 h 8.76601 8.76601 V 30.900186 60.70462 h -8.76601 -8.76601 z"
       id="path1213"
       transform="translate(0.05,0.09027161)" />
    <path
       style="fill:#083460;fill-opacity:1;stroke-width:0.438301"
       d="m 205.48353,45.911978 c 0.0978,-8.135953 0.23682,-14.857418 0.30904,-14.936588 0.0722,-0.07917 8.77776,-0.316209 19.34564,-0.526754 28.418,-0.566174 31.77955,-0.839676 33.83029,-2.752502 0.56595,-0.527892 1.40829,-1.699435 1.87186,-2.60343 0.83182,-1.622104 0.83179,-1.66515 -0.003,-3.287254 -1.3283,-2.582587 -3.06966,-3.948668 -5.97177,-4.684805 -4.17174,-1.058188 -14.47207,-1.546896 -32.7573,-1.554196 l -16.98402,-0.0068 V 8.3705802 1.1814924 l 16.98414,0.1913011 c 25.22963,0.2841743 37.32132,0.8689564 40.61662,1.9643136 6.34539,2.1092067 12.85496,7.3426369 15.04184,12.0930369 1.6691,3.625639 1.90885,9.268687 0.56417,13.278539 -1.76509,5.263479 -4.93947,9.088259 -9.83661,11.852035 -1.76403,0.995558 -2.44639,1.639374 -2.44639,2.308198 0,1.071949 2.22123,3.225956 11.50539,11.157188 3.55571,3.037562 6.46493,5.661663 6.46493,5.831343 0,0.169679 -5.47328,0.387654 -12.16284,0.484387 l -12.16284,0.175886 -8.92902,-7.357659 -8.92902,-7.357658 h -9.15088 -9.15087 v 7.451108 7.451109 h -9.11373 -9.11373 z"
       id="path1215"
       transform="translate(0.05,0.09027161)" />
    <path
       style="fill:#083460;fill-opacity:1;stroke-width:0.438301"
       d="m 107.0549,60.395298 c -0.5424,-0.104473 -0.98618,-0.382373 -0.98618,-0.617556 0,-1.201921 34.58856,-50.2486726 38.05632,-53.9640614 3.63575,-3.8953663 9.03796,-5.48762156 13.8612,-4.0854688 1.96364,0.5708467 2.99314,1.2164089 4.58118,2.8727014 3.46028,3.6090053 12.95329,16.9943178 31.28261,44.1089998 l 7.74306,11.45437 -16.76511,0.322392 c -9.22081,0.177319 -24.12466,0.150968 -33.11966,-0.05856 l -16.35456,-0.380949 4.78718,-6.793658 4.78718,-6.793657 10.80598,-0.279123 c 5.94329,-0.153519 11.1119,-0.396522 11.48581,-0.540004 0.60836,-0.233448 0.60247,-0.411463 -0.056,-1.693227 -1.18105,-2.298844 -12.9811,-20.060122 -13.32734,-20.060122 -0.36038,0 -6.28321,8.28122 -17.96337,25.116157 l -8.10856,11.687086 -9.86176,-0.05269 c -5.42397,-0.02898 -10.30554,-0.138166 -10.84794,-0.242635 z"
       id="path1217"
       transform="translate(0.05,0.09027161)" />
    <path
       style="fill:#083460;fill-opacity:1;stroke-width:0.438301"
       d="M 45.405175,61.124832 C 42.782018,60.340164 39.923582,56.693452 30.989957,42.734299 26.085192,35.070405 23.32625,31.48906 22.779705,32.076683 22.342776,32.546451 21.444644,36.680617 19.512187,47.117304 16.831928,61.592678 17.609771,60.70462 7.6111501,60.70462 c -4.7712949,0 -7.17284959,-0.15593 -7.17284959,-0.465725 0,-0.727991 6.45107649,-36.77944 7.72043329,-43.145175 C 10.148831,7.1135212 11.860024,2.927613 14.53507,1.4959719 15.004331,1.2448309 16.568596,0.84926618 18.011215,0.61693926 24.4942,-0.42711521 26.994261,1.9435866 37.929256,19.504372 44.542775,30.125189 48.551906,36.16064 48.991385,36.157585 49.454901,36.154342 52.66131,31.37961 60.097512,19.619141 70.204367,3.6349889 72.660147,0.80780199 76.847591,0.33581616 c 1.118083,-0.12602403 2.937179,0.080059 4.361432,0.49410142 4.447782,1.29300502 6.076778,4.17735492 9.478906,16.78365942 1.575502,5.837884 10.559491,42.305495 10.559491,42.862846 0,0.125508 -4.510606,0.228197 -10.023568,0.228197 H 81.200288 l -0.25009,-1.424477 c -1.04195,-5.934698 -5.117886,-26.175246 -5.438244,-27.005552 -0.643842,-1.668736 -0.260631,-2.179896 -12.606005,16.815066 -5.345346,8.224507 -7.044633,10.248289 -9.606784,11.441308 -2.338075,1.088686 -5.455737,1.323225 -7.89399,0.593867 z"
       id="path1219"
       transform="translate(0.05,0.09027161)" />
    <path
       style="fill:#c9d408;fill-opacity:1;stroke-width:0.438301"
       d="M 420.33018,30.900186 V 1.0957513 h 8.76601 8.76602 V 30.900186 60.70462 h -8.76602 -8.76601 z"
       id="path2673"
       transform="translate(0.05,0.09027161)" />
    <path
       style="fill:#c9d408;fill-opacity:1;stroke-width:0.438301"
       d="M 467.22834,38.132144 V 15.559668 l -10.84794,-0.04369 c -5.96636,-0.02403 -11.30871,-0.17322 -11.87188,-0.331534 -0.98997,-0.278294 -0.93399,-0.404082 1.68723,-3.791439 1.49114,-1.9269781 3.80193,-5.0492105 5.1351,-6.9382953 l 2.42393,-3.4346993 28.32308,0.1474456 c 18.98671,0.098842 28.58235,0.3012655 29.1096,0.6140786 0.70825,0.4201951 0.33504,1.1180917 -3.7502,7.0128081 l -4.53673,6.5461753 -9.57265,0.118302 -9.57265,0.118302 0.2276,22.563749 0.2276,22.563749 h -8.49104 -8.49105 z"
       id="path3470"
       transform="translate(0.05,0.09027161)" />
  </g>
</svg>
