<svg xmlns:svg="http://www.w3.org/2000/svg" xmlns="http://www.w3.org/2000/svg" id="svg2045" version="1.1" viewBox="15.4 14.67 1524.01 382.67">
  <defs id="defs2042"/>
  <path id="path2026" d="m 66.689065,120.58306 5.112,87.34135 v 0 0 0 0 0 l 50.584165,28.85196 106.14209,-72.80969 -22.76493,-9.15427 z" style="opacity:1;vector-effect:none;fill:#a6a2dc;fill-opacity:1;fill-rule:evenodd;stroke:none;stroke-width:1.33333325;stroke-linecap:butt;stroke-linejoin:miter;stroke-miterlimit:4;stroke-dasharray:none;stroke-dashoffset:0;stroke-opacity:1"/>
  <path id="path1991" d="M 15.404933,230.28508 291.29159,120.90228 26.820933,302.36241 Z" style="opacity:1;vector-effect:none;fill:#565c98;fill-opacity:1;fill-rule:evenodd;stroke:none;stroke-width:1.33333325;stroke-linecap:butt;stroke-linejoin:miter;stroke-miterlimit:4;stroke-dasharray:none;stroke-dashoffset:0;stroke-opacity:1"/>
  <path id="path30" style="fill:#7473bd;fill-opacity:1;fill-rule:evenodd;stroke:none;stroke-width:1.33333325" d="m 1055.8033,389.58773 c -13.5054,-5.53333 -25.1787,-13.38 -35.032,-23.528 l 10.6693,-16.59066 c 7.8507,9.424 17.652,16.73066 29.4213,21.89066 11.7734,5.168 24.312,7.75334 37.6374,7.75334 23.1693,0 41.372,-7.07067 54.6053,-21.21467 13.2213,-14.13866 19.8347,-34.35733 19.8347,-60.652 v -15.22266 c -18.4214,17.396 -41.4187,26.10133 -68.972,26.10133 -28.2814,0 -51.9987,-9.336 -71.16,-28.01067 -19.16,-18.67733 -28.7333,-43.24266 -28.7333,-73.69999 0,-30.468 9.5733,-55.07734 28.7333,-73.84534 19.1613,-18.76933 42.8786,-28.14666 71.16,-28.14666 27.5533,0 50.5506,8.70266 68.972,26.10933 l 3.8333,-19.31467 h 16.148 v 184.944 c 0,32.64 -8.6227,57.744 -25.8667,75.33333 -14.756,15.05467 -33.6186,23.66667 -56.5986,25.83867 h -23.3454 c -10.8386,-1.05867 -21.276,-3.63867 -31.3066,-7.74534 M 306.52198,119.60107 V 301.3304 h 19.98 V 154.73307 c 7.29867,-9.97333 16.74133,-17.71866 28.33067,-23.25333 11.58,-5.52267 24.40133,-8.28933 38.448,-8.28933 22.99466,0 40.60266,5.936 52.82266,17.80666 12.228,11.88267 18.33734,28.15467 18.33734,48.82134 V 301.3304 h 19.98399 V 190.90774 c 0,-14.868 -2.512,-28.01067 -7.52533,-39.436 -5.024,-11.424 -11.772,-20.44667 -20.25733,-27.05733 -8.484,-6.62267 -17.88,-11.608 -28.192,-14.96134 -10.31067,-3.35066 -21.29733,-5.03066 -32.97867,-5.03066 -27.552,0 -50.53866,8.70266 -68.96933,26.10933 l -3.836,-19.31467 z m 236.744,13.79067 c -19.16134,18.756 -28.74267,43.37733 -28.74267,73.836 0,19.944 4.88667,37.67066 14.64933,53.16933 9.764,15.49733 22.53067,27.196 38.312,35.088 15.79067,7.88 33.07734,11.82533 51.87333,11.82533 19.15067,0 36.66667,-4.34533 52.548,-13.04933 15.872,-8.70267 28.36667,-20.76933 37.48934,-36.17333 l -22.43867,-0.548 c -15.324,19.944 -37.864,29.91866 -67.59867,29.91866 -23.91066,0 -43.51733,-6.88933 -58.85066,-20.668 -14.412,-13.232 -22.804,-31.096 -25.17867,-53.58133 h 177.628 c 0,-0.54 0.0453,-1.49866 0.13733,-2.85866 0.092,-1.35867 0.136,-2.40134 0.136,-3.12267 0,-30.64 -9.44266,-55.29733 -28.328,-73.97467 -18.88666,-18.67466 -42.37466,-28.02 -70.476,-28.02 -28.28266,0 -52.00133,9.39067 -71.15999,28.15867 m -8.212,62.96 c 2.19333,-22.66933 10.54,-40.21333 25.04266,-52.632 14.512,-12.42 32.62134,-18.62933 54.32933,-18.62933 21.716,0 39.64534,6.20933 53.78134,18.62933 14.14666,12.41867 22.312,29.96267 24.49333,52.632 z M 774.53797,297.7944 c -4.37467,-3.62533 -7.66133,-7.20533 -9.85333,-10.74933 -2.192,-3.53333 -3.82667,-8.064 -4.924,-13.59867 -1.096,-5.52533 -1.73467,-9.836 -1.916,-12.91066 -0.18267,-3.08667 -0.27467,-7.34267 -0.27467,-12.78667 V 128.08374 h -19.708 l 2.45733,-13.31467 18.264,-4.568 c 0.0853,-1.35733 0.0187,-13.84533 0,-27.395996 -0.02,-15.356 0,-22.830666 0,-22.830666 l 18.96934,-8.046667 v 59.289329 h 59.93733 v 16.86667 h -59.93733 v 102.53333 c 0,3.08667 -0.048,7.24933 -0.13734,12.50933 -0.092,5.26134 -0.13733,9.02267 -0.13733,11.29067 0,2.26267 0.13733,5.26 0.41067,8.976 0.27466,3.71867 0.77733,6.476 1.50666,8.29333 0.72134,1.80534 1.72667,3.89867 3.00534,6.25467 1.27866,2.35867 2.968,4.25733 5.06933,5.70533 2.08933,1.45467 4.60133,2.816 7.52267,4.08534 11.13466,4.89333 25.63733,2.99333 43.51866,-5.708 l 7.936,14.68533 c -7.84533,5.07733 -17.15066,8.51867 -27.91866,10.328 -10.768,1.81867 -19.98134,1.544 -27.64267,-0.81067 -6.384,-1.99333 -11.76267,-4.80533 -16.148,-8.432 M 898.79663,14.666409 v 265.447991 21.216 h -19.708 V 280.1144 27.195742 23.257075 Z M 946.3393,301.34774 h 20.82267 v -190.324 H 946.3393 Z M 966.62197,14.666409 h -20.82 v 27.398666 h 20.82 z M 1106.1633,124.27574 c 29.7413,0 51.9986,10.156 66.776,30.45733 v 103.08 c -14.7774,20.31067 -37.0347,30.456 -66.776,30.456 -24.268,0 -44.02,-7.16 -59.2534,-21.47867 -15.244,-14.33066 -22.8613,-34.44933 -22.8613,-60.37599 0,-25.928 7.6173,-46.10134 22.8613,-60.52134 15.2334,-14.41333 34.9854,-21.61733 59.2534,-21.61733 m 122.3373,177.05466 h 19.9813 V 154.73307 c 7.2974,-9.97333 16.74,-17.71866 28.328,-23.25333 11.5827,-5.52267 24.408,-8.28933 38.4507,-8.28933 22.9973,0 40.6027,5.936 52.8227,17.80666 12.2266,11.88267 18.3413,28.15467 18.3413,48.82134 V 301.3304 h 19.98 V 190.90774 c 0,-14.868 -2.5133,-28.01067 -7.524,-39.436 -5.024,-11.424 -11.776,-20.44667 -20.26,-27.05733 -8.4827,-6.62267 -17.88,-11.608 -28.1893,-14.96134 -10.304,-3.35066 -21.3014,-5.03066 -32.98,-5.03066 -27.5507,0 -50.54,8.70266 -68.9694,26.10933 V 23.511742 l -19.9813,-8.845333 z m 239.2107,-3.536 c -4.3774,-3.62533 -7.6627,-7.20533 -9.8547,-10.74933 -2.192,-3.53333 -3.8253,-8.064 -4.9213,-13.59867 -1.0987,-5.52533 -1.7374,-9.836 -1.9187,-12.91066 -0.1827,-3.08667 -0.2773,-7.34267 -0.2773,-12.78667 V 128.08374 h -19.7054 v -16.86667 h 19.7054 c 0.188,-2.896 0.2773,-22.658663 0.2773,-59.289329 l 19.8453,8.078667 -0.1373,51.210662 h 59.9347 v 16.86667 h -59.9347 v 102.53333 c 0,3.08667 -0.048,7.24933 -0.1387,12.50933 -0.088,5.26134 -0.1386,9.02267 -0.1386,11.29067 0,2.26267 0.1386,5.26 0.4146,8.976 0.2734,3.71867 0.7747,6.476 1.5054,8.29333 0.7213,1.80534 1.728,3.89867 3.008,6.25467 1.2773,2.35867 2.9653,4.25733 5.0653,5.70533 2.0893,1.45467 4.604,2.816 7.528,4.08534 11.1293,4.89333 25.6347,2.99333 43.516,-5.708 l 7.9347,14.68533 c -7.844,5.07733 -17.152,8.51867 -27.92,10.328 -10.7667,1.81867 -19.9787,1.544 -27.644,-0.81067 -6.384,-1.99333 -11.7614,-4.80533 -16.144,-8.432"/>
  <path id="path46" style="fill:#7473bd;fill-opacity:1;fill-rule:nonzero;stroke:none;stroke-width:1.33333325" d="m 228.52733,163.96667 -4.01867,-16.58666 -18.74667,7.432 -133.959989,53.11333 -7.264,2.87867 57.867999,25.97466 138.85599,62.324 z"/>
</svg>