<svg xmlns:xlink="http://www.w3.org/1999/xlink" xmlns="http://www.w3.org/2000/svg" id="Layer_1" data-name="Layer 1" viewBox="29.75 31.48 283.48 56.32"><defs><style>.cls-1{fill:#231f20;}</style></defs><title>Artboard 2</title><path d="M101.24,43l10.85,12.54V43H115V61.57h-2.65L101.5,49.05V61.57H98.59V43Z"/><path d="M122.75,54.55c0-2.22.42-5.26,3.56-5.26,2.51,0,3.41,2,3.41,5.11s-.66,5.46-3.51,5.46c-3,0-3.46-2.83-3.46-5.28Zm-4.32.23c0,3.93,2.71,7.07,7.63,7.07s8-2.9,8-7.4c0-4.18-2.7-7.1-7.7-7.1s-7.91,3.22-7.91,7.4Z"/><path d="M140.92,47.63l.19,3.55c.76-2,2.31-3.77,4.47-3.77a7.16,7.16,0,0,1,1.63.22l-.53,3.16a6.47,6.47,0,0,0-1.53-.21,3.38,3.38,0,0,0-3.26,2.24,10.94,10.94,0,0,0-.48,3.93v4.82h-4V47.63Z"/><path d="M152.65,51.86c0-1.83,1.4-2.63,2.94-2.63,1.82,0,3,.93,3,2.6,0,2-1.64,2.64-3,2.64-1.66,0-2.91-.91-2.91-2.58Zm10.86-2.22v-2l-5.2.09a13,13,0,0,0-3.05-.37c-4.16,0-6.32,2-6.32,4.55s2.27,3.58,3.62,4c-1.24,1.17-2.2,2-2.2,2.94,0,1.12,1.44,1.55,2.34,1.78-1.69.51-4,1.35-4,3.08,0,2,3.51,3.31,7.26,3.31,4.67,0,7.95-2.07,7.95-4.72,0-4.16-6.24-4-8.48-4.13-1.27-.08-2.15-.15-2.15-.76,0-.28.17-.58.78-1.22a7.86,7.86,0,0,0,1.68.16c3,0,6.46-1.17,6.46-4.18a3,3,0,0,0-1.29-2.5ZM152.2,63.1c0-1.25,1.3-2,4-2,2,0,4.24.55,4.24,2s-2.18,2-4.16,2-4.05-.57-4.05-1.92Z"/><path d="M169.9,52.6c.22-2.2,1.6-3.32,3.29-3.32a3.05,3.05,0,0,1,3,3.32ZM180,54.43c0-.52.4-7.08-6.91-7.08-4.1,0-7.6,2.84-7.6,7.22,0,3.87,2.74,7.28,7.93,7.28a12.59,12.59,0,0,0,5.81-1.48l-1-1.88a9.94,9.94,0,0,1-4.08,1.16c-2.42,0-4.55-1.61-4.37-5.22Z"/><path d="M191.62,50.05a10.53,10.53,0,0,0-3.44-.65c-.61,0-2.19.17-2.19,1.27,0,.63.56,1.06,1.91,1.79l1.76.93c2.84,1.5,3.65,2.73,3.65,4.22,0,2.45-2.38,4.24-5.93,4.24a12.23,12.23,0,0,1-5-1.11l.85-1.89a9.61,9.61,0,0,0,4,.95c1.52,0,2.45-.58,2.45-1.49s-.95-1.4-2.45-2.23l-1.14-.64c-1.81-1-3.74-2.12-3.74-4.17,0-2.29,2.47-3.92,5.78-3.92a12.82,12.82,0,0,1,4.22.79Z"/><path d="M210.88,45.86a12.9,12.9,0,0,0-4.11-.77c-3.77,0-6.58,2.53-6.58,7.31,0,4.48,2.33,6.87,5.85,7.12a9.36,9.36,0,0,0,2.44-.2v-5h-2.57V52.05h6.57v8.43a17.24,17.24,0,0,1-6.61,1.37c-6.23,0-10.29-3.92-10.29-9.46,0-5.73,4-9.69,10.49-9.69a17.83,17.83,0,0,1,5.61.9Z"/><path d="M219.43,47.63l.19,3.55c.76-2,2.31-3.77,4.47-3.77a7.22,7.22,0,0,1,1.64.22l-.53,3.16a6.55,6.55,0,0,0-1.53-.21,3.39,3.39,0,0,0-3.27,2.24,11.17,11.17,0,0,0-.48,3.93v4.82h-4V47.63Z"/><path d="M232.38,47.63V56a3.41,3.41,0,0,0,.57,2.47,2.71,2.71,0,0,0,2.06.85,3.13,3.13,0,0,0,3-1.89,8.36,8.36,0,0,0,.43-3.17V47.63h4V61.57H239l-.18-2.37a6,6,0,0,1-5.13,2.65c-2.43,0-4-1-4.7-2.32a6.54,6.54,0,0,1-.58-3.25V47.63Z"/><path d="M250.43,54.64c0-3.19,1.39-4.78,3.45-4.78,2.53,0,3.14,2.42,3.14,4.57s-.4,4.91-3.22,4.91c-2.55,0-3.37-2.35-3.37-4.67Zm-4-7V66.71h4v-7.2A5.42,5.42,0,0,0,255,61.85c3.65,0,6.29-2.72,6.29-7.58s-3-6.92-6.07-6.92a5.77,5.77,0,0,0-5.06,2.72L250,47.63Z"/><path d="M268.29,54.64c0-3.19,1.39-4.78,3.45-4.78,2.53,0,3.14,2.42,3.14,4.57s-.4,4.91-3.22,4.91c-2.55,0-3.37-2.35-3.37-4.67Zm-4-7V66.71h4v-7.2a5.42,5.42,0,0,0,4.55,2.34c3.66,0,6.29-2.72,6.29-7.58s-3-6.92-6.07-6.92A5.77,5.77,0,0,0,268,50.07l-.19-2.44Z"/><path d="M286.05,52.6c.21-2.2,1.6-3.32,3.29-3.32a3.06,3.06,0,0,1,3,3.32Zm10.06,1.83c0-.52.4-7.08-6.91-7.08-4.11,0-7.61,2.84-7.61,7.22,0,3.87,2.74,7.28,7.93,7.28a12.6,12.6,0,0,0,5.82-1.48l-1-1.88a9.94,9.94,0,0,1-4.08,1.16c-2.42,0-4.55-1.61-4.38-5.22Z"/><path d="M302.71,47.63l.21,2.4a5.81,5.81,0,0,1,5.2-2.68,5.33,5.33,0,0,1,4.71,2.26c.51.85.39,1.85.39,3.27v8.69h-3.89V53.2c0-1.13,0-3.34-2.73-3.34-3.51,0-3.38,3.92-3.38,5.15v6.56h-4V47.63Z"/><path d="M77.91,52.49A31.81,31.81,0,0,0,83.59,42a15,15,0,0,1-6.86,2.21c-2.89,0-4.7-1.33-7.6-5.13L68,37.58c-4.39-5.72-7.86-6.1-10.25-6.1a11,11,0,0,0-9.67,6c.44.25.88.51,1.33.79,1.75-2.3,3.85-3.81,6.31-3.81s4.58,1.19,7,4.38l2.15,2.79c3.1,4,5.81,5.37,8.67,5.37a14.05,14.05,0,0,0,5.35-1.18,34.56,34.56,0,0,1-4.81,7,31.76,31.76,0,0,0,6.71,5.71A11.58,11.58,0,0,1,73.42,61c-5,0-8.36-1.52-13.5-9.29l-1.7-2.56c-4.48-6.78-9-9.24-14.28-9.25-8.57,0-14.19,6.8-14.19,6.8a37.5,37.5,0,0,1,6.67,5,31.79,31.79,0,0,0-5.67,10.47,14.83,14.83,0,0,1,6.85-2.21c2.89,0,4.7,1.33,7.61,5.12l1.17,1.53c4.39,5.72,7.87,6.1,10.26,6.1a11,11,0,0,0,9.67-6c-.44-.24-.89-.51-1.34-.78-1.75,2.29-3.85,3.82-6.31,3.81s-4.57-1.2-7-4.37l-2.15-2.8c-3.1-4-5.81-5.37-8.66-5.37a14,14,0,0,0-5.35,1.17,33.78,33.78,0,0,1,4.8-7,31.76,31.76,0,0,0-6.71-5.71,11.58,11.58,0,0,1,7.33-2.55c5,0,8.36,1.52,13.51,9.29l1.69,2.56c4.48,6.78,9,9.24,14.29,9.25,8.56,0,14.18-6.8,14.18-6.8A37.86,37.86,0,0,1,77.91,52.49Z"/><path class="cls-1" d="M98.64,74.18h1.57V85.43H98.64Z"/><path class="cls-1" d="M107,75.62v9.81h-1.56V75.62h-3.34l0-1.44h8.18l0,1.44Z"/><path class="cls-1" d="M119.73,85.62c-2.7,0-3.9-1.32-3.9-4.63s1.21-4.65,3.9-4.65,3.84,1.33,3.84,4.65S122.41,85.62,119.73,85.62Zm0-1.2c1.72,0,2.38-.88,2.38-3.43s-.66-3.43-2.38-3.43-2.43.86-2.43,3.43S118,84.42,119.73,84.42Z"/><path class="cls-1" d="M127.3,81.51c-.43.12-.67.36-.67.66s.24.56.78.61l2.17.17c2.16.18,2.87.91,2.87,2.16,0,1.64-1,2.69-3.81,2.69-2.42,0-3.44-1-3.44-2.36a2.15,2.15,0,0,1,.87-1.68,1.38,1.38,0,0,1-.75-1.24,1.57,1.57,0,0,1,1.13-1.4A2.25,2.25,0,0,1,125.38,79c0-1.65.89-2.67,3.17-2.67a3.91,3.91,0,0,1,2.2.56l1.47-.59.32.72-1.08.75A3,3,0,0,1,131.7,79c0,1.69-.83,2.64-3.15,2.64A4.8,4.8,0,0,1,127.3,81.51ZM127.17,84a1.55,1.55,0,0,0-.74,1.24c0,.9.63,1.41,2.18,1.41,2,0,2.53-.55,2.53-1.36,0-.63-.33-1-1.8-1.1Zm-.38-5c0,1.26.74,1.56,1.74,1.56,1.38,0,1.8-.51,1.8-1.56s-.52-1.58-1.77-1.58S126.79,78,126.79,79Z"/><path class="cls-1" d="M144.45,85.43l-.18-.93h-.05a3.12,3.12,0,0,1-2.64,1.12c-2.41,0-3.43-1.47-3.43-4.67,0-3,1.06-4.62,3.45-4.62a3.43,3.43,0,0,1,2.52,1h0l0-1.21V73.6l1.42-.09V85.43Zm-.33-6.77a2.45,2.45,0,0,0-2.13-1c-1.74,0-2.37.92-2.37,3.35s.57,3.42,2.35,3.42a2.29,2.29,0,0,0,2.15-1.09Z"/><path class="cls-1" d="M149.16,75c-.62,0-.92-.2-.92-.76s.3-.77.92-.77.91.27.91.77S149.77,75,149.16,75Zm-.72,10.44v-8.9l1.42-.07v9Z"/><path class="cls-1" d="M154.48,81.51c-.43.12-.67.36-.67.66s.24.56.78.61l2.17.17c2.16.18,2.87.91,2.87,2.16,0,1.64-1,2.69-3.81,2.69-2.42,0-3.44-1-3.44-2.36a2.15,2.15,0,0,1,.87-1.68,1.38,1.38,0,0,1-.75-1.24,1.57,1.57,0,0,1,1.13-1.4A2.25,2.25,0,0,1,152.56,79c0-1.65.89-2.67,3.17-2.67a3.91,3.91,0,0,1,2.2.56l1.47-.59.32.72-1.08.75a3,3,0,0,1,.24,1.23c0,1.69-.83,2.64-3.15,2.64A4.8,4.8,0,0,1,154.48,81.51ZM154.35,84a1.55,1.55,0,0,0-.74,1.24c0,.9.63,1.41,2.18,1.41,2,0,2.53-.55,2.53-1.36,0-.63-.33-1-1.8-1.1ZM154,79c0,1.26.74,1.56,1.74,1.56,1.38,0,1.8-.51,1.8-1.56s-.52-1.58-1.77-1.58S154,78,154,79Z"/><path class="cls-1" d="M162.43,75c-.61,0-.91-.2-.91-.76s.3-.77.91-.77.92.27.92.77S163.05,75,162.43,75Zm-.72,10.44v-8.9l1.43-.07v9Z"/><path class="cls-1" d="M167.94,77.6v5.49a1.15,1.15,0,0,0,1.3,1.3,2.37,2.37,0,0,0,.75-.11l.09,1.07a3,3,0,0,1-1.24.23,2.14,2.14,0,0,1-2.33-2.45V77.6h-1.24V76.49h1.29l.27-2.22,1.11-.12v2.34h2.2V77.6Z"/><path class="cls-1" d="M176.83,84.33h0a3.17,3.17,0,0,1-2.66,1.24,2.51,2.51,0,0,1-2.74-2.86c0-1.68,1.08-2.71,3.21-2.71a6.23,6.23,0,0,1,2.05.34v-.89c0-1.41-.63-1.9-2.08-1.9a5.53,5.53,0,0,0-2.51.54l-.13-1.18a6.68,6.68,0,0,1,2.88-.59c2.35,0,3.24,1,3.24,3.34v5.78H177Zm-.19-3a4,4,0,0,0-1.79-.33c-1.48,0-2.13.6-2.13,1.66,0,1.28.77,1.71,1.8,1.71s2.12-.75,2.12-1.49Z"/><path class="cls-1" d="M180.69,85.43V73.6l1.42-.09V85.43Z"/><path class="cls-1" d="M184.38,80.72c0-2.81,1.23-4.38,3.69-4.38,2.13,0,3.52,1.26,3.52,4.12,0,.23,0,.5,0,.69h-5.73c.08,2.36.95,3.17,2.87,3.17a5.4,5.4,0,0,0,2.43-.57l.16,1.2a5.83,5.83,0,0,1-2.76.66C185.59,85.61,184.38,84.07,184.38,80.72Zm5.91-.54c0-1.89-.92-2.61-2.21-2.61-1.51,0-2.19.84-2.28,2.61Z"/><path class="cls-1" d="M200,77.6v5.49a1.15,1.15,0,0,0,1.3,1.3,2.37,2.37,0,0,0,.75-.11l.09,1.07a3,3,0,0,1-1.24.23,2.14,2.14,0,0,1-2.33-2.45V77.6h-1.24V76.49h1.29l.27-2.22,1.11-.12v2.34h2.2V77.6Z"/><path class="cls-1" d="M205.72,85.56c0,1.7-.91,2.24-2.13,2.24a3.26,3.26,0,0,1-1-.18l.07-1.05a2.24,2.24,0,0,0,.63.1c.62,0,1.05-.33,1.05-1.15v-9l1.41-.07ZM205,75c-.61,0-.93-.21-.93-.79s.32-.76.93-.76.92.27.92.76S205.63,75,205,75Z"/><path class="cls-1" d="M208.08,80.72c0-2.81,1.23-4.38,3.69-4.38,2.13,0,3.52,1.26,3.52,4.12,0,.23,0,.5,0,.69h-5.73c.08,2.36.95,3.17,2.87,3.17a5.4,5.4,0,0,0,2.43-.57L215,85a5.83,5.83,0,0,1-2.76.66C209.29,85.61,208.08,84.07,208.08,80.72Zm5.91-.54c0-1.89-.92-2.61-2.21-2.61-1.51,0-2.19.84-2.28,2.61Z"/><path class="cls-1" d="M222.79,85.43V79.52c0-1.32-.7-1.87-2-1.87a2.56,2.56,0,0,0-2.09,1v6.78h-1.42V76.52l1-.08.24,1h0a3.53,3.53,0,0,1,2.6-1.07c1.89,0,3,1.07,3,3.2v5.91Z"/><path class="cls-1" d="M226.05,80.72c0-2.81,1.23-4.38,3.69-4.38,2.13,0,3.52,1.26,3.52,4.12,0,.23,0,.5,0,.69H227.5c.08,2.36.95,3.17,2.87,3.17a5.4,5.4,0,0,0,2.43-.57L233,85a5.83,5.83,0,0,1-2.76.66C227.26,85.61,226.05,84.07,226.05,80.72Zm5.91-.54c0-1.89-.92-2.61-2.21-2.61-1.51,0-2.19.84-2.28,2.61Z"/><path class="cls-1" d="M237.52,85.61a4.81,4.81,0,0,1-2.74-.75l.18-1.23a4.46,4.46,0,0,0,2.55.78c1.3,0,1.84-.63,1.84-1.47,0-2-4.57-1.08-4.57-4.1,0-1.51,1.06-2.5,3.12-2.5a5.78,5.78,0,0,1,2.41.51l-.12,1.2a6.34,6.34,0,0,0-2.32-.48c-1.07,0-1.74.46-1.74,1.2,0,1.9,4.54.92,4.54,4C240.67,84.49,239.73,85.61,237.52,85.61Z"/><path class="cls-1" d="M244.3,77.6v5.49a1.15,1.15,0,0,0,1.31,1.3,2.42,2.42,0,0,0,.75-.11l.09,1.07a3.06,3.06,0,0,1-1.25.23,2.13,2.13,0,0,1-2.32-2.45V77.6h-1.25V76.49h1.29l.27-2.22,1.11-.12v2.34h2.21V77.6Z"/><path class="cls-1" d="M247.6,80.72c0-2.81,1.23-4.38,3.69-4.38,2.13,0,3.53,1.26,3.53,4.12,0,.23,0,.5,0,.69h-5.73c.07,2.36.94,3.17,2.86,3.17a5.37,5.37,0,0,0,2.43-.57l.17,1.2a5.83,5.83,0,0,1-2.76.66C248.82,85.61,247.6,84.07,247.6,80.72Zm5.91-.54c0-1.89-.91-2.61-2.2-2.61-1.52,0-2.19.84-2.28,2.61Z"/><path class="cls-1" d="M256.78,85.43V76.55l1.14-.07L258,78.4h0a3,3,0,0,1,2.75-2,2.88,2.88,0,0,1,.88.12l-.09,1.43a2.8,2.8,0,0,0-.88-.12c-1.4,0-2.52,1.19-2.52,3.11v4.53Z"/></svg>