<?xml version="1.0" encoding="UTF-8" standalone="no"?>
<!-- Created with Inkscape (http://www.inkscape.org/) -->

<svg
   version="1.1"
   id="svg2"
   width="615"
   height="150"
   viewBox="0 0 615 150"
   xmlns:xlink="http://www.w3.org/1999/xlink"
   xmlns="http://www.w3.org/2000/svg"
   xmlns:svg="http://www.w3.org/2000/svg">
  <defs
     id="defs6">
    <clipPath
       clipPathUnits="userSpaceOnUse"
       id="clipPath22">
      <path
         d="m 1921.3,5625.9 c -1.77,0 -3.71,-1 -4.74,-2.6 -1,-1.7 -1.16,-3.4 -0.35,-5.2 l 362.84,-854.8 c 0.74,-1.4 2.35,-3.3 5.16,-3.3 2.84,0 4.48,1.8 5.13,3.2 l 363.18,855 c 0.79,2.2 0.4,3.9 -0.47,5.2 -0.72,1 -1.81,2.5 -4.68,2.5 z"
         id="path20" />
    </clipPath>
    <clipPath
       clipPathUnits="userSpaceOnUse"
       id="clipPath28">
      <path
         d="m 1915.4,5625.9 h 737.91 V 4760 H 1915.4 Z"
         id="path26" />
    </clipPath>
    <linearGradient
       x1="0"
       y1="0"
       x2="1"
       y2="0"
       gradientUnits="userSpaceOnUse"
       gradientTransform="matrix(733.645,0,0,733.645,1915.4,5192.9)"
       spreadMethod="pad"
       id="linearGradient38">
      <stop
         style="stop-opacity:1;stop-color:#94ca22"
         offset="0"
         id="stop30" />
      <stop
         style="stop-opacity:1;stop-color:#94ca22"
         offset="0.490005"
         id="stop32" />
      <stop
         style="stop-opacity:1;stop-color:#4aa638"
         offset="0.59716257"
         id="stop34" />
      <stop
         style="stop-opacity:1;stop-color:#4aa638"
         offset="1"
         id="stop36" />
    </linearGradient>
    <clipPath
       clipPathUnits="userSpaceOnUse"
       id="clipPath64">
      <path
         d="m 2868.42,15188.3 c -0.61,0 -1.32,-0.3 -1.64,-0.9 -0.36,-0.6 -0.42,-1.1 -0.16,-1.8 l 127.65,-300.7 c 0.26,-0.5 0.84,-1.2 1.84,-1.2 0.97,0 1.58,0.7 1.81,1.1 l 127.74,300.8 c 0.29,0.8 0.17,1.4 -0.16,1.9 -0.22,0.3 -0.64,0.8 -1.65,0.8 z"
         id="path62" />
    </clipPath>
    <clipPath
       clipPathUnits="userSpaceOnUse"
       id="clipPath70">
      <path
         d="m 2866.35,15188.3 h 259.6 v -304.6 h -259.6 z"
         id="path68" />
    </clipPath>
    <linearGradient
       x1="0"
       y1="0"
       x2="1"
       y2="0"
       gradientUnits="userSpaceOnUse"
       gradientTransform="matrix(258.108,0,0,258.108,2866.36,15036)"
       spreadMethod="pad"
       id="linearGradient80"
       xlink:href="#linearGradient106">
      <stop
         style="stop-opacity:1;stop-color:#94ca22"
         offset="0"
         id="stop72" />
      <stop
         style="stop-opacity:1;stop-color:#94ca22"
         offset="0.490005"
         id="stop74" />
      <stop
         style="stop-opacity:1;stop-color:#4aa638"
         offset="0.59716254"
         id="stop76" />
      <stop
         style="stop-opacity:1;stop-color:#4aa638"
         offset="1"
         id="stop78" />
    </linearGradient>
    <clipPath
       clipPathUnits="userSpaceOnUse"
       id="clipPath90">
      <path
         d="m 2926.56,10582.8 c -0.62,0 -1.33,-0.3 -1.68,-0.9 -0.35,-0.6 -0.39,-1.1 -0.13,-1.8 l 127.65,-300.7 c 0.26,-0.5 0.84,-1.2 1.84,-1.2 0.97,0 1.55,0.7 1.77,1.1 l 127.78,300.8 c 0.26,0.8 0.17,1.4 -0.15,1.9 -0.27,0.3 -0.65,0.8 -1.68,0.8 z"
         id="path88" />
    </clipPath>
    <clipPath
       clipPathUnits="userSpaceOnUse"
       id="clipPath96">
      <path
         d="m 2924.49,10582.8 h 259.56 v -304.6 h -259.56 z"
         id="path94" />
    </clipPath>
    <linearGradient
       x1="0"
       y1="0"
       x2="1"
       y2="0"
       gradientUnits="userSpaceOnUse"
       gradientTransform="matrix(258.108,0,0,258.108,2924.49,10430.5)"
       spreadMethod="pad"
       id="linearGradient106">
      <stop
         style="stop-opacity:1;stop-color:#94ca22"
         offset="0"
         id="stop98" />
      <stop
         style="stop-opacity:1;stop-color:#94ca22"
         offset="0.490005"
         id="stop100" />
      <stop
         style="stop-opacity:1;stop-color:#4aa638"
         offset="0.59716257"
         id="stop102" />
      <stop
         style="stop-opacity:1;stop-color:#4aa638"
         offset="1"
         id="stop104" />
    </linearGradient>
    <clipPath
       clipPathUnits="userSpaceOnUse"
       id="clipPath132">
      <path
         d="m 1948.1,865.898 c -1.78,0 -3.71,-1 -4.71,-2.597 -1.03,-1.703 -1.19,-3.403 -0.39,-5.203 L 2305.85,3.30078 C 2306.59,1.89844 2308.2,0 2311.04,0 c 2.8,0 4.41,1.80078 5.09,3.19922 L 2679.32,858.199 c 0.78,2.199 0.39,3.903 -0.51,5.199 -0.65,1 -1.77,2.5 -4.67,2.5 z"
         id="path130" />
    </clipPath>
    <clipPath
       clipPathUnits="userSpaceOnUse"
       id="clipPath138">
      <path
         d="m 1942.2,865.898 h 737.9 V 0 h -737.9 z"
         id="path136" />
    </clipPath>
    <linearGradient
       x1="0"
       y1="0"
       x2="1"
       y2="0"
       gradientUnits="userSpaceOnUse"
       gradientTransform="matrix(733.645,0,0,733.645,1942.2,432.899)"
       spreadMethod="pad"
       id="linearGradient148">
      <stop
         style="stop-opacity:1;stop-color:#94ca22"
         offset="0"
         id="stop140" />
      <stop
         style="stop-opacity:1;stop-color:#94ca22"
         offset="0.466263"
         id="stop142" />
      <stop
         style="stop-opacity:1;stop-color:#4aa638"
         offset="0.57840911"
         id="stop144" />
      <stop
         style="stop-opacity:1;stop-color:#4aa638"
         offset="1"
         id="stop146" />
    </linearGradient>
  </defs>
  <g
     id="g10"
     transform="matrix(1.3333333,0,0,-1.3333333,0,2120.2933)">
    <g
       id="g2222"
       transform="translate(7.3800058,-5.3250014)">
      <path
         d="M 10.257,1518.84 H 0.203125 C 0.109766,1518.84 0,1518.91 0,1519.03 v 62.07 c 0,0.15 0.122656,0.2 0.196875,0.2 H 9.67969 c 0.14179,0 0.21289,-0.06 0.26133,-0.13 l 32.29178,-43.66 v 43.59 c 0,0.13 0.1031,0.2 0.1969,0.2 h 10.0601 c 0.1223,0 0.1934,-0.11 0.1934,-0.2 v -62.07 c 0,-0.13 -0.1129,-0.19 -0.1871,-0.19 h -8.5668 c -0.0902,0 -0.1582,0.02 -0.2387,0.13 l -33.2402,44.91 v -44.85 c 0,-0.08 -0.0645,-0.19 -0.1934,-0.19"
         style="fill:#2e2a2b;fill-opacity:1;fill-rule:nonzero;stroke:none;stroke-width:0.1"
         id="path42" />
      <path
         d="m 98.2934,1528 c -12.3688,0 -21.1778,10.05 -21.1778,22.24 0,12.19 8.6321,22.07 21.0004,22.07 12.365,0 21.175,-10.05 21.175,-22.24 0,-12.19 -8.632,-22.07 -20.9976,-22.07 m 0,54.36 c -19.1301,0 -32.6532,-14.68 -32.6532,-32.29 0,-17.62 13.3457,-32.12 32.4758,-32.12 19.127,0 32.654,14.68 32.654,32.29 0,17.62 -13.346,32.12 -32.4766,32.12"
         style="fill:#2e2a2b;fill-opacity:1;fill-rule:nonzero;stroke:none;stroke-width:0.1"
         id="path44" />
      <path
         d="m 222.534,1518.84 h -10.202 c -0.117,0 -0.194,0.09 -0.194,0.19 v 62.07 c 0,0.1 0.074,0.2 0.194,0.2 h 10.202 c 0.129,0 0.193,-0.11 0.193,-0.2 v -62.07 c 0,-0.07 -0.039,-0.19 -0.193,-0.19"
         style="fill:#2e2a2b;fill-opacity:1;fill-rule:nonzero;stroke:none;stroke-width:0.1"
         id="path46" />
      <path
         d="m 264.471,1580.97 -27.155,-31.6 25.991,-30.21 c 0.039,-0.05 0.069,-0.13 0.027,-0.22 -0.03,-0.07 -0.094,-0.1 -0.166,-0.1 h -11.342 c -0.146,0 -0.203,0.06 -0.262,0.12 l -26.114,30.31 c -0.071,0.08 -0.042,0.19 0.003,0.25 l 27.201,31.66 c 0.042,0.05 0.119,0.12 0.274,0.12 h 11.399 c 0.06,0 0.134,-0.03 0.176,-0.1 0.042,-0.08 0.02,-0.17 -0.032,-0.23"
         style="fill:#2e2a2b;fill-opacity:1;fill-rule:nonzero;stroke:none;stroke-width:0.1"
         id="path48" />
      <path
         d="M 427.122,1518.84 H 416.8 c -0.123,0 -0.194,0.11 -0.194,0.19 v 52.42 h -18.975 c -0.126,0 -0.194,0.12 -0.194,0.2 v 9.46 c 0,0.15 0.139,0.19 0.194,0.19 h 48.665 c 0.142,0 0.194,-0.12 0.194,-0.22 v -9.43 c 0,-0.09 -0.068,-0.2 -0.187,-0.2 h -18.988 v -52.41 c 0,-0.1 -0.084,-0.2 -0.193,-0.2"
         style="fill:#2e2a2b;fill-opacity:1;fill-rule:nonzero;stroke:none;stroke-width:0.1"
         id="path50" />
      <path
         d="m 299.653,1590.22 c -0.1,0 -0.158,-0.08 -0.174,-0.12 l -30.642,-71.01 c -0.036,-0.08 0.016,-0.26 0.197,-0.26 l 10.454,0.01 c 0.106,0 0.177,0.04 0.222,0.15 l 19.943,46.21 19.914,-46.16 c 0.038,-0.1 0.087,-0.2 0.206,-0.2 h 10.515 c 0.122,0 0.232,0.12 0.173,0.26 l -30.634,71 c -0.02,0.05 -0.075,0.12 -0.174,0.12"
         style="fill:#2e2a2b;fill-opacity:1;fill-rule:nonzero;stroke:none;stroke-width:0.1"
         id="path52" />
      <path
         d="m 158.073,1549 25.908,-30.09 c 0.042,-0.05 0.106,-0.07 0.158,-0.07 h 11.617 c 0.09,0 0.2,0.11 0.097,0.23 l -19.492,22.38 c 0,0 16.741,1.83 17.128,19.86 0.152,7.09 -4.814,20.34 -22.038,19.99 h -26.666 c -0.132,0 -0.197,-0.11 -0.197,-0.2 v -62.07 c 0,-0.15 0.123,-0.19 0.197,-0.19 h 10.234 c 0.116,0 0.193,0.1 0.193,0.2 v 52.59 h 16.8 c 9.395,0 12.12,-7.23 12.043,-11.56 -0.155,-8.56 -9.319,-10.75 -16.699,-10.75 h -9.135 c -0.077,0 -0.148,-0.05 -0.174,-0.12 -0.029,-0.07 -0.023,-0.14 0.026,-0.2"
         style="fill:#2e2a2b;fill-opacity:1;fill-rule:nonzero;stroke:none;stroke-width:0.1"
         id="path54" />
      <path
         d="m 353.991,1549 25.907,-30.09 c 0.042,-0.05 0.106,-0.07 0.158,-0.07 h 11.618 c 0.09,0 0.2,0.11 0.097,0.23 l -19.492,22.38 c 0,0 16.744,1.83 17.128,19.86 0.152,7.09 -4.814,20.34 -22.038,19.99 h -26.666 c -0.132,0 -0.197,-0.11 -0.197,-0.2 v -62.07 c 0,-0.15 0.122,-0.19 0.197,-0.19 h 10.234 c 0.116,0 0.193,0.1 0.193,0.2 v 52.59 h 16.799 c 9.397,0 12.121,-7.23 12.043,-11.56 -0.154,-8.56 -9.318,-10.75 -16.698,-10.75 h -9.135 c -0.078,0 -0.148,-0.05 -0.178,-0.12 -0.025,-0.07 -0.019,-0.14 0.03,-0.2"
         style="fill:#2e2a2b;fill-opacity:1;fill-rule:nonzero;stroke:none;stroke-width:0.1"
         id="path56" />
      <g
         id="g58"
         transform="scale(0.1)">
        <g
           id="g60"
           clip-path="url(#clipPath64)">
          <g
             id="g66"
             clip-path="url(#clipPath70)">
            <path
               d="m 2995,14883 v 1 h -1 v 1 h -1 v 2 h -1 v 3 h -1 v 2 h -1 v 2 h -1 v 3 h -1 v 2 h -1 v 3 h -1 v 2 h -1 v 2 h -1 v 3 h -1 v 2 h -1 v 2 h -1 v 3 h -1 v 2 h -1 v 2 h -1 v 3 h -1 v 2 h -1 v 2 h -1 v 3 h -1 v 2 h -1 v 2 h -1 v 3 h -1 v 2 h -1 v 3 h -1 v 2 h -1 v 2 h -1 v 3 h -1 v 2 h -1 v 2 h -1 v 3 h -1 v 2 h -1 v 2 h -1 v 3 h -1 v 2 h -1 v 2 h -1 v 3 h -1 v 2 h -1 v 3 h -1 v 2 h -1 v 2 h -1 v 3 h -1 v 2 h -1 v 2 h -1 v 3 h -1 v 2 h -1 v 2 h -1 v 3 h -1 v 2 h -1 v 2 h -1 v 3 h -1 v 2 h -1 v 3 h -1 v 2 h -1 v 2 h -1 v 3 h -1 v 2 h -1 v 2 h -1 v 3 h -1 v 2 h -1 v 2 h -1 v 3 h -1 v 2 h -1 v 2 h -1 v 3 h -1 v 2 h -1 v 3 h -1 v 2 h -1 v 2 h -1 v 3 h -1 v 2 h -1 v 2 h -1 v 3 h -1 v 2 h -1 v 2 h -1 v 3 h -1 v 2 h -1 v 2 h -1 v 3 h -1 v 2 h -1 v 3 h -1 v 2 h -1 v 2 h -1 v 3 h -1 v 2 h -1 v 2 h -1 v 3 h -1 v 2 h -1 v 2 h -1 v 3 h -1 v 2 h -1 v 2 h -1 v 3 h -1 v 2 h -1 v 2 h -1 v 3 h -1 v 2 h -1 v 3 h -1 v 2 h -1 v 2 h -1 v 3 h -1 v 2 h -1 v 2 h -1 v 3 h -1 v 2 h -1 v 2 h -1 v 3 h -1 v 2 h -1 v 2 h -1 v 3 h -1 v 2 h -1 v 3 h -1 v 2 h -1 v 2 h -1 v 3 h -1 v 2 h -1 v 2 h -1 v 3 h -1 v 2 h -1 v 2 h -1 v 3 h -1 v 2 h -1 v 2 h -1 v 3 h -1 v 2 h -1 v 3 h -1 v 2 h -1 v 2 h -1 v 4 h 1 v 1 h 259 v -5 h -1 v -3 h -1 v -2 h -1 v -2 h -1 v -3 h -1 v -2 h -1 v -3 h -1 v -2 h -1 v -2 h -1 v -3 h -1 v -2 h -1 v -2 h -1 v -3 h -1 v -2 h -1 v -2 h -1 v -3 h -1 v -2 h -1 v -2 h -1 v -3 h -1 v -2 h -1 v -3 h -1 v -2 h -1 v -2 h -1 v -3 h -1 v -2 h -1 v -2 h -1 v -3 h -1 v -2 h -1 v -2 h -1 v -3 h -1 v -2 h -1 v -2 h -1 v -3 h -1 v -2 h -1 v -2 h -1 v -3 h -1 v -2 h -1 v -3 h -1 v -2 h -1 v -2 h -1 v -3 h -1 v -2 h -1 v -2 h -1 v -3 h -1 v -2 h -1 v -2 h -1 v -3 h -1 v -2 h -1 v -2 h -1 v -3 h -1 v -2 h -1 v -3 h -1 v -2 h -1 v -2 h -1 v -3 h -1 v -2 h -1 v -2 h -1 v -3 h -1 v -2 h -1 v -2 h -1 v -3 h -1 v -2 h -1 v -2 h -1 v -3 h -1 v -2 h -1 v -2 h -1 v -3 h -1 v -2 h -1 v -3 h -1 v -2 h -1 v -2 h -1 v -3 h -1 v -2 h -1 v -2 h -1 v -3 h -1 v -2 h -1 v -2 h -1 v -3 h -1 v -2 h -1 v -2 h -1 v -3 h -1 v -2 h -1 v -3 h -1 v -2 h -1 v -2 h -1 v -3 h -1 v -2 h -1 v -2 h -1 v -3 h -1 v -2 h -1 v -2 h -1 v -3 h -1 v -2 h -1 v -2 h -1 v -3 h -1 v -2 h -1 v -2 h -1 v -3 h -1 v -2 h -1 v -3 h -1 v -2 h -1 v -2 h -1 v -3 h -1 v -2 h -1 v -2 h -1 v -3 h -1 v -2 h -1 v -2 h -1 v -3 h -1 v -2 h -1 v -2 h -1 v -3 h -1 v -2 h -1 v -3 h -1 v -2 h -1 v -2 h -1 v -3 h -1 v -2 h -1 v -2 h -1 v -3 h -1 v -2 h -1 v -2 h -1 v -3 h -1 v -2 h -1 v -2 h -1 v -3 h -1 v -2 h -1 v -2 h -1 v -2"
               style="fill:url(#linearGradient80);fill-opacity:1;fill-rule:nonzero;stroke:none"
               id="path82" />
          </g>
        </g>
      </g>
    </g>
  </g>
</svg>
