<svg width="385" height="89" viewBox="0 0 385 89" fill="none" xmlns="http://www.w3.org/2000/svg">
<path d="M63.0597 52.6072L22.4938 34.3308L17.9655 44.403L1.17753 81.7526C-0.732276 86 4.23431 90.0537 8.27033 87.5451L63.0597 52.6072Z" fill="#26BE76"/>
<path d="M65.2013 46.4811L64.2654 44.4031L45.573 2.82221C43.8851 -0.940738 38.345 -0.940738 36.657 2.82221L25.144 28.4361L65.2013 46.4864V46.4811Z" fill="#26BE76"/>
<path d="M69.5247 56.0902L47.1426 70.8782L73.9665 87.5397C78.0025 90.0483 82.9691 85.9946 81.0593 81.7472L69.5247 56.0848V56.0902Z" fill="#26BE76"/>
<path d="M152.128 72.0912H143.417L117.192 32.4158V72.0912H108.481V18.8899H117.192L143.409 58.4894V18.8899H152.12V72.0996L152.128 72.0912Z" fill="#2E2D2C"/>
<path d="M171.093 70.0674C167.881 68.2628 165.359 65.7078 163.529 62.4191C161.699 59.1303 160.78 55.3188 160.78 50.9929C160.78 46.667 161.725 42.9144 163.605 39.6004C165.494 36.2864 168.066 33.7398 171.329 31.9605C174.593 30.1728 178.236 29.2874 182.258 29.2874C186.28 29.2874 189.923 30.1812 193.187 31.9605C196.45 33.7482 199.022 36.2948 200.911 39.6004C202.792 42.9144 203.736 46.7091 203.736 50.9929C203.736 55.2766 202.766 59.0713 200.835 62.3853C198.896 65.6993 196.265 68.2628 192.925 70.0674C189.586 71.8804 185.901 72.7827 181.879 72.7827C177.856 72.7827 174.306 71.8804 171.102 70.0674H171.093ZM188.178 63.6081C190.143 62.5371 191.728 60.9349 192.959 58.793C194.182 56.6512 194.789 54.0539 194.789 50.9929C194.789 47.9318 194.199 45.3515 193.035 43.2349C191.863 41.1183 190.311 39.5245 188.372 38.4536C186.432 37.3827 184.341 36.8514 182.106 36.8514C179.872 36.8514 177.789 37.3827 175.875 38.4536C173.96 39.5245 172.443 41.1183 171.329 43.2349C170.208 45.3515 169.651 47.9403 169.651 50.9929C169.651 55.5296 170.807 59.0376 173.126 61.4999C175.445 63.9707 178.362 65.2102 181.879 65.2102C184.122 65.2102 186.221 64.679 188.186 63.6081H188.178Z" fill="#2E2D2C"/>
<path d="M226.166 31.0835C228.283 29.8861 230.796 29.2874 233.697 29.2874V38.3102H231.479C228.064 38.3102 225.475 39.1788 223.721 40.9075C221.967 42.6446 221.081 45.6466 221.081 49.9304V72.0997H212.371V29.9704H221.081V36.084C222.355 33.9422 224.05 32.2725 226.166 31.0751V31.0835Z" fill="#2E2D2C"/>
<path d="M258.388 51.0688L277.808 72.0913H266.036L250.444 53.9696V72.0913H241.733V15.5254H250.444V48.3957L265.733 29.9704H277.808L258.388 51.0688Z" fill="#2E2D2C"/>
<path d="M283.803 39.6089C285.557 36.3454 287.952 33.8157 290.988 32.0027C294.015 30.1981 297.372 29.2874 301.04 29.2874C304.354 29.2874 307.246 29.9367 309.717 31.2353C312.188 32.5339 314.161 34.153 315.645 36.0925V29.9788H324.432V72.0997H315.645V65.8343C314.169 67.8244 312.154 69.4772 309.607 70.8011C307.061 72.125 304.151 72.7912 300.896 72.7912C297.279 72.7912 293.965 71.8636 290.954 70C287.944 68.1364 285.566 65.5391 283.803 62.1998C282.049 58.8605 281.164 55.0743 281.164 50.8495C281.164 46.6248 282.041 42.8723 283.803 39.6089ZM313.849 43.4288C312.651 41.287 311.083 39.6595 309.143 38.5379C307.204 37.4164 305.113 36.8514 302.878 36.8514C300.643 36.8514 298.544 37.3995 296.613 38.4958C294.673 39.592 293.105 41.2026 291.907 43.3108C290.71 45.4274 290.111 47.9318 290.111 50.8411C290.111 53.7503 290.71 56.297 291.907 58.4895C293.105 60.6819 294.682 62.3516 296.646 63.4984C298.611 64.6453 300.686 65.2187 302.878 65.2187C305.07 65.2187 307.212 64.6621 309.143 63.5406C311.083 62.4191 312.643 60.7747 313.849 58.6075C315.046 56.4403 315.645 53.9021 315.645 51.0013C315.645 48.1005 315.046 45.5707 313.849 43.4373V43.4288Z" fill="#2E2D2C"/>
<path d="M349.704 31.0835C351.821 29.8861 354.325 29.2874 357.234 29.2874V38.3102H355.016C351.601 38.3102 349.012 39.1788 347.258 40.9075C345.496 42.6446 344.619 45.6466 344.619 49.9304V72.0997H335.908V29.9704H344.619V36.084C345.892 33.9422 347.587 32.2725 349.704 31.0751V31.0835Z" fill="#2E2D2C"/>
<path d="M373.998 37.0793V60.3954C373.998 61.9808 374.369 63.1107 375.103 63.8022C375.845 64.4937 377.102 64.831 378.889 64.831H384.244V72.0915H377.363C373.433 72.0915 370.431 71.1723 368.34 69.3424C366.249 67.5041 365.203 64.5274 365.203 60.3954V19.4973H373.998V29.9706H384.244V37.0793H373.998Z" fill="#2E2D2C"/>
</svg>
