<?xml version="1.0" encoding="UTF-8"?>
<svg width="284px" height="216px" viewBox="0 0 284 216" version="1.1" xmlns="http://www.w3.org/2000/svg" xmlns:xlink="http://www.w3.org/1999/xlink">
    <!-- Generator: Sketch 52.4 (67378) - http://www.bohemiancoding.com/sketch -->
    <title>PwC_fl_4cp</title>
    <desc>Created with Sketch.</desc>
    <g id="PwC_fl_4cp" stroke="none" stroke-width="1" fill="none" fill-rule="evenodd">
        <path d="M191.939,142.955 C182.816,144.428 178.152,151.167 178.152,163.026 C178.152,174.958 184.365,182.938 193.89,182.938 C198.322,182.938 202.349,181.465 210.814,177.313 L210.814,186.965 C200.654,191.625 194.673,193.067 186.488,193.067 C177.625,193.067 171.39,190.713 166.298,185.524 C161.08,180.304 158.47,173.409 158.47,165.733 C158.47,148.655 171.113,137.1 189.58,137.1 C201.845,137.1 210.281,142.704 210.281,150.934 C210.281,156.233 206.355,159.879 200.529,159.879 C197.539,159.879 195.082,159.096 191.939,157.271 L191.939,142.955" id="Fill-1" fill="#1A1919"></path>
        <path d="M146.919,165.733 C155.099,155.421 157.988,151.263 157.988,146.2 C157.988,141.159 153.986,137.1 148.64,137.1 C145.347,137.1 142.383,138.655 140.936,140.271 L140.936,161.276 L127.533,179.133 L127.533,138.421 L114.791,138.421 L93.609,173.538 L93.609,138.421 L86.287,138.421 L67.059,143.109 L67.059,148.024 L77.547,149.088 L77.547,192.155 L91.104,192.155 L111.42,158.767 L111.42,192.155 L126.266,192.155 L146.919,165.733" id="Fill-2" fill="#1A1919"></path>
        <path d="M26.572,209.057 L35.363,211.012 L35.364,216 L0.877,216 L0.877,211.012 L8.736,209.057 L8.736,148.809 L0,148.809 L0,143.642 L21.098,137.234 L26.572,137.234 L26.572,144.428 C36.453,138.549 39.848,137.508 44.916,137.508 C56.621,137.508 65.26,148.303 65.26,163.25 C65.26,180.53 53.732,192.155 35.568,192.155 C33.514,192.155 30.096,192.03 26.572,191.625 L26.572,209.057 Z M26.572,185.524 C28.016,185.592 28.648,185.592 29.56,185.592 C40.481,185.592 46.334,178.784 46.334,165.733 C46.334,154.684 41.545,148.809 32.705,148.809 C31.234,148.809 29.689,148.988 26.572,149.367 L26.572,185.524 Z" id="Fill-4" fill="#1A1919"></path>
        <polygon id="Fill-6" fill="#E25F91" points="270.072 93.236 283.464 93.236 283.464 66.839 270.072 66.839"></polygon>
        <polygon id="Fill-7" fill="#F1AE7E" points="233.01 27.23 243.369 27.23 243.369 11.165 233.01 11.165"></polygon>
        <polygon id="Fill-8" fill="#EB8C3A" points="180.36 11.165 233.01 11.165 233.01 0.851 180.36 0.851"></polygon>
        <polyline id="Fill-9" fill="#E46C2F" points="180.36 66.839 180.36 11.165 233.01 11.165 233.01 27.23 180.36 27.23 180.36 66.839"></polyline>
        <polygon id="Fill-10" fill="#F3B235" points="243.369 66.839 270.072 66.839 270.072 27.23 243.369 27.23"></polygon>
        <polygon id="Fill-11" fill="#DE4D2F" points="243.369 93.236 270.072 93.236 270.072 66.839 243.369 66.839"></polygon>
        <polygon id="Fill-12" fill="#E98430" points="233.01 66.839 243.369 66.839 243.369 27.23 233.01 27.23"></polygon>
        <polygon id="Fill-13" fill="#DC402D" points="233.01 93.236 243.369 93.236 243.369 66.839 233.01 66.839"></polygon>
        <polyline id="Fill-14" fill="#E0592A" points="233.01 66.839 213.282 66.839 213.282 53.618 180.36 53.618 180.36 66.839 180.36 27.23 233.01 27.23 233.01 66.839"></polyline>
        <polygon id="Fill-15" fill="#DA332A" points="213.282 93.236 233.01 93.236 233.01 66.839 213.282 66.839"></polygon>
        <polygon id="Fill-16" fill="#B3452B" points="180.36 66.839 213.282 66.839 213.282 53.618 180.36 53.618"></polygon>
        <polygon id="Fill-17" fill="#B12E2A" points="180.36 93.236 213.282 93.236 213.282 66.839 180.36 66.839"></polygon>
        <polygon id="Fill-18" fill="#B02E2A" points="127.564 106.435 180.359 106.435 180.359 93.236 127.564 93.236"></polygon>
    </g>
</svg>