<?xml version="1.0" encoding="UTF-8" standalone="no"?>
<svg
   xmlns:dc="http://purl.org/dc/elements/1.1/"
   xmlns:cc="http://creativecommons.org/ns#"
   xmlns:rdf="http://www.w3.org/1999/02/22-rdf-syntax-ns#"
   xmlns:svg="http://www.w3.org/2000/svg"
   xmlns="http://www.w3.org/2000/svg"
   viewBox="0 0 1765.3333 472"
   height="472"
   width="1765.3333"
   xml:space="preserve"
   id="svg2"
   version="1.1"><metadata
     id="metadata8"><rdf:RDF><cc:Work
         rdf:about=""><dc:format>image/svg+xml</dc:format><dc:type
           rdf:resource="http://purl.org/dc/dcmitype/StillImage" /></cc:Work></rdf:RDF></metadata><defs
     id="defs6"><clipPath
       id="clipPath18"
       clipPathUnits="userSpaceOnUse"><path
         id="path16"
         d="M 0,354 H 1324 V 0 H 0 Z" /></clipPath></defs><g
     transform="matrix(1.3333333,0,0,-1.3333333,0,472)"
     id="g10"><g
       id="g12"><g
         clip-path="url(#clipPath18)"
         id="g14"><g
           transform="translate(385.7753,341.2812)"
           id="g20"><path
             id="path22"
             style="fill:#0f0035;fill-opacity:1;fill-rule:nonzero;stroke:none"
             d="m 0,0 v 0 c -47.637,0 -90.516,-20.296 -120.523,-52.688 l 73.425,-73.424 c 21.08,-21.08 21.08,-55.258 0,-76.338 l -73.425,-73.425 C -90.516,-308.267 -47.637,-328.562 0,-328.562 v 0 c 90.73,0 164.281,73.551 164.281,164.281 v 0 C 164.281,-73.551 90.73,0 0,0" /></g><g
           transform="translate(221.4938,177.0003)"
           id="g24"><path
             id="path26"
             style="fill:#0f0035;fill-opacity:1;fill-rule:nonzero;stroke:none"
             d="M 0,0 C 0,43.093 16.614,82.291 43.759,111.593 L -5.09,160.442 c -21.08,21.08 -55.258,21.08 -76.338,0 L -203.701,38.169 c -21.08,-21.08 -21.08,-55.258 0,-76.338 l 122.273,-122.273 c 21.08,-21.08 55.258,-21.08 76.338,0 l 48.848,48.848 C 16.614,-82.291 0,-43.094 0,0 Z" /></g><g
           transform="translate(659.6988,126.2498)"
           id="g28"><path
             id="path30"
             style="fill:#0f0035;fill-opacity:1;fill-rule:nonzero;stroke:none"
             d="m 0,0 h 36.979 c 4.156,-44.879 34.904,-66.9 74.794,-66.9 36.979,0 63.156,19.114 63.156,47.786 0,78.115 -166.204,36.564 -166.204,140.027 0,46.539 40.305,76.871 95.569,76.871 59.416,0 96.814,-31.164 103.877,-83.106 h -37.395 c -5.818,31.996 -30.749,50.278 -66.482,50.278 -35.32,0 -57.342,-16.618 -57.342,-42.799 0,-67.312 166.204,-26.593 166.204,-139.195 0,-49.862 -42.38,-82.686 -101.383,-82.686 C 50.276,-99.724 4.985,-65.236 0,0" /></g><path
           id="path32"
           style="fill:#0f0035;fill-opacity:1;fill-rule:nonzero;stroke:none"
           d="m 915.652,239.268 h 35.736 V 29.849 h -35.736 z m 17.452,88.09 c 14.128,0 24.515,-9.975 24.515,-23.685 0,-13.711 -10.387,-23.686 -24.515,-23.686 -13.712,0 -24.099,9.975 -24.099,23.686 0,13.71 10.387,23.685 24.099,23.685" /><g
           transform="translate(1073.5428,134.9725)"
           id="g34"><path
             id="path36"
             style="fill:#0f0035;fill-opacity:1;fill-rule:nonzero;stroke:none"
             d="m 0,0 -30.744,-28.252 v -76.871 h -35.738 v 294.185 h 35.738 V 17.87 L 66.9,104.296 h 47.782 L 26.593,24.101 122.161,-105.123 H 79.367 Z" /></g><g
           transform="translate(1232.2678,91.7619)"
           id="g38"><path
             id="path40"
             style="fill:#0f0035;fill-opacity:1;fill-rule:nonzero;stroke:none"
             d="m 0,0 v 118.006 h -35.736 v 29.5 H 0 v 53.186 h 35.316 v -53.186 h 53.185 v -29.5 H 35.316 V 2.908 c 0,-24.518 12.466,-36.564 30.748,-36.564 7.895,0 16.622,1.66 23.685,4.151 V -59.837 C 81.854,-63.577 71.467,-65.236 61.908,-65.236 26.177,-65.236 0,-42.799 0,0" /></g></g></g></g></svg>