<?xml version="1.0" encoding="UTF-8" standalone="no"?>
<svg
   xmlns:dc="http://purl.org/dc/elements/1.1/"
   xmlns:cc="http://creativecommons.org/ns#"
   xmlns:rdf="http://www.w3.org/1999/02/22-rdf-syntax-ns#"
   xmlns:svg="http://www.w3.org/2000/svg"
   xmlns="http://www.w3.org/2000/svg"
   viewBox="0 0 960.82666 274.39999"
   height="274.39999"
   width="960.82666"
   xml:space="preserve"
   id="svg2"
   version="1.1"><metadata
     id="metadata8"><rdf:RDF><cc:Work
         rdf:about=""><dc:format>image/svg+xml</dc:format><dc:type
           rdf:resource="http://purl.org/dc/dcmitype/StillImage" /></cc:Work></rdf:RDF></metadata><defs
     id="defs6" /><g
     transform="matrix(1.3333333,0,0,-1.3333333,0,274.4)"
     id="g10"><g
       transform="scale(0.1)"
       id="g12"><path
         id="path14"
         style="fill:#231f20;fill-opacity:1;fill-rule:nonzero;stroke:none"
         d="M 0,0 H 2058 V 2058 H 0 Z m 1030,631 c -353,0 -640,156 -640,349 0,193 286,349 639,349 v 172 c 109,0 214,-15 304,-41 L 1031,1156 V 981 l 302,308 c 201,-59 337,-175 337,-308 0,-193 -286,-350 -640,-350" /><path
         id="path16"
         style="fill:#231f20;fill-opacity:1;fill-rule:nonzero;stroke:none"
         d="m 2719.15,694.141 c -37.43,0 -71.81,4.589 -101.61,12.988 -29.8,8.41 -55.77,20.641 -77.93,36.68 -21.39,16.05 -38.2,35.91 -50.43,59.589 -12.22,23.68 -18.33,51.192 -19.09,80.993 h 129.88 c 3.82,-30.571 15.28,-52.719 35.14,-67.243 19.86,-13.75 48.14,-21.378 84.04,-21.378 12.23,0 24.45,1.519 35.91,3.808 11.46,2.293 22.16,6.121 30.56,11.461 9.17,5.352 16.05,12.231 21.4,20.633 5.34,8.398 7.64,18.328 7.64,29.797 0,12.222 -3.06,22.16 -8.41,29.793 -6.11,8.398 -14.52,14.519 -25.21,20.629 -10.7,6.109 -24.45,10.687 -40.49,14.519 -16.05,4.578 -34.38,8.399 -54.25,12.988 -27.5,6.114 -52.72,12.993 -77.17,20.622 -24.44,7.64 -45.07,17.57 -63.41,29.8 -18.33,12.22 -32.08,28.27 -42.78,46.6 -9.93,19.11 -15.28,42.79 -15.28,71.82 0,29.03 5.35,54.24 16.81,75.64 10.69,21.39 26.74,38.97 45.84,52.72 19.86,13.75 42.78,24.44 69.52,31.32 26.74,6.87 55.77,9.93 86.34,9.93 30.56,0 58.82,-3.82 84.8,-10.69 25.98,-6.88 48.9,-17.57 68,-31.32 19.1,-13.76 34.38,-31.33 45.84,-52.73 11.46,-20.63 18.33,-45.07 20.63,-72.58 h -126.07 c -3.81,22.16 -13.75,38.97 -29.79,51.19 -16.05,12.23 -38.97,18.34 -67.23,18.34 -26.75,0 -48.14,-5.35 -64.18,-16.05 -16.05,-10.69 -24.45,-24.45 -24.45,-42.01 0,-10.7 3.06,-19.87 9.17,-27.51 6.11,-6.88 14.52,-12.99 26.74,-18.34 11.46,-5.35 25.97,-9.93 42.78,-13.75 16.81,-3.82 36.68,-8.4 58.07,-13.75 25.21,-5.35 49.66,-12.23 72.58,-19.87 23.68,-7.63 44.31,-18.34 61.89,-31.319 17.57,-12.992 32.09,-29.801 42.78,-48.902 10.7,-19.86 16.04,-44.309 16.04,-74.098 0,-29.039 -6.11,-55.012 -17.57,-77.172 -11.46,-22.16 -27.5,-41.258 -48.13,-56.527 -20.63,-15.293 -44.32,-26.75 -71.82,-35.153 -25.21,-6.879 -55.01,-11.468 -87.1,-11.468" /><path
         id="path18"
         style="fill:#231f20;fill-opacity:1;fill-rule:nonzero;stroke:none"
         d="m 3167.63,882.859 -39.73,-41.25 V 707.898 H 3011 v 560.792 h 116.9 v -174.96 c 0,-29.8 -0.76,-55.02 -1.53,-77.17 -0.76,-21.388 -1.53,-38.97 -2.29,-51.958 l 132.17,144.408 h 137.52 L 3250.14,960.789 3409.82,707.898 H 3272.3 l -104.67,174.961" /><path
         id="path20"
         style="fill:#231f20;fill-opacity:1;fill-rule:nonzero;stroke:none"
         d="m 3697.85,707.898 c -3.05,4.582 -6.11,10.704 -8.4,19.102 -2.29,8.398 -4.59,18.34 -5.35,29.801 h -1.53 c -12.99,-18.34 -29.03,-32.86 -47.37,-43.551 -18.33,-10.699 -42.78,-16.051 -74.11,-16.051 -19.86,0 -37.43,2.301 -55.01,7.653 -16.8,5.339 -31.32,12.988 -43.54,22.918 -12.23,9.929 -22.16,22.921 -29.04,38.191 -6.87,15.277 -9.93,32.848 -9.93,52.73 0,22.137 4.59,40.481 12.22,55 7.65,14.52 19.87,26.739 33.62,35.137 13.75,9.172 30.56,16.051 49.66,20.641 19.1,4.582 39.73,8.402 61.89,10.691 35.91,5.352 61.12,10.692 77.16,18.34 16.05,6.879 23.69,18.332 23.69,32.852 0,14.508 -4.58,25.968 -14.52,35.138 -9.93,9.17 -24.44,12.99 -45.07,12.99 -22.92,0 -39.74,-4.58 -51.2,-14.52 -11.46,-9.93 -17.56,-22.15 -19.09,-38.198 h -109.26 c 0.77,16.808 4.58,33.618 12.23,49.658 7.64,16.05 18.33,30.56 32.85,42.79 14.51,12.22 32.85,22.16 55.01,29.8 22.16,6.87 48.13,10.69 77.93,10.69 25.97,0 48.13,-1.53 66.47,-5.34 18.33,-3.82 35.14,-9.94 48.89,-18.34 21.4,-12.23 36.67,-28.27 46.61,-48.9 9.93,-20.63 14.51,-44.31 14.51,-71.05 V 770.551 c 0,-30.571 5.35,-49.66 15.29,-55.77 v -6.883 z m -99.32,67.231 c 26.74,0 48.13,7.652 63.41,22.16 16.05,14.512 23.69,32.852 23.69,55.012 v 51.949 c -8.4,-5.352 -19.1,-9.93 -31.32,-12.988 -12.23,-3.051 -25.22,-6.114 -38.21,-9.172 -25.97,-5.352 -45.08,-12.219 -58.06,-20.621 -12.99,-8.41 -19.1,-20.641 -19.1,-38.199 0,-17.571 6.11,-29.801 17.57,-36.668 12.22,-8.411 25.97,-11.473 42.02,-11.473" /><path
         id="path22"
         style="fill:#231f20;fill-opacity:1;fill-rule:nonzero;stroke:none"
         d="m 3850.65,1109.01 h 60.36 v 128.35 h 116.13 v -128.35 h 78.69 v -75.64 h -78.69 V 833.961 c 0,-15.27 3.82,-25.211 11.46,-30.563 7.64,-5.347 18.34,-7.628 32.85,-7.628 3.82,0 8.41,0 13.75,0.761 5.36,0 9.94,0.758 13.76,0.758 h 6.11 V 709.43 c -6.88,-0.758 -15.28,-2.301 -27.5,-3.821 -11.46,-1.527 -25.22,-2.3 -41.26,-2.3 -18.34,0 -35.14,1.543 -50.43,4.589 -15.28,3.051 -28.26,9.161 -39.72,17.571 -10.7,8.41 -19.87,19.101 -25.98,32.851 -6.11,12.989 -9.17,30.559 -9.17,51.2 v 224.61 h -60.36 v 74.88 0" /><path
         id="path24"
         style="fill:#231f20;fill-opacity:1;fill-rule:nonzero;stroke:none"
         d="m 4140.21,1109.01 h 60.36 v 128.35 h 116.13 v -128.35 h 78.69 v -75.64 H 4316.7 V 833.961 c 0,-15.27 3.82,-25.211 11.46,-30.563 7.64,-5.347 18.34,-7.628 32.86,-7.628 3.82,0 8.4,0 13.75,0.761 5.34,0 9.93,0.758 13.75,0.758 h 6.11 V 709.43 c -6.87,-0.758 -15.28,-2.301 -27.51,-3.821 -11.45,-1.527 -25.2,-2.3 -41.25,-2.3 -18.34,0 -35.14,1.543 -50.43,4.589 -15.27,3.051 -28.26,9.161 -39.72,17.571 -10.7,8.41 -19.87,19.101 -25.98,32.851 -6.11,12.989 -9.17,30.559 -9.17,51.2 v 224.61 h -60.36 v 74.88 0" /><path
         id="path26"
         style="fill:#231f20;fill-opacity:1;fill-rule:nonzero;stroke:none"
         d="m 4650.58,695.68 c -32.86,0 -61.88,5.34 -87.86,16.039 -25.98,10.703 -48.14,25.98 -66.48,45.082 -18.34,19.09 -32.09,41.25 -42.02,67.23 -9.93,25.969 -14.51,53.481 -14.51,84.039 0,29.801 5.34,58.071 15.27,84.039 9.94,25.981 24.46,48.131 42.03,67.231 18.34,19.11 39.73,34.39 64.94,45.08 25.21,10.7 52.71,16.05 84.04,16.05 29.03,0 54.25,-4.59 77.17,-13.76 22.92,-9.16 42.78,-21.39 60.35,-37.43 22.92,-22.16 38.96,-49.66 49.67,-82.518 10.69,-32.852 15.27,-68.762 15.27,-108.481 h -292.62 c 3.83,-29.801 13.76,-53.492 29.81,-71.062 16.03,-16.809 38.19,-25.981 67.23,-25.981 18.34,0 33.62,3.063 45.84,9.942 11.46,6.871 20.63,16.8 27.5,29.031 h 114.6 c -5.35,-17.57 -12.98,-34.391 -23.68,-49.66 -10.7,-15.281 -24.45,-29.031 -39.73,-39.731 -16.04,-11.461 -34.38,-19.871 -55.77,-25.968 -22.15,-6.122 -45.84,-9.172 -71.05,-9.172 m -6.11,340.74 c -27.51,0 -48.14,-8.4 -61.89,-24.44 -13.76,-16.05 -22.92,-38.21 -27.51,-65.71 h 171.14 c -2.29,28.269 -9.93,50.421 -25.21,65.71 -15.28,15.27 -32.85,24.44 -56.53,24.44" /><path
         id="path28"
         style="fill:#231f20;fill-opacity:1;fill-rule:nonzero;stroke:none"
         d="m 5099.82,695.68 c -32.86,0 -61.89,5.34 -87.86,16.039 -25.98,10.703 -48.14,25.98 -66.48,45.082 -18.34,19.09 -32.09,41.25 -42.02,67.23 -9.93,25.969 -14.51,53.481 -14.51,84.039 0,29.801 5.34,58.071 15.27,84.039 9.93,25.981 24.46,48.131 42.02,67.231 18.34,19.11 39.74,34.39 64.95,45.08 25.21,10.7 52.72,16.05 84.04,16.05 29.03,0 54.25,-4.59 77.17,-13.76 22.92,-9.16 42.78,-21.39 61.12,-37.43 22.92,-22.16 38.96,-49.66 49.66,-82.518 10.69,-32.852 15.28,-68.762 15.28,-108.481 h -292.62 c 3.82,-29.801 13.75,-53.492 29.8,-71.062 16.04,-16.809 38.2,-25.981 67.23,-25.981 18.33,0 33.62,3.063 45.84,9.942 11.46,6.871 20.63,16.8 27.5,29.031 h 114.6 c -5.34,-17.57 -12.98,-34.391 -23.68,-49.66 -10.69,-15.281 -24.45,-29.031 -39.72,-39.731 -16.05,-11.461 -34.39,-19.871 -55.78,-25.968 -22.92,-6.122 -46.61,-9.172 -71.81,-9.172 m -6.11,340.74 c -27.51,0 -48.14,-8.4 -61.89,-24.44 -13.76,-16.05 -22.92,-38.21 -27.51,-65.71 h 171.14 c -2.29,28.269 -9.93,50.421 -25.21,65.71 -13.75,16.8 -32.85,24.44 -56.53,24.44" /><path
         id="path30"
         style="fill:#231f20;fill-opacity:1;fill-rule:nonzero;stroke:none"
         d="m 5325.2,1109.01 h 60.35 v 128.35 h 116.13 v -128.35 h 78.69 v -75.64 h -78.69 V 833.961 c 0,-15.27 3.82,-25.211 11.47,-30.563 7.63,-5.347 18.33,-7.628 32.85,-7.628 3.82,0 8.4,0 13.75,0.761 5.35,0 9.93,0.758 13.75,0.758 h 6.11 V 709.43 c -6.87,-0.758 -15.28,-2.301 -27.5,-3.821 -11.46,-1.527 -25.21,-2.3 -41.26,-2.3 -18.34,0 -35.14,1.543 -50.43,4.589 -15.27,3.051 -28.26,9.161 -39.72,17.571 -10.7,8.41 -19.87,19.101 -25.98,32.851 -6.11,12.989 -9.17,30.559 -9.17,51.2 v 224.61 h -60.35 v 74.88 0" /><path
         id="path32"
         style="fill:#231f20;fill-opacity:1;fill-rule:nonzero;stroke:none"
         d="m 5906.61,707.898 c -3.05,4.582 -6.11,10.704 -8.4,19.102 -2.3,8.398 -4.58,18.34 -5.35,29.801 h -1.53 c -12.99,-18.34 -29.03,-32.86 -47.37,-43.551 -18.33,-10.699 -42.78,-16.051 -74.11,-16.051 -19.87,0 -37.43,2.301 -55,7.653 -16.82,5.339 -31.33,12.988 -43.56,22.918 -12.22,9.929 -22.16,22.921 -29.03,38.191 -6.88,15.277 -9.93,32.848 -9.93,52.73 0,22.137 4.59,40.481 12.22,55 7.64,14.52 19.87,26.739 33.62,35.137 13.76,9.172 30.56,16.051 49.67,20.641 19.09,4.582 39.72,8.402 61.88,10.691 35.91,5.352 61.11,10.692 77.16,18.34 16.04,6.879 23.69,18.332 23.69,32.852 0,14.508 -4.59,25.968 -14.52,35.138 -9.93,9.17 -24.44,12.99 -45.08,12.99 -22.92,0 -39.73,-4.58 -51.19,-14.52 -11.46,-9.93 -17.57,-22.15 -19.09,-38.198 h -109.26 c 0.76,16.808 4.58,33.618 12.23,49.658 7.63,16.05 18.33,30.56 32.85,42.79 14.51,12.22 32.85,22.16 55.01,29.8 22.16,6.87 48.13,10.69 77.93,10.69 25.97,0 48.12,-1.53 66.46,-5.34 18.34,-3.82 35.15,-9.94 48.9,-18.34 21.39,-12.23 36.67,-28.27 46.6,-48.9 9.94,-20.63 14.52,-44.31 14.52,-71.05 V 770.551 c 0,-30.571 4.58,-49.66 15.28,-55.77 v -6.883 z m -99.32,67.231 c 26.74,0 48.13,7.652 63.41,22.16 16.04,14.512 23.69,32.852 23.69,55.012 v 51.949 c -8.41,-5.352 -19.1,-9.93 -31.33,-12.988 -12.23,-3.051 -25.21,-6.114 -38.2,-9.172 -25.98,-5.352 -45.07,-12.219 -58.06,-20.621 -12.99,-8.41 -19.1,-20.641 -19.1,-38.199 0,-17.571 6.11,-29.801 17.57,-36.668 12.22,-8.411 25.97,-11.473 42.02,-11.473" /><path
         id="path34"
         style="fill:#231f20;fill-opacity:1;fill-rule:nonzero;stroke:none"
         d="m 6059.41,1109.01 h 60.36 v 128.35 h 116.13 v -128.35 h 78.69 v -75.64 H 6235.9 V 833.961 c 0,-15.27 3.82,-25.211 11.46,-30.563 7.64,-5.347 18.34,-7.628 32.85,-7.628 3.83,0 8.41,0 13.76,0.761 5.34,0 9.93,0.758 13.75,0.758 h 6.11 V 709.43 c -6.87,-0.758 -16.04,-2.301 -27.51,-3.821 -11.45,-1.527 -25.21,-2.3 -41.25,-2.3 -18.34,0 -35.14,1.543 -51.19,4.589 -15.28,3.051 -28.27,9.161 -39.73,17.571 -10.7,8.41 -19.87,19.101 -25.97,32.851 -6.12,12.989 -9.17,30.559 -9.17,51.2 v 224.61 h -60.36 v 74.88 h 0.76" /><path
         id="path36"
         style="fill:#231f20;fill-opacity:1;fill-rule:nonzero;stroke:none"
         d="m 6569.77,695.68 c -32.85,0 -61.89,5.34 -87.86,16.039 -25.98,10.703 -48.13,25.98 -66.47,45.082 -18.34,19.09 -32.09,41.25 -42.02,67.23 -9.93,25.969 -14.52,53.481 -14.52,84.039 0,29.801 5.35,58.071 15.28,84.039 9.93,25.981 24.46,48.131 42.02,67.231 18.34,19.11 39.73,34.39 64.95,45.08 25.21,10.7 52.71,16.05 84.04,16.05 29.03,0 54.25,-4.59 77.17,-13.76 22.92,-9.16 42.78,-21.39 61.11,-37.43 22.92,-22.16 38.97,-49.66 49.67,-82.518 10.69,-32.852 15.27,-68.762 15.27,-108.481 h -294.9 c 3.82,-29.801 13.75,-53.492 29.79,-71.062 16.05,-16.809 38.21,-25.981 67.24,-25.981 18.33,0 33.61,3.063 45.84,9.942 11.46,6.871 20.63,16.8 27.5,29.031 h 114.6 c -5.34,-17.57 -12.99,-34.391 -23.68,-49.66 -10.69,-15.281 -24.44,-29.031 -39.73,-39.731 -16.04,-11.461 -34.38,-19.871 -55.77,-25.968 -20.63,-6.122 -44.32,-9.172 -69.53,-9.172 m -6.11,340.74 c -27.5,0 -48.13,-8.4 -61.89,-24.44 -13.75,-16.05 -22.92,-38.21 -27.5,-65.71 h 171.14 c -2.29,28.269 -9.93,50.421 -25.21,65.71 -13.75,16.8 -32.85,24.44 -56.54,24.44" /><path
         id="path38"
         style="fill:#231f20;fill-opacity:1;fill-rule:nonzero;stroke:none"
         d="m 6940.32,1047.88 h 2.29 c 12.23,24.45 29.03,42.03 50.42,54.25 20.64,12.23 45.08,18.34 73.35,18.34 44.32,0 78.69,-13.76 103.15,-40.49 24.44,-26.75 36.67,-63.42 36.67,-108.492 V 707.129 h -117.66 v 241.43 c 0,22.16 -5.35,39.73 -16.81,53.481 -11.46,13.75 -28.27,19.87 -50.43,19.87 -22.92,0 -42.02,-8.41 -55.77,-25.219 -13.75,-16.8 -21.4,-37.429 -21.4,-63.402 v -226.16 h -118.41 v 401.111 h 114.6 v -60.36 0" /></g></g></svg>