<svg id="Layer_2" xmlns="http://www.w3.org/2000/svg" viewBox="0 0 895.3 226"><defs><style>.cls-5{fill:#002776}</style></defs><g id="Layer_1-2"><path class="cls-5" d="M6 192.2s6.7 6.5 15.3 6.5c4.6 0 8.8-2.4 8.8-7.4 0-11-28.8-9-28.8-27.9 0-10.1 8.8-17.7 20.5-17.7s18.3 6.5 18.3 6.5l-4.9 9s-5.8-5.3-13.5-5.3c-5.2 0-9.2 3-9.2 7.4 0 10.8 28.7 8.1 28.7 27.7 0 9.7-7.4 18-20.1 18C7.5 209 0 200.5 0 200.5l6-8.4ZM52 164h10v3.2c0 1.6-.2 3-.2 3h.1s3.8-7.3 14.2-7.3c11.9 0 19.4 9.4 19.4 23s-8.5 23-20 23c-8.7 0-12.6-6-12.6-6h-.2s.2 1.5.2 3.8V225h-11V164Zm21.5 35.7c6 0 11-4.9 11-13.6s-4.5-13.8-11-13.8c-5.6 0-11 4.2-11 13.9 0 6.8 3.8 13.5 11 13.5ZM128.2 180.3h1.5v-.6c0-5.7-3.7-7.7-8.5-7.7-6.3 0-12 4.2-12 4.2l-4.2-7.8s6.8-5.5 17.2-5.5c11.6 0 18.3 6.4 18.3 17.5V208h-10v-3.6l.1-3.1h-.2c.1 0-3.3 7.7-13.3 7.7-7.9 0-15-4.9-15-13.7 0-14 19-14.9 26.1-14.9Zm-8.4 20.1c5.8 0 10-6.2 10-11.5v-1h-2c-5.6 0-14.6.7-14.6 6.8 0 3 2.1 5.7 6.6 5.7ZM153.2 164h10.5v7.5c0 1.7-.2 3.1-.2 3.1h.2c2-6.2 7.2-11.2 14-11.2l2 .1v10.8l-2.6-.2c-4.7 0-10 2.7-12 9.2-.7 2.2-1 4.6-1 7.2v17.4h-11v-44ZM207.6 163c12.6 0 19.4 9.1 19.4 20.8l-.2 4.2h-30.4c.7 7.7 6.7 11.6 13.2 11.6 7 0 12.7-4.8 12.7-4.8l4.2 7.8s-6.7 6.3-17.7 6.3a22.5 22.5 0 0 1-23.6-23c0-13.5 9.2-23 22.3-23Zm8.4 17.5c-.2-6-3.9-9.1-8.7-9.1-5.6 0-9.5 3.4-10.5 9H216ZM239 146.7h22c11 0 18.8 5.7 18.8 15.8 0 5.7-2.7 10.6-7.4 13v.3c6.7 2 10 8.1 10 14.3 0 12.3-9.9 17.8-21.2 17.8h-22.1v-61.2Zm22 25c4.8 0 7.5-3.4 7.5-7.8s-2.5-7.6-7.7-7.6h-10.6v15.4H261Zm1 26.6c5.8 0 9-3.7 9-8.8s-3.3-8.8-9-8.8h-11.8v17.6H262ZM316.3 180.3h1.4v-.6c0-5.7-3.6-7.7-8.4-7.7-6.3 0-12 4.2-12 4.2l-4.2-7.8s6.8-5.5 17.2-5.5c11.6 0 18.3 6.4 18.3 17.5V208h-10v-6.7s-3.5 7.7-13.4 7.7c-7.9 0-15-4.9-15-13.7 0-14 19-14.9 26-14.9Zm-8.4 20.1c5.8 0 10-6.2 10-11.5v-1h-2c-5.6 0-14.6.7-14.6 6.8 0 3 2.1 5.7 6.6 5.7ZM341.3 164h10.5v5c0 1.7-.2 3-.2 3h.2a17 17 0 0 1 15.6-9c9.7 0 15.2 5 15.2 16.6V208h-10.8v-26c0-5.4-1.4-9-7-9s-10.2 3.7-11.8 9c-.6 1.8-.8 3.8-.8 5.8V208h-11v-44ZM395.4 146.7h11v32.8h5.4l10.5-15.5h12.2l-13.9 19.6v.2l15.6 24h-12.6L412 188.8h-5.7v19.2h-11v-61.2ZM465 198.3h13.3v-34l.1-4h-.1s-.7 1.4-2.7 3.4l-5 4.7-6.5-7 15.4-14.7h9.7v51.6h13.3v9.6H465v-9.6ZM535 146.7h11V186c0 8.2 5.4 12.9 13.6 12.9s13.6-4.7 13.6-13v-39h11.1v39.1c0 13.7-9.9 23-24.6 23s-24.8-9.3-24.8-23v-39.2ZM600.4 173.3h-5.7v-8.7h6V152h10.7v12.7h10v8.7h-10v17c0 7.2 5.6 8.3 8.7 8.3 1.2 0 2-.2 2-.2v9.6s-1.4.2-3.4.2c-6.1 0-18.3-1.8-18.3-16.5v-18.4ZM626.3 164h11.5l9.1 27.2c1 2.6 1.5 6.6 1.6 6.6h.2s.7-4 1.5-6.6l9.1-27.2H671L655 207.9h-12.9l-16-44ZM678.3 146.7h10.9v9.8h-10.9v-9.8Zm0 17.3h11v43.9h-11v-44ZM702.6 146.7h11v32.8h5.4l10.6-15.5h12.1L728 183.6v.2l15.6 24h-12.6l-11.7-19.1h-5.7v19.2h-10.9v-61.2ZM750.6 146.7h10.8v45.9c0 4.8 1.7 6 4.5 6l1.7-.1v9.6s-1.7.2-3.5.2c-6 0-13.5-1.5-13.5-14.1v-47.5ZM777 146.7h10.8v9.8H777v-9.8Zm0 17.3h11v43.9h-11v-44ZM801.3 164h10.5v5c0 1.7-.2 3-.2 3h.2a17 17 0 0 1 15.6-9c9.7 0 15.2 5 15.2 16.6V208h-10.8v-26c0-5.4-1.4-9-7-9s-10.2 3.7-11.8 9c-.6 1.8-.8 3.8-.8 5.8V208h-11v-44ZM872 216.7c6.7 0 12.4-2.9 12.4-10.7v-2.6l.2-2.3h-.2c-2.6 3.9-6.4 6-12.2 6-12.6 0-19.8-10.2-19.8-22.3s6.9-21.9 19.5-21.9c9.6 0 13 5.6 13 5.6h.3l-.1-1.2V164h10.2v41.3c0 15.1-11.7 20.8-23.1 20.8a35 35 0 0 1-15.6-3.8l3.3-8.4s5.5 2.9 12.1 2.9Zm12.7-31.8c0-10-5-12.7-10.9-12.7-6.6 0-10.3 4.9-10.3 12.3s4 13.3 11 13.3c5.2 0 10.2-3 10.2-13ZM246.7 78.2c-9.3 0-16.6-2.1-18-2.5-.6-.3-1-.9-1-1.5v-.4l1-4.7c0-.7.6-.9 1.1-.9h.5c1.5.4 8.8 2.4 15.6 2.4 5.8 0 11-1.7 11-7.7s-5.3-6.7-12.2-7.7C237 54 227.2 52 227.2 39.9s9.2-15.7 20.1-15.7c8.3 0 15.2 2 16.8 2.4.8.2 1.2.8 1.2 1.5v.4l-1 4.6c0 .5-.5 1-1.1 1l-.2-.1c-3.4-.7-8.7-2.1-15-2.1-5.2 0-10.7 1-10.7 7s6 6.7 12.3 7.6c8.3 1.3 17.7 2.5 17.7 15.7 0 12.4-10 16-20.6 16ZM336.8 77.3c-2.5.6-5.9 1-9.9 1-7.6 0-17-.7-17-12 0-9.2 5.7-10.2 11.4-11l12.6-2.2V51c0-2-.2-3.4-2-4.2-1.1-.5-2.8-.7-5.4-.7-4.8 0-10 1.4-12.2 2h-.5c-.3 0-.7-.1-.8-.6l-1-4.4v-.3c0-.6.5-.9.9-1 1.7-.7 8.2-2.5 15.5-2.5 5 0 8.4.8 10.7 2 3.6 2 4.3 5.4 4.3 9.2V70c0 5.3-1.8 6.2-6.6 7.3Zm-3-18-8.7 1.5c-3 .4-5.6.8-5.6 5.4 0 5.5 4.4 6 7.9 6 2.7 0 5-.5 6.5-1V59.3ZM368.7 46.5c-4.3 0-8 .5-10 1v28.8c0 .7-.4 1.1-1 1.1h-7.3c-.4 0-1.2-.4-1.2-1V45.6c0-2.8 1.6-3.6 5-4.6 3.2-1 8.2-1.7 12.2-1.8h1.3q1 0 1.4.2c.3.2.7.5.7 1.2v4.6c0 .7 0 1.3-1 1.3ZM405.9 61.5c0 .8-.5 1.7-1.5 1.7h-23.8c0 3.2 1 5 2.8 6.5 1.9 1.5 4.6 2.1 8.4 2.1 4.4 0 7.7-1 10-1.7h.3c.4 0 .8.2 1 1l.9 3.6v.3c0 .6-.3.9-.8 1-2.4 1-7.2 2.3-12.8 2.3-14 0-19.4-5.4-19.4-19.3s3.7-19.8 17.5-19.8c7.2 0 11.6 1.9 14.2 5.3 2.4 3.2 3.1 7.7 3.1 13.6v3.4Zm-10-10.5c-1-4-3.1-5.2-7.3-5.2-4.7 0-6.7 1.4-7.5 5-.5 2-.5 4-.6 6.3h16c0-2.3-.2-4.2-.7-6.1ZM486.6 77.3c-2.5.6-6 1-9.9 1-7.7 0-17-.7-17-12 0-9.2 5.7-10.2 11.3-11l12.7-2.2V51c0-2-.3-3.4-2-4.2-1.2-.5-2.9-.7-5.4-.7-4.9 0-10.1 1.4-12.2 2h-.5c-.4 0-.7-.1-.8-.6l-1-4.4v-.3c0-.6.5-.9.8-1 1.8-.7 8.3-2.5 15.5-2.5 5 0 8.5.8 10.7 2 3.7 2 4.4 5.4 4.4 9.2V70c0 5.3-1.8 6.2-6.6 7.3Zm-3-18-8.7 1.5c-3 .4-5.7.8-5.7 5.4 0 5.5 4.5 6 8 6 2.7 0 5-.5 6.4-1V59.3ZM531.1 77.4h-7.3c-.6 0-1.1-.4-1.1-1v-25c0-4.2-1.6-5.6-5.3-5.6-4.3 0-9 1.2-9 1.2v29.4c0 .6-.3 1-1 1h-7.2c-.7 0-1.2-.4-1.2-1V45.8c0-2.7 1.3-3.6 5.3-4.7 3.6-1 9.6-1.8 14.1-1.8 8.9 0 13.8 2.2 13.8 10.7v26.4c0 .6-.4 1-1 1ZM572.3 76.8c0 .3-.3.6-.8.6H562c-.3 0-.7 0-1-.4l-11-15h-2.4v14.4c0 .6-.4 1-1.1 1h-7.3c-.6 0-1.1-.4-1.1-1V26.8c0-.9.3-1.3 1.2-1.5l7-1.2h.2c.6 0 1 .4 1 1.2v30.3h2.5l11.2-15c.3-.4.5-.4.9-.4l8.7.2c.5 0 .7.3.7.6l-.2.4L558 58.3l14.2 18.1.1.4ZM291.4 39.3c-4.8 0-10.2.7-14.5 2.2-3.2 1-4.5 2-4.5 5.8v43.9c0 .7.6 1.3 1.6 1.1l6.7-1.2c.9-.2 1.2-.6 1.2-1.5V77.3c2.6.6 5.7 1 9.3 1 13.2 0 15.6-8.3 15.6-19.5s-1.7-19.5-15.4-19.5Zm-2.7 32.5c-3.8 0-6.8-.8-6.8-.8V47s4.2-1 7.5-1c5.4 0 7.7 1.1 7.7 12.6 0 10.8-2 13.2-8.4 13.2ZM437 77.4h-23.6c-.6 0-1.2-.5-1.2-1.1V26c0-.6.6-1.1 1.2-1.1h23.7c12 0 16.9 4.7 16.9 13.2 0 7.5-4.2 10.2-10.7 12 7.2 1.3 12.5 5.2 12.5 13.5 0 9.5-6.7 13.7-18.8 13.7Zm-.9-45.1h-13.7v15.2l13.2-.6c5.4-.2 8.2-2.1 8.2-7.5 0-5-2.4-7.1-7.7-7.1Zm-.3 22-13.4-.4v16.2h13.4c7.1 0 9.5-3.1 9.5-7.4 0-5.9-2-8.1-9.5-8.3Z"/><path d="M632.7 0c-5.3 0-10.3.8-15.1 2.3 20-4.3 40 4 47.2 20.9 8.2 19.6-3.6 43.3-26.5 53-20.6 8.7-43 3.2-53.5-12.2a50 50 0 1 0 48-64Z" style="fill:#e30613"/><path d="M638.2 76.2c23-9.7 34.8-33.4 26.5-53-7.1-17-27-25.2-47.1-20.9A50 50 0 0 0 584.8 64c10.4 15.4 32.9 21 53.4 12.2Z" style="fill:#b20f0b"/><path d="M625.1 79.8v6.4c0 1 .8 1.9 1.9 1.9h16.7c1 0 1.8-.9 1.8-1.9V72.5a53.5 53.5 0 0 1-20.4 7.4Z" style="fill:none"/><path d="M643.6 19.4H632c-.8 0-1.3.2-2 .4l-15 7.7c-.9.4-1.3 1-1.3 1.9v8.4c0 1 .8 1.8 1.8 1.8h9.6v40.2a51.9 51.9 0 0 0 20.4-7.3V21.2c0-1-.8-1.8-1.9-1.8Z" style="fill:#fff"/></g></svg>