<svg xmlns="http://www.w3.org/2000/svg" fill="none" viewBox="6 3 157 49.58"><path fill-rule="evenodd" clip-rule="evenodd" d="M27.1106 3L48.2214 15.4153V40.1636L27.1106 52.5789L6 40.1636V15.4153L27.1106 3ZM9.4834 38.1861V30.8266L25.3687 40.1642V47.5284L9.4834 38.1861ZM25.3687 36.1385L9.4834 26.8009V19.4412L25.3687 28.7789V36.1385ZM28.8521 47.5287V28.7796L35.0564 25.1326V43.8799L28.8521 47.5287ZM38.5398 41.8313L44.738 38.1861V19.4417L38.5398 23.085V41.8313ZM33.3755 10.7105L27.1106 7.02612L11.1648 16.404L17.4272 20.0851L33.3755 10.7105ZM36.7988 12.7238L20.8516 22.0979L27.1111 25.7773L43.0569 16.4042L36.7988 12.7238Z" fill="#AD362B"/><path d="M70.0031 38.6829C68.3697 38.6829 66.774 38.4615 65.216 38.0187C63.658 37.5759 62.4141 37.0159 61.4844 36.3387L63.2936 32.627C64.1983 33.2522 65.2788 33.7601 66.5353 34.1508C67.8169 34.5154 69.0733 34.6978 70.3046 34.6978C73.1191 34.6978 74.5263 33.9294 74.5263 32.3926C74.5263 31.6633 74.1619 31.1554 73.4332 30.8689C72.7296 30.5824 71.5862 30.3089 70.0031 30.0484C68.3446 29.7879 66.9876 29.4884 65.9322 29.1498C64.9019 28.8112 63.9973 28.2251 63.2183 27.3916C62.4644 26.5321 62.0875 25.347 62.0875 23.8362C62.0875 21.8567 62.879 20.2808 64.4621 19.1087C66.0704 17.9106 68.2315 17.3115 70.9454 17.3115C72.3275 17.3115 73.7096 17.4808 75.0917 17.8194C76.4738 18.132 77.6046 18.5618 78.4841 19.1087L76.6748 22.8204C74.966 21.7785 73.0437 21.2576 70.9077 21.2576C69.5256 21.2576 68.4702 21.479 67.7415 21.9218C67.0379 22.3385 66.6861 22.8986 66.6861 23.6018C66.6861 24.3832 67.063 24.9432 67.8169 25.2818C68.5958 25.5944 69.7895 25.8939 71.3977 26.1804C73.006 26.4409 74.3252 26.7405 75.3555 27.0791C76.3858 27.4177 77.2653 27.9907 77.9941 28.7982C78.7479 29.6056 79.1249 30.7517 79.1249 32.2363C79.1249 34.1898 78.3082 35.7526 76.6748 36.9248C75.0414 38.0969 72.8175 38.6829 70.0031 38.6829Z" fill="#2D2C2C"/><path d="M94.49 37.2764C93.9372 37.7452 93.2587 38.0969 92.4546 38.3313C91.6756 38.5657 90.8463 38.6829 89.9668 38.6829C87.7555 38.6829 86.0467 38.0838 84.8405 36.8857C83.6343 35.6875 83.0312 33.9424 83.0312 31.6503V12.9357H87.7429V17.7022H93.1331V21.6092H87.7429V31.5331C87.7429 32.5489 87.9816 33.3303 88.4591 33.8773C88.9617 34.3982 89.6527 34.6587 90.5322 34.6587C91.5876 34.6587 92.4671 34.3722 93.1707 33.7991L94.49 37.2764Z" fill="#2D2C2C"/><path d="M117.399 17.5459V38.4094H112.913V35.7136C112.134 36.7034 111.167 37.4457 110.011 37.9406C108.88 38.4355 107.624 38.6829 106.242 38.6829C104.282 38.6829 102.523 38.2401 100.965 37.3545C99.4317 36.4689 98.2256 35.2187 97.3461 33.6038C96.4917 31.9889 96.0645 30.1135 96.0645 27.9777C96.0645 25.8418 96.4917 23.9795 97.3461 22.3906C98.2256 20.7757 99.4317 19.5255 100.965 18.6399C102.523 17.7543 104.282 17.3115 106.242 17.3115C107.548 17.3115 108.742 17.5459 109.823 18.0148C110.928 18.4836 111.883 19.1739 112.687 20.0855V17.5459H117.399ZM106.769 34.5024C108.503 34.5024 109.936 33.9033 111.066 32.7052C112.197 31.507 112.763 29.9312 112.763 27.9777C112.763 26.0242 112.197 24.4483 111.066 23.2502C109.936 22.052 108.503 21.453 106.769 21.453C105.035 21.453 103.603 22.052 102.472 23.2502C101.367 24.4483 100.814 26.0242 100.814 27.9777C100.814 29.9312 101.367 31.507 102.472 32.7052C103.603 33.9033 105.035 34.5024 106.769 34.5024Z" fill="#2D2C2C"/><path d="M132.797 38.6829C130.712 38.6829 128.84 38.2271 127.181 37.3155C125.523 36.4038 124.228 35.1405 123.299 33.5256C122.369 31.8847 121.904 30.0354 121.904 27.9777C121.904 25.92 122.369 24.0837 123.299 22.4688C124.228 20.8539 125.51 19.5906 127.143 18.679C128.802 17.7673 130.687 17.3115 132.797 17.3115C134.783 17.3115 136.516 17.7283 137.999 18.5618C139.507 19.3953 140.638 20.5934 141.391 22.1562L137.773 24.3441C137.195 23.3804 136.466 22.6641 135.587 22.1953C134.732 21.7004 133.79 21.453 132.76 21.453C131.001 21.453 129.543 22.052 128.387 23.2502C127.231 24.4223 126.653 25.9981 126.653 27.9777C126.653 29.9572 127.219 31.5461 128.35 32.7442C129.506 33.9163 130.976 34.5024 132.76 34.5024C133.79 34.5024 134.732 34.268 135.587 33.7991C136.466 33.3042 137.195 32.5749 137.773 31.6112L141.391 33.7991C140.612 35.3619 139.469 36.5731 137.961 37.4327C136.479 38.2662 134.757 38.6829 132.797 38.6829Z" fill="#2D2C2C"/><path d="M154.406 38.6829C152.32 38.6829 150.448 38.2271 148.79 37.3155C147.131 36.4038 145.837 35.1405 144.907 33.5256C143.977 31.8847 143.512 30.0354 143.512 27.9777C143.512 25.92 143.977 24.0837 144.907 22.4688C145.837 20.8539 147.118 19.5906 148.752 18.679C150.41 17.7673 152.295 17.3115 154.406 17.3115C156.391 17.3115 158.125 17.7283 159.608 18.5618C161.115 19.3953 162.246 20.5934 163 22.1562L159.381 24.3441C158.803 23.3804 158.075 22.6641 157.195 22.1953C156.341 21.7004 155.398 21.453 154.368 21.453C152.609 21.453 151.152 22.052 149.996 23.2502C148.84 24.4223 148.262 25.9981 148.262 27.9777C148.262 29.9572 148.827 31.5461 149.958 32.7442C151.114 33.9163 152.584 34.5024 154.368 34.5024C155.398 34.5024 156.341 34.268 157.195 33.7991C158.075 33.3042 158.803 32.5749 159.381 31.6112L163 33.7991C162.221 35.3619 161.078 36.5731 159.57 37.4327C158.087 38.2662 156.366 38.6829 154.406 38.6829Z" fill="#2D2C2C"/></svg>