<svg xmlns:inkscape="http://www.inkscape.org/namespaces/inkscape" xmlns:sodipodi="http://sodipodi.sourceforge.net/DTD/sodipodi-0.dtd" xmlns="http://www.w3.org/2000/svg" xmlns:svg="http://www.w3.org/2000/svg" version="1.1" id="svg2" sodipodi:docname="vestland-fylkeskommune_cmyk_sv.eps" viewBox="2.47 3.38 173.59 41.45">
  <defs id="defs6"/>
  <sodipodi:namedview id="namedview4" pagecolor="#ffffff" bordercolor="#000000" borderopacity="0.25" inkscape:showpageshadow="2" inkscape:pageopacity="0.0" inkscape:pagecheckerboard="0" inkscape:deskcolor="#d1d1d1"/>
  <g id="g8" inkscape:groupmode="layer" inkscape:label="ink_ext_XXXXXX" transform="matrix(1.3333333,0,0,-1.3333333,0,47.333333)">
    <g id="g10" transform="scale(0.1)">
      <path d="M 272.512,329.266 H 18.625 L 145.57,174.215 Z" style="fill:#0570a1;fill-opacity:1;fill-rule:nonzero;stroke:none" id="path12"/>
      <path d="m 145.57,19.1602 c 20.653,16.4375 47.778,37.6054 71.235,68.039 H 74.3281 C 97.7852,56.7656 124.91,35.5977 145.57,19.1602" style="fill:#0570a1;fill-opacity:1;fill-rule:nonzero;stroke:none" id="path14"/>
      <path d="m 32.3672,174.215 c 2.6055,-10.973 5.6992,-21.274 9.3633,-30.367 8.8437,-21.91 20.207,-40.563 32.5937,-56.6332 0,-0.0039 0.0039,-0.0078 0.0039,-0.0156 L 145.57,174.215 H 32.3672" style="fill:#0570a1;fill-opacity:1;fill-rule:nonzero;stroke:none" id="path16"/>
      <path d="M 272.512,329.266 145.57,174.215 v 0 L 74.3281,87.1992 v 0 H 216.805 v 0 c 0.004,0.0078 0.004,0.0117 0.011,0.0156 12.379,16.0702 23.743,34.7232 32.586,56.6332 3.672,9.093 6.762,19.394 9.368,30.367 15.558,65.531 13.742,155.051 13.742,155.051" style="fill:#dad9d9;fill-opacity:1;fill-rule:nonzero;stroke:none" id="path18"/>
      <path d="M 145.57,174.215 18.625,329.266 c 0,0 -1.8203,-89.52 13.7422,-155.051 H 145.57 v 0" style="fill:#dad9d9;fill-opacity:1;fill-rule:nonzero;stroke:none" id="path20"/>
      <path d="m 396.484,236.523 h -12.062 l -35.371,92.743 h 16.426 L 391.18,258.25 h 0.133 l 25.968,71.016 h 15.633 l -36.43,-92.743" style="fill:#231f20;fill-opacity:1;fill-rule:nonzero;stroke:none" id="path22"/>
      <path d="m 465.199,293.758 c -10.332,0 -16.695,-7.285 -19.078,-16.695 h 35.774 c -0.532,9.14 -7.286,16.695 -16.696,16.695 z m 0.399,-47.297 c 8.879,0 15.367,3.312 19.472,10.598 l 9.543,-6.227 c -6.89,-10.863 -15.898,-15.898 -29.679,-15.898 -21.063,0 -33.387,15.238 -33.387,34.976 0,20.004 14.574,35.242 33.387,35.242 18.019,0 31.132,-13.25 31.132,-31.136 0,-2.383 -0.261,-5.43 -0.66,-7.418 h -50.082 c 0.93,-11 8.352,-20.137 20.274,-20.137" style="fill:#231f20;fill-opacity:1;fill-rule:nonzero;stroke:none" id="path24"/>
      <path d="m 545.617,288.855 c -3.047,2.786 -8.476,5.168 -13.246,5.168 -5.433,0 -9.141,-3.179 -9.141,-7.949 0,-4.902 6.094,-7.289 12.321,-9.804 8.746,-3.446 19.609,-8.215 19.609,-20.137 0,-14.977 -11.926,-21.199 -24.644,-21.199 -9.539,0 -18.282,3.707 -24.114,10.73 l 9.012,7.816 c 4.633,-4.769 9.274,-7.285 14.969,-7.285 5.832,0 11.129,2.914 11.129,9.141 0,5.168 -6.094,7.551 -12.719,10.203 -8.746,3.574 -18.684,7.551 -18.684,19.473 0,13.648 10.735,20.14 22.262,20.14 7.949,0 15.637,-2.648 21.195,-7.683 l -7.949,-8.614" style="fill:#231f20;fill-opacity:1;fill-rule:nonzero;stroke:none" id="path26"/>
      <path d="m 587.352,291.77 v -29.145 c 0,-1.727 0,-3.316 0.136,-5.301 0.395,-6.359 2.516,-10.07 8.477,-10.07 2.914,0 5.433,0.793 7.555,1.855 l 3.972,-10.73 c -3.578,-1.988 -8.742,-3.184 -13.383,-3.184 -9.671,0 -15.765,4.504 -18.414,11.395 -1.461,3.711 -1.984,8.348 -1.984,13.25 v 31.93 h -8.746 v 11.793 h 8.746 l 0.656,15.765 h 12.985 V 303.563 H 605.77 V 291.77 h -18.418" style="fill:#231f20;fill-opacity:1;fill-rule:nonzero;stroke:none" id="path28"/>
      <path d="m 635.316,236.523 h -13.644 v 92.743 h 13.644 v -92.743" style="fill:#231f20;fill-opacity:1;fill-rule:nonzero;stroke:none" id="path30"/>
      <path d="m 694.934,266.73 c -4.633,0.926 -8.079,1.192 -11.391,1.192 -7.816,0 -18.016,-2.121 -18.016,-11.66 0,-7.551 5.828,-10.465 12.45,-10.465 6.496,0 11.925,3.18 16.957,7.418 z m 1.066,-30.207 -0.402,6.758 c -5.164,-5.965 -11.391,-8.347 -19.61,-8.347 -12.449,0 -23.847,6.359 -23.847,20.664 0,16.828 15.101,22.129 29.679,22.129 3.446,0 7.684,-0.395 13.114,-1.457 v 1.984 c 0,9.805 -4.5,15.504 -15.235,15.504 -7.683,0 -15.504,-2.914 -21.062,-5.961 l -3.844,10.996 c 7.285,3.445 17.621,6.359 27.027,6.359 19.211,0 26.762,-10.601 26.762,-27.957 V 236.523 H 696" style="fill:#231f20;fill-opacity:1;fill-rule:nonzero;stroke:none" id="path32"/>
      <path d="m 741.438,303.563 0.402,-10.602 c 5.035,7.82 13.113,12.191 21.726,12.191 8.879,0 15.106,-3.179 19.079,-8.48 4.632,-6.359 5.96,-15.234 5.96,-25.305 v -34.844 h -13.644 v 33.653 c 0,6.094 -0.266,12.851 -3.18,17.488 -1.988,3.18 -5.566,5.168 -10.996,5.168 -7.16,0 -14.312,-4.902 -18.683,-11.926 v -44.383 h -13.649 v 67.04 h 12.985" style="fill:#231f20;fill-opacity:1;fill-rule:nonzero;stroke:none" id="path34"/>
      <path d="m 838.559,292.832 c -14.575,0 -21.465,-11.926 -21.465,-22.922 0,-11.926 8.082,-22.656 21.195,-22.656 6.891,0 15.371,3.976 18.813,11.926 v 23.976 c -4.5,6.364 -11.922,9.676 -18.543,9.676 z m 32.191,-56.309 h -12.984 l -0.399,8.875 c -4.765,-7.019 -13.512,-10.464 -21.328,-10.464 -18.945,0 -32.855,15.632 -32.855,35.242 0,18.019 13.246,34.976 33.117,34.976 7.554,0 15.504,-3.179 20.801,-8.746 v 32.86 h 13.648 v -92.743" style="fill:#231f20;fill-opacity:1;fill-rule:nonzero;stroke:none" id="path36"/>
      <path d="m 393.965,173.848 c -2.652,1.328 -5.301,1.992 -8.746,1.992 -3.442,0 -5.563,-0.797 -7.153,-2.121 -2.652,-2.387 -3.046,-6.625 -3.046,-12.059 v -7.418 h 13.425 l 4.457,-11.793 H 375.02 V 87.1992 h -13.649 v 55.2498 h -8.746 v 11.793 h 8.746 v 8.61 c 0,7.156 1.324,13.25 4.367,17.625 3.45,4.902 9.016,7.679 18.157,7.679 4.769,0 9.937,-1.32 14.043,-3.176 l -3.973,-11.132" style="fill:#231f20;fill-opacity:1;fill-rule:nonzero;stroke:none" id="path38"/>
      <path d="m 412.777,154.242 16.43,-48.226 h 0.266 l 16.957,48.226 h 14.84 l -37.762,-97.3826 -12.055,4.7734 10.598,28.086 -24.375,64.5232 h 15.101" style="fill:#231f20;fill-opacity:1;fill-rule:nonzero;stroke:none" id="path40"/>
      <path d="m 487.102,87.1992 h -13.649 v 92.7458 h 13.649 V 87.1992" style="fill:#231f20;fill-opacity:1;fill-rule:nonzero;stroke:none" id="path42"/>
      <path d="m 522.918,122.18 0.266,-0.133 25.832,32.195 h 16.429 L 541.73,126.684 567.434,87.1992 h -16.43 l -18.281,28.8868 -9.805,-11.395 V 87.1992 H 509.27 v 92.7458 h 13.648 V 122.18" style="fill:#231f20;fill-opacity:1;fill-rule:nonzero;stroke:none" id="path44"/>
      <path d="m 605.637,144.438 c -10.336,0 -16.692,-7.29 -19.082,-16.696 h 35.773 c -0.527,9.145 -7.285,16.696 -16.691,16.696 z m 0.394,-47.3013 c 8.879,0 15.371,3.3123 19.481,10.6013 l 9.535,-6.226 c -6.891,-10.8675 -15.899,-15.9026 -29.68,-15.9026 -21.062,0 -33.383,15.2386 -33.383,34.9806 0,20.004 14.571,35.242 33.383,35.242 18.024,0 31.141,-13.25 31.141,-31.137 0,-2.382 -0.27,-5.429 -0.664,-7.418 h -50.082 c 0.926,-10.996 8.347,-20.1403 20.269,-20.1403" style="fill:#231f20;fill-opacity:1;fill-rule:nonzero;stroke:none" id="path46"/>
      <path d="m 686.059,139.535 c -3.051,2.781 -8.485,5.168 -13.254,5.168 -5.43,0 -9.141,-3.18 -9.141,-7.949 0,-4.902 6.094,-7.289 12.32,-9.805 8.746,-3.445 19.61,-8.215 19.61,-20.14 0,-14.9692 -11.922,-21.1996 -24.645,-21.1996 -9.535,0 -18.281,3.7109 -24.109,10.7344 l 9.008,7.8162 c 4.636,-4.7694 9.273,-7.285 14.968,-7.285 5.832,0 11.129,2.9141 11.129,9.141 0,5.168 -6.093,7.55 -12.715,10.203 -8.746,3.574 -18.679,7.551 -18.679,19.472 0,13.649 10.73,20.141 22.254,20.141 7.949,0 15.636,-2.648 21.203,-7.687 l -7.949,-8.61" style="fill:#231f20;fill-opacity:1;fill-rule:nonzero;stroke:none" id="path48"/>
      <path d="m 726.066,122.18 0.266,-0.133 25.836,32.195 h 16.43 l -23.715,-27.558 25.703,-39.4848 h -16.434 l -18.281,28.8868 -9.805,-11.395 V 87.1992 h -13.644 v 92.7458 h 13.644 V 122.18" style="fill:#231f20;fill-opacity:1;fill-rule:nonzero;stroke:none" id="path50"/>
      <path d="m 809.27,143.508 c -11.922,0 -20.536,-10.199 -20.536,-22.785 0,-12.453 8.614,-22.7894 20.536,-22.7894 11.925,0 20.539,10.3364 20.539,22.7894 0,12.586 -8.614,22.785 -20.539,22.785 z m 34.449,-22.785 c 0,-19.61 -14.707,-35.1136 -34.449,-35.1136 -19.872,0 -34.45,15.5036 -34.45,35.1136 0,19.609 14.578,35.109 34.45,35.109 19.742,0 34.449,-15.5 34.449,-35.109" style="fill:#231f20;fill-opacity:1;fill-rule:nonzero;stroke:none" id="path52"/>
      <path d="m 946.27,87.1992 v 33.6528 c 0,6.097 -0.137,12.855 -2.922,17.492 -1.985,3.179 -5.567,5.164 -10.86,5.164 -6.093,0 -12.722,-4.106 -17.226,-10.199 0.398,-3.446 0.664,-7.286 0.664,-11.262 V 87.1992 h -13.645 v 33.6528 c 0,6.097 -0.133,13.382 -3.316,18.019 -1.856,2.918 -5.031,4.637 -9.801,4.637 -6.363,0 -13.121,-5.297 -17.226,-10.863 V 87.1992 h -13.649 v 67.0428 h 12.988 l 0.266,-9.672 c 5.164,7.02 13.379,11.262 20.801,11.262 7.547,0 14.304,-2.914 18.418,-9.141 0.664,-0.929 1.187,-1.988 1.59,-2.914 5.832,8.344 14.433,12.055 23.046,12.055 8.614,0 14.446,-3.047 18.293,-8.082 4.891,-6.359 6.219,-15.504 6.219,-25.703 V 87.1992 h -13.64" style="fill:#231f20;fill-opacity:1;fill-rule:nonzero;stroke:none" id="path54"/>
      <path d="m 1067.76,87.1992 v 33.6528 c 0,6.097 -0.13,12.855 -2.92,17.492 -1.98,3.179 -5.56,5.164 -10.86,5.164 -6.09,0 -12.72,-4.106 -17.22,-10.199 0.4,-3.446 0.66,-7.286 0.66,-11.262 V 87.1992 h -13.65 v 33.6528 c 0,6.097 -0.13,13.382 -3.31,18.019 -1.86,2.918 -5.03,4.637 -9.81,4.637 -6.35,0 -13.115,-5.297 -17.212,-10.863 V 87.1992 h -13.657 v 67.0428 h 12.992 l 0.262,-9.672 c 5.164,7.02 13.375,11.262 20.805,11.262 7.54,0 14.3,-2.914 18.41,-9.141 0.66,-0.929 1.2,-1.988 1.59,-2.914 5.83,8.344 14.44,12.055 23.05,12.055 8.62,0 14.45,-3.047 18.28,-8.082 4.91,-6.359 6.23,-15.504 6.23,-25.703 V 87.1992 h -13.64" style="fill:#231f20;fill-opacity:1;fill-rule:nonzero;stroke:none" id="path56"/>
      <path d="m 1147.65,87.1992 -0.4,10.6016 c -5.04,-7.8164 -13.11,-12.1914 -21.72,-12.1914 -8.88,0 -15.11,3.1797 -19.09,8.4804 -4.64,6.3592 -5.95,15.2382 -5.95,25.3082 v 34.844 h 13.64 V 120.59 c 0,-6.098 0.26,-12.852 3.18,-17.492 1.99,-3.1761 5.57,-5.1644 11,-5.1644 7.15,0 14.31,4.9024 18.68,11.9214 v 44.387 h 13.64 V 87.1992 h -12.98" style="fill:#231f20;fill-opacity:1;fill-rule:nonzero;stroke:none" id="path58"/>
      <path d="m 1194.16,154.242 0.39,-10.601 c 5.04,7.82 13.11,12.191 21.73,12.191 8.87,0 15.1,-3.18 19.08,-8.48 4.64,-6.36 5.96,-15.239 5.96,-25.305 V 87.1992 h -13.65 v 33.6528 c 0,6.097 -0.26,12.855 -3.18,17.492 -1.98,3.179 -5.56,5.164 -11,5.164 -7.14,0 -14.3,-4.903 -18.68,-11.922 V 87.1992 h -13.64 v 67.0428 h 12.99" style="fill:#231f20;fill-opacity:1;fill-rule:nonzero;stroke:none" id="path60"/>
      <path d="m 1289.55,144.438 c -10.33,0 -16.7,-7.29 -19.08,-16.696 h 35.77 c -0.53,9.145 -7.29,16.696 -16.69,16.696 z m 0.4,-47.3013 c 8.88,0 15.36,3.3123 19.47,10.6013 l 9.54,-6.226 c -6.89,-10.8675 -15.9,-15.9026 -29.67,-15.9026 -21.07,0 -33.39,15.2386 -33.39,34.9806 0,20.004 14.57,35.242 33.39,35.242 18.01,0 31.13,-13.25 31.13,-31.137 0,-2.382 -0.27,-5.429 -0.67,-7.418 h -50.07 c 0.92,-10.996 8.34,-20.1403 20.27,-20.1403" style="fill:#231f20;fill-opacity:1;fill-rule:nonzero;stroke:none" id="path62"/>
      <path d="M 273.086,329.656 H 18.5586 L 145.824,174.215 Z" style="fill:#0570a1;fill-opacity:1;fill-rule:nonzero;stroke:none" id="path64"/>
      <path d="m 145.824,18.7695 c 20.707,16.4805 47.899,37.7032 71.414,68.2149 H 74.4063 C 97.918,56.4727 125.113,35.25 145.824,18.7695" style="fill:#0570a1;fill-opacity:1;fill-rule:nonzero;stroke:none" id="path66"/>
      <path d="m 32.3359,174.215 c 2.6133,-11 5.711,-21.324 9.3907,-30.442 8.8632,-21.968 20.2539,-40.668 32.6718,-56.7808 0.0039,0 0.0039,-0.0078 0.0079,-0.0078 L 145.824,174.215 H 32.3359" style="fill:#0570a1;fill-opacity:1;fill-rule:nonzero;stroke:none" id="path68"/>
      <path d="M 273.086,329.656 145.824,174.215 v 0 L 74.4063,86.9844 v 0 H 217.238 v 0 c 0.004,0 0.004,0.0078 0.012,0.0078 12.414,16.1128 23.805,34.8128 32.672,56.7808 3.676,9.118 6.773,19.442 9.387,30.442 15.601,65.695 13.777,155.441 13.777,155.441" style="fill:#dad9d9;fill-opacity:1;fill-rule:nonzero;stroke:none" id="path70"/>
      <path d="M 145.824,174.215 18.5586,329.656 c 0,0 -1.8203,-89.746 13.7773,-155.441 H 145.824 v 0" style="fill:#dad9d9;fill-opacity:1;fill-rule:nonzero;stroke:none" id="path72"/>
    </g>
  </g>
</svg>