
<svg id="Lager_1" data-name="Lager 1" xmlns="http://www.w3.org/2000/svg" viewBox="0 0 155.84 39.71"><defs><style>.cls-1{fill:#2e2d2c;}.cls-2{fill:#d30535;}</style></defs><path class="cls-1" d="M367.81,426.51c-6.21,0-10.66-3.52-10.66-8.3,0-4.51,4.34-8.47,10.94-8.47a15.5,15.5,0,0,1,6.32,1.32v-3.29a21.62,21.62,0,0,0-6.32-.88c-9.24,0-15.29,5.16-15.29,11.59s5.34,11.16,14.3,11.16a21.07,21.07,0,0,0,8.08-1.54L374,425.41a18.56,18.56,0,0,1-6.16,1.1" transform="translate(-219.34 -406.5)"/><rect class="cls-1" x="68.92" y="0.66" width="3.9" height="22.31"/><path class="cls-1" d="M321.19,410.35H311.13v19.13h-4V410.35H297.06a3.08,3.08,0,0,1,3.18-3.13h20.95Z" transform="translate(-219.34 -406.5)"/><path class="cls-1" d="M271.05,429.48h-3.19l-11.38-22.32h4.34l8.8,17.2c.66-1.15,7.92-14.51,8.3-15.16,1.6-2.81,5.39-2,5.39-2Z" transform="translate(-219.34 -406.5)"/><path class="cls-1" d="M328.61,413.43c1.16-2.26,4.13-4,7.7-4,4.84,0,8.41,3.19,8.41,6.32H334a3.09,3.09,0,0,0-3.08,3.08h17.87V418c0-6.92-4.29-11.54-12.48-11.54-7.65,0-12.81,4.84-12.81,11.27s4.78,12.09,14.68,12.09a21,21,0,0,0,9.73-2.31l-1.32-2.64a19.57,19.57,0,0,1-7.43,1.76c-5.44.06-9.51-2.42-10.66-5.66a8.64,8.64,0,0,1,.16-7.58" transform="translate(-219.34 -406.5)"/><path class="cls-2" d="M238.23,409.74a32,32,0,0,1,2.8-2.52h-7.48c-9.89.38-7.91,8.63-7.47,10.16,0,.11,0,.17.11.28.38,1.21.77,2.36,1.26,3.52.44.93.83,1.81,1.32,2.74a.76.76,0,0,1,.11-.32,43.7,43.7,0,0,1,9.35-13.86" transform="translate(-219.34 -406.5)"/><path class="cls-1" d="M246.92,407.11c-1,.6-2,1.32-2.7,1.81l-.93.77-.17.16v-.05l-2.47,2.31a41.14,41.14,0,0,0-8.64,12.8c-.38.94-.76,1.87-1,2.81-.22.6-.44,1.21-.6,1.81h7.91c8.64,0,8.64-8.57,8.64-8.57Z" transform="translate(-219.34 -406.5)"/><path class="cls-1" d="M227.23,428.21a42.56,42.56,0,0,1-2.91-5.71A41.25,41.25,0,0,1,221.9,415c-4.56,10-2.92,14.56,4.07,14.56h2.09l-.83-1.32" transform="translate(-219.34 -406.5)"/><path class="cls-2" d="M293.14,446.07h-.78l-1.26-6.32h.76l1,5.35h.06l2.77-5.35h.83Z" transform="translate(-219.34 -406.5)"/><path class="cls-2" d="M296.4,443a3.6,3.6,0,0,1,3.32-3.29c1.37,0,2.51,1,2.16,3.1l-.06.37H297.1c-.24,1.58.4,2.4,1.75,2.4a2.16,2.16,0,0,0,1.89-1l.66.22a3,3,0,0,1-2.66,1.49C297,446.21,296.08,444.87,296.4,443Zm4.78-.47c.2-1.22-.42-2.15-1.56-2.15a2.73,2.73,0,0,0-2.41,2.15Z" transform="translate(-219.34 -406.5)"/><path class="cls-2" d="M303.63,439.75h.72l-.17,1h.05a2.23,2.23,0,0,1,1.92-1.07h.38l-.12.75a3,3,0,0,0-.45,0,2,2,0,0,0-2,1.62l-.68,4.08h-.73Z" transform="translate(-219.34 -406.5)"/><path class="cls-2" d="M310,440.38h-1.35l-.67,4c-.13.8.29,1,.79,1a1.55,1.55,0,0,0,.44-.06l0,.67a2.12,2.12,0,0,1-.68.11,1.28,1.28,0,0,1-1.36-1.58l.7-4.21H307l.1-.63H308l.25-1.52H309l-.25,1.52h1.34Z" transform="translate(-219.34 -406.5)"/><path class="cls-2" d="M311.42,439.75h.74l-1.05,6.32h-.74Zm.09-1.64a.56.56,0,0,1,.56-.52.53.53,0,0,1,.54.54.55.55,0,0,1-1.1,0Z" transform="translate(-219.34 -406.5)"/><path class="cls-2" d="M313.13,442.94a3.58,3.58,0,0,1,3.33-3.28,1.91,1.91,0,0,1,2.09,2h-.74a1.32,1.32,0,0,0-1.44-1.29,2.76,2.76,0,0,0-2.51,2.58c-.26,1.54.38,2.62,1.62,2.62a2,2,0,0,0,1.9-1.3h.74a2.85,2.85,0,0,1-2.74,2C313.67,446.21,312.81,444.82,313.13,442.94Z" transform="translate(-219.34 -406.5)"/><path class="cls-2" d="M319.16,444.31c.22-1.26,1.28-1.66,2.74-1.83,1.08-.14,1.68-.15,1.76-.62l0-.15c.14-.86-.26-1.39-1.22-1.39a2.21,2.21,0,0,0-1.92,1l-.66-.25a3,3,0,0,1,2.64-1.42c1,0,2.17.42,1.89,2.12l-.72,4.29H323l.17-1h-.05a2.52,2.52,0,0,1-2.14,1.15A1.59,1.59,0,0,1,319.16,444.31Zm4.2-.66.15-.92a5,5,0,0,1-1.71.39c-1.09.13-1.77.45-1.9,1.22s.39,1.21,1.22,1.21A2.28,2.28,0,0,0,323.36,443.65Z" transform="translate(-219.34 -406.5)"/><path class="cls-2" d="M326.23,446.07h-.73l1.4-8.43h.73Z" transform="translate(-219.34 -406.5)"/><path class="cls-2" d="M335.23,441.31a1.17,1.17,0,0,0-1.3-1,1.55,1.55,0,0,0-1.65,1.11c-.09.54.22.86,1,1l.92.24q1.53.39,1.32,1.68a2.49,2.49,0,0,1-2.65,1.83c-1.25,0-2-.58-2-1.64l.74-.16c0,.74.52,1.14,1.38,1.14a1.67,1.67,0,0,0,1.8-1.16c.09-.52-.18-.86-.86-1l-1-.25c-1.06-.27-1.49-.85-1.35-1.7a2.37,2.37,0,0,1,2.5-1.76,1.69,1.69,0,0,1,1.9,1.47Z" transform="translate(-219.34 -406.5)"/><path class="cls-2" d="M336.62,442.88a3.5,3.5,0,0,1,3.26-3.22c1.67,0,2.6,1.37,2.29,3.33a3.51,3.51,0,0,1-3.27,3.22C337.24,446.21,336.3,444.84,336.62,442.88Zm4.84,0c.22-1.39-.3-2.55-1.58-2.55a2.83,2.83,0,0,0-2.54,2.66c-.24,1.39.29,2.54,1.57,2.54A2.83,2.83,0,0,0,341.46,442.88Z" transform="translate(-219.34 -406.5)"/><path class="cls-2" d="M346.27,440.38h-1.41l-.94,5.69h-.73l.94-5.69h-1l.11-.63h1l.15-.93a1.91,1.91,0,0,1,1.93-1.58,1.74,1.74,0,0,1,.75.14l-.31.65a1.29,1.29,0,0,0-.49-.09,1.12,1.12,0,0,0-1.17,1l-.13.78h1.41Z" transform="translate(-219.34 -406.5)"/><path class="cls-2" d="M350,440.38h-1.35l-.67,4c-.13.8.29,1,.79,1a1.6,1.6,0,0,0,.44-.06l.05.67a2.12,2.12,0,0,1-.68.11,1.28,1.28,0,0,1-1.36-1.58l.7-4.21h-1l.11-.63H348l.25-1.52H349l-.25,1.52h1.34Z" transform="translate(-219.34 -406.5)"/><path class="cls-2" d="M350.87,439.75h.77l.63,5.21h.05l2.37-5.21h.77l.62,5.2h.06l2.36-5.2h.78l-3,6.32h-.76l-.64-5.18h-.08l-2.36,5.18h-.76Z" transform="translate(-219.34 -406.5)"/><path class="cls-2" d="M359.27,444.31c.21-1.26,1.28-1.66,2.74-1.83,1.08-.14,1.68-.15,1.76-.62l0-.15c.14-.86-.26-1.39-1.22-1.39a2.21,2.21,0,0,0-1.92,1l-.65-.25a2.92,2.92,0,0,1,2.63-1.42c1,0,2.17.42,1.89,2.12l-.72,4.29h-.73l.17-1h-.05a2.52,2.52,0,0,1-2.15,1.15A1.59,1.59,0,0,1,359.27,444.31Zm4.2-.66.15-.92a5,5,0,0,1-1.7.39c-1.1.13-1.79.45-1.91,1.22s.39,1.21,1.22,1.21A2.28,2.28,0,0,0,363.47,443.65Z" transform="translate(-219.34 -406.5)"/><path class="cls-2" d="M366.43,439.75h.71l-.17,1H367a2.2,2.2,0,0,1,1.91-1.07h.39l-.13.75a2.86,2.86,0,0,0-.44,0,2,2,0,0,0-2,1.62l-.67,4.08h-.74Z" transform="translate(-219.34 -406.5)"/><path class="cls-2" d="M369.07,443a3.6,3.6,0,0,1,3.32-3.29c1.37,0,2.51,1,2.16,3.1l-.06.37h-4.71c-.25,1.58.39,2.4,1.74,2.4a2.15,2.15,0,0,0,1.89-1l.66.22a3,3,0,0,1-2.66,1.49C369.64,446.21,368.75,444.87,369.07,443Zm4.78-.47c.21-1.22-.42-2.15-1.56-2.15a2.72,2.72,0,0,0-2.4,2.15Z" transform="translate(-219.34 -406.5)"/></svg>