<?xml version="1.0" encoding="UTF-8" standalone="no"?>
<svg
   xmlns:dc="http://purl.org/dc/elements/1.1/"
   xmlns:cc="http://creativecommons.org/ns#"
   xmlns:rdf="http://www.w3.org/1999/02/22-rdf-syntax-ns#"
   xmlns:svg="http://www.w3.org/2000/svg"
   xmlns="http://www.w3.org/2000/svg"
   viewBox="0 0 271.38666 35.84"
   height="35.84"
   width="271.38666"
   xml:space="preserve"
   id="svg2"
   version="1.1"><metadata
     id="metadata8"><rdf:RDF><cc:Work
         rdf:about=""><dc:format>image/svg+xml</dc:format><dc:type
           rdf:resource="http://purl.org/dc/dcmitype/StillImage" /></cc:Work></rdf:RDF></metadata><defs
     id="defs6" /><g
     transform="matrix(1.3333333,0,0,-1.3333333,0,35.84)"
     id="g10"><g
       transform="scale(0.1)"
       id="g12"><path
         id="path14"
         style="fill:#000000;fill-opacity:1;fill-rule:nonzero;stroke:none"
         d="M 449.02,197.348 421.637,105.84 h 54.769 L 449.02,197.348 M 407.23,57.6953 391.164,4.00781 H 328.348 L 409.973,264.789 H 488.07 L 569.699,4.00781 H 506.883 L 490.813,57.6953 H 407.23" /><path
         id="path16"
         style="fill:#000000;fill-opacity:1;fill-rule:nonzero;stroke:none"
         d="M 1870.18,4.00781 1805.84,216.645 V 4.00781 h -61.52 V 264.789 h 99.77 l 45.78,-156.086 45.77,156.086 h 99.77 V 4.00781 h -61.52 V 216.645 L 1909.55,4.00781 h -39.37" /><path
         id="path18"
         style="fill:#000000;fill-opacity:1;fill-rule:nonzero;stroke:none"
         d="M 205.438,264.789 248.141,89.2188 c 0.894,3.5625 40.164,175.5702 40.164,175.5702 h 63.754 L 284.969,4.00781 H 217.398 L 176.012,176.527 134.633,4.00781 H 67.0938 L 0.00390625,264.789 H 63.7578 c 0,0 39.2622,-172.0077 40.1562,-175.5702 l 42.707,175.5702 h 58.817" /><path
         id="path20"
         style="fill:#000000;fill-opacity:1;fill-rule:nonzero;stroke:none"
         d="M 744.777,264.789 V 213.207 H 677.371 V 4.00781 H 615.473 V 213.207 h -69.211 v 51.582 h 198.515" /><path
         id="path22"
         style="fill:#000000;fill-opacity:1;fill-rule:nonzero;stroke:none"
         d="M 1213.43,264.789 V 4.00781 h -61.41 V 111.57 h -82.8 V 4.00781 h -61.41 V 264.789 h 61.41 V 163.152 h 82.8 v 101.637 h 61.41" /><path
         id="path24"
         style="fill:#000000;fill-opacity:1;fill-rule:nonzero;stroke:none"
         d="m 1604.01,218.941 c -32.03,0 -48.05,-28.152 -48.05,-84.445 0,-56.4257 16.02,-84.6288 48.05,-84.6288 31.02,0 46.51,28.1445 46.51,84.4378 0,56.425 -15.49,84.636 -46.51,84.636 z M 1602.29,0.00390625 c -35.12,0 -62.29,13.17579375 -81.51,39.54299375 -19.21,26.3633 -28.82,58.2695 -28.82,95.7151 0,38.082 9.74,69.855 29.2,95.328 19.48,25.48 47.22,38.215 83.23,38.215 36.4,0 63.85,-13.594 82.37,-40.793 18.51,-27.192 27.77,-58.297 27.77,-93.324 0,-37.8286 -9.54,-69.7349 -28.62,-95.7192 C 1666.8,12.9922 1638.94,0.00390625 1602.29,0.00390625" /><path
         id="path26"
         style="fill:#000000;fill-opacity:1;fill-rule:nonzero;stroke:none"
         d="m 871.828,49.8672 c -15.57,0 -27.699,5.8242 -36.379,17.4766 -8.676,11.6523 -13.011,33.8442 -13.011,66.5822 0,56.668 15.953,85.015 47.863,85.015 26.746,0 40.914,-17.195 42.777,-51.203 h 64.301 c -7.899,67.375 -43.18,101.067 -105.84,101.067 -36.176,0 -64.707,-12.547 -85.59,-37.637 -20.894,-25.094 -31.332,-57.316 -31.332,-96.672 0,-42.0312 10.793,-74.9569 32.383,-98.7694 21.586,-23.8203 49.637,-35.72269375 84.16,-35.72269375 28.141,0 51.922,8.11328375 71.352,24.35549375 19.418,16.2422 31.047,39.957 34.867,71.164 H 917.352 C 911.207,65.1953 896.102,49.8672 871.828,49.8672" /><path
         id="path28"
         style="fill:#000000;fill-opacity:1;fill-rule:nonzero;stroke:none"
         d="m 1360.53,49.8672 c -15.56,0 -27.69,5.8242 -36.37,17.4766 -8.67,11.6523 -13.01,33.8442 -13.01,66.5822 0,56.668 15.95,85.015 47.86,85.015 26.75,0 40.91,-17.195 42.77,-51.203 h 64.31 c -7.9,67.375 -43.18,101.067 -105.84,101.067 -36.18,0 -64.71,-12.547 -85.59,-37.637 -20.89,-25.094 -31.33,-57.316 -31.33,-96.672 0,-42.0312 10.79,-74.9569 32.38,-98.7694 21.58,-23.8203 49.64,-35.72269375 84.16,-35.72269375 28.14,0 51.92,8.11328375 71.35,24.35549375 19.42,16.2422 31.04,39.957 34.87,71.164 h -60.03 c -6.14,-30.3281 -21.25,-45.6562 -45.53,-45.6562" /></g></g></svg>