<svg width="100%" height="100%" viewBox="0 0 2765 3020" fill="none" xmlns="http://www.w3.org/2000/svg">
<path d="M40 42C40 40.8954 40.8954 40 42 40H2723C2724.1 40 2725 40.8954 2725 42V2978C2725 2979.1 2724.1 2980 2723 2980H42C40.8954 2980 40 2979.1 40 2978V42Z" fill="#33020C"/>
<path d="M1447.5 851.5H296V1065.5H270.5V2177.5H294V2393.5H1445.5V2901.5H2032L2411 351H1898.5L1447.5 851.5Z" stroke="white" stroke-width="5"/>
<path d="M1447.5 851.5H296V1065.5H270.5V2177.5H294V2393.5H1445.5V2901.5H2032L2411 351H1898.5L1447.5 851.5Z" stroke="white" stroke-width="5"/>
<rect x="573" y="878" width="153" height="162" fill="white" fill-opacity="0.4"/>
<rect x="275" y="1386" width="256" height="162" transform="rotate(-90 275 1386)" fill="#C7B374"/>
<rect x="1482" y="1130" width="256" height="162" transform="rotate(90 1482 1130)" fill="white" fill-opacity="0.4"/>
<rect x="275" y="1642" width="256" height="162" transform="rotate(-90 275 1642)" fill="white" fill-opacity="0.4"/>
<rect x="1482" y="1386" width="256" height="162" transform="rotate(90 1482 1386)" fill="white" fill-opacity="0.4"/>
<rect x="275" y="1898" width="256" height="162" transform="rotate(-90 275 1898)" fill="white" fill-opacity="0.4"/>
<rect x="1482" y="1642" width="256" height="162" transform="rotate(90 1482 1642)" fill="white" fill-opacity="0.4"/>
<rect x="275" y="2154" width="256" height="162" transform="rotate(-90 275 2154)" fill="white" fill-opacity="0.4"/>
<rect x="1482" y="1898" width="256" height="162" transform="rotate(90 1482 1898)" fill="white" fill-opacity="0.4"/>
<rect x="573" y="1388" width="153" height="162" fill="white" fill-opacity="0.4"/>
<rect x="573" y="1898" width="153" height="162" fill="white" fill-opacity="0.4"/>
<rect x="726" y="1388" width="153" height="162" transform="rotate(-180 726 1388)" fill="white" fill-opacity="0.4"/>
<rect x="726" y="1898" width="153" height="162" transform="rotate(-180 726 1898)" fill="white" fill-opacity="0.4"/>
<rect x="726" y="878" width="153" height="162" fill="white" fill-opacity="0.4"/>
<rect x="726" y="1388" width="153" height="162" fill="white" fill-opacity="0.4"/>
<rect x="726" y="1898" width="153" height="162" fill="white" fill-opacity="0.4"/>
<rect x="879" y="1388" width="153" height="162" transform="rotate(-180 879 1388)" fill="white" fill-opacity="0.4"/>
<rect x="879" y="1898" width="153" height="162" transform="rotate(-180 879 1898)" fill="white" fill-opacity="0.4"/>
<rect x="879" y="878" width="153" height="162" fill="white" fill-opacity="0.4"/>
<rect x="879" y="1388" width="153" height="162" fill="white" fill-opacity="0.4"/>
<rect x="879" y="1898" width="153" height="162" fill="white" fill-opacity="0.4"/>
<rect x="1032" y="1388" width="153" height="162" transform="rotate(-180 1032 1388)" fill="white" fill-opacity="0.4"/>
<rect x="1185" y="1898" width="306" height="162" transform="rotate(-180 1185 1898)" fill="white" fill-opacity="0.4"/>
<rect x="1032" y="878" width="153" height="162" fill="white" fill-opacity="0.4"/>
<rect x="1032" y="1388" width="153" height="162" fill="white" fill-opacity="0.4"/>
<rect x="1032" y="1898" width="153" height="162" fill="white" fill-opacity="0.4"/>
<rect x="1185" y="1388" width="153" height="162" transform="rotate(-180 1185 1388)" fill="white" fill-opacity="0.4"/>
<rect x="877" y="2395" width="153" height="162" transform="rotate(-180 877 2395)" fill="white" fill-opacity="0.4"/>
<rect x="1091" y="2395" width="107" height="98" transform="rotate(-180 1091 2395)" fill="white" fill-opacity="0.4"/>
<path d="M2203.5 682H2358L2324.5 932H2169.5L2203.5 682Z" fill="white" fill-opacity="0.4"/>
<path d="M2168 932H2322.5L2289 1182H2134L2168 932Z" fill="white" fill-opacity="0.4"/>
<path d="M2135 1182H2289.5L2256 1432H2101L2135 1182Z" fill="white" fill-opacity="0.4"/>
<path d="M2034 1852H2188.5L2155 2102H2000L2034 1852Z" fill="white" fill-opacity="0.4"/>
<path d="M1992 2102H2146.5L2113 2352H1958L1992 2102Z" fill="white" fill-opacity="0.4"/>
<path d="M1957 2353H2111.5L2078 2603H1923L1957 2353Z" fill="white" fill-opacity="0.4"/>
<path d="M1919 2603H2073.5L2040 2853H1885L1919 2603Z" fill="white" fill-opacity="0.4"/>
<path d="M1903 529V354H2155V529H1903Z" fill="white" fill-opacity="0.4"/>
<path d="M2154.5 354H2409.5L2385.5 530H2154.5V354Z" fill="white" fill-opacity="0.4"/>
<path d="M1450.5 851.5V1059H1491.5V2189H1443V2394.5" stroke="white" stroke-width="5"/>
<path d="M1450.5 851.5V1059H1491.5V2189H1443V2394.5" stroke="white" stroke-width="5"/>
<path d="M1491.5 1277H1750L1632.09 1451M1492.5 1953V1657L1502.83 1641.75M1492.5 1953V2150H1722L1823.5 1464.5L1770.31 1543M1492.5 1953L1641 1733.84M1770.31 1543L1632.09 1451M1770.31 1543L1761.5 1556M1632.09 1451L1622.94 1464.5M1622.94 1464.5L1761.5 1556M1622.94 1464.5L1614 1477.7M1761.5 1556L1752.69 1569M1752.69 1569L1614 1477.7M1752.69 1569L1743.88 1582M1614 1477.7L1606 1489.5M1606 1489.5L1743.88 1582M1606 1489.5L1597.19 1502.5M1743.88 1582L1735.41 1594.5M1735.41 1594.5L1597.19 1502.5M1735.41 1594.5L1726.61 1607.5M1597.19 1502.5L1588.72 1515M1588.72 1515L1726.61 1607.5M1588.72 1515L1580.59 1527M1726.61 1607.5L1718.47 1619.5M1718.47 1619.5L1580.59 1527M1718.47 1619.5L1709.67 1632.5M1580.59 1527L1571.78 1540M1571.78 1540L1709.67 1632.5M1571.78 1540L1563.31 1552.5M1709.67 1632.5L1700.86 1645.5M1700.86 1645.5L1563.31 1552.5M1700.86 1645.5L1693 1657.1M1563.31 1552.5L1555 1564.77M1555 1564.77L1693 1657.1M1555 1564.77L1546.5 1577.31M1693 1657.1L1684.93 1669M1684.93 1669L1546.5 1577.31M1684.93 1669L1677 1680.71M1546.5 1577.31L1538.92 1588.5M1538.92 1588.5L1677 1680.71M1538.92 1588.5L1529.77 1602M1677 1680.71L1667.66 1694.5M1667.66 1694.5L1529.77 1602M1667.66 1694.5L1658.85 1707.5M1529.77 1602L1521.3 1614.5M1521.3 1614.5L1658.85 1707.5M1521.3 1614.5L1513.17 1626.5M1658.85 1707.5L1650.38 1720M1650.38 1720L1513.17 1626.5M1650.38 1720L1641 1733.84M1513.17 1626.5L1502.83 1641.75M1502.83 1641.75L1641 1733.84" stroke="white" stroke-width="5"/>
<path d="M1491.5 1277H1750L1632.09 1451M1492.5 1953V1657L1502.83 1641.75M1492.5 1953V2150H1722L1823.5 1464.5L1770.31 1543M1492.5 1953L1641 1733.84M1770.31 1543L1632.09 1451M1770.31 1543L1761.5 1556M1632.09 1451L1622.94 1464.5M1622.94 1464.5L1761.5 1556M1622.94 1464.5L1614 1477.7M1761.5 1556L1752.69 1569M1752.69 1569L1614 1477.7M1752.69 1569L1743.88 1582M1614 1477.7L1606 1489.5M1606 1489.5L1743.88 1582M1606 1489.5L1597.19 1502.5M1743.88 1582L1735.41 1594.5M1735.41 1594.5L1597.19 1502.5M1735.41 1594.5L1726.61 1607.5M1597.19 1502.5L1588.72 1515M1588.72 1515L1726.61 1607.5M1588.72 1515L1580.59 1527M1726.61 1607.5L1718.47 1619.5M1718.47 1619.5L1580.59 1527M1718.47 1619.5L1709.67 1632.5M1580.59 1527L1571.78 1540M1571.78 1540L1709.67 1632.5M1571.78 1540L1563.31 1552.5M1709.67 1632.5L1700.86 1645.5M1700.86 1645.5L1563.31 1552.5M1700.86 1645.5L1693 1657.1M1563.31 1552.5L1555 1564.77M1555 1564.77L1693 1657.1M1555 1564.77L1546.5 1577.31M1693 1657.1L1684.93 1669M1684.93 1669L1546.5 1577.31M1684.93 1669L1677 1680.71M1546.5 1577.31L1538.92 1588.5M1538.92 1588.5L1677 1680.71M1538.92 1588.5L1529.77 1602M1677 1680.71L1667.66 1694.5M1667.66 1694.5L1529.77 1602M1667.66 1694.5L1658.85 1707.5M1529.77 1602L1521.3 1614.5M1521.3 1614.5L1658.85 1707.5M1521.3 1614.5L1513.17 1626.5M1658.85 1707.5L1650.38 1720M1650.38 1720L1513.17 1626.5M1650.38 1720L1641 1733.84M1513.17 1626.5L1502.83 1641.75M1502.83 1641.75L1641 1733.84" stroke="white" stroke-width="5"/>
<path d="M1449.5 859.5H1501C1501 859.5 1502 878.726 1487.5 891.5C1473 904.274 1449.5 903 1449.5 903" stroke="white" stroke-width="5"/>
<path d="M1449 954H1500.5C1500.5 954 1501.5 973.226 1487 986C1472.5 998.774 1449 997.5 1449 997.5" stroke="white" stroke-width="5"/>
<path d="M1449 948.535H1500.5C1500.5 948.535 1501.5 929.309 1487 916.535C1472.5 903.761 1449 905.035 1449 905.035" stroke="white" stroke-width="5"/>
<path d="M1449 1043.54H1500.5C1500.5 1043.54 1501.5 1024.31 1487 1011.54C1472.5 998.761 1449 1000.04 1449 1000.04" stroke="white" stroke-width="5"/>
<path d="M1449.5 859.5H1501C1501 859.5 1502 878.726 1487.5 891.5C1473 904.274 1449.5 903 1449.5 903" stroke="white" stroke-width="5"/>
<path d="M1449 954H1500.5C1500.5 954 1501.5 973.226 1487 986C1472.5 998.774 1449 997.5 1449 997.5" stroke="white" stroke-width="5"/>
<path d="M1449 948.535H1500.5C1500.5 948.535 1501.5 929.309 1487 916.535C1472.5 903.761 1449 905.035 1449 905.035" stroke="white" stroke-width="5"/>
<path d="M1449 1043.54H1500.5C1500.5 1043.54 1501.5 1024.31 1487 1011.54C1472.5 998.761 1449 1000.04 1449 1000.04" stroke="white" stroke-width="5"/>
<path d="M1443.5 2203H1495C1495 2203 1496 2222.23 1481.5 2235C1467 2247.77 1443.5 2246.5 1443.5 2246.5" stroke="white" stroke-width="5"/>
<path d="M1443 2297.5H1494.5C1494.5 2297.5 1495.5 2316.73 1481 2329.5C1466.5 2342.27 1443 2341 1443 2341" stroke="white" stroke-width="5"/>
<path d="M1443 2292.04H1494.5C1494.5 2292.04 1495.5 2272.81 1481 2260.04C1466.5 2247.26 1443 2248.54 1443 2248.54" stroke="white" stroke-width="5"/>
<path d="M1443 2387.04H1494.5C1494.5 2387.04 1495.5 2367.81 1481 2355.04C1466.5 2342.26 1443 2343.54 1443 2343.54" stroke="white" stroke-width="5"/>
<path d="M1443.5 2203H1495C1495 2203 1496 2222.23 1481.5 2235C1467 2247.77 1443.5 2246.5 1443.5 2246.5" stroke="white" stroke-width="5"/>
<path d="M1443 2297.5H1494.5C1494.5 2297.5 1495.5 2316.73 1481 2329.5C1466.5 2342.27 1443 2341 1443 2341" stroke="white" stroke-width="5"/>
<path d="M1443 2292.04H1494.5C1494.5 2292.04 1495.5 2272.81 1481 2260.04C1466.5 2247.26 1443 2248.54 1443 2248.54" stroke="white" stroke-width="5"/>
<path d="M1443 2387.04H1494.5C1494.5 2387.04 1495.5 2367.81 1481 2355.04C1466.5 2342.26 1443 2343.54 1443 2343.54" stroke="white" stroke-width="5"/>
<path d="M302.3 413V411.25L309.475 409.5C314.258 408.45 316.65 405.533 316.65 400.75V301H301.775C297.458 301 294.367 302.167 292.5 304.5C290.633 306.717 288.65 309.808 286.55 313.775L280.25 326.025H278.5L279.375 297.5H380.35L381.05 326.025H379.3L373 313.775C371.017 309.808 369.092 306.717 367.225 304.5C365.358 302.167 362.267 301 357.95 301H343.075V400.75C343.075 405.533 345.467 408.45 350.25 409.5L357.425 411.25V413H302.3ZM419.162 415.625C410.295 415.625 402.595 413.817 396.062 410.2C389.528 406.467 384.453 401.217 380.837 394.45C377.337 387.683 375.587 379.75 375.587 370.65C375.587 361.55 377.453 353.675 381.187 347.025C385.037 340.375 390.228 335.242 396.762 331.625C403.412 328.008 410.878 326.2 419.162 326.2C427.445 326.2 434.853 328.008 441.387 331.625C447.92 335.125 453.053 340.2 456.787 346.85C460.637 353.5 462.562 361.433 462.562 370.65C462.562 379.867 460.753 387.858 457.137 394.625C453.637 401.275 448.62 406.467 442.087 410.2C435.67 413.817 428.028 415.625 419.162 415.625ZM419.162 412.125C423.245 412.125 426.512 410.958 428.962 408.625C431.412 406.292 433.162 402.15 434.212 396.2C435.378 390.25 435.962 381.85 435.962 371C435.962 360.033 435.378 351.575 434.212 345.625C433.162 339.675 431.412 335.533 428.962 333.2C426.512 330.867 423.245 329.7 419.162 329.7C415.078 329.7 411.753 330.867 409.187 333.2C406.737 335.533 404.928 339.675 403.762 345.625C402.712 351.575 402.187 360.033 402.187 371C402.187 381.85 402.712 390.25 403.762 396.2C404.928 402.15 406.737 406.292 409.187 408.625C411.753 410.958 415.078 412.125 419.162 412.125ZM470.248 413V411.25L472.873 410.55C475.206 409.85 476.781 408.8 477.598 407.4C478.531 406 478.998 404.192 478.998 401.975V347.2C478.998 344.633 478.531 342.767 477.598 341.6C476.781 340.317 475.206 339.442 472.873 338.975L470.248 338.275V336.525L500.348 326.375L502.098 328.125L503.673 343.175V344.575C505.306 341.308 507.406 338.333 509.973 335.65C512.656 332.85 515.573 330.575 518.723 328.825C521.99 327.075 525.198 326.2 528.348 326.2C532.781 326.2 536.165 327.425 538.498 329.875C540.831 332.325 541.998 335.417 541.998 339.15C541.998 343.117 540.831 346.208 538.498 348.425C536.281 350.525 533.598 351.575 530.448 351.575C525.548 351.575 521.231 349.125 517.498 344.225L517.148 343.875C515.981 342.242 514.64 341.367 513.123 341.25C511.606 341.017 510.206 341.717 508.923 343.35C507.756 344.4 506.765 345.683 505.948 347.2C505.248 348.6 504.548 350.233 503.848 352.1V400.925C503.848 405.592 505.89 408.508 509.973 409.675L515.573 411.25V413H470.248ZM576.06 415.625C570.343 415.625 565.21 414.925 560.66 413.525C556.11 412.242 551.91 410.608 548.06 408.625L548.235 387.8H549.985L555.935 398.3C558.502 402.967 561.302 406.467 564.335 408.8C567.485 411.017 571.452 412.125 576.235 412.125C581.835 412.125 586.327 410.9 589.71 408.45C593.21 405.883 594.96 402.5 594.96 398.3C594.96 394.45 593.735 391.3 591.285 388.85C588.835 386.4 584.285 384.183 577.635 382.2L570.285 379.925C563.168 377.825 557.568 374.558 553.485 370.125C549.402 365.692 547.36 360.267 547.36 353.85C547.36 346.15 550.393 339.617 556.46 334.25C562.527 328.883 571.218 326.2 582.535 326.2C587.085 326.2 591.343 326.725 595.31 327.775C599.393 328.708 603.302 330.167 607.035 332.15L605.985 351.05H604.235L598.11 340.2C595.893 336.35 593.677 333.667 591.46 332.15C589.36 330.517 586.152 329.7 581.835 329.7C577.868 329.7 574.135 330.808 570.635 333.025C567.135 335.242 565.385 338.392 565.385 342.475C565.385 346.442 566.843 349.592 569.76 351.925C572.793 354.258 577.227 356.417 583.06 358.4L590.935 360.675C599.335 363.242 605.343 366.8 608.96 371.35C612.577 375.783 614.385 381.15 614.385 387.45C614.385 395.967 611.002 402.792 604.235 407.925C597.585 413.058 588.193 415.625 576.06 415.625ZM659.106 415.625C652.223 415.625 646.039 414.108 640.556 411.075C635.073 407.925 630.698 403.142 627.431 396.725C624.281 390.192 622.706 381.85 622.706 371.7C622.706 361.433 624.514 352.975 628.131 346.325C631.748 339.558 636.531 334.542 642.481 331.275C648.431 327.892 654.906 326.2 661.906 326.2C665.989 326.2 669.898 326.608 673.631 327.425C677.364 328.242 680.689 329.467 683.606 331.1V308.35C683.606 305.9 683.198 304.092 682.381 302.925C681.681 301.758 680.106 300.942 677.656 300.475L674.331 299.775V298.025L706.181 290.325L708.106 291.9L707.406 316.4V401.975C707.406 404.308 707.814 406.233 708.631 407.75C709.448 409.15 710.964 410.142 713.181 410.725L714.756 411.25V413L684.831 414.925L683.256 408.625C680.106 410.725 676.489 412.417 672.406 413.7C668.439 414.983 664.006 415.625 659.106 415.625ZM669.256 409.15C674.156 409.15 678.648 407.692 682.731 404.775V335.3C678.414 332.5 673.981 331.1 669.431 331.1C663.831 331.1 659.048 334.367 655.081 340.9C651.114 347.317 649.131 357.467 649.131 371.35C649.131 385.233 650.998 395.033 654.731 400.75C658.464 406.35 663.306 409.15 669.256 409.15ZM746.335 415.625C739.568 415.625 733.852 413.7 729.185 409.85C724.635 406 722.36 400.458 722.36 393.225C722.36 387.742 725.16 382.725 730.76 378.175C736.36 373.508 745.168 370.008 757.185 367.675C759.052 367.325 761.152 366.975 763.485 366.625C765.818 366.158 768.268 365.692 770.835 365.225V351.4C770.835 343.467 769.843 337.925 767.86 334.775C765.993 331.508 763.018 329.875 758.935 329.875C756.135 329.875 753.918 330.808 752.285 332.675C750.652 334.425 749.602 337.517 749.135 341.95L748.785 343.875C748.552 348.892 747.327 352.567 745.11 354.9C742.893 357.233 740.152 358.4 736.885 358.4C733.852 358.4 731.343 357.467 729.36 355.6C727.377 353.733 726.385 351.225 726.385 348.075C726.385 343.292 728.018 339.267 731.285 336C734.668 332.733 739.102 330.283 744.585 328.65C750.068 327.017 756.018 326.2 762.435 326.2C772.818 326.2 780.81 328.767 786.41 333.9C792.127 338.917 794.985 347.142 794.985 358.575V397.25C794.985 402.5 797.435 405.125 802.335 405.125H806.185L807.76 406.525C805.543 409.325 803.093 411.483 800.41 413C797.843 414.517 794.168 415.275 789.385 415.275C784.252 415.275 780.168 414.108 777.135 411.775C774.218 409.325 772.293 406.117 771.36 402.15C767.86 405.883 764.243 409.092 760.51 411.775C756.893 414.342 752.168 415.625 746.335 415.625ZM757.01 404.95C759.343 404.95 761.502 404.425 763.485 403.375C765.585 402.208 768.035 400.458 770.835 398.125V368.725C769.668 368.958 768.502 369.192 767.335 369.425C766.168 369.658 764.827 369.892 763.31 370.125C757.943 371.525 753.627 373.917 750.36 377.3C747.21 380.567 745.635 385 745.635 390.6C745.635 395.383 746.743 399 748.96 401.45C751.177 403.783 753.86 404.95 757.01 404.95ZM848.315 382.725C840.265 382.725 833.44 381.383 827.84 378.7V384.65C827.84 388.267 829.648 390.425 833.265 391.125L866.165 397.25C871.648 398.3 876.607 399.7 881.04 401.45C885.473 403.083 889.032 405.475 891.715 408.625C894.398 411.658 895.74 415.858 895.74 421.225C895.74 426.942 893.873 432.192 890.14 436.975C886.407 441.875 880.865 445.783 873.515 448.7C866.282 451.733 857.24 453.25 846.39 453.25C837.057 453.25 829.648 452.258 824.165 450.275C818.682 448.408 814.773 445.958 812.44 442.925C810.223 439.892 809.115 436.683 809.115 433.3C809.115 429.1 810.515 424.842 813.315 420.525C816.232 416.325 819.79 412.942 823.99 410.375C820.373 408.975 817.748 407.167 816.115 404.95C814.482 402.733 813.665 400.342 813.665 397.775C813.665 395.442 814.248 393.283 815.415 391.3C816.698 389.2 818.215 387.1 819.965 385L825.74 377.65C817.223 372.75 812.965 365.05 812.965 354.55C812.965 346.15 815.94 339.325 821.89 334.075C827.957 328.825 836.823 326.2 848.49 326.2C854.44 326.2 859.632 326.9 864.065 328.3C868.615 329.7 872.348 331.683 875.265 334.25C878.998 333.667 882.498 332.733 885.765 331.45C889.148 330.05 892.182 328.183 894.865 325.85L897.315 327.6V336.525H877.54C881.74 341.192 883.84 347.2 883.84 354.55C883.84 362.717 880.807 369.483 874.74 374.85C868.79 380.1 859.982 382.725 848.315 382.725ZM848.14 379.225C852.807 379.225 856.19 377.3 858.29 373.45C860.507 369.6 861.615 363.183 861.615 354.2C861.615 345.217 860.507 338.917 858.29 335.3C856.19 331.567 852.923 329.7 848.49 329.7C844.173 329.7 840.907 331.625 838.69 335.475C836.473 339.208 835.365 345.567 835.365 354.55C835.365 363.533 836.357 369.892 838.34 373.625C840.44 377.358 843.707 379.225 848.14 379.225ZM822.065 427.7C822.065 434.583 824.165 439.775 828.365 443.275C832.682 446.775 839.448 448.525 848.665 448.525C858.348 448.525 865.64 446.95 870.54 443.8C875.44 440.65 877.89 436.217 877.89 430.5C877.89 427.233 876.665 424.608 874.215 422.625C871.882 420.642 867.857 419.125 862.14 418.075L830.465 412.125C829.532 411.892 828.598 411.658 827.665 411.425C826.032 413.758 824.69 416.383 823.64 419.3C822.59 422.333 822.065 425.133 822.065 427.7Z" fill="white"/>
<path d="M42 41H2723V39H42V41ZM2724 42V2978H2726V42H2724ZM2723 2979H42V2981H2723V2979ZM41 2978V42H39V2978H41ZM42 2979C41.4477 2979 41 2978.55 41 2978H39C39 2979.66 40.3431 2981 42 2981V2979ZM2724 2978C2724 2978.55 2723.55 2979 2723 2979V2981C2724.66 2981 2726 2979.66 2726 2978H2724ZM2723 41C2723.55 41 2724 41.4477 2724 42H2726C2726 40.3431 2724.66 39 2723 39V41ZM42 39C40.3432 39 39 40.3431 39 42H41C41 41.4477 41.4477 41 42 41V39Z" fill="white" fill-opacity="0.1"/>
</svg>
