<svg width="100%" height="100%" viewBox="0 0 2765 3020" fill="none" xmlns="http://www.w3.org/2000/svg">
<path d="M40 42C40 40.8954 40.8954 40 42 40H2723C2724.1 40 2725 40.8954 2725 42V2978C2725 2979.1 2724.1 2980 2723 2980H42C40.8954 2980 40 2979.1 40 2978V42Z" fill="#33020C"/>
<path d="M1447.5 851.5H296V1065.5H270.5V2177.5H294V2393.5H1445.5V2901.5H2032L2411 351H1898.5L1447.5 851.5Z" stroke="white" stroke-width="5"/>
<path d="M1447.5 851.5H296V1065.5H270.5V2177.5H294V2393.5H1445.5V2901.5H2032L2411 351H1898.5L1447.5 851.5Z" stroke="white" stroke-width="5"/>
<rect x="573" y="878" width="153" height="162" fill="white" fill-opacity="0.4"/>
<rect x="573" y="1388" width="153" height="162" fill="white" fill-opacity="0.4"/>
<rect x="573" y="1898" width="153" height="162" fill="white" fill-opacity="0.4"/>
<rect x="726" y="1388" width="153" height="162" transform="rotate(-180 726 1388)" fill="white" fill-opacity="0.4"/>
<rect x="726" y="1898" width="153" height="162" transform="rotate(-180 726 1898)" fill="white" fill-opacity="0.4"/>
<rect x="726" y="878" width="153" height="162" fill="white" fill-opacity="0.4"/>
<rect x="726" y="1388" width="153" height="162" fill="white" fill-opacity="0.4"/>
<rect x="726" y="1898" width="153" height="162" fill="white" fill-opacity="0.4"/>
<rect x="879" y="1388" width="153" height="162" transform="rotate(-180 879 1388)" fill="white" fill-opacity="0.4"/>
<rect x="879" y="1898" width="153" height="162" transform="rotate(-180 879 1898)" fill="white" fill-opacity="0.4"/>
<rect x="879" y="878" width="153" height="162" fill="white" fill-opacity="0.4"/>
<rect x="879" y="1388" width="153" height="162" fill="white" fill-opacity="0.4"/>
<rect x="879" y="1898" width="153" height="162" fill="white" fill-opacity="0.4"/>
<rect x="1032" y="1388" width="153" height="162" transform="rotate(-180 1032 1388)" fill="white" fill-opacity="0.4"/>
<rect x="1032" y="1898" width="153" height="162" transform="rotate(-180 1032 1898)" fill="white" fill-opacity="0.4"/>
<rect x="1032" y="878" width="153" height="162" fill="white" fill-opacity="0.4"/>
<rect x="1032" y="1388" width="153" height="162" fill="white" fill-opacity="0.4"/>
<rect x="1032" y="1898" width="153" height="162" fill="white" fill-opacity="0.4"/>
<rect x="1185" y="1388" width="153" height="162" transform="rotate(-180 1185 1388)" fill="white" fill-opacity="0.4"/>
<rect x="1185" y="1898" width="153" height="162" transform="rotate(-180 1185 1898)" fill="white" fill-opacity="0.4"/>
<rect x="275" y="1336" width="256" height="162" transform="rotate(-90 275 1336)" fill="white" fill-opacity="0.4"/>
<rect x="275" y="1592" width="256" height="162" transform="rotate(-90 275 1592)" fill="white" fill-opacity="0.4"/>
<rect x="275" y="1848" width="256" height="162" transform="rotate(-90 275 1848)" fill="white" fill-opacity="0.4"/>
<rect x="275" y="2154" width="153" height="162" transform="rotate(-90 275 2154)" fill="white" fill-opacity="0.4"/>
<rect x="275" y="2001" width="153" height="162" transform="rotate(-90 275 2001)" fill="#C7B374"/>
<rect x="1489" y="1898" width="256" height="162" transform="rotate(90 1489 1898)" fill="white" fill-opacity="0.4"/>
<rect x="1489" y="1642" width="256" height="162" transform="rotate(90 1489 1642)" fill="white" fill-opacity="0.4"/>
<rect x="1489" y="1386" width="256" height="162" transform="rotate(90 1489 1386)" fill="white" fill-opacity="0.4"/>
<rect x="1489" y="1233" width="153" height="162" transform="rotate(90 1489 1233)" fill="white" fill-opacity="0.4"/>
<path d="M2203.5 682H2358L2324.5 932H2169.5L2203.5 682Z" fill="white" fill-opacity="0.4"/>
<path d="M2168 932H2322.5L2289 1182H2134L2168 932Z" fill="white" fill-opacity="0.4"/>
<path d="M2135 1182H2289.5L2256 1432H2101L2135 1182Z" fill="white" fill-opacity="0.4"/>
<path d="M2034 1852H2188.5L2155 2102H2000L2034 1852Z" fill="white" fill-opacity="0.4"/>
<path d="M1992 2102H2146.5L2113 2352H1958L1992 2102Z" fill="white" fill-opacity="0.4"/>
<path d="M1957 2353H2111.5L2078 2603H1923L1957 2353Z" fill="white" fill-opacity="0.4"/>
<path d="M1919 2603H2073.5L2040 2853H1885L1919 2603Z" fill="white" fill-opacity="0.4"/>
<path d="M1903 529V354H2155V529H1903Z" fill="white" fill-opacity="0.4"/>
<path d="M2154.5 354H2409.5L2385.5 530H2154.5V354Z" fill="white" fill-opacity="0.4"/>
<path d="M1450.5 851.5V1059H1491.5V2189H1443V2394.5" stroke="white" stroke-width="5"/>
<path d="M1450.5 851.5V1059H1491.5V2189H1443V2394.5" stroke="white" stroke-width="5"/>
<path d="M1491.5 1277H1750L1632.09 1451M1492.5 1953V1657L1502.83 1641.75M1492.5 1953V2150H1722L1823.5 1464.5L1770.31 1543M1492.5 1953L1641 1733.84M1770.31 1543L1632.09 1451M1770.31 1543L1761.5 1556M1632.09 1451L1622.94 1464.5M1622.94 1464.5L1761.5 1556M1622.94 1464.5L1614 1477.7M1761.5 1556L1752.69 1569M1752.69 1569L1614 1477.7M1752.69 1569L1743.88 1582M1614 1477.7L1606 1489.5M1606 1489.5L1743.88 1582M1606 1489.5L1597.19 1502.5M1743.88 1582L1735.41 1594.5M1735.41 1594.5L1597.19 1502.5M1735.41 1594.5L1726.61 1607.5M1597.19 1502.5L1588.72 1515M1588.72 1515L1726.61 1607.5M1588.72 1515L1580.59 1527M1726.61 1607.5L1718.47 1619.5M1718.47 1619.5L1580.59 1527M1718.47 1619.5L1709.67 1632.5M1580.59 1527L1571.78 1540M1571.78 1540L1709.67 1632.5M1571.78 1540L1563.31 1552.5M1709.67 1632.5L1700.86 1645.5M1700.86 1645.5L1563.31 1552.5M1700.86 1645.5L1693 1657.1M1563.31 1552.5L1555 1564.77M1555 1564.77L1693 1657.1M1555 1564.77L1546.5 1577.31M1693 1657.1L1684.93 1669M1684.93 1669L1546.5 1577.31M1684.93 1669L1677 1680.71M1546.5 1577.31L1538.92 1588.5M1538.92 1588.5L1677 1680.71M1538.92 1588.5L1529.77 1602M1677 1680.71L1667.66 1694.5M1667.66 1694.5L1529.77 1602M1667.66 1694.5L1658.85 1707.5M1529.77 1602L1521.3 1614.5M1521.3 1614.5L1658.85 1707.5M1521.3 1614.5L1513.17 1626.5M1658.85 1707.5L1650.38 1720M1650.38 1720L1513.17 1626.5M1650.38 1720L1641 1733.84M1513.17 1626.5L1502.83 1641.75M1502.83 1641.75L1641 1733.84" stroke="white" stroke-width="5"/>
<path d="M1491.5 1277H1750L1632.09 1451M1492.5 1953V1657L1502.83 1641.75M1492.5 1953V2150H1722L1823.5 1464.5L1770.31 1543M1492.5 1953L1641 1733.84M1770.31 1543L1632.09 1451M1770.31 1543L1761.5 1556M1632.09 1451L1622.94 1464.5M1622.94 1464.5L1761.5 1556M1622.94 1464.5L1614 1477.7M1761.5 1556L1752.69 1569M1752.69 1569L1614 1477.7M1752.69 1569L1743.88 1582M1614 1477.7L1606 1489.5M1606 1489.5L1743.88 1582M1606 1489.5L1597.19 1502.5M1743.88 1582L1735.41 1594.5M1735.41 1594.5L1597.19 1502.5M1735.41 1594.5L1726.61 1607.5M1597.19 1502.5L1588.72 1515M1588.72 1515L1726.61 1607.5M1588.72 1515L1580.59 1527M1726.61 1607.5L1718.47 1619.5M1718.47 1619.5L1580.59 1527M1718.47 1619.5L1709.67 1632.5M1580.59 1527L1571.78 1540M1571.78 1540L1709.67 1632.5M1571.78 1540L1563.31 1552.5M1709.67 1632.5L1700.86 1645.5M1700.86 1645.5L1563.31 1552.5M1700.86 1645.5L1693 1657.1M1563.31 1552.5L1555 1564.77M1555 1564.77L1693 1657.1M1555 1564.77L1546.5 1577.31M1693 1657.1L1684.93 1669M1684.93 1669L1546.5 1577.31M1684.93 1669L1677 1680.71M1546.5 1577.31L1538.92 1588.5M1538.92 1588.5L1677 1680.71M1538.92 1588.5L1529.77 1602M1677 1680.71L1667.66 1694.5M1667.66 1694.5L1529.77 1602M1667.66 1694.5L1658.85 1707.5M1529.77 1602L1521.3 1614.5M1521.3 1614.5L1658.85 1707.5M1521.3 1614.5L1513.17 1626.5M1658.85 1707.5L1650.38 1720M1650.38 1720L1513.17 1626.5M1650.38 1720L1641 1733.84M1513.17 1626.5L1502.83 1641.75M1502.83 1641.75L1641 1733.84" stroke="white" stroke-width="5"/>
<path d="M1449.5 859.5H1501C1501 859.5 1502 878.726 1487.5 891.5C1473 904.274 1449.5 903 1449.5 903" stroke="white" stroke-width="5"/>
<path d="M1449 954H1500.5C1500.5 954 1501.5 973.226 1487 986C1472.5 998.774 1449 997.5 1449 997.5" stroke="white" stroke-width="5"/>
<path d="M1449 948.535H1500.5C1500.5 948.535 1501.5 929.309 1487 916.535C1472.5 903.761 1449 905.035 1449 905.035" stroke="white" stroke-width="5"/>
<path d="M1449 1043.54H1500.5C1500.5 1043.54 1501.5 1024.31 1487 1011.54C1472.5 998.761 1449 1000.04 1449 1000.04" stroke="white" stroke-width="5"/>
<path d="M1449.5 859.5H1501C1501 859.5 1502 878.726 1487.5 891.5C1473 904.274 1449.5 903 1449.5 903" stroke="white" stroke-width="5"/>
<path d="M1449 954H1500.5C1500.5 954 1501.5 973.226 1487 986C1472.5 998.774 1449 997.5 1449 997.5" stroke="white" stroke-width="5"/>
<path d="M1449 948.535H1500.5C1500.5 948.535 1501.5 929.309 1487 916.535C1472.5 903.761 1449 905.035 1449 905.035" stroke="white" stroke-width="5"/>
<path d="M1449 1043.54H1500.5C1500.5 1043.54 1501.5 1024.31 1487 1011.54C1472.5 998.761 1449 1000.04 1449 1000.04" stroke="white" stroke-width="5"/>
<path d="M1443.5 2203H1495C1495 2203 1496 2222.23 1481.5 2235C1467 2247.77 1443.5 2246.5 1443.5 2246.5" stroke="white" stroke-width="5"/>
<path d="M1443 2297.5H1494.5C1494.5 2297.5 1495.5 2316.73 1481 2329.5C1466.5 2342.27 1443 2341 1443 2341" stroke="white" stroke-width="5"/>
<path d="M1443 2292.04H1494.5C1494.5 2292.04 1495.5 2272.81 1481 2260.04C1466.5 2247.26 1443 2248.54 1443 2248.54" stroke="white" stroke-width="5"/>
<path d="M1443 2387.04H1494.5C1494.5 2387.04 1495.5 2367.81 1481 2355.04C1466.5 2342.26 1443 2343.54 1443 2343.54" stroke="white" stroke-width="5"/>
<path d="M1443.5 2203H1495C1495 2203 1496 2222.23 1481.5 2235C1467 2247.77 1443.5 2246.5 1443.5 2246.5" stroke="white" stroke-width="5"/>
<path d="M1443 2297.5H1494.5C1494.5 2297.5 1495.5 2316.73 1481 2329.5C1466.5 2342.27 1443 2341 1443 2341" stroke="white" stroke-width="5"/>
<path d="M1443 2292.04H1494.5C1494.5 2292.04 1495.5 2272.81 1481 2260.04C1466.5 2247.26 1443 2248.54 1443 2248.54" stroke="white" stroke-width="5"/>
<path d="M1443 2387.04H1494.5C1494.5 2387.04 1495.5 2367.81 1481 2355.04C1466.5 2342.26 1443 2343.54 1443 2343.54" stroke="white" stroke-width="5"/>
<path d="M1104 2393H997V2295H1104V2393Z" fill="white" fill-opacity="0.4"/>
<path d="M278.85 439V437.25L282 436.2C284.333 435.383 285.908 434.275 286.725 432.875C287.542 431.475 287.95 429.608 287.95 427.275C288.067 420.275 288.125 413.217 288.125 406.1C288.125 398.983 288.125 391.867 288.125 384.75V377.75C288.125 370.75 288.125 363.75 288.125 356.75C288.125 349.633 288.067 342.575 287.95 335.575C287.95 333.242 287.6 331.375 286.9 329.975C286.317 328.575 284.917 327.467 282.7 326.65L278.85 325.25V323.5H363.55L364.775 352.55H363.025L353.05 334.175C351.883 331.958 350.542 330.208 349.025 328.925C347.508 327.642 345.408 327 342.725 327H314.55C314.433 335.283 314.375 343.742 314.375 352.375C314.375 361.008 314.375 369.583 314.375 378.1H332.575C335.258 378.1 337.242 377.517 338.525 376.35C339.808 375.183 341.033 373.492 342.2 371.275L345.875 364.625H347.625V395.25H345.875L342.025 388.6C340.858 386.5 339.633 384.808 338.35 383.525C337.183 382.242 335.258 381.6 332.575 381.6H314.375C314.375 389.767 314.375 397.583 314.375 405.05C314.375 412.4 314.433 419.633 314.55 426.75C314.55 431.3 316.767 434.275 321.2 435.675L326.45 437.25V439H278.85ZM367.196 439V437.25L369.821 436.55C372.155 435.85 373.73 434.8 374.546 433.4C375.48 432 375.946 430.192 375.946 427.975V373.2C375.946 370.633 375.48 368.767 374.546 367.6C373.73 366.317 372.155 365.442 369.821 364.975L367.196 364.275V362.525L397.296 352.375L399.046 354.125L400.621 369.175V370.575C402.255 367.308 404.355 364.333 406.921 361.65C409.605 358.85 412.521 356.575 415.671 354.825C418.938 353.075 422.146 352.2 425.296 352.2C429.73 352.2 433.113 353.425 435.446 355.875C437.78 358.325 438.946 361.417 438.946 365.15C438.946 369.117 437.78 372.208 435.446 374.425C433.23 376.525 430.546 377.575 427.396 377.575C422.496 377.575 418.18 375.125 414.446 370.225L414.096 369.875C412.93 368.242 411.588 367.367 410.071 367.25C408.555 367.017 407.155 367.717 405.871 369.35C404.705 370.4 403.713 371.683 402.896 373.2C402.196 374.6 401.496 376.233 400.796 378.1V426.925C400.796 431.592 402.838 434.508 406.921 435.675L412.521 437.25V439H367.196ZM485.633 352.2C493.216 352.2 499.691 353.775 505.058 356.925C510.425 359.958 514.508 364.158 517.308 369.525C520.225 374.775 521.683 380.783 521.683 387.55C521.683 388.833 521.625 390.175 521.508 391.575C521.391 392.858 521.158 394.025 520.808 395.075H468.658C468.775 407.675 470.991 416.775 475.308 422.375C479.741 427.858 486.275 430.6 494.908 430.6C500.741 430.6 505.466 429.667 509.083 427.8C512.7 425.933 516.083 423.192 519.233 419.575L520.983 421.15C517.366 427.567 512.525 432.583 506.458 436.2C500.508 439.817 493.333 441.625 484.933 441.625C476.65 441.625 469.3 439.875 462.883 436.375C456.466 432.758 451.45 427.625 447.833 420.975C444.216 414.325 442.408 406.392 442.408 397.175C442.408 387.608 444.508 379.5 448.708 372.85C452.908 366.083 458.275 360.95 464.808 357.45C471.458 353.95 478.4 352.2 485.633 352.2ZM485.108 355.7C481.725 355.7 478.808 356.75 476.358 358.85C474.025 360.833 472.158 364.45 470.758 369.7C469.475 374.833 468.775 382.125 468.658 391.575H498.583C499.75 378.858 499.283 369.7 497.183 364.1C495.083 358.5 491.058 355.7 485.108 355.7ZM567.504 441.625C560.621 441.625 554.438 440.108 548.954 437.075C543.471 433.925 539.096 429.142 535.829 422.725C532.679 416.192 531.104 407.85 531.104 397.7C531.104 387.433 532.913 378.975 536.529 372.325C540.146 365.558 544.929 360.542 550.879 357.275C556.829 353.892 563.304 352.2 570.304 352.2C574.388 352.2 578.296 352.608 582.029 353.425C585.763 354.242 589.088 355.467 592.004 357.1V334.35C592.004 331.9 591.596 330.092 590.779 328.925C590.079 327.758 588.504 326.942 586.054 326.475L582.729 325.775V324.025L614.579 316.325L616.504 317.9L615.804 342.4V427.975C615.804 430.308 616.213 432.233 617.029 433.75C617.846 435.15 619.363 436.142 621.579 436.725L623.154 437.25V439L593.229 440.925L591.654 434.625C588.504 436.725 584.888 438.417 580.804 439.7C576.838 440.983 572.404 441.625 567.504 441.625ZM577.654 435.15C582.554 435.15 587.046 433.692 591.129 430.775V361.3C586.813 358.5 582.379 357.1 577.829 357.1C572.229 357.1 567.446 360.367 563.479 366.9C559.513 373.317 557.529 383.467 557.529 397.35C557.529 411.233 559.396 421.033 563.129 426.75C566.863 432.35 571.704 435.15 577.654 435.15ZM654.734 441.625C647.967 441.625 642.25 439.7 637.584 435.85C633.034 432 630.759 426.458 630.759 419.225C630.759 413.742 633.559 408.725 639.159 404.175C644.759 399.508 653.567 396.008 665.584 393.675C667.45 393.325 669.55 392.975 671.884 392.625C674.217 392.158 676.667 391.692 679.234 391.225V377.4C679.234 369.467 678.242 363.925 676.259 360.775C674.392 357.508 671.417 355.875 667.334 355.875C664.534 355.875 662.317 356.808 660.684 358.675C659.05 360.425 658 363.517 657.534 367.95L657.184 369.875C656.95 374.892 655.725 378.567 653.509 380.9C651.292 383.233 648.55 384.4 645.284 384.4C642.25 384.4 639.742 383.467 637.759 381.6C635.775 379.733 634.784 377.225 634.784 374.075C634.784 369.292 636.417 365.267 639.684 362C643.067 358.733 647.5 356.283 652.984 354.65C658.467 353.017 664.417 352.2 670.834 352.2C681.217 352.2 689.209 354.767 694.809 359.9C700.525 364.917 703.384 373.142 703.384 384.575V423.25C703.384 428.5 705.834 431.125 710.734 431.125H714.584L716.159 432.525C713.942 435.325 711.492 437.483 708.809 439C706.242 440.517 702.567 441.275 697.784 441.275C692.65 441.275 688.567 440.108 685.534 437.775C682.617 435.325 680.692 432.117 679.759 428.15C676.259 431.883 672.642 435.092 668.909 437.775C665.292 440.342 660.567 441.625 654.734 441.625ZM665.409 430.95C667.742 430.95 669.9 430.425 671.884 429.375C673.984 428.208 676.434 426.458 679.234 424.125V394.725C678.067 394.958 676.9 395.192 675.734 395.425C674.567 395.658 673.225 395.892 671.709 396.125C666.342 397.525 662.025 399.917 658.759 403.3C655.609 406.567 654.034 411 654.034 416.6C654.034 421.383 655.142 425 657.359 427.45C659.575 429.783 662.259 430.95 665.409 430.95ZM756.713 408.725C748.663 408.725 741.838 407.383 736.238 404.7V410.65C736.238 414.267 738.047 416.425 741.663 417.125L774.563 423.25C780.047 424.3 785.005 425.7 789.438 427.45C793.872 429.083 797.43 431.475 800.113 434.625C802.797 437.658 804.138 441.858 804.138 447.225C804.138 452.942 802.272 458.192 798.538 462.975C794.805 467.875 789.263 471.783 781.913 474.7C774.68 477.733 765.638 479.25 754.788 479.25C745.455 479.25 738.047 478.258 732.563 476.275C727.08 474.408 723.172 471.958 720.838 468.925C718.622 465.892 717.513 462.683 717.513 459.3C717.513 455.1 718.913 450.842 721.713 446.525C724.63 442.325 728.188 438.942 732.388 436.375C728.772 434.975 726.147 433.167 724.513 430.95C722.88 428.733 722.063 426.342 722.063 423.775C722.063 421.442 722.647 419.283 723.813 417.3C725.097 415.2 726.613 413.1 728.363 411L734.138 403.65C725.622 398.75 721.363 391.05 721.363 380.55C721.363 372.15 724.338 365.325 730.288 360.075C736.355 354.825 745.222 352.2 756.888 352.2C762.838 352.2 768.03 352.9 772.463 354.3C777.013 355.7 780.747 357.683 783.663 360.25C787.397 359.667 790.897 358.733 794.163 357.45C797.547 356.05 800.58 354.183 803.263 351.85L805.713 353.6V362.525H785.938C790.138 367.192 792.238 373.2 792.238 380.55C792.238 388.717 789.205 395.483 783.138 400.85C777.188 406.1 768.38 408.725 756.713 408.725ZM756.538 405.225C761.205 405.225 764.588 403.3 766.688 399.45C768.905 395.6 770.013 389.183 770.013 380.2C770.013 371.217 768.905 364.917 766.688 361.3C764.588 357.567 761.322 355.7 756.888 355.7C752.572 355.7 749.305 357.625 747.088 361.475C744.872 365.208 743.763 371.567 743.763 380.55C743.763 389.533 744.755 395.892 746.738 399.625C748.838 403.358 752.105 405.225 756.538 405.225ZM730.463 453.7C730.463 460.583 732.563 465.775 736.763 469.275C741.08 472.775 747.847 474.525 757.063 474.525C766.747 474.525 774.038 472.95 778.938 469.8C783.838 466.65 786.288 462.217 786.288 456.5C786.288 453.233 785.063 450.608 782.613 448.625C780.28 446.642 776.255 445.125 770.538 444.075L738.863 438.125C737.93 437.892 736.997 437.658 736.063 437.425C734.43 439.758 733.088 442.383 732.038 445.3C730.988 448.333 730.463 451.133 730.463 453.7Z" fill="white"/>
<path d="M42 41H2723V39H42V41ZM2724 42V2978H2726V42H2724ZM2723 2979H42V2981H2723V2979ZM41 2978V42H39V2978H41ZM42 2979C41.4477 2979 41 2978.55 41 2978H39C39 2979.66 40.3431 2981 42 2981V2979ZM2724 2978C2724 2978.55 2723.55 2979 2723 2979V2981C2724.66 2981 2726 2979.66 2726 2978H2724ZM2723 41C2723.55 41 2724 41.4477 2724 42H2726C2726 40.3431 2724.66 39 2723 39V41ZM42 39C40.3432 39 39 40.3431 39 42H41C41 41.4477 41.4477 41 42 41V39Z" fill="white" fill-opacity="0.1"/>
</svg>
