<svg width="100%" height="100%" viewBox="0 0 2765 3020" fill="none" xmlns="http://www.w3.org/2000/svg">
<path d="M40 42C40 40.8954 40.8954 40 42 40H2723C2724.1 40 2725 40.8954 2725 42V2978C2725 2979.1 2724.1 2980 2723 2980H42C40.8954 2980 40 2979.1 40 2978V42Z" fill="#33020C"/>
<path d="M1447.5 851.5H296V1065.5H270.5V2177.5H294V2393.5H1445.5V2901.5H2032L2411 351H1898.5L1447.5 851.5Z" stroke="white" stroke-width="5"/>
<path d="M1447.5 851.5H296V1065.5H270.5V2177.5H294V2393.5H1445.5V2901.5H2032L2411 351H1898.5L1447.5 851.5Z" stroke="white" stroke-width="5"/>
<rect x="573" y="878" width="153" height="162" fill="white" fill-opacity="0.4"/>
<rect x="275" y="1386" width="256" height="162" transform="rotate(-90 275 1386)" fill="white" fill-opacity="0.4"/>
<rect x="1482" y="1130" width="256" height="162" transform="rotate(90 1482 1130)" fill="white" fill-opacity="0.4"/>
<rect x="275" y="1642" width="256" height="162" transform="rotate(-90 275 1642)" fill="white" fill-opacity="0.4"/>
<rect x="1482" y="1386" width="256" height="162" transform="rotate(90 1482 1386)" fill="white" fill-opacity="0.4"/>
<rect x="275" y="1898" width="256" height="162" transform="rotate(-90 275 1898)" fill="white" fill-opacity="0.4"/>
<rect x="1482" y="1642" width="256" height="162" transform="rotate(90 1482 1642)" fill="white" fill-opacity="0.4"/>
<rect x="275" y="2154" width="256" height="162" transform="rotate(-90 275 2154)" fill="white" fill-opacity="0.4"/>
<rect x="1482" y="1898" width="256" height="162" transform="rotate(90 1482 1898)" fill="white" fill-opacity="0.4"/>
<rect x="573" y="1388" width="153" height="162" fill="white" fill-opacity="0.4"/>
<rect x="573" y="1898" width="153" height="162" fill="white" fill-opacity="0.4"/>
<rect x="726" y="1388" width="153" height="162" transform="rotate(-180 726 1388)" fill="white" fill-opacity="0.4"/>
<rect x="726" y="1898" width="153" height="162" transform="rotate(-180 726 1898)" fill="#C7B374"/>
<rect x="726" y="878" width="153" height="162" fill="white" fill-opacity="0.4"/>
<rect x="726" y="1388" width="153" height="162" fill="white" fill-opacity="0.4"/>
<rect x="726" y="1898" width="153" height="162" fill="white" fill-opacity="0.4"/>
<rect x="879" y="1388" width="153" height="162" transform="rotate(-180 879 1388)" fill="white" fill-opacity="0.4"/>
<rect x="879" y="1898" width="153" height="162" transform="rotate(-180 879 1898)" fill="white" fill-opacity="0.4"/>
<rect x="879" y="878" width="153" height="162" fill="white" fill-opacity="0.4"/>
<rect x="879" y="1388" width="153" height="162" fill="white" fill-opacity="0.4"/>
<rect x="879" y="1898" width="153" height="162" fill="white" fill-opacity="0.4"/>
<rect x="1032" y="1388" width="153" height="162" transform="rotate(-180 1032 1388)" fill="white" fill-opacity="0.4"/>
<rect x="1185" y="1898" width="306" height="162" transform="rotate(-180 1185 1898)" fill="white" fill-opacity="0.4"/>
<rect x="1032" y="878" width="153" height="162" fill="white" fill-opacity="0.4"/>
<rect x="1032" y="1388" width="153" height="162" fill="white" fill-opacity="0.4"/>
<rect x="1032" y="1898" width="153" height="162" fill="white" fill-opacity="0.4"/>
<rect x="1185" y="1388" width="153" height="162" transform="rotate(-180 1185 1388)" fill="white" fill-opacity="0.4"/>
<rect x="877" y="2395" width="153" height="162" transform="rotate(-180 877 2395)" fill="white" fill-opacity="0.4"/>
<rect x="1091" y="2395" width="107" height="98" transform="rotate(-180 1091 2395)" fill="white" fill-opacity="0.4"/>
<path d="M2203.5 682H2358L2324.5 932H2169.5L2203.5 682Z" fill="white" fill-opacity="0.4"/>
<path d="M2168 932H2322.5L2289 1182H2134L2168 932Z" fill="white" fill-opacity="0.4"/>
<path d="M2135 1182H2289.5L2256 1432H2101L2135 1182Z" fill="white" fill-opacity="0.4"/>
<path d="M2034 1852H2188.5L2155 2102H2000L2034 1852Z" fill="white" fill-opacity="0.4"/>
<path d="M1992 2102H2146.5L2113 2352H1958L1992 2102Z" fill="white" fill-opacity="0.4"/>
<path d="M1957 2353H2111.5L2078 2603H1923L1957 2353Z" fill="white" fill-opacity="0.4"/>
<path d="M1919 2603H2073.5L2040 2853H1885L1919 2603Z" fill="white" fill-opacity="0.4"/>
<path d="M1903 529V354H2155V529H1903Z" fill="white" fill-opacity="0.4"/>
<path d="M2154.5 354H2409.5L2385.5 530H2154.5V354Z" fill="white" fill-opacity="0.4"/>
<path d="M1450.5 851.5V1059H1491.5V2189H1443V2394.5" stroke="white" stroke-width="5"/>
<path d="M1450.5 851.5V1059H1491.5V2189H1443V2394.5" stroke="white" stroke-width="5"/>
<path d="M1491.5 1277H1750L1632.09 1451M1492.5 1953V1657L1502.83 1641.75M1492.5 1953V2150H1722L1823.5 1464.5L1770.31 1543M1492.5 1953L1641 1733.84M1770.31 1543L1632.09 1451M1770.31 1543L1761.5 1556M1632.09 1451L1622.94 1464.5M1622.94 1464.5L1761.5 1556M1622.94 1464.5L1614 1477.7M1761.5 1556L1752.69 1569M1752.69 1569L1614 1477.7M1752.69 1569L1743.88 1582M1614 1477.7L1606 1489.5M1606 1489.5L1743.88 1582M1606 1489.5L1597.19 1502.5M1743.88 1582L1735.41 1594.5M1735.41 1594.5L1597.19 1502.5M1735.41 1594.5L1726.61 1607.5M1597.19 1502.5L1588.72 1515M1588.72 1515L1726.61 1607.5M1588.72 1515L1580.59 1527M1726.61 1607.5L1718.47 1619.5M1718.47 1619.5L1580.59 1527M1718.47 1619.5L1709.67 1632.5M1580.59 1527L1571.78 1540M1571.78 1540L1709.67 1632.5M1571.78 1540L1563.31 1552.5M1709.67 1632.5L1700.86 1645.5M1700.86 1645.5L1563.31 1552.5M1700.86 1645.5L1693 1657.1M1563.31 1552.5L1555 1564.77M1555 1564.77L1693 1657.1M1555 1564.77L1546.5 1577.31M1693 1657.1L1684.93 1669M1684.93 1669L1546.5 1577.31M1684.93 1669L1677 1680.71M1546.5 1577.31L1538.92 1588.5M1538.92 1588.5L1677 1680.71M1538.92 1588.5L1529.77 1602M1677 1680.71L1667.66 1694.5M1667.66 1694.5L1529.77 1602M1667.66 1694.5L1658.85 1707.5M1529.77 1602L1521.3 1614.5M1521.3 1614.5L1658.85 1707.5M1521.3 1614.5L1513.17 1626.5M1658.85 1707.5L1650.38 1720M1650.38 1720L1513.17 1626.5M1650.38 1720L1641 1733.84M1513.17 1626.5L1502.83 1641.75M1502.83 1641.75L1641 1733.84" stroke="white" stroke-width="5"/>
<path d="M1491.5 1277H1750L1632.09 1451M1492.5 1953V1657L1502.83 1641.75M1492.5 1953V2150H1722L1823.5 1464.5L1770.31 1543M1492.5 1953L1641 1733.84M1770.31 1543L1632.09 1451M1770.31 1543L1761.5 1556M1632.09 1451L1622.94 1464.5M1622.94 1464.5L1761.5 1556M1622.94 1464.5L1614 1477.7M1761.5 1556L1752.69 1569M1752.69 1569L1614 1477.7M1752.69 1569L1743.88 1582M1614 1477.7L1606 1489.5M1606 1489.5L1743.88 1582M1606 1489.5L1597.19 1502.5M1743.88 1582L1735.41 1594.5M1735.41 1594.5L1597.19 1502.5M1735.41 1594.5L1726.61 1607.5M1597.19 1502.5L1588.72 1515M1588.72 1515L1726.61 1607.5M1588.72 1515L1580.59 1527M1726.61 1607.5L1718.47 1619.5M1718.47 1619.5L1580.59 1527M1718.47 1619.5L1709.67 1632.5M1580.59 1527L1571.78 1540M1571.78 1540L1709.67 1632.5M1571.78 1540L1563.31 1552.5M1709.67 1632.5L1700.86 1645.5M1700.86 1645.5L1563.31 1552.5M1700.86 1645.5L1693 1657.1M1563.31 1552.5L1555 1564.77M1555 1564.77L1693 1657.1M1555 1564.77L1546.5 1577.31M1693 1657.1L1684.93 1669M1684.93 1669L1546.5 1577.31M1684.93 1669L1677 1680.71M1546.5 1577.31L1538.92 1588.5M1538.92 1588.5L1677 1680.71M1538.92 1588.5L1529.77 1602M1677 1680.71L1667.66 1694.5M1667.66 1694.5L1529.77 1602M1667.66 1694.5L1658.85 1707.5M1529.77 1602L1521.3 1614.5M1521.3 1614.5L1658.85 1707.5M1521.3 1614.5L1513.17 1626.5M1658.85 1707.5L1650.38 1720M1650.38 1720L1513.17 1626.5M1650.38 1720L1641 1733.84M1513.17 1626.5L1502.83 1641.75M1502.83 1641.75L1641 1733.84" stroke="white" stroke-width="5"/>
<path d="M1449.5 859.5H1501C1501 859.5 1502 878.726 1487.5 891.5C1473 904.274 1449.5 903 1449.5 903" stroke="white" stroke-width="5"/>
<path d="M1449 954H1500.5C1500.5 954 1501.5 973.226 1487 986C1472.5 998.774 1449 997.5 1449 997.5" stroke="white" stroke-width="5"/>
<path d="M1449 948.535H1500.5C1500.5 948.535 1501.5 929.309 1487 916.535C1472.5 903.761 1449 905.035 1449 905.035" stroke="white" stroke-width="5"/>
<path d="M1449 1043.54H1500.5C1500.5 1043.54 1501.5 1024.31 1487 1011.54C1472.5 998.761 1449 1000.04 1449 1000.04" stroke="white" stroke-width="5"/>
<path d="M1449.5 859.5H1501C1501 859.5 1502 878.726 1487.5 891.5C1473 904.274 1449.5 903 1449.5 903" stroke="white" stroke-width="5"/>
<path d="M1449 954H1500.5C1500.5 954 1501.5 973.226 1487 986C1472.5 998.774 1449 997.5 1449 997.5" stroke="white" stroke-width="5"/>
<path d="M1449 948.535H1500.5C1500.5 948.535 1501.5 929.309 1487 916.535C1472.5 903.761 1449 905.035 1449 905.035" stroke="white" stroke-width="5"/>
<path d="M1449 1043.54H1500.5C1500.5 1043.54 1501.5 1024.31 1487 1011.54C1472.5 998.761 1449 1000.04 1449 1000.04" stroke="white" stroke-width="5"/>
<path d="M1443.5 2203H1495C1495 2203 1496 2222.23 1481.5 2235C1467 2247.77 1443.5 2246.5 1443.5 2246.5" stroke="white" stroke-width="5"/>
<path d="M1443 2297.5H1494.5C1494.5 2297.5 1495.5 2316.73 1481 2329.5C1466.5 2342.27 1443 2341 1443 2341" stroke="white" stroke-width="5"/>
<path d="M1443 2292.04H1494.5C1494.5 2292.04 1495.5 2272.81 1481 2260.04C1466.5 2247.26 1443 2248.54 1443 2248.54" stroke="white" stroke-width="5"/>
<path d="M1443 2387.04H1494.5C1494.5 2387.04 1495.5 2367.81 1481 2355.04C1466.5 2342.26 1443 2343.54 1443 2343.54" stroke="white" stroke-width="5"/>
<path d="M1443.5 2203H1495C1495 2203 1496 2222.23 1481.5 2235C1467 2247.77 1443.5 2246.5 1443.5 2246.5" stroke="white" stroke-width="5"/>
<path d="M1443 2297.5H1494.5C1494.5 2297.5 1495.5 2316.73 1481 2329.5C1466.5 2342.27 1443 2341 1443 2341" stroke="white" stroke-width="5"/>
<path d="M1443 2292.04H1494.5C1494.5 2292.04 1495.5 2272.81 1481 2260.04C1466.5 2247.26 1443 2248.54 1443 2248.54" stroke="white" stroke-width="5"/>
<path d="M1443 2387.04H1494.5C1494.5 2387.04 1495.5 2367.81 1481 2355.04C1466.5 2342.26 1443 2343.54 1443 2343.54" stroke="white" stroke-width="5"/>
<path d="M298.3 410V408.25L305.475 406.5C310.258 405.45 312.65 402.533 312.65 397.75V298H297.775C293.458 298 290.367 299.167 288.5 301.5C286.633 303.717 284.65 306.808 282.55 310.775L276.25 323.025H274.5L275.375 294.5H376.35L377.05 323.025H375.3L369 310.775C367.017 306.808 365.092 303.717 363.225 301.5C361.358 299.167 358.267 298 353.95 298H339.075V397.75C339.075 402.533 341.467 405.45 346.25 406.5L353.425 408.25V410H298.3ZM415.162 412.625C406.295 412.625 398.595 410.817 392.062 407.2C385.528 403.467 380.453 398.217 376.837 391.45C373.337 384.683 371.587 376.75 371.587 367.65C371.587 358.55 373.453 350.675 377.187 344.025C381.037 337.375 386.228 332.242 392.762 328.625C399.412 325.008 406.878 323.2 415.162 323.2C423.445 323.2 430.853 325.008 437.387 328.625C443.92 332.125 449.053 337.2 452.787 343.85C456.637 350.5 458.562 358.433 458.562 367.65C458.562 376.867 456.753 384.858 453.137 391.625C449.637 398.275 444.62 403.467 438.087 407.2C431.67 410.817 424.028 412.625 415.162 412.625ZM415.162 409.125C419.245 409.125 422.512 407.958 424.962 405.625C427.412 403.292 429.162 399.15 430.212 393.2C431.378 387.25 431.962 378.85 431.962 368C431.962 357.033 431.378 348.575 430.212 342.625C429.162 336.675 427.412 332.533 424.962 330.2C422.512 327.867 419.245 326.7 415.162 326.7C411.078 326.7 407.753 327.867 405.187 330.2C402.737 332.533 400.928 336.675 399.762 342.625C398.712 348.575 398.187 357.033 398.187 368C398.187 378.85 398.712 387.25 399.762 393.2C400.928 399.15 402.737 403.292 405.187 405.625C407.753 407.958 411.078 409.125 415.162 409.125ZM466.248 410V408.25L468.873 407.55C471.206 406.85 472.781 405.8 473.598 404.4C474.531 403 474.998 401.192 474.998 398.975V344.2C474.998 341.633 474.531 339.767 473.598 338.6C472.781 337.317 471.206 336.442 468.873 335.975L466.248 335.275V333.525L496.348 323.375L498.098 325.125L499.673 340.175V341.575C501.306 338.308 503.406 335.333 505.973 332.65C508.656 329.85 511.573 327.575 514.723 325.825C517.99 324.075 521.198 323.2 524.348 323.2C528.781 323.2 532.165 324.425 534.498 326.875C536.831 329.325 537.998 332.417 537.998 336.15C537.998 340.117 536.831 343.208 534.498 345.425C532.281 347.525 529.598 348.575 526.448 348.575C521.548 348.575 517.231 346.125 513.498 341.225L513.148 340.875C511.981 339.242 510.64 338.367 509.123 338.25C507.606 338.017 506.206 338.717 504.923 340.35C503.756 341.4 502.765 342.683 501.948 344.2C501.248 345.6 500.548 347.233 499.848 349.1V397.925C499.848 402.592 501.89 405.508 505.973 406.675L511.573 408.25V410H466.248ZM572.06 412.625C566.343 412.625 561.21 411.925 556.66 410.525C552.11 409.242 547.91 407.608 544.06 405.625L544.235 384.8H545.985L551.935 395.3C554.502 399.967 557.302 403.467 560.335 405.8C563.485 408.017 567.452 409.125 572.235 409.125C577.835 409.125 582.327 407.9 585.71 405.45C589.21 402.883 590.96 399.5 590.96 395.3C590.96 391.45 589.735 388.3 587.285 385.85C584.835 383.4 580.285 381.183 573.635 379.2L566.285 376.925C559.168 374.825 553.568 371.558 549.485 367.125C545.402 362.692 543.36 357.267 543.36 350.85C543.36 343.15 546.393 336.617 552.46 331.25C558.527 325.883 567.218 323.2 578.535 323.2C583.085 323.2 587.343 323.725 591.31 324.775C595.393 325.708 599.302 327.167 603.035 329.15L601.985 348.05H600.235L594.11 337.2C591.893 333.35 589.677 330.667 587.46 329.15C585.36 327.517 582.152 326.7 577.835 326.7C573.868 326.7 570.135 327.808 566.635 330.025C563.135 332.242 561.385 335.392 561.385 339.475C561.385 343.442 562.843 346.592 565.76 348.925C568.793 351.258 573.227 353.417 579.06 355.4L586.935 357.675C595.335 360.242 601.343 363.8 604.96 368.35C608.577 372.783 610.385 378.15 610.385 384.45C610.385 392.967 607.002 399.792 600.235 404.925C593.585 410.058 584.193 412.625 572.06 412.625ZM655.106 412.625C648.223 412.625 642.039 411.108 636.556 408.075C631.073 404.925 626.698 400.142 623.431 393.725C620.281 387.192 618.706 378.85 618.706 368.7C618.706 358.433 620.514 349.975 624.131 343.325C627.748 336.558 632.531 331.542 638.481 328.275C644.431 324.892 650.906 323.2 657.906 323.2C661.989 323.2 665.898 323.608 669.631 324.425C673.364 325.242 676.689 326.467 679.606 328.1V305.35C679.606 302.9 679.198 301.092 678.381 299.925C677.681 298.758 676.106 297.942 673.656 297.475L670.331 296.775V295.025L702.181 287.325L704.106 288.9L703.406 313.4V398.975C703.406 401.308 703.814 403.233 704.631 404.75C705.448 406.15 706.964 407.142 709.181 407.725L710.756 408.25V410L680.831 411.925L679.256 405.625C676.106 407.725 672.489 409.417 668.406 410.7C664.439 411.983 660.006 412.625 655.106 412.625ZM665.256 406.15C670.156 406.15 674.648 404.692 678.731 401.775V332.3C674.414 329.5 669.981 328.1 665.431 328.1C659.831 328.1 655.048 331.367 651.081 337.9C647.114 344.317 645.131 354.467 645.131 368.35C645.131 382.233 646.998 392.033 650.731 397.75C654.464 403.35 659.306 406.15 665.256 406.15ZM742.335 412.625C735.568 412.625 729.852 410.7 725.185 406.85C720.635 403 718.36 397.458 718.36 390.225C718.36 384.742 721.16 379.725 726.76 375.175C732.36 370.508 741.168 367.008 753.185 364.675C755.052 364.325 757.152 363.975 759.485 363.625C761.818 363.158 764.268 362.692 766.835 362.225V348.4C766.835 340.467 765.843 334.925 763.86 331.775C761.993 328.508 759.018 326.875 754.935 326.875C752.135 326.875 749.918 327.808 748.285 329.675C746.652 331.425 745.602 334.517 745.135 338.95L744.785 340.875C744.552 345.892 743.327 349.567 741.11 351.9C738.893 354.233 736.152 355.4 732.885 355.4C729.852 355.4 727.343 354.467 725.36 352.6C723.377 350.733 722.385 348.225 722.385 345.075C722.385 340.292 724.018 336.267 727.285 333C730.668 329.733 735.102 327.283 740.585 325.65C746.068 324.017 752.018 323.2 758.435 323.2C768.818 323.2 776.81 325.767 782.41 330.9C788.127 335.917 790.985 344.142 790.985 355.575V394.25C790.985 399.5 793.435 402.125 798.335 402.125H802.185L803.76 403.525C801.543 406.325 799.093 408.483 796.41 410C793.843 411.517 790.168 412.275 785.385 412.275C780.252 412.275 776.168 411.108 773.135 408.775C770.218 406.325 768.293 403.117 767.36 399.15C763.86 402.883 760.243 406.092 756.51 408.775C752.893 411.342 748.168 412.625 742.335 412.625ZM753.01 401.95C755.343 401.95 757.502 401.425 759.485 400.375C761.585 399.208 764.035 397.458 766.835 395.125V365.725C765.668 365.958 764.502 366.192 763.335 366.425C762.168 366.658 760.827 366.892 759.31 367.125C753.943 368.525 749.627 370.917 746.36 374.3C743.21 377.567 741.635 382 741.635 387.6C741.635 392.383 742.743 396 744.96 398.45C747.177 400.783 749.86 401.95 753.01 401.95ZM844.315 379.725C836.265 379.725 829.44 378.383 823.84 375.7V381.65C823.84 385.267 825.648 387.425 829.265 388.125L862.165 394.25C867.648 395.3 872.607 396.7 877.04 398.45C881.473 400.083 885.032 402.475 887.715 405.625C890.398 408.658 891.74 412.858 891.74 418.225C891.74 423.942 889.873 429.192 886.14 433.975C882.407 438.875 876.865 442.783 869.515 445.7C862.282 448.733 853.24 450.25 842.39 450.25C833.057 450.25 825.648 449.258 820.165 447.275C814.682 445.408 810.773 442.958 808.44 439.925C806.223 436.892 805.115 433.683 805.115 430.3C805.115 426.1 806.515 421.842 809.315 417.525C812.232 413.325 815.79 409.942 819.99 407.375C816.373 405.975 813.748 404.167 812.115 401.95C810.482 399.733 809.665 397.342 809.665 394.775C809.665 392.442 810.248 390.283 811.415 388.3C812.698 386.2 814.215 384.1 815.965 382L821.74 374.65C813.223 369.75 808.965 362.05 808.965 351.55C808.965 343.15 811.94 336.325 817.89 331.075C823.957 325.825 832.823 323.2 844.49 323.2C850.44 323.2 855.632 323.9 860.065 325.3C864.615 326.7 868.348 328.683 871.265 331.25C874.998 330.667 878.498 329.733 881.765 328.45C885.148 327.05 888.182 325.183 890.865 322.85L893.315 324.6V333.525H873.54C877.74 338.192 879.84 344.2 879.84 351.55C879.84 359.717 876.807 366.483 870.74 371.85C864.79 377.1 855.982 379.725 844.315 379.725ZM844.14 376.225C848.807 376.225 852.19 374.3 854.29 370.45C856.507 366.6 857.615 360.183 857.615 351.2C857.615 342.217 856.507 335.917 854.29 332.3C852.19 328.567 848.923 326.7 844.49 326.7C840.173 326.7 836.907 328.625 834.69 332.475C832.473 336.208 831.365 342.567 831.365 351.55C831.365 360.533 832.357 366.892 834.34 370.625C836.44 374.358 839.707 376.225 844.14 376.225ZM818.065 424.7C818.065 431.583 820.165 436.775 824.365 440.275C828.682 443.775 835.448 445.525 844.665 445.525C854.348 445.525 861.64 443.95 866.54 440.8C871.44 437.65 873.89 433.217 873.89 427.5C873.89 424.233 872.665 421.608 870.215 419.625C867.882 417.642 863.857 416.125 858.14 415.075L826.465 409.125C825.532 408.892 824.598 408.658 823.665 408.425C822.032 410.758 820.69 413.383 819.64 416.3C818.59 419.333 818.065 422.133 818.065 424.7Z" fill="white"/>
<path d="M42 41H2723V39H42V41ZM2724 42V2978H2726V42H2724ZM2723 2979H42V2981H2723V2979ZM41 2978V42H39V2978H41ZM42 2979C41.4477 2979 41 2978.55 41 2978H39C39 2979.66 40.3431 2981 42 2981V2979ZM2724 2978C2724 2978.55 2723.55 2979 2723 2979V2981C2724.66 2981 2726 2979.66 2726 2978H2724ZM2723 41C2723.55 41 2724 41.4477 2724 42H2726C2726 40.3431 2724.66 39 2723 39V41ZM42 39C40.3432 39 39 40.3431 39 42H41C41 41.4477 41.4477 41 42 41V39Z" fill="white" fill-opacity="0.1"/>
</svg>
