<?xml version="1.0" encoding="UTF-8" standalone="no"?>
<svg
   width="125"
   height="30"
   viewBox="0 0 125 30"
   fill="none"
   version="1.1"
   id="svg36"
   xmlns="http://www.w3.org/2000/svg"
   xmlns:svg="http://www.w3.org/2000/svg">
  <defs
     id="defs40" />
  <mask
     id="mask0"
     mask-type="alpha"
     maskUnits="userSpaceOnUse"
     x="0"
     y="2"
     width="21"
     height="25">
    <path
       d="M 0,2.02786 H 20.4484 V 26.5256 H 0 Z"
       fill="#ffffff"
       id="path2" />
  </mask>
  <mask
     id="mask1"
     mask-type="alpha"
     maskUnits="userSpaceOnUse"
     x="43"
     y="6"
     width="21"
     height="21">
    <path
       d="M 43.6672,6.46469 H 63.7645 V 26.9159 H 43.6672 Z"
       fill="#ffffff"
       id="path11" />
  </mask>
  <mask
     id="mask2"
     mask-type="alpha"
     maskUnits="userSpaceOnUse"
     x="103"
     y="2"
     width="16"
     height="25">
    <path
       d="m 103.898,2.0192 h 14.776 v 24.8252 h -14.776 z"
       fill="#ffffff"
       id="path20" />
  </mask>
  <mask
     id="mask3"
     mask-type="alpha"
     maskUnits="userSpaceOnUse"
     x="97"
     y="0"
     width="5"
     height="5">
    <path
       d="m 97.0707,0 h 4.3733 v 4.373 h -4.3733 z"
       fill="#ffffff"
       id="path29" />
  </mask>
  <g
     id="g335"
     style="fill:#000000;fill-opacity:1;stroke:none"
     transform="translate(3.163,1.54205)">
    <g
       mask="url(#mask0)"
       id="g7"
       style="fill:#000000;fill-opacity:1;stroke:none">
      <path
         fill-rule="evenodd"
         clip-rule="evenodd"
         d="m 19.702,6.84889 h -2.8285 c -0.8849,0 -0.9937,0.10934 -2.02,1.1427 C 14.3374,8.51031 5.82073,17.0875 5.82073,17.0875 V 2.77288 C 5.82073,2.29231 5.55832,2.02786 5.0757,2.02786 H 0.745428 c -0.482611,0 -0.746038352,0.26445 -0.746038352,0.74502 v 1.92485 c 0,0.48567 0.263427352,0.74859 0.746038352,0.74859 H 2.32955 V 23.102 H 0.753565 c -0.482103,0 -0.74553005,0.2635 -0.74553005,0.7441 v 1.9248 c 0,0.4831 0.26342705,0.7547 0.74553005,0.7547 H 7.37688 c 0.48312,0 0.74807,-0.2634 0.74807,-0.7455 V 23.8537 C 8.12495,23.368 7.86,23.102 7.37688,23.102 H 5.82073 v -1.4274 l 3.39201,-3.4449 5.97036,7.2981 c 0.7852,0.9978 0.7852,0.9978 1.9345,0.9978 h 2.5788 c 0.4796,0 0.7435,-0.2634 0.7435,-0.7455 v -1.9264 c 0,-0.4821 -0.2639,-0.7445 -0.7435,-0.7445 h -2.1267 l -5.9398,-7.3307 5.4287,-5.504 h 2.6434 c 0.4903,0 0.7461,-0.2416 0.7461,-0.71709 V 7.59645 c 0,-0.48261 -0.2645,-0.74756 -0.7461,-0.74756 z"
         fill="#333333"
         id="path5"
         style="fill:#000000;fill-opacity:1;stroke:none" />
    </g>
    <path
       fill-rule="evenodd"
       clip-rule="evenodd"
       d="m 43.028,23.1092 h -1.5684 v -8.4215 c 0,-5.01327 -3.1576,-8.25322 -8.0417,-8.25322 -2.2518,0 -4.1421,0.69467 -5.6194,2.06317 v -0.893 c 0,-0.48262 -0.2639,-0.74706 -0.745,-0.74706 h -4.2723 c -0.4831,0 -0.7471,0.2558 -0.7471,0.74095 v 1.92384 c 0,0.48212 0.264,0.75162 0.7466,0.75162 h 1.5668 v 12.8352 h -1.5668 c -0.4826,0 -0.7466,0.2624 -0.7466,0.7445 v 1.9264 c 0,0.4806 0.264,0.7455 0.7466,0.7455 h 6.5877 c 0.4826,0 0.7455,-0.2649 0.7455,-0.7455 v -1.9264 c 0,-0.4821 -0.2629,-0.7445 -0.7455,-0.7445 h -1.5699 v -7.8209 c 0,-3.212 2.2585,-5.5442 5.3677,-5.5442 3.0279,0 4.8368,1.9655 4.8368,5.2619 v 8.1032 h -1.5658 c -0.4842,0 -0.7491,0.2624 -0.7491,0.7445 v 1.9264 c 0,0.4806 0.2649,0.7455 0.7491,0.7455 h 6.5908 c 0.4826,0 0.746,-0.2649 0.746,-0.7455 v -1.9264 c 0,-0.4821 -0.2634,-0.7445 -0.746,-0.7445 z"
       fill="#333333"
       id="path9"
       style="fill:#000000;fill-opacity:1;stroke:none" />
    <g
       mask="url(#mask1)"
       id="g16"
       style="fill:#000000;fill-opacity:1;stroke:none">
      <path
         fill-rule="evenodd"
         clip-rule="evenodd"
         d="m 53.7299,23.5676 c -3.627,0 -6.4698,-3.0446 -6.4698,-6.9299 0,-3.8869 2.7533,-6.82067 6.4016,-6.82067 3.6473,0 6.5064,3.04317 6.5064,6.92637 0,3.8904 -2.7675,6.8242 -6.4382,6.8242 z m 0,-17.10291 c -5.6424,0 -10.0627,4.51641 -10.0627,10.27871 0,5.7024 4.3903,10.1725 9.9945,10.1725 5.6657,0 10.1028,-4.5139 10.1028,-10.2782 0,-5.7054 -4.4071,-10.17301 -10.0346,-10.17301 z"
         fill="#333333"
         id="path14"
         style="fill:#000000;fill-opacity:1;stroke:none" />
    </g>
    <path
       fill-rule="evenodd"
       clip-rule="evenodd"
       d="m 93.0339,6.85762 h -6.7687 c -0.4826,0 -0.7471,0.26495 -0.7471,0.74706 v 1.92434 c 0,0.48108 0.2645,0.74498 0.7471,0.74498 h 1.521 L 84.561,20.6982 79.9963,7.41702 C 79.8717,7.06053 79.5386,6.82355 79.1679,6.82355 h -1.3492 c -0.3758,0 -0.7089,0.23698 -0.832,0.59347 L 72.4678,20.6921 69.2406,10.274 h 1.523 c 0.4816,0 0.7451,-0.2639 0.7451,-0.74498 V 7.60468 c 0,-0.48211 -0.2635,-0.74706 -0.7451,-0.74706 h -6.844 c -0.4841,0 -0.7491,0.26495 -0.7491,0.74706 v 1.92434 c 0,0.48108 0.265,0.74498 0.7491,0.74498 h 1.6075 l 5.3647,15.7477 c 0.1246,0.3438 0.4546,0.5782 0.8218,0.5782 h 1.4575 c 0.3738,0 0.7059,-0.239 0.8264,-0.594 l 4.4889,-12.9048 4.4671,12.9048 c 0.1195,0.355 0.4526,0.594 0.8284,0.594 h 1.4591 c 0.3671,0 0.6972,-0.2344 0.8203,-0.5762 L 91.4285,10.274 h 1.6054 c 0.4852,0 0.7501,-0.2639 0.7501,-0.74498 V 7.60468 c 0,-0.48211 -0.2649,-0.74706 -0.7501,-0.74706 z"
       fill="#333333"
       id="path18"
       style="fill:#000000;fill-opacity:1;stroke:none" />
    <g
       mask="url(#mask2)"
       id="g25"
       style="fill:#000000;fill-opacity:1;stroke:none">
      <path
         fill-rule="evenodd"
         clip-rule="evenodd"
         d="m 117.928,16.524 h -1.897 c -0.483,0 -0.748,0.2624 -0.748,0.745 v 3.6453 c 0,1.253 -0.892,2.5508 -2.387,2.5508 -1.876,0 -2.676,-0.7806 -2.676,-2.6047 v -10.586 h 4.579 c 0.483,0 0.748,-0.2644 0.748,-0.74498 V 7.60457 c 0,-0.48211 -0.265,-0.74706 -0.748,-0.74706 H 110.22 V 2.76625 c 0,-0.48261 -0.264,-0.74705 -0.746,-0.74705 h -1.994 c -0.485,0 -0.75,0.26444 -0.75,0.74705 v 4.09126 h -2.085 c -0.482,0 -0.747,0.26495 -0.747,0.74706 v 1.92485 c 0,0.48058 0.265,0.74498 0.747,0.74498 h 2.085 v 10.7609 c 0,3.5288 2.308,5.8091 5.878,5.8091 3.686,0 6.066,-2.2066 6.066,-5.623 V 17.269 c 0,-0.4826 -0.263,-0.745 -0.746,-0.745 z"
         fill="#333333"
         id="path23"
         style="fill:#000000;fill-opacity:1;stroke:none" />
    </g>
    <path
       fill-rule="evenodd"
       clip-rule="evenodd"
       d="m 102.613,23.1092 h -1.567 V 7.60466 c 0,-0.48261 -0.265,-0.74706 -0.749,-0.74706 h -4.311 c -0.4836,0 -0.7471,0.26445 -0.7471,0.74706 V 9.529 c 0,0.4811 0.2635,0.745 0.7471,0.745 h 1.5699 v 12.8352 h -2.8494 c -0.4821,0 -0.7461,0.2625 -0.7461,0.7446 v 1.9263 c 0,0.4806 0.264,0.7456 0.7461,0.7456 h 7.9065 c 0.484,0 0.749,-0.265 0.749,-0.7456 v -1.9263 c 0,-0.4821 -0.265,-0.7446 -0.749,-0.7446 z"
       fill="#333333"
       id="path27"
       style="fill:#000000;fill-opacity:1;stroke:none" />
    <g
       mask="url(#mask3)"
       id="g34"
       style="fill:#000000;fill-opacity:1;stroke:none">
      <path
         fill-rule="evenodd"
         clip-rule="evenodd"
         d="m 99.2569,4.373 c 1.2081,0 2.1871,-0.97896 2.1871,-2.18676 C 101.444,0.981496 100.465,0 99.2569,0 c -1.2057,0 -2.1862,0.981496 -2.1862,2.18624 0,1.2078 0.9805,2.18676 2.1862,2.18676 z"
         fill="#333333"
         id="path32"
         style="fill:#000000;fill-opacity:1;stroke:none" />
    </g>
  </g>
</svg>
