<?xml version="1.0" encoding="UTF-8" standalone="no"?>
<!-- Created with Inkscape (http://www.inkscape.org/) -->

<svg
   version="1.1"
   id="svg9"
   width="512.37329"
   height="61.910461"
   viewBox="0 0 512.37329 61.910461"
   sodipodi:docname="marinit.png"
   inkscape:export-filename="marinitfinal.svg"
   inkscape:export-xdpi="96"
   inkscape:export-ydpi="96"
   xmlns:inkscape="http://www.inkscape.org/namespaces/inkscape"
   xmlns:sodipodi="http://sodipodi.sourceforge.net/DTD/sodipodi-0.dtd"
   xmlns="http://www.w3.org/2000/svg"
   xmlns:svg="http://www.w3.org/2000/svg">
  <defs
     id="defs13" />
  <sodipodi:namedview
     id="namedview11"
     pagecolor="#ffffff"
     bordercolor="#000000"
     borderopacity="0.25"
     inkscape:showpageshadow="2"
     inkscape:pageopacity="0.0"
     inkscape:pagecheckerboard="0"
     inkscape:deskcolor="#d1d1d1"
     showgrid="false" />
  <g
     inkscape:groupmode="layer"
     inkscape:label="Image"
     id="g15"
     transform="translate(-0.05,-0.09027161)">
    <g
       id="g425">
      <path
         style="fill:#000000"
         d="M 42.711469,59.987682 C 41.304433,58.880907 36.419667,51.91389 31.856435,44.505422 26.966808,36.567048 23.292609,31.54152 22.909378,32.26774 22.551729,32.945483 21.280616,38.9 20.084683,45.5 16.976971,62.650532 18.21509,61 8.4576123,61 H 0.05 L 0.56790973,58.25 C 0.85276008,56.7375 3.0668406,44.284897 5.4880886,30.577548 10.408996,2.7189442 11.024853,1.2999698 18.597418,0.37278696 25.053991,-0.41775395 27.525158,2.0081266 38.440739,19.852454 43.873441,28.733604 48.65776,36 49.07256,36 49.48736,36 54.427301,28.538356 60.050208,19.418568 71.22549,1.2933872 73.523805,-0.87471995 80.22882,0.38314844 86.816345,1.6189757 87.674485,3.5438147 94.969083,33.446109 L 101.69079,61 H 91.428261 81.165728 L 80.163056,56.25 C 79.611587,53.6375 78.397181,47.225 77.464377,42 c -0.932804,-5.225 -1.987802,-9.821412 -2.34444,-10.214248 -0.356638,-0.392837 -4.211133,5.148333 -8.565544,12.31371 -4.354411,7.165377 -9.220026,14.124288 -10.812477,15.464248 -3.656882,3.077063 -9.419233,3.264553 -13.030447,0.423972 z m 335.736101,0.944733 c -1.67884,-0.487965 -11.57884,-8.045278 -22,-16.79403 L 337.5,28.231564 337.22582,44.615782 336.95164,61 h -9.52038 -9.52037 L 318.20544,32.910372 318.5,4.8207447 320.86078,2.9103724 C 323.86427,0.47991468 329.58827,0.4495478 333.5,2.843319 335.15,3.8530325 344.06842,11.05135 353.31872,18.839581 362.56901,26.627811 370.55651,33 371.06872,33 371.60496,33 372,26.212954 372,17 V 1 h 9 9 l -0.0153,28.25 c -0.008,15.5375 -0.34592,28.745133 -0.75,29.350296 -0.97806,1.464772 -4.77462,3.422227 -6.41895,3.309516 -0.72366,-0.0496 -2.68933,-0.489432 -4.36817,-0.977397 z M 105.63559,59.75 c 2.45732,-4.075839 35.94197,-51.6570097 37.71682,-53.595014 5.04585,-5.50970136 12.69234,-6.75254975 18.22411,-2.9621191 1.93852,1.3282967 10.55515,13.0576741 21.85493,29.7500001 L 202.08611,60.5 185.60707,60.773889 c -9.06346,0.150639 -24.18786,0.150639 -33.60976,0 L 134.86657,60.5 139.95933,53.25 145.05209,46 h 11.55729 c 6.35651,0 11.40516,-0.3375 11.21922,-0.75 -0.18593,-0.4125 -3.40103,-5.39192 -7.14466,-11.065378 l -6.8066,-10.315379 -2.73933,3.815379 C 149.63138,29.78308 143.78688,38.1375 138.15023,46.25 L 127.90178,61 h -11.50991 c -8.94319,0 -11.34185,-0.278751 -10.75628,-1.25 z m 99.58836,-14 L 205.5,30.5 231.34004,30 c 25.67167,-0.496742 25.85249,-0.515383 27.75,-2.860784 2.36382,-2.921768 2.39538,-4.318461 0.15996,-7.077784 -2.7097,-3.344755 -7.9967,-4.011839 -32,-4.037575 L 205,16 V 8.4294422 0.85888439 L 232.75,1.1794422 C 260.248,1.4970889 260.54995,1.5236237 266,4.1013803 275.39424,8.5446503 280,14.761975 280,23 280,30.560698 275.13498,38.458807 268.88252,41.048662 267.29713,41.70535 266,42.589592 266,43.013644 c 0,0.424051 3.9375,4.040104 8.75,8.035673 4.8125,3.995569 9.40893,7.869023 10.21429,8.607677 C 286.19632,60.786985 284.28517,61 272.91493,61 H 259.40129 L 250.26102,53.5 241.12076,46 H 232.56038 224 v 7.5 7.5 h -9.52605 -9.52604 z M 290,31 V 1 h 9 9 v 30 30 h -9 -9 z m 130,0 V 1 h 9 9 v 30 30 h -9 -9 z m 47,7.5 V 16 h -12.05902 c -7.91373,0 -11.8431,-0.349357 -11.4309,-1.016312 0.34546,-0.558971 0.97202,-0.803766 1.39235,-0.543989 0.42033,0.259778 -1.46225,1.203536 -1.46225,0.486698 0,-0.716838 3.98899,-5.1594281 6.14315,-8.2618814 L 453.5,1.0236913 483.30902,1.0118457 c 23.57329,-0.00937 29.65597,0.2496409 29.07741,1.2381543 -0.40238,0.6875 -2.71843,4.0625 -5.14679,7.5 l -4.4152,6.25 h -9.44873 -9.44873 L 484.21349,38.500872 484.5,61.001744 475.75,61.000872 467,61 Z"
         id="path224"
         sodipodi:nodetypes="ssssscsssssssscccsssssssscccccccsssssccccsssssssscsscccssscsscssccsssscccssssssssccccccccccccccccccccccccccccccssssscssscccccccc" />
    </g>
  </g>
</svg>
