<?xml version="1.0" encoding="UTF-8" standalone="no"?>
<svg
   version="1.1"
   width="2190.4761"
   height="262.00558"
   viewBox="0 0 2190.4762 262.00559"
   id="svg6280"
   xmlns="http://www.w3.org/2000/svg"
   xmlns:svg="http://www.w3.org/2000/svg">
  <defs
     id="defs6284">
    <clipPath
       clipPathUnits="userSpaceOnUse"
       id="clipPath6288">
      <rect
         style="fill:#000000;stroke-width:0.105"
         id="rect6290"
         width="249.04605"
         height="42.976974"
         x="73.75"
         y="11.304823" />
    </clipPath>
  </defs>
  <g
     transform="matrix(9.5238095,0,0,9.5238095,-809.52378,-180.95236)"
     id="g6278"
     clip-path="url(#clipPath6288)">
    <defs
       id="SvgjsDefs39923" />
    <g
       id="SvgjsG39924"
       featureKey="2ou6gm-0"
       transform="scale(0.65)"
       fill="#cbb26a">
      <g
         id="g6272">
        <rect
           opacity="0.1"
           fill="none"
           width="100"
           height="100"
           id="rect5894"
           x="0"
           y="0" />
        <line
           fill="#cbb26a"
           stroke="#cbb26a"
           stroke-width="0.75"
           stroke-miterlimit="10"
           x1="24.038"
           y1="61.291"
           x2="24.038"
           y2="61.291"
           id="line5896" />
        <line
           fill="#cbb26a"
           stroke="#cbb26a"
           stroke-width="0.75"
           stroke-miterlimit="10"
           x1="24.038"
           y1="61.291"
           x2="24.038"
           y2="61.291"
           id="line5898" />
        <line
           fill="#cbb26a"
           stroke="#cbb26a"
           stroke-width="0.75"
           stroke-miterlimit="10"
           x1="24.038"
           y1="61.291"
           x2="24.038"
           y2="61.291"
           id="line5900" />
        <line
           fill="#cbb26a"
           stroke="#cbb26a"
           stroke-width="0.75"
           stroke-miterlimit="10"
           x1="41.346001"
           y1="51.299"
           x2="6.73"
           y2="31.313"
           id="line5902" />
        <line
           fill="#cbb26a"
           stroke="#cbb26a"
           stroke-width="0.75"
           stroke-miterlimit="10"
           x1="24.038"
           y1="61.291"
           x2="24.038"
           y2="61.291"
           id="line5904" />
        <line
           fill="#cbb26a"
           stroke="#cbb26a"
           stroke-width="0.75"
           stroke-miterlimit="10"
           x1="58.653999"
           y1="61.291"
           x2="58.653999"
           y2="61.291"
           id="line5906" />
        <line
           fill="#cbb26a"
           stroke="#cbb26a"
           stroke-width="0.75"
           stroke-miterlimit="10"
           x1="24.038"
           y1="61.291"
           x2="41.346001"
           y2="51.299"
           id="line5908" />
        <line
           fill="#cbb26a"
           stroke="#cbb26a"
           stroke-width="0.75"
           stroke-miterlimit="10"
           x1="41.346001"
           y1="51.299"
           x2="58.653999"
           y2="61.291"
           id="line5910" />
        <line
           fill="#cbb26a"
           stroke="#cbb26a"
           stroke-width="0.75"
           stroke-miterlimit="10"
           x1="41.346001"
           y1="71.283997"
           x2="41.346001"
           y2="71.282997"
           id="line5912" />
        <line
           fill="#cbb26a"
           stroke="#cbb26a"
           stroke-width="0.75"
           stroke-miterlimit="10"
           x1="58.653999"
           y1="61.291"
           x2="58.653999"
           y2="61.291"
           id="line5914" />
        <line
           fill="#cbb26a"
           stroke="#cbb26a"
           stroke-width="0.75"
           stroke-miterlimit="10"
           x1="58.653999"
           y1="41.305"
           x2="58.653999"
           y2="41.305"
           id="line5916" />
        <line
           fill="#cbb26a"
           stroke="#cbb26a"
           stroke-width="0.75"
           stroke-miterlimit="10"
           x1="58.653999"
           y1="61.291"
           x2="58.653999"
           y2="61.291"
           id="line5918" />
        <line
           fill="#cbb26a"
           stroke="#cbb26a"
           stroke-width="0.75"
           stroke-miterlimit="10"
           x1="41.346001"
           y1="71.282997"
           x2="41.346001"
           y2="51.299"
           id="line5920" />
        <line
           fill="#cbb26a"
           stroke="#cbb26a"
           stroke-width="0.75"
           stroke-miterlimit="10"
           x1="41.346001"
           y1="51.299"
           x2="41.346001"
           y2="51.298"
           id="line5922" />
        <line
           fill="#cbb26a"
           stroke="#cbb26a"
           stroke-width="0.75"
           stroke-miterlimit="10"
           x1="58.653999"
           y1="41.305"
           x2="58.653999"
           y2="41.305"
           id="line5924" />
        <line
           fill="#cbb26a"
           stroke="#cbb26a"
           stroke-width="0.75"
           stroke-miterlimit="10"
           x1="58.653999"
           y1="61.291"
           x2="58.653999"
           y2="61.291"
           id="line5926" />
        <line
           fill="#cbb26a"
           stroke="#cbb26a"
           stroke-width="0.75"
           stroke-miterlimit="10"
           x1="58.653999"
           y1="41.305"
           x2="58.653999"
           y2="41.305"
           id="line5928" />
        <line
           fill="#cbb26a"
           stroke="#cbb26a"
           stroke-width="0.75"
           stroke-miterlimit="10"
           x1="58.653999"
           y1="41.305"
           x2="41.346001"
           y2="51.298"
           id="line5930" />
        <line
           fill="#cbb26a"
           stroke="#cbb26a"
           stroke-width="0.75"
           stroke-miterlimit="10"
           x1="41.346001"
           y1="51.298"
           x2="41.346001"
           y2="31.313"
           id="line5932" />
        <line
           fill="#cbb26a"
           stroke="#cbb26a"
           stroke-width="0.75"
           stroke-miterlimit="10"
           x1="58.653999"
           y1="41.305"
           x2="58.653999"
           y2="41.305"
           id="line5934" />
        <line
           fill="#cbb26a"
           stroke="#cbb26a"
           stroke-width="0.75"
           stroke-miterlimit="10"
           x1="75.959999"
           y1="71.283997"
           x2="75.959999"
           y2="71.282997"
           id="line5936" />
        <line
           fill="#cbb26a"
           stroke="#cbb26a"
           stroke-width="0.75"
           stroke-miterlimit="10"
           x1="93.268997"
           y1="41.305"
           x2="93.268997"
           y2="41.305"
           id="line5938" />
        <line
           fill="#cbb26a"
           stroke="#cbb26a"
           stroke-width="0.75"
           stroke-miterlimit="10"
           x1="58.653999"
           y1="61.291"
           x2="75.959999"
           y2="71.282997"
           id="line5940" />
        <line
           fill="#cbb26a"
           stroke="#cbb26a"
           stroke-width="0.75"
           stroke-miterlimit="10"
           x1="93.268997"
           y1="41.305"
           x2="75.959999"
           y2="31.313"
           id="line5942" />
        <line
           fill="#cbb26a"
           stroke="#cbb26a"
           stroke-width="0.75"
           stroke-miterlimit="10"
           x1="93.268997"
           y1="41.305"
           x2="93.268997"
           y2="41.305"
           id="line5944" />
        <line
           fill="#cbb26a"
           stroke="#cbb26a"
           stroke-width="0.75"
           stroke-miterlimit="10"
           x1="93.268997"
           y1="41.305"
           x2="93.268997"
           y2="41.305"
           id="line5946" />
        <line
           fill="#cbb26a"
           stroke="#cbb26a"
           stroke-width="0.75"
           stroke-miterlimit="10"
           x1="93.268997"
           y1="41.305"
           x2="93.268997"
           y2="41.305"
           id="line5948" />
        <line
           fill="#cbb26a"
           stroke="#cbb26a"
           stroke-width="0.75"
           stroke-miterlimit="10"
           x1="41.346001"
           y1="31.313"
           x2="41.346001"
           y2="31.313"
           id="line5950" />
        <line
           fill="#cbb26a"
           stroke="#cbb26a"
           stroke-width="0.75"
           stroke-miterlimit="10"
           x1="41.346001"
           y1="31.313"
           x2="41.346001"
           y2="31.313"
           id="line5952" />
        <line
           fill="#cbb26a"
           stroke="#cbb26a"
           stroke-width="0.75"
           stroke-miterlimit="10"
           x1="41.346001"
           y1="31.313"
           x2="41.346001"
           y2="31.313"
           id="line5954" />
        <line
           fill="#cbb26a"
           stroke="#cbb26a"
           stroke-width="0.75"
           stroke-miterlimit="10"
           x1="41.346001"
           y1="31.313"
           x2="41.346001"
           y2="31.313"
           id="line5956" />
        <line
           fill="#cbb26a"
           stroke="#cbb26a"
           stroke-width="0.75"
           stroke-miterlimit="10"
           x1="75.961998"
           y1="31.313"
           x2="93.268997"
           y2="21.320999"
           id="line5958" />
        <line
           fill="#cbb26a"
           stroke="#cbb26a"
           stroke-width="0.75"
           stroke-miterlimit="10"
           x1="93.268997"
           y1="41.306"
           x2="93.268997"
           y2="41.305"
           id="line5960" />
        <polyline
           fill="#cbb26a"
           stroke="#cbb26a"
           stroke-width="0.75"
           stroke-miterlimit="10"
           points="75.962,11.328 75.962,11.328    75.962,31.313 75.962,31.313  "
           id="polyline5962" />
        <line
           fill="#cbb26a"
           stroke="#cbb26a"
           stroke-width="0.75"
           stroke-miterlimit="10"
           x1="75.961998"
           y1="31.313"
           x2="93.268997"
           y2="41.305"
           id="line5964" />
        <line
           fill="#cbb26a"
           stroke="#cbb26a"
           stroke-width="0.75"
           stroke-miterlimit="10"
           x1="93.268997"
           y1="21.320999"
           x2="93.268997"
           y2="21.32"
           id="line5966" />
        <polyline
           fill="#cbb26a"
           stroke="#cbb26a"
           stroke-width="0.75"
           stroke-miterlimit="10"
           points="41.346,71.283 41.346,71.283    41.346,91.269 41.346,91.269  "
           id="polyline5968" />
        <line
           fill="#cbb26a"
           stroke="#cbb26a"
           stroke-width="0.75"
           stroke-miterlimit="10"
           x1="75.959999"
           y1="71.282997"
           x2="75.959999"
           y2="71.282997"
           id="line5970" />
        <line
           fill="#cbb26a"
           stroke="#cbb26a"
           stroke-width="0.75"
           stroke-miterlimit="10"
           x1="75.959999"
           y1="71.282997"
           x2="58.653999"
           y2="61.291"
           id="line5972" />
        <line
           fill="#cbb26a"
           stroke="#cbb26a"
           stroke-width="0.75"
           stroke-miterlimit="10"
           x1="58.653999"
           y1="81.277"
           x2="58.653999"
           y2="81.276001"
           id="line5974" />
        <line
           fill="#cbb26a"
           stroke="#cbb26a"
           stroke-width="0.75"
           stroke-miterlimit="10"
           x1="75.961998"
           y1="71.282997"
           x2="75.959999"
           y2="71.282997"
           id="line5976" />
        <line
           fill="#cbb26a"
           stroke="#cbb26a"
           stroke-width="0.75"
           stroke-miterlimit="10"
           x1="75.959999"
           y1="71.282997"
           x2="75.959999"
           y2="71.282997"
           id="line5978" />
        <line
           fill="#cbb26a"
           stroke="#cbb26a"
           stroke-width="0.75"
           stroke-miterlimit="10"
           x1="58.653999"
           y1="81.276001"
           x2="58.653999"
           y2="61.291"
           id="line5980" />
        <line
           fill="#cbb26a"
           stroke="#cbb26a"
           stroke-width="0.75"
           stroke-miterlimit="10"
           x1="75.961998"
           y1="71.282997"
           x2="75.959999"
           y2="71.282997"
           id="line5982" />
        <line
           fill="#cbb26a"
           stroke="#cbb26a"
           stroke-width="0.75"
           stroke-miterlimit="10"
           x1="41.346001"
           y1="91.269997"
           x2="41.346001"
           y2="91.268997"
           id="line5984" />
        <line
           fill="#cbb26a"
           stroke="#cbb26a"
           stroke-width="0.75"
           stroke-miterlimit="10"
           x1="41.346001"
           y1="91.268997"
           x2="41.346001"
           y2="91.269997"
           id="line5986" />
        <line
           fill="#cbb26a"
           stroke="#cbb26a"
           stroke-width="0.75"
           stroke-miterlimit="10"
           x1="41.346001"
           y1="71.283997"
           x2="41.346001"
           y2="71.282997"
           id="line5988" />
        <line
           fill="#cbb26a"
           stroke="#cbb26a"
           stroke-width="0.75"
           stroke-miterlimit="10"
           x1="41.346001"
           y1="91.268997"
           x2="41.346001"
           y2="91.268997"
           id="line5990" />
        <line
           fill="#cbb26a"
           stroke="#cbb26a"
           stroke-width="0.75"
           stroke-miterlimit="10"
           x1="24.038"
           y1="81.277"
           x2="24.038"
           y2="81.277"
           id="line5992" />
        <line
           fill="#cbb26a"
           stroke="#cbb26a"
           stroke-width="0.75"
           stroke-miterlimit="10"
           x1="41.346001"
           y1="71.282997"
           x2="41.346001"
           y2="71.283997"
           id="line5994" />
        <line
           fill="#cbb26a"
           stroke="#cbb26a"
           stroke-width="0.75"
           stroke-miterlimit="10"
           x1="41.346001"
           y1="91.268997"
           x2="41.346001"
           y2="91.268997"
           id="line5996" />
        <line
           fill="#cbb26a"
           stroke="#cbb26a"
           stroke-width="0.75"
           stroke-miterlimit="10"
           x1="41.346001"
           y1="71.282997"
           x2="41.346001"
           y2="71.282997"
           id="line5998" />
        <line
           fill="#cbb26a"
           stroke="#cbb26a"
           stroke-width="0.75"
           stroke-miterlimit="10"
           x1="41.346001"
           y1="71.282997"
           x2="24.038"
           y2="81.277"
           id="line6000" />
        <line
           fill="#cbb26a"
           stroke="#cbb26a"
           stroke-width="0.75"
           stroke-miterlimit="10"
           x1="41.346001"
           y1="71.282997"
           x2="41.346001"
           y2="71.282997"
           id="line6002" />
        <circle
           fill="#cbb26a"
           stroke="#cbb26a"
           stroke-width="0.75"
           stroke-miterlimit="10"
           cx="41.346001"
           cy="51.298"
           r="8.6540003"
           id="circle6004" />
        <circle
           fill="#cbb26a"
           stroke="#cbb26a"
           stroke-width="0.75"
           stroke-miterlimit="10"
           cx="75.960999"
           cy="71.282997"
           r="4.3270001"
           id="circle6006" />
        <circle
           fill="#cbb26a"
           stroke="#cbb26a"
           stroke-width="0.75"
           stroke-miterlimit="10"
           cx="58.653"
           cy="81.276001"
           r="4.3270001"
           id="circle6008" />
        <circle
           fill="#cbb26a"
           stroke="#cbb26a"
           stroke-width="0.75"
           stroke-miterlimit="10"
           cx="24.038"
           cy="81.277"
           r="1.73"
           id="circle6010" />
        <circle
           fill="#cbb26a"
           stroke="#cbb26a"
           stroke-width="0.75"
           stroke-miterlimit="10"
           cx="41.345001"
           cy="91.268997"
           r="1.7309999"
           id="circle6012" />
        <circle
           fill="#cbb26a"
           stroke="#cbb26a"
           stroke-width="0.75"
           stroke-miterlimit="10"
           cx="41.347"
           cy="31.312"
           r="4.3270001"
           id="circle6014" />
        <circle
           fill="#cbb26a"
           stroke="#cbb26a"
           stroke-width="0.75"
           stroke-miterlimit="10"
           cx="58.653999"
           cy="41.305"
           r="1.73"
           id="circle6016" />
        <circle
           fill="#cbb26a"
           stroke="#cbb26a"
           stroke-width="0.75"
           stroke-miterlimit="10"
           cx="58.653999"
           cy="61.291"
           r="1.73"
           id="circle6018" />
        <circle
           fill="#cbb26a"
           stroke="#cbb26a"
           stroke-width="0.75"
           stroke-miterlimit="10"
           cx="41.345001"
           cy="71.283997"
           r="4.3270001"
           id="circle6020" />
        <circle
           fill="#cbb26a"
           stroke="#cbb26a"
           stroke-width="0.75"
           stroke-miterlimit="10"
           cx="24.039"
           cy="61.291"
           r="4.3270001"
           id="circle6022" />
        <circle
           fill="#cbb26a"
           stroke="#cbb26a"
           stroke-width="0.75"
           stroke-miterlimit="10"
           cx="75.960999"
           cy="31.312"
           r="4.3270001"
           id="circle6024" />
        <circle
           fill="#cbb26a"
           stroke="#cbb26a"
           stroke-width="0.75"
           stroke-miterlimit="10"
           cx="75.960999"
           cy="11.327"
           r="4.3270001"
           id="circle6026" />
        <circle
           fill="#cbb26a"
           stroke="#cbb26a"
           stroke-width="0.75"
           stroke-miterlimit="10"
           cx="93.268997"
           cy="21.32"
           r="1.7309999"
           id="circle6028" />
        <circle
           fill="#cbb26a"
           stroke="#cbb26a"
           stroke-width="0.75"
           stroke-miterlimit="10"
           cx="93.268997"
           cy="41.305"
           r="1.7309999"
           id="circle6030" />
        <circle
           fill="#cbb26a"
           stroke="#cbb26a"
           stroke-width="0.75"
           stroke-miterlimit="10"
           cx="6.7309999"
           cy="31.313"
           r="1.7309999"
           id="circle6032" />
        <g
           id="g6270">
          <polygon
             fill="#cbb26a"
             stroke="#cbb26a"
             stroke-width="0.5"
             stroke-miterlimit="10"
             points=""
             id="polygon6034" />
          <polygon
             fill="#cbb26a"
             stroke="#cbb26a"
             stroke-width="0.5"
             stroke-miterlimit="10"
             points=""
             id="polygon6036" />
          <polygon
             fill="#cbb26a"
             stroke="#cbb26a"
             stroke-width="0.5"
             stroke-miterlimit="10"
             points=""
             id="polygon6038" />
          <polygon
             fill="#cbb26a"
             stroke="#cbb26a"
             stroke-width="0.5"
             stroke-miterlimit="10"
             points=""
             id="polygon6040" />
          <polygon
             fill="#cbb26a"
             stroke="#cbb26a"
             stroke-width="0.5"
             stroke-miterlimit="10"
             points=""
             id="polygon6042" />
          <rect
             x="41.346001"
             y="51.297001"
             fill="#cbb26a"
             stroke="#cbb26a"
             stroke-width="0.5"
             stroke-miterlimit="10"
             width="0"
             height="0"
             id="rect6044" />
          <polygon
             fill="#cbb26a"
             stroke="#cbb26a"
             stroke-width="0.5"
             stroke-miterlimit="10"
             points="41.346,51.297 41.346,51.298 "
             id="polygon6046" />
          <polygon
             fill="#cbb26a"
             stroke="#cbb26a"
             stroke-width="0.5"
             stroke-miterlimit="10"
             points="41.346,51.297 41.346,51.298 "
             id="polygon6048" />
          <polygon
             fill="#cbb26a"
             stroke="#cbb26a"
             stroke-width="0.5"
             stroke-miterlimit="10"
             points="41.346,51.297 41.348,51.297 "
             id="polygon6050" />
          <polygon
             fill="#cbb26a"
             stroke="#cbb26a"
             stroke-width="0.5"
             stroke-miterlimit="10"
             points="41.346,51.297 41.346,51.298 "
             id="polygon6052" />
          <polygon
             fill="#cbb26a"
             stroke="#cbb26a"
             stroke-width="0.5"
             stroke-miterlimit="10"
             points="41.346,51.297 41.346,51.298 "
             id="polygon6054" />
          <polygon
             fill="#cbb26a"
             stroke="#cbb26a"
             stroke-width="0.5"
             stroke-miterlimit="10"
             points=""
             id="polygon6056" />
          <polygon
             fill="#cbb26a"
             stroke="#cbb26a"
             stroke-width="0.5"
             stroke-miterlimit="10"
             points=""
             id="polygon6058" />
          <polygon
             fill="#cbb26a"
             stroke="#cbb26a"
             stroke-width="0.5"
             stroke-miterlimit="10"
             points="41.346,51.299 41.346,51.298 "
             id="polygon6060" />
          <polygon
             fill="#cbb26a"
             stroke="#cbb26a"
             stroke-width="0.5"
             stroke-miterlimit="10"
             points="41.346,51.298 41.346,51.299 "
             id="polygon6062" />
          <rect
             x="41.346001"
             y="51.299"
             fill="#cbb26a"
             stroke="#cbb26a"
             stroke-width="0.5"
             stroke-miterlimit="10"
             width="0"
             height="0.001"
             id="rect6064" />
          <rect
             x="41.346001"
             y="51.299999"
             fill="#cbb26a"
             stroke="#cbb26a"
             stroke-width="0.5"
             stroke-miterlimit="10"
             width="0"
             height="0.0020000001"
             id="rect6066" />
          <rect
             x="41.345001"
             y="51.299999"
             fill="#cbb26a"
             stroke="#cbb26a"
             stroke-width="0.5"
             stroke-miterlimit="10"
             width="0.0020000001"
             height="0.001"
             id="rect6068" />
          <circle
             fill="#cbb26a"
             stroke="#cbb26a"
             stroke-width="0.5"
             stroke-miterlimit="10"
             cx="41.346001"
             cy="51.301998"
             r="0"
             id="circle6070" />
          <rect
             x="41.345001"
             y="51.299"
             fill="#cbb26a"
             stroke="#cbb26a"
             stroke-width="0.5"
             stroke-miterlimit="10"
             width="0.001"
             height="0.001"
             id="rect6072" />
          <path
             fill="#cbb26a"
             stroke="#cbb26a"
             stroke-width="0.5"
             stroke-miterlimit="10"
             d="m 41.348,51.297 8.604,0.905 C 49.983,51.905 50,51.604 50,51.298 v -0.001 z"
             id="path6074" />
          <polygon
             fill="#cbb26a"
             stroke="#cbb26a"
             stroke-width="0.5"
             stroke-miterlimit="10"
             points="41.346,51.297 41.348,51.298 41.348,51.297 "
             id="polygon6076" />
          <polygon
             fill="#cbb26a"
             stroke="#cbb26a"
             stroke-width="0.5"
             stroke-miterlimit="10"
             points=""
             id="polygon6078" />
          <rect
             x="41.345001"
             y="51.298"
             fill="#cbb26a"
             stroke="#cbb26a"
             stroke-width="0.5"
             stroke-miterlimit="10"
             width="0.001"
             height="0.001"
             id="rect6080" />
          <path
             fill="#cbb26a"
             stroke="#cbb26a"
             stroke-width="0.5"
             stroke-miterlimit="10"
             d="m 50,51.297 c 0,-0.305 -0.017,-0.607 -0.048,-0.904 l -8.604,0.904 z"
             id="path6082" />
          <polygon
             fill="#cbb26a"
             stroke="#cbb26a"
             stroke-width="0.5"
             stroke-miterlimit="10"
             points="41.346,51.297 41.346,51.298 41.348,51.298 "
             id="polygon6084" />
          <rect
             x="41.347"
             y="51.298"
             fill="#cbb26a"
             stroke="#cbb26a"
             stroke-width="0.5"
             stroke-miterlimit="10"
             width="0"
             height="0.0020000001"
             id="rect6086" />
          <polygon
             fill="#cbb26a"
             stroke="#cbb26a"
             stroke-width="0.5"
             stroke-miterlimit="10"
             points="41.346,51.298 41.348,51.299 41.348,51.298 "
             id="polygon6088" />
          <path
             fill="#cbb26a"
             stroke="#cbb26a"
             stroke-width="0.5"
             stroke-miterlimit="10"
             d="m 49.952,50.393 c -0.031,-0.304 -0.08,-0.602 -0.141,-0.895 l -8.464,1.798 z"
             id="path6090" />
          <polygon
             fill="#cbb26a"
             stroke="#cbb26a"
             stroke-width="0.5"
             stroke-miterlimit="10"
             points="41.348,51.298 41.346,51.298 "
             id="polygon6092" />
          <polygon
             fill="#cbb26a"
             stroke="#cbb26a"
             stroke-width="0.5"
             stroke-miterlimit="10"
             points="41.348,51.298 41.346,51.298 "
             id="polygon6094" />
          <polygon
             fill="#cbb26a"
             stroke="#cbb26a"
             stroke-width="0.5"
             stroke-miterlimit="10"
             points=""
             id="polygon6096" />
          <rect
             x="41.344002"
             y="51.297001"
             fill="#cbb26a"
             stroke="#cbb26a"
             stroke-width="0.5"
             stroke-miterlimit="10"
             width="0.0020000001"
             height="0"
             id="rect6098" />
          <polygon
             fill="#cbb26a"
             stroke="#cbb26a"
             stroke-width="0.5"
             stroke-miterlimit="10"
             points=""
             id="polygon6100" />
          <polygon
             fill="#cbb26a"
             stroke="#cbb26a"
             stroke-width="0.5"
             stroke-miterlimit="10"
             points="41.346,51.298 41.346,51.299 41.348,51.299 "
             id="polygon6102" />
          <path
             fill="#cbb26a"
             stroke="#cbb26a"
             stroke-width="0.5"
             stroke-miterlimit="10"
             d="m 41.346,51.299 -3.519,7.905 c 0.275,0.122 0.557,0.231 0.845,0.325 z"
             id="path6104" />
          <path
             fill="#cbb26a"
             stroke="#cbb26a"
             stroke-width="0.5"
             stroke-miterlimit="10"
             d="m 41.346,51.307 v 8.646 c 0.306,0 0.607,-0.017 0.905,-0.047 l -0.905,-8.604 z"
             id="path6106" />
          <path
             fill="#cbb26a"
             stroke="#cbb26a"
             stroke-width="0.5"
             stroke-miterlimit="10"
             d="m 36.26,58.298 c 0.244,0.179 0.497,0.342 0.76,0.494 l 4.326,-7.494 z"
             id="path6108" />
          <path
             fill="#cbb26a"
             stroke="#cbb26a"
             stroke-width="0.5"
             stroke-miterlimit="10"
             d="m 41.346,51.302 -1.798,8.463 c 0.292,0.061 0.592,0.108 0.896,0.141 l 0.902,-8.599 z"
             id="path6110" />
          <path
             fill="#cbb26a"
             stroke="#cbb26a"
             stroke-width="0.5"
             stroke-miterlimit="10"
             d="m 41.346,51.3 -2.674,8.229 c 0.285,0.093 0.578,0.172 0.876,0.235 l 1.798,-8.463 z"
             id="path6112" />
          <path
             fill="#cbb26a"
             stroke="#cbb26a"
             stroke-width="0.5"
             stroke-miterlimit="10"
             d="m 40.443,59.905 c 0.296,0.03 0.598,0.047 0.902,0.047 v -8.646 z"
             id="path6114" />
          <path
             fill="#cbb26a"
             stroke="#cbb26a"
             stroke-width="0.5"
             stroke-miterlimit="10"
             d="m 41.346,51.298 -5.789,6.431 c 0.224,0.203 0.459,0.392 0.703,0.569 z"
             id="path6116" />
          <path
             fill="#cbb26a"
             stroke="#cbb26a"
             stroke-width="0.5"
             stroke-miterlimit="10"
             d="m 41.346,51.298 -4.326,7.494 c 0.262,0.15 0.529,0.288 0.808,0.412 z"
             id="path6118" />
          <path
             fill="#cbb26a"
             stroke="#cbb26a"
             stroke-width="0.5"
             stroke-miterlimit="10"
             d="m 41.346,51.297 v 0 l -8.229,2.675 c 0.092,0.289 0.201,0.571 0.323,0.846 z"
             id="path6120" />
          <path
             fill="#cbb26a"
             stroke="#cbb26a"
             stroke-width="0.5"
             stroke-miterlimit="10"
             d="m 33.439,54.817 c 0.124,0.276 0.263,0.546 0.413,0.807 l 7.493,-4.327 z"
             id="path6122" />
          <path
             fill="#cbb26a"
             stroke="#cbb26a"
             stroke-width="0.5"
             stroke-miterlimit="10"
             d="m 41.346,51.297 h -0.002 l -8.463,1.801 c 0.062,0.297 0.143,0.589 0.235,0.874 z"
             id="path6124" />
          <path
             fill="#cbb26a"
             stroke="#cbb26a"
             stroke-width="0.5"
             stroke-miterlimit="10"
             d="m 34.347,56.385 c 0.177,0.243 0.366,0.479 0.569,0.703 l 6.43,-5.791 z"
             id="path6126" />
          <path
             fill="#cbb26a"
             stroke="#cbb26a"
             stroke-width="0.5"
             stroke-miterlimit="10"
             d="m 41.346,51.297 -6.43,5.791 c 0.202,0.225 0.415,0.439 0.641,0.641 z"
             id="path6128" />
          <path
             fill="#cbb26a"
             stroke="#cbb26a"
             stroke-width="0.5"
             stroke-miterlimit="10"
             d="m 33.853,55.624 c 0.151,0.263 0.316,0.517 0.494,0.761 l 6.999,-5.088 z"
             id="path6130" />
          <path
             fill="#cbb26a"
             stroke="#cbb26a"
             stroke-width="0.5"
             stroke-miterlimit="10"
             d="m 41.346,51.302 0.905,8.604 c 0.304,-0.032 0.602,-0.08 0.896,-0.142 z"
             id="path6132" />
          <path
             fill="#cbb26a"
             stroke="#cbb26a"
             stroke-width="0.5"
             stroke-miterlimit="10"
             d="m 32.74,52.202 c 0.031,0.303 0.077,0.602 0.141,0.896 l 8.463,-1.801 z"
             id="path6134" />
          <path
             fill="#cbb26a"
             stroke="#cbb26a"
             stroke-width="0.5"
             stroke-miterlimit="10"
             d="m 48.84,55.624 c 0.151,-0.261 0.289,-0.53 0.413,-0.807 l -7.905,-3.52 z"
             id="path6136" />
          <path
             fill="#cbb26a"
             stroke="#cbb26a"
             stroke-width="0.5"
             stroke-miterlimit="10"
             d="m 41.348,51.298 6.998,5.086 c 0.178,-0.244 0.343,-0.498 0.494,-0.76 z"
             id="path6138" />
          <path
             fill="#cbb26a"
             stroke="#cbb26a"
             stroke-width="0.5"
             stroke-miterlimit="10"
             d="m 41.348,51.298 8.464,1.8 c 0.062,-0.294 0.109,-0.593 0.141,-0.896 z"
             id="path6140" />
          <path
             fill="#cbb26a"
             stroke="#cbb26a"
             stroke-width="0.5"
             stroke-miterlimit="10"
             d="m 41.348,51.298 v 0 l 6.43,5.79 c 0.202,-0.224 0.391,-0.46 0.568,-0.704 z"
             id="path6142" />
          <path
             fill="#cbb26a"
             stroke="#cbb26a"
             stroke-width="0.5"
             stroke-miterlimit="10"
             d="m 49.576,53.972 c 0.095,-0.286 0.172,-0.577 0.235,-0.874 l -8.464,-1.8 z"
             id="path6144" />
          <path
             fill="#cbb26a"
             stroke="#cbb26a"
             stroke-width="0.5"
             stroke-miterlimit="10"
             d="m 41.348,51.297 v 0 0 0 l 7.905,3.521 c 0.122,-0.274 0.23,-0.557 0.323,-0.846 z"
             id="path6146" />
          <polygon
             fill="#cbb26a"
             stroke="#cbb26a"
             stroke-width="0.5"
             stroke-miterlimit="10"
             points=""
             id="polygon6148" />
          <polygon
             fill="#cbb26a"
             stroke="#cbb26a"
             stroke-width="0.5"
             stroke-miterlimit="10"
             points=""
             id="polygon6150" />
          <path
             fill="#cbb26a"
             stroke="#cbb26a"
             stroke-width="0.5"
             stroke-miterlimit="10"
             d="m 41.346,51.299 3.521,7.904 c 0.275,-0.124 0.546,-0.261 0.807,-0.411 l -4.326,-7.493 z"
             id="path6152" />
          <path
             fill="#cbb26a"
             stroke="#cbb26a"
             stroke-width="0.5"
             stroke-miterlimit="10"
             d="m 41.346,51.3 2.674,8.229 c 0.291,-0.093 0.572,-0.203 0.848,-0.325 z"
             id="path6154" />
          <path
             fill="#cbb26a"
             stroke="#cbb26a"
             stroke-width="0.5"
             stroke-miterlimit="10"
             d="m 41.346,51.301 1.801,8.463 c 0.296,-0.063 0.588,-0.142 0.873,-0.235 z"
             id="path6156" />
          <path
             fill="#cbb26a"
             stroke="#cbb26a"
             stroke-width="0.5"
             stroke-miterlimit="10"
             d="m 45.674,58.792 c 0.261,-0.152 0.515,-0.316 0.759,-0.494 l -5.085,-6.999 z"
             id="path6158" />
          <path
             fill="#cbb26a"
             stroke="#cbb26a"
             stroke-width="0.5"
             stroke-miterlimit="10"
             d="m 41.348,51.299 5.085,6.999 c 0.244,-0.178 0.479,-0.367 0.705,-0.57 z"
             id="path6160" />
          <path
             fill="#cbb26a"
             stroke="#cbb26a"
             stroke-width="0.5"
             stroke-miterlimit="10"
             d="m 47.138,57.728 c 0.224,-0.201 0.437,-0.415 0.64,-0.64 l -6.43,-5.79 z"
             id="path6162" />
          <path
             fill="#cbb26a"
             stroke="#cbb26a"
             stroke-width="0.5"
             stroke-miterlimit="10"
             d="m 35.557,44.867 c -0.225,0.203 -0.438,0.416 -0.641,0.64 l 6.43,5.79 z"
             id="path6164" />
          <path
             fill="#cbb26a"
             stroke="#cbb26a"
             stroke-width="0.5"
             stroke-miterlimit="10"
             d="m 44.021,43.068 c -0.287,-0.093 -0.577,-0.172 -0.875,-0.235 l -1.799,8.464 z"
             id="path6166" />
          <path
             fill="#cbb26a"
             stroke="#cbb26a"
             stroke-width="0.5"
             stroke-miterlimit="10"
             d="M 44.865,43.393 C 44.592,43.271 44.31,43.162 44.021,43.068 l -2.674,8.229 z"
             id="path6168" />
          <path
             fill="#cbb26a"
             stroke="#cbb26a"
             stroke-width="0.5"
             stroke-miterlimit="10"
             d="m 45.672,43.804 c -0.261,-0.151 -0.529,-0.288 -0.807,-0.412 l -3.518,7.904 z"
             id="path6170" />
          <path
             fill="#cbb26a"
             stroke="#cbb26a"
             stroke-width="0.5"
             stroke-miterlimit="10"
             d="m 41.346,42.644 c -0.305,0 -0.606,0.017 -0.904,0.047 l 0.904,8.605 z"
             id="path6172" />
          <path
             fill="#cbb26a"
             stroke="#cbb26a"
             stroke-width="0.5"
             stroke-miterlimit="10"
             d="M 43.146,42.833 C 42.852,42.772 42.554,42.724 42.25,42.692 l -0.903,8.605 z"
             id="path6174" />
          <path
             fill="#cbb26a"
             stroke="#cbb26a"
             stroke-width="0.5"
             stroke-miterlimit="10"
             d="M 46.433,44.298 C 46.189,44.12 45.935,43.956 45.672,43.804 l -4.324,7.493 z"
             id="path6176" />
          <path
             fill="#cbb26a"
             stroke="#cbb26a"
             stroke-width="0.5"
             stroke-miterlimit="10"
             d="m 41.346,51.297 v 0 0 0 0 h 0.002 v 0 l 0.903,-8.605 c -0.296,-0.031 -0.6,-0.047 -0.905,-0.047 z"
             id="path6178" />
          <path
             fill="#cbb26a"
             stroke="#cbb26a"
             stroke-width="0.5"
             stroke-miterlimit="10"
             d="m 41.348,51.297 7.903,-3.519 C 49.129,47.5 48.989,47.232 48.84,46.971 Z"
             id="path6180" />
          <path
             fill="#cbb26a"
             stroke="#cbb26a"
             stroke-width="0.5"
             stroke-miterlimit="10"
             d="m 41.348,51.297 5.788,-6.43 c -0.224,-0.202 -0.459,-0.391 -0.703,-0.569 z"
             id="path6182" />
          <path
             fill="#cbb26a"
             stroke="#cbb26a"
             stroke-width="0.5"
             stroke-miterlimit="10"
             d="m 49.576,48.623 c -0.095,-0.289 -0.201,-0.57 -0.325,-0.845 l -7.903,3.519 z"
             id="path6184" />
          <path
             fill="#cbb26a"
             stroke="#cbb26a"
             stroke-width="0.5"
             stroke-miterlimit="10"
             d="M 41.348,51.297 48.84,46.971 C 48.689,46.709 48.524,46.455 48.346,46.212 Z"
             id="path6186" />
          <path
             fill="#cbb26a"
             stroke="#cbb26a"
             stroke-width="0.5"
             stroke-miterlimit="10"
             d="m 41.346,51.297 -0.904,-8.605 c -0.304,0.032 -0.602,0.08 -0.894,0.141 z"
             id="path6188" />
          <path
             fill="#cbb26a"
             stroke="#cbb26a"
             stroke-width="0.5"
             stroke-miterlimit="10"
             d="m 48.346,46.212 c -0.178,-0.245 -0.368,-0.48 -0.569,-0.705 l -6.429,5.79 z"
             id="path6190" />
          <path
             fill="#cbb26a"
             stroke="#cbb26a"
             stroke-width="0.5"
             stroke-miterlimit="10"
             d="m 47.776,45.507 c -0.202,-0.225 -0.417,-0.438 -0.641,-0.64 l -5.788,6.43 z"
             id="path6192" />
          <path
             fill="#cbb26a"
             stroke="#cbb26a"
             stroke-width="0.5"
             stroke-miterlimit="10"
             d="m 34.916,45.507 c -0.201,0.225 -0.393,0.46 -0.569,0.704 l 6.999,5.085 z"
             id="path6194" />
          <path
             fill="#cbb26a"
             stroke="#cbb26a"
             stroke-width="0.5"
             stroke-miterlimit="10"
             d="m 33.441,47.778 c -0.122,0.275 -0.231,0.556 -0.325,0.846 l 8.229,2.673 z"
             id="path6196" />
          <path
             fill="#cbb26a"
             stroke="#cbb26a"
             stroke-width="0.5"
             stroke-miterlimit="10"
             d="m 41.346,51.297 -8.229,-2.673 c -0.093,0.286 -0.173,0.577 -0.235,0.875 z"
             id="path6198" />
          <path
             fill="#cbb26a"
             stroke="#cbb26a"
             stroke-width="0.5"
             stroke-miterlimit="10"
             d="m 33.853,46.971 c -0.15,0.261 -0.287,0.53 -0.411,0.807 l 7.904,3.519 z"
             id="path6200" />
          <path
             fill="#cbb26a"
             stroke="#cbb26a"
             stroke-width="0.5"
             stroke-miterlimit="10"
             d="m 41.346,51.297 v 0 l -6.999,-5.085 c -0.178,0.244 -0.343,0.498 -0.494,0.76 z"
             id="path6202" />
          <path
             fill="#cbb26a"
             stroke="#cbb26a"
             stroke-width="0.5"
             stroke-miterlimit="10"
             d="m 32.74,50.393 c -0.031,0.297 -0.048,0.599 -0.048,0.904 h 8.651 z"
             id="path6204" />
          <path
             fill="#cbb26a"
             stroke="#cbb26a"
             stroke-width="0.5"
             stroke-miterlimit="10"
             d="m 41.346,51.297 -8.465,-1.798 c -0.062,0.292 -0.109,0.591 -0.141,0.895 l 8.604,0.904 h 0.002 z"
             id="path6206" />
          <path
             fill="#cbb26a"
             stroke="#cbb26a"
             stroke-width="0.5"
             stroke-miterlimit="10"
             d="m 38.672,43.068 c -0.288,0.093 -0.569,0.203 -0.845,0.325 l 3.519,7.904 z"
             id="path6208" />
          <path
             fill="#cbb26a"
             stroke="#cbb26a"
             stroke-width="0.5"
             stroke-miterlimit="10"
             d="m 41.346,51.297 v 0 l -3.519,-7.904 c -0.278,0.123 -0.546,0.261 -0.808,0.412 z"
             id="path6210" />
          <path
             fill="#cbb26a"
             stroke="#cbb26a"
             stroke-width="0.5"
             stroke-miterlimit="10"
             d="m 39.548,42.833 c -0.298,0.063 -0.591,0.143 -0.876,0.235 l 2.674,8.229 z"
             id="path6212" />
          <path
             fill="#cbb26a"
             stroke="#cbb26a"
             stroke-width="0.5"
             stroke-miterlimit="10"
             d="m 37.02,43.804 c -0.263,0.152 -0.516,0.316 -0.758,0.494 l 5.084,6.999 z"
             id="path6214" />
          <path
             fill="#cbb26a"
             stroke="#cbb26a"
             stroke-width="0.5"
             stroke-miterlimit="10"
             d="M 49.812,49.499 C 49.749,49.201 49.669,48.91 49.577,48.623 l -8.229,2.674 z"
             id="path6216" />
          <path
             fill="#cbb26a"
             stroke="#cbb26a"
             stroke-width="0.5"
             stroke-miterlimit="10"
             d="m 41.346,51.297 -5.084,-6.999 c -0.246,0.178 -0.481,0.367 -0.705,0.569 z"
             id="path6218" />
          <path
             fill="#cbb26a"
             stroke="#cbb26a"
             stroke-width="0.5"
             stroke-miterlimit="10"
             d="m 41.346,51.297 h -0.002 -8.651 c 0,0.001 0,0.001 0,0.001 0,0.306 0.017,0.607 0.048,0.904 l 8.604,-0.905 z"
             id="path6220" />
          <polygon
             fill="#cbb26a"
             stroke="#cbb26a"
             stroke-width="0.5"
             stroke-miterlimit="10"
             points="41.346,51.297 41.348,51.297 "
             id="polygon6222" />
          <polygon
             fill="#cbb26a"
             stroke="#cbb26a"
             stroke-width="0.5"
             stroke-miterlimit="10"
             points=""
             id="polygon6224" />
          <polygon
             fill="#cbb26a"
             stroke="#cbb26a"
             stroke-width="0.5"
             stroke-miterlimit="10"
             points="41.346,51.299 41.346,51.298 "
             id="polygon6226" />
          <polygon
             fill="#cbb26a"
             stroke="#cbb26a"
             stroke-width="0.5"
             stroke-miterlimit="10"
             points=""
             id="polygon6228" />
          <rect
             x="41.346001"
             y="51.298"
             fill="#cbb26a"
             stroke="#cbb26a"
             stroke-width="0.5"
             stroke-miterlimit="10"
             width="0"
             height="0.001"
             id="rect6230" />
          <rect
             x="41.345001"
             y="51.298"
             fill="#cbb26a"
             stroke="#cbb26a"
             stroke-width="0.5"
             stroke-miterlimit="10"
             width="0.001"
             height="0.001"
             id="rect6232" />
          <polygon
             fill="#cbb26a"
             stroke="#cbb26a"
             stroke-width="0.5"
             stroke-miterlimit="10"
             points="41.346,51.298 41.346,51.297 "
             id="polygon6234" />
          <polygon
             fill="#cbb26a"
             stroke="#cbb26a"
             stroke-width="0.5"
             stroke-miterlimit="10"
             points="41.346,51.297 41.346,51.298 "
             id="polygon6236" />
          <polygon
             fill="#cbb26a"
             stroke="#cbb26a"
             stroke-width="0.5"
             stroke-miterlimit="10"
             points=""
             id="polygon6238" />
          <polygon
             fill="#cbb26a"
             stroke="#cbb26a"
             stroke-width="0.5"
             stroke-miterlimit="10"
             points="41.348,51.297 41.346,51.297 "
             id="polygon6240" />
          <polygon
             fill="#cbb26a"
             stroke="#cbb26a"
             stroke-width="0.5"
             stroke-miterlimit="10"
             points="41.346,51.298 41.346,51.297 "
             id="polygon6242" />
          <polygon
             fill="#cbb26a"
             stroke="#cbb26a"
             stroke-width="0.5"
             stroke-miterlimit="10"
             points="41.346,51.297 41.348,51.297 "
             id="polygon6244" />
          <polygon
             fill="#cbb26a"
             stroke="#cbb26a"
             stroke-width="0.5"
             stroke-miterlimit="10"
             points=""
             id="polygon6246" />
          <polygon
             fill="#cbb26a"
             stroke="#cbb26a"
             stroke-width="0.5"
             stroke-miterlimit="10"
             points="41.346,51.299 41.346,51.298 "
             id="polygon6248" />
          <rect
             x="41.346001"
             y="51.299"
             fill="#cbb26a"
             stroke="#cbb26a"
             stroke-width="0.5"
             stroke-miterlimit="10"
             width="0"
             height="0"
             id="rect6250" />
          <rect
             x="41.345001"
             y="51.298"
             fill="#cbb26a"
             stroke="#cbb26a"
             stroke-width="0.5"
             stroke-miterlimit="10"
             width="0.001"
             height="0.001"
             id="rect6252" />
          <polygon
             fill="#cbb26a"
             stroke="#cbb26a"
             stroke-width="0.5"
             stroke-miterlimit="10"
             points=""
             id="polygon6254" />
          <rect
             x="41.348"
             y="51.297001"
             fill="#cbb26a"
             stroke="#cbb26a"
             stroke-width="0.5"
             stroke-miterlimit="10"
             width="0"
             height="0"
             id="rect6256" />
          <polygon
             fill="#cbb26a"
             stroke="#cbb26a"
             stroke-width="0.5"
             stroke-miterlimit="10"
             points=""
             id="polygon6258" />
          <rect
             x="41.346001"
             y="51.299999"
             fill="#cbb26a"
             stroke="#cbb26a"
             stroke-width="0.5"
             stroke-miterlimit="10"
             width="0"
             height="0"
             id="rect6260" />
          <polygon
             fill="#cbb26a"
             stroke="#cbb26a"
             stroke-width="0.5"
             stroke-miterlimit="10"
             points="41.346,51.298 41.346,51.297 "
             id="polygon6262" />
          <polygon
             fill="#cbb26a"
             stroke="#cbb26a"
             stroke-width="0.5"
             stroke-miterlimit="10"
             points=""
             id="polygon6264" />
          <polygon
             fill="#cbb26a"
             stroke="#cbb26a"
             stroke-width="0.5"
             stroke-miterlimit="10"
             points="41.346,51.298 41.346,51.299 "
             id="polygon6266" />
          <polygon
             fill="#cbb26a"
             stroke="#cbb26a"
             stroke-width="0.5"
             stroke-miterlimit="10"
             points="41.346,51.3 41.346,51.299 "
             id="polygon6268" />
        </g>
      </g>
    </g>
    <g
       id="SvgjsG39925"
       featureKey="kZnDdN-0"
       transform="matrix(1.9104576,0,0,1.9104576,82.707451,7.9193439)"
       fill="#cbb26a">
      <path
         d="M 2.86,6 V 20 H 1.2 V 6 Z m 12.289,0 v 1.56 h -3.88 V 20 H 9.609 V 7.56 h -3.9 V 6 Z m 21.198,14 h -1.98 l -4.02,-5.76 -4.02,5.76 h -1.98 l 5,-7.18 L 24.587,6 h 1.98 l 3.76,5.4 3.76,-5.4 h 1.98 l -4.74,6.82 z m 16.338,-7.7 c 1.84,0.42 3.04,1.94 3.04,3.7 0,2.46 -1.6,4 -5.06,4 h -4.72 V 6 h 4.78 c 2.74,0 4.1,1.56 4.1,3.38 0,1.34 -0.76,2.42 -2.14,2.92 z m -2.08,-4.82 h -3 v 4.28 h 3 c 1.6,0 2.58,-0.88 2.58,-2.16 0,-1.32 -0.92,-2.12 -2.58,-2.12 z m 0,11.04 c 2.4,0 3.46,-0.98 3.46,-2.66 0,-1.46 -1.06,-2.72 -3.36,-2.72 h -3.1 v 5.38 z m 9.529,-0.08 h 6.66 V 20 h -7.06 -1.26 V 6 h 1.66 6.48 v 1.56 h -6.48 v 4.64 h 5.04 v 1.52 h -5.04 z M 80.023,20 h -1.8 l -3.54,-5.04 h -0.38 -2.9 V 20 h -1.66 V 6 h 4.56 c 3.14,0 4.96,1.92 4.96,4.52 0,2 -1.08,3.56 -3,4.16 z M 71.403,7.56 v 5.92 h 2.86 c 2.02,0 3.34,-1.04 3.34,-2.96 0,-1.94 -1.32,-2.96 -3.34,-2.96 z m 24.529,5.4 c 0.3,4.48 -2.76,7.24 -6.4,7.24 -3.74,0 -7.16,-2.96 -7.16,-7.2 0,-4.24 3.5,-7.2 7.16,-7.2 1.76,0 3.36,0.6 4.62,1.66 l -1.02,1.16 c -0.98,-0.78 -2.24,-1.24 -3.5,-1.24 -2.86,0 -5.54,2.32 -5.54,5.62 0,3.3 2.6,5.62 5.44,5.62 2.48,0 4.46,-1.34 4.84,-4.22 h -4.08 v -1.44 z m 4.629,5.48 h 6.66 V 20 h -7.06 -1.26 V 6 h 1.66 6.48 v 1.56 h -6.48 v 4.64 h 5.04 v 1.52 h -5.04 z M 119.93,6 h 1.66 v 14 h -1.28 L 111.83,9.04 V 20 h -1.66 V 6 h 1.28 l 8.48,10.98 z"
         id="path6275" />
    </g>
  </g>
</svg>
