<?xml version="1.0" standalone="no"?>
<!DOCTYPE svg PUBLIC "-//W3C//DTD SVG 20010904//EN"
 "http://www.w3.org/TR/2001/REC-SVG-20010904/DTD/svg10.dtd">
<svg version="1.0" xmlns="http://www.w3.org/2000/svg"
 width="562.000000pt" height="562.000000pt" viewBox="0 0 562.000000 562.000000"
 preserveAspectRatio="xMidYMid meet">
<metadata>
Created by potrace 1.14, written by Peter Selinger 2001-2017
</metadata>
<g transform="translate(0.000000,562.000000) scale(0.100000,-0.100000)"
fill="#000000" stroke="none">
<path d="M4313 5469 c-265 -104 -234 -495 43 -554 18 -3 34 -14 36 -23 2 -9 3
-156 3 -326 l0 -308 -63 -20 c-82 -25 -161 -99 -186 -176 -20 -59 -23 -167 -5
-188 6 -8 9 -14 5 -14 -11 0 46 -85 78 -114 82 -76 211 -95 315 -46 33 16 72
42 87 59 15 17 31 31 36 31 5 0 38 -18 74 -40 36 -22 67 -40 69 -40 1 0 52
-29 113 -64 61 -36 131 -76 154 -89 83 -47 273 -159 283 -167 6 -5 9 -28 8
-52 -3 -71 61 -128 139 -123 64 5 118 64 118 132 0 34 -31 86 -64 108 -36 24
-102 22 -137 -4 l-30 -22 -72 42 c-40 23 -92 53 -117 67 -25 14 -57 33 -72 43
-14 11 -29 19 -32 19 -3 0 -27 13 -54 29 -26 15 -68 40 -93 53 -57 33 -203
118 -237 139 -15 9 -25 23 -23 30 20 67 24 131 9 182 l-15 55 76 43 c41 24
100 59 131 77 30 17 78 44 105 58 28 15 52 29 55 33 3 3 23 16 45 28 22 11 56
30 75 42 19 11 58 33 85 49 28 16 68 39 89 51 l40 23 37 -21 c20 -12 52 -21
70 -21 97 0 160 114 109 197 -42 69 -134 83 -197 28 -31 -27 -36 -37 -38 -84
-4 -60 -2 -58 -60 -91 -24 -14 -95 -54 -157 -90 -62 -36 -119 -66 -125 -68 -7
-2 -13 -8 -13 -13 0 -5 -4 -9 -10 -9 -5 0 -64 -32 -132 -72 -68 -39 -143 -82
-166 -95 l-44 -25 -33 36 c-34 38 -125 86 -162 86 l-22 0 1 329 1 329 35 7
c82 15 164 81 204 164 32 66 32 178 -2 244 -51 101 -137 157 -249 164 -50 2
-79 -2 -118 -18z"/>
<path d="M2190 4241 c-75 -24 -144 -83 -177 -151 -83 -171 20 -374 210 -415
l27 -5 0 -195 0 -195 -33 0 c-59 0 -211 -54 -245 -87 -7 -7 -17 -13 -21 -13
-12 0 -105 -92 -126 -124 -9 -14 -21 -26 -25 -26 -6 0 -53 25 -110 60 -29 17
-255 148 -295 170 -70 39 -509 292 -535 308 -14 9 -38 23 -55 32 -65 35 -131
74 -157 91 -14 11 -28 19 -31 19 -4 0 -134 74 -212 121 -16 10 -52 30 -80 44
-67 36 -67 36 -69 94 -1 43 -7 56 -33 82 -43 43 -117 52 -162 19 -60 -42 -76
-107 -43 -170 36 -68 127 -86 192 -40 24 17 29 18 40 5 7 -8 16 -15 21 -15 4
0 32 -14 61 -31 29 -18 78 -45 108 -62 30 -17 79 -45 108 -64 29 -18 54 -33
56 -33 3 0 39 -20 80 -45 42 -25 81 -45 86 -45 6 0 10 -4 10 -10 0 -5 5 -10
10 -10 6 0 27 -11 48 -23 38 -24 96 -57 192 -110 30 -17 66 -38 80 -47 22 -14
75 -45 220 -127 93 -53 267 -154 280 -163 8 -6 22 -13 30 -17 8 -4 42 -23 76
-43 l62 -36 -17 -40 c-25 -55 -42 -131 -45 -200 -3 -77 24 -209 52 -260 9 -16
-2 -26 -80 -71 -50 -29 -91 -53 -93 -53 -1 0 -36 -20 -76 -44 l-73 -44 -38 38
c-59 59 -119 83 -208 83 -57 0 -85 -5 -117 -22 -65 -33 -110 -77 -140 -138
-120 -245 139 -507 383 -388 131 64 193 202 155 344 -7 23 -11 44 -9 46 2 1
74 43 161 93 140 80 187 99 187 72 0 -4 21 -30 48 -57 91 -97 238 -170 345
-172 l37 -1 -2 -197 -3 -196 -24 -4 c-13 -2 -43 -12 -65 -22 -107 -47 -171
-148 -170 -266 0 -38 6 -80 13 -93 13 -25 6 -37 -39 -60 -27 -13 -42 -22 -230
-132 -69 -40 -145 -84 -170 -98 -25 -14 -57 -32 -72 -41 -15 -9 -62 -36 -106
-61 l-79 -46 -27 21 c-37 27 -111 27 -147 0 -47 -35 -61 -78 -51 -151 3 -16
44 -60 70 -73 39 -21 100 -10 139 24 32 27 37 38 41 87 l4 55 62 35 c33 20 78
45 98 56 20 12 55 32 77 46 22 15 43 26 45 26 3 0 181 102 226 130 8 5 44 26
80 46 36 21 75 44 87 51 20 13 25 11 60 -22 42 -41 125 -85 161 -85 l22 0 0
-408 0 -407 -36 -20 c-38 -20 -72 -75 -68 -112 1 -13 2 -31 3 -41 2 -29 59
-81 98 -88 94 -18 163 53 154 158 -2 23 -50 78 -78 89 -12 5 -23 16 -24 26 -3
71 -1 794 2 797 3 3 16 7 29 9 101 19 204 114 225 207 26 114 -9 227 -92 300
-29 25 -98 58 -132 63 -13 2 -26 8 -29 14 -5 9 -7 277 -3 364 1 12 16 18 59
23 132 15 272 98 367 219 l23 30 103 -59 c57 -32 116 -66 130 -74 215 -119
234 -133 235 -168 1 -15 2 -36 3 -47 2 -26 50 -80 79 -89 12 -4 22 -15 23 -24
5 -92 0 -794 -5 -800 -4 -4 -11 -7 -14 -8 -154 -13 -275 -185 -239 -339 5 -22
10 -45 11 -50 4 -23 49 -86 83 -116 180 -158 467 -35 477 204 3 73 -8 118 -46
173 -45 67 -109 111 -190 128 l-28 6 0 410 c0 291 3 410 11 410 6 0 23 9 39
20 l28 20 148 -87 c212 -122 213 -123 274 -156 30 -16 62 -36 71 -43 8 -8 18
-14 21 -14 4 0 41 -20 82 -45 42 -25 81 -45 86 -45 18 0 20 -20 7 -77 -15 -65
-7 -144 19 -194 77 -150 270 -207 408 -122 199 123 189 403 -19 511 -41 21
-64 25 -125 25 -90 0 -152 -24 -205 -79 -41 -42 -33 -43 -154 28 -34 21 -64
38 -66 38 -2 0 -38 20 -79 45 -42 25 -81 45 -86 45 -6 0 -10 5 -10 10 0 6 -4
10 -9 10 -13 0 -135 73 -139 82 -2 5 -9 8 -15 8 -7 0 -50 23 -97 50 l-85 50
-1 44 c-1 77 -50 126 -128 129 -32 1 -54 -5 -74 -20 l-29 -22 -59 36 c-32 20
-72 43 -89 52 -16 9 -96 54 -177 101 l-146 84 19 49 c49 123 55 262 17 372
-14 39 -28 77 -32 86 -5 11 2 20 21 30 15 8 73 41 128 73 55 33 125 73 155 89
30 17 80 45 109 63 l55 32 27 -20 c36 -27 100 -30 138 -7 118 71 67 243 -71
241 -69 -1 -131 -76 -121 -146 4 -28 0 -34 -29 -49 -18 -9 -58 -31 -89 -49
-31 -18 -123 -71 -204 -117 l-148 -85 -19 25 c-51 63 -129 139 -144 139 -3 0
-18 9 -33 19 -37 27 -136 60 -198 68 -39 4 -53 10 -54 22 -1 21 -1 330 0 356
1 14 9 20 27 22 39 2 128 50 161 86 85 94 101 236 39 340 -58 97 -130 140
-241 144 -38 1 -81 -1 -95 -6z"/>
</g>
</svg>
